<svg xmlns="http://www.w3.org/2000/svg" width="24" height="24" viewBox="0 0 24 24" fill="none">
  <path d="M15 12C15 12.7956 14.6839 13.5587 14.1213 14.1213C13.5587 14.6839 12.7956 15 12 15C11.2044 15 10.4413 14.6839 9.87868 14.1213C9.31607 13.5587 9 12.7956 9 12C9 11.2044 9.31607 10.4413 9.87868 9.87868C10.4413 9.31607 11.2044 9 12 9C12.7956 9 13.5587 9.31607 14.1213 9.87868C14.6839 10.4413 15 11.2044 15 12Z" fill="#088B33" fill-opacity="0.1" stroke="#088B33" stroke-width="2" stroke-linecap="round"/>
  <path d="M12 4V5M17.66 6.344L16.832 7.172M20.005 12.004H19.005M17.66 17.664L16.832 16.836M12 20.01V19M6.34 17.664L7.175 16.828M3.995 12.004H5.005M6 6L6.835 6.836" stroke="#088B33" stroke-width="2" stroke-linecap="round"/>
</svg>