<svg xmlns="http://www.w3.org/2000/svg" width="18" height="18" viewBox="0 0 18 18" fill="none">
  <g clip-path="url(#clip0_54_3245)">
    <path d="M9 12C7.3455 12 6 10.6545 6 9.00002C6 7.34552 7.3455 6.00002 9 6.00002C10.6545 6.00002 12 7.34552 12 9.00002C12 10.6545 10.6545 12 9 12ZM9 7.50002C8.17275 7.50002 7.5 8.17277 7.5 9.00002C7.5 9.82727 8.17275 10.5 9 10.5C9.82725 10.5 10.5 9.82727 10.5 9.00002C10.5 8.17277 9.82725 7.50002 9 7.50002ZM3.75 5.25002C3.336 5.25002 3 5.58602 3 6.00002C3 6.41402 3.336 6.75002 3.75 6.75002C4.164 6.75002 4.5 6.41402 4.5 6.00002C4.5 5.58602 4.164 5.25002 3.75 5.25002ZM13.5 7.50002C13.5 7.91402 13.836 8.25002 14.25 8.25002C14.664 8.25002 15 7.91402 15 7.50002C15 7.08602 14.664 6.75002 14.25 6.75002C13.836 6.75002 13.5 7.08602 13.5 7.50002ZM3.75 9.75002C3.336 9.75002 3 10.086 3 10.5C3 10.914 3.336 11.25 3.75 11.25C4.164 11.25 4.5 10.914 4.5 10.5C4.5 10.086 4.164 9.75002 3.75 9.75002ZM13.5 12C13.5 12.414 13.836 12.75 14.25 12.75C14.664 12.75 15 12.414 15 12C15 11.586 14.664 11.25 14.25 11.25C13.836 11.25 13.5 11.586 13.5 12ZM12.7508 15.75C11.5208 15.75 10.1348 15.354 8.7945 14.9708C7.554 14.616 6.27075 14.25 5.25075 14.25C3.2025 14.25 1.089 15.2273 1.06725 15.2363L0 15.7358V5.36852C0 4.52252 0.4635 3.75752 1.21125 3.37127C2.205 2.85902 3.711 2.24927 5.25075 2.24927C6.49725 2.24927 7.70025 2.65052 8.86275 3.03752C9.96 3.40352 10.9965 3.74927 12 3.74927C13.0395 3.74927 13.8878 3.47777 14.5695 3.25952C14.796 3.18677 15.0023 3.12077 15.1905 3.07127C15.864 2.89202 16.5668 3.03527 17.1203 3.46127C17.6798 3.89177 18.0008 4.54352 18.0008 5.24927V14.463L17.5605 14.6625C17.4623 14.7075 15.1358 15.75 12.7508 15.75ZM5.25075 12.75C6.48075 12.75 7.86675 13.146 9.207 13.5293C10.4483 13.884 11.7308 14.25 12.7508 14.25C14.2508 14.25 15.7733 13.7513 16.5008 13.476V5.25002C16.5008 5.01302 16.3928 4.79477 16.2053 4.65077C16.0988 4.56902 15.8738 4.44377 15.5738 4.52252C15.408 4.56677 15.2258 4.62527 15.0263 4.68902C14.2868 4.92527 13.2728 5.25002 12 5.25002C10.7535 5.25002 9.5505 4.84877 8.388 4.46177C7.29075 4.09577 6.25425 3.75002 5.25075 3.75002C3.9465 3.75002 2.5905 4.34852 1.89825 4.70477C1.65225 4.83152 1.49925 5.08577 1.49925 5.36852V13.455C2.42175 13.1348 3.8265 12.75 5.25075 12.75Z" fill="#fff"/>
  </g>
  <defs>
    <clipPath id="clip0_54_3245">
      <rect width="18" height="18" fill="white"/>
    </clipPath>
  </defs>
</svg>