<svg width="18" height="18" viewBox="0 0 18 18" fill="none" xmlns="http://www.w3.org/2000/svg">
<g id="fi-rr-time-forward" opacity="0.5" clip-path="url(#clip0_54_344)">
<path id="Vector" d="M17.25 8.25C17.0511 8.25 16.8604 8.32902 16.7197 8.46967C16.5791 8.61032 16.5 8.80109 16.5 9C16.5061 10.744 15.9063 12.4359 14.8032 13.7866C13.7 15.1373 12.162 16.063 10.452 16.4054C8.74193 16.7477 6.96607 16.4856 5.42793 15.6636C3.88978 14.8417 2.68484 13.5111 2.01906 11.8993C1.35328 10.2874 1.26799 8.4943 1.77777 6.82651C2.28756 5.15871 3.36076 3.71974 4.81395 2.75555C6.26714 1.79136 8.01009 1.36182 9.74489 1.54033C11.4797 1.71884 13.0987 2.49433 14.325 3.73425C14.3004 3.74098 14.2753 3.74624 14.25 3.75H12C11.8011 3.75 11.6104 3.82902 11.4697 3.96967C11.3291 4.11032 11.25 4.30109 11.25 4.5C11.25 4.69891 11.3291 4.88968 11.4697 5.03033C11.6104 5.17098 11.8011 5.25 12 5.25H14.25C14.8468 5.25 15.4191 5.01295 15.841 4.59099C16.263 4.16903 16.5 3.59674 16.5 3V0.75C16.5 0.551088 16.421 0.360322 16.2804 0.21967C16.1397 0.0790177 15.9489 0 15.75 0C15.5511 0 15.3604 0.0790177 15.2197 0.21967C15.0791 0.360322 15 0.551088 15 0.75V2.29875C13.4644 0.925898 11.5042 0.121625 9.44693 0.020327C7.38962 -0.0809709 5.35987 0.526843 3.69685 1.7422C2.03382 2.95756 0.838263 4.70684 0.309955 6.69773C-0.218352 8.68862 -0.0474056 10.8005 0.794229 12.6805C1.63586 14.5605 3.0972 16.0947 4.93405 17.0268C6.7709 17.9589 8.87198 18.2323 10.8862 17.8014C12.9004 17.3706 14.7058 16.2615 16.0006 14.6595C17.2954 13.0576 18.0012 11.0598 18 9C18 8.80109 17.921 8.61032 17.7804 8.46967C17.6397 8.32902 17.4489 8.25 17.25 8.25Z" fill="#04111E"/>
<path id="Vector_2" d="M9.00012 4.5C8.80121 4.5 8.61044 4.57902 8.46979 4.71967C8.32914 4.86032 8.25012 5.05109 8.25012 5.25V9C8.25016 9.1989 8.32921 9.38963 8.46987 9.53025L10.7199 11.7803C10.8613 11.9169 11.0508 11.9925 11.2474 11.9908C11.4441 11.989 11.6322 11.9102 11.7712 11.7711C11.9103 11.6321 11.9892 11.4439 11.9909 11.2473C11.9926 11.0507 11.917 10.8612 11.7804 10.7198L9.75012 8.6895V5.25C9.75012 5.05109 9.6711 4.86032 9.53045 4.71967C9.3898 4.57902 9.19903 4.5 9.00012 4.5Z" fill="#04111E"/>
</g>
<defs>
<clipPath id="clip0_54_344">
<rect width="18" height="18" fill="white"/>
</clipPath>
</defs>
</svg>
