<svg xmlns="http://www.w3.org/2000/svg" width="24" height="24" viewBox="0 0 24 24" fill="none">
  <path d="M22.4602 6C21.6902 6.35 20.8602 6.58 20.0002 6.69C20.8802 6.16 21.5602 5.32 21.8802 4.31C21.0502 4.81 20.1302 5.16 19.1602 5.36C18.3702 4.5 17.2602 4 16.0002 4C13.6502 4 11.7302 5.92 11.7302 8.29C11.7302 8.63 11.7702 8.96 11.8402 9.27C8.28022 9.09 5.11022 7.38 3.00022 4.79C2.63022 5.42 2.42022 6.16 2.42022 6.94C2.42022 8.43 3.17022 9.75 4.33022 10.5C3.62022 10.5 2.96022 10.3 2.38022 10V10.03C2.38022 12.11 3.86022 13.85 5.82022 14.24C5.19095 14.4122 4.53032 14.4362 3.89022 14.31C4.16183 15.1625 4.69376 15.9084 5.41124 16.4429C6.12872 16.9775 6.99567 17.2737 7.89022 17.29C6.37385 18.4904 4.49422 19.1393 2.56022 19.13C2.22022 19.13 1.88022 19.11 1.54022 19.07C3.44022 20.29 5.70022 21 8.12022 21C16.0002 21 20.3302 14.46 20.3302 8.79C20.3302 8.6 20.3302 8.42 20.3202 8.23C21.1602 7.63 21.8802 6.87 22.4602 6Z" fill="#ffffff79"/>
</svg>