<svg width="330" height="297" viewBox="0 0 330 297" fill="none" xmlns="http://www.w3.org/2000/svg">
<g opacity="0.1">
<path fill-rule="evenodd" clip-rule="evenodd" d="M253.812 25.7321C250.257 18.9086 244.134 13.7755 236.794 11.4645C229.455 9.15357 221.496 9.85281 214.672 13.4083L25.732 111.86C18.9086 115.415 13.7754 121.538 11.4644 128.878C9.15349 136.217 9.85273 144.177 13.4082 151L75.98 271.083C79.5355 277.906 85.6584 283.039 92.998 285.35C100.338 287.661 108.297 286.962 115.12 283.406L304.06 184.955C310.884 181.399 316.017 175.277 318.328 167.937C320.639 160.597 319.94 152.638 316.384 145.815L253.812 25.7321ZM236.658 34.6709L299.229 154.754C300.415 157.029 300.649 159.682 299.879 162.128C299.108 164.575 297.397 166.615 295.122 167.8L106.181 266.252C103.906 267.437 101.253 267.671 98.8069 266.901C96.3604 266.131 94.3203 264.419 93.1347 262.144L30.5629 142.061C29.3773 139.786 29.1433 137.133 29.9136 134.687C30.6839 132.24 32.3954 130.2 34.6708 129.014L223.611 30.563C225.886 29.3773 228.539 29.1434 230.985 29.9137C233.432 30.684 235.472 32.3955 236.658 34.6709Z" fill="#0066EC"/>
<path fill-rule="evenodd" clip-rule="evenodd" d="M25.6864 136.125C25.6864 136.125 116.442 162.498 155.722 173.911C170.628 178.244 186.306 170.075 191.294 155.376C204.444 116.642 234.825 27.1486 234.825 27.1486C236.54 22.0948 233.829 16.5973 228.774 14.8794C223.72 13.1643 218.223 15.8753 216.505 20.9305C216.505 20.9305 186.125 110.427 172.978 149.159C171.316 154.06 166.09 156.783 161.121 155.337L31.0862 117.547C25.9587 116.059 20.587 119.011 19.0973 124.136C17.6091 129.264 20.5617 134.635 25.6864 136.125Z" fill="#0066EC"/>
<path fill-rule="evenodd" clip-rule="evenodd" d="M119.41 159.72L87.7115 270.201C86.2385 275.331 89.2103 280.693 94.3431 282.165C99.4731 283.638 104.835 280.666 106.308 275.536L138.004 165.051C139.477 159.921 136.506 154.56 131.373 153.088C126.243 151.615 120.881 154.587 119.41 159.72Z" fill="#0066EC"/>
<path fill-rule="evenodd" clip-rule="evenodd" d="M189.897 138.012L302.793 176.769C307.841 178.5 313.349 175.809 315.081 170.76C316.815 165.71 314.125 160.205 309.075 158.471L196.177 119.718C191.127 117.984 185.623 120.674 183.888 125.724C182.156 130.773 184.848 136.28 189.897 138.012Z" fill="#0066EC"/>
</g>
</svg>
