<svg xmlns="http://www.w3.org/2000/svg" width="255" height="255" viewBox="0 0 255 255" fill="none">
  <g opacity="0.1">
    <path d="M81.0496 254.851C54.9052 254.851 32.4373 247.836 19.7631 235.161C-13.7595 201.639 -5.55856 108.387 51.4473 51.3716C78.3616 24.4528 114.301 6.73703 152.629 1.48574C187.543 -3.30217 219.22 3.66997 235.237 19.6873C268.76 53.2099 260.559 146.461 203.552 203.477C176.638 230.396 140.699 248.112 102.37 253.363C95.0889 254.36 87.9375 254.851 81.0496 254.851ZM174.099 17.919C167.972 17.919 161.583 18.3519 155.062 19.2446C135.098 21.98 96.7344 31.4375 64.1216 64.045C12.5678 115.602 7.99046 198.04 32.4364 222.486C44.3927 234.429 70.8786 239.575 99.9377 235.602C119.902 232.867 158.266 223.409 190.878 190.802C242.432 139.244 247.01 56.8066 222.564 32.3607C213.294 23.0968 195.281 17.919 174.099 17.919Z" fill="#0066EC"/>
    <path d="M240.331 112.273C238.747 112.273 237.145 111.858 235.692 110.974C217.89 100.182 200.681 86.5279 184.542 70.3832C168.419 54.2646 154.756 37.0525 143.947 19.2273C141.382 14.9951 142.739 9.48122 146.966 6.91697C151.203 4.36079 156.717 5.70431 159.281 9.93205C169.338 26.532 182.108 42.6058 197.215 57.7045C212.34 72.8337 228.41 85.5993 244.988 95.6475C249.215 98.2117 250.571 103.722 248.007 107.958C246.318 110.737 243.36 112.273 240.331 112.273Z" fill="#0066EC"/>
    <path d="M103.395 249.226C100.367 249.226 97.4079 247.69 95.7193 244.912C85.6542 228.312 72.8921 212.242 57.7853 197.144C42.6606 182.015 26.5904 169.249 10.0129 159.201C5.78513 156.637 4.42906 151.126 6.99331 146.89C9.56652 142.658 15.0804 141.298 19.3082 143.875C37.1109 154.667 54.3194 168.321 70.4587 184.466C86.5809 200.58 100.236 217.792 111.054 235.616C113.618 239.849 112.27 245.363 108.034 247.927C106.581 248.807 104.98 249.226 103.395 249.226Z" fill="#0066EC"/>
    <path d="M165.52 123.713C163.227 123.713 160.934 122.837 159.183 121.087L133.836 95.7345C130.335 92.2336 130.335 86.5575 133.836 83.0602C137.337 79.5594 143.008 79.5594 146.51 83.0602L171.858 108.412C175.359 111.913 175.359 117.589 171.858 121.087C170.106 122.838 167.813 123.713 165.52 123.713Z" fill="#0066EC"/>
    <path d="M146.51 155.398C144.216 155.398 141.924 154.522 140.173 152.772L102.152 114.75C98.6507 111.249 98.6507 105.578 102.152 102.076C105.652 98.5742 111.324 98.5751 114.826 102.076L152.848 140.098C156.348 143.599 156.348 149.27 152.848 152.772C151.096 154.522 148.804 155.398 146.51 155.398Z" fill="#0066EC"/>
    <path d="M114.825 174.413C112.531 174.413 110.239 173.538 108.488 171.787L83.1405 146.435C79.6397 142.934 79.6397 137.258 83.1405 133.761C86.6414 130.26 92.313 130.26 95.8148 133.761L121.162 159.113C124.663 162.614 124.663 168.29 121.162 171.787C119.412 173.538 117.118 174.413 114.825 174.413Z" fill="#0066EC"/>
    <path d="M89.4772 174.413C87.1836 174.413 84.891 173.538 83.1405 171.787C79.6397 168.286 79.6397 162.615 83.1405 159.113L159.184 83.0602C162.685 79.5594 168.357 79.5594 171.859 83.0602C175.36 86.5611 175.359 92.2327 171.859 95.7345L95.8148 171.787C94.0635 173.538 91.7708 174.413 89.4772 174.413Z" fill="#0066EC"/>
  </g>
</svg>