<?xml version="1.0" encoding="UTF-8"?><svg id="Layer_23" xmlns="http://www.w3.org/2000/svg" viewBox="0 0 380 129"><defs><style>.cls-1{fill:#f7760d;}.cls-1,.cls-2,.cls-3,.cls-4{stroke-width:0px;}.cls-2{fill:#010101;}.cls-4{fill:#61b510;}</style></defs><path class="cls-2" d="m107.61,18.74s.13.32.33.87c-.05-.31-.12-.62-.19-.93-.05.02-.09.04-.14.06"/><path class="cls-2" d="m107.61,18.74s.13.32.33.87c-.05-.31-.12-.62-.19-.93-.05.02-.09.04-.14.06"/><path class="cls-2" d="m107.61,18.74s.13.32.33.87c-.05-.31-.12-.62-.19-.93-.05.02-.09.04-.14.06"/><path class="cls-4" d="m274.1,49.37h-36.12c.76.27,1.46.71,2.03,1.29.57.57,1.05,1.23,1.42,1.94.38.73.66,1.49.85,2.29.14.58.23,1.18.27,1.77v20.41c-.15,1.44-.61,2.84-1.36,4.08-.39.65-.86,1.25-1.39,1.79-.53.53-1.14.98-1.81,1.33h21.42c-.84-.2-1.62-.6-2.27-1.18-.6-.54-1.1-1.18-1.48-1.9-.39-.73-.66-1.52-.81-2.34-.16-.83-.24-1.68-.24-2.53v-7.85c1.22,0,2.37.04,3.45.11,1,.06,1.98.29,2.9.68.87.39,1.64.99,2.22,1.74.71.99,1.2,2.12,1.42,3.32v-15.97c-.45,1.11-1.06,2.16-1.79,3.12-.56.7-1.27,1.27-2.07,1.66-.83.38-1.73.6-2.64.66-.99.07-2.15.11-3.49.11v-9.6l6.54.04c1.02,0,2.07.04,3.16.13,1.07.09,2.14.26,3.19.53,1.03.26,2.03.64,2.97,1.13.94.49,1.78,1.16,2.46,1.96.26.29.49.61.7.94.22.33.38.69.48,1.07v-10.73Z"/><path class="cls-4" d="m277.54,49.37v13.22c.19-1.38.74-2.69,1.61-3.78.83-1.02,1.86-1.87,3.03-2.48,1.2-.63,2.5-1.07,3.84-1.29,1.35-.23,2.72-.29,4.08-.17v22.65c-.06.58-.17,1.14-.35,1.7-.25.8-.64,1.55-1.13,2.22-.49.67-1.09,1.26-1.76,1.75-.69.5-1.47.87-2.29,1.09h22.9c-.91-.16-1.78-.52-2.53-1.07-.72-.53-1.34-1.19-1.83-1.94-.5-.76-.87-1.59-1.11-2.47-.25-.87-.37-1.78-.37-2.68v-21.24h1.13c.95.02,1.9.12,2.84.28,1.2.2,2.38.55,3.49,1.05,1.2.54,2.29,1.32,3.18,2.29,1.01,1.11,1.67,2.49,1.92,3.97v-13.09h-36.64Z"/><path class="cls-4" d="m216.43,82.48c-.55.5-1.18.92-1.85,1.24-.61.28-1,.46-1.18.54h24.65c-.41-.09-.8-.23-1.16-.43-.35-.2-.7-.42-1.02-.66-.87-.62-1.67-1.34-2.36-2.16-.65-.79-1.22-1.63-1.7-2.53-.51-.96-.96-1.95-1.33-2.97l-1.79-5.32-2.42-7.18-4.67-13.66h-20.46c.65.16,1.27.4,1.86.72.52.31,1,.69,1.42,1.13.49.52.83,1.16,1,1.86.14.63.14,1.29,0,1.92-.14.64-.33,1.27-.57,1.87-.58,1.51-1.03,2.71-1.33,3.6-.09.27-.19.52-.29.77l-3.7,9.55c-.2.55-.51,1.37-.92,2.44-.41,1.08-.87,2.2-1.37,3.36-.51,1.16-1.05,2.25-1.61,3.27-.41.81-.95,1.54-1.59,2.18-.49.4-1,.78-1.53,1.13-.52.35-.94.61-1.24.78-.17.09-.34.19-.5.31h18.41c-1.31-.27-2.47-1-3.29-2.05-.79-1.08-1.22-2.37-1.24-3.71.02-.41.09-.82.2-1.22.13-.52.29-1.05.48-1.59.19-.54.38-1.05.59-1.55.2-.49.35-.87.43-1.13h10.34c.09.23.2.56.35.98.14.42.3.85.46,1.29.16.44.31.86.44,1.27.13.41.22.71.28.91.28.98.2,2.03-.22,2.97-.38.78-.9,1.47-1.55,2.05m-8.96-13.61l3.66-11.34,3.84,11.34h-7.5Z"/><path class="cls-4" d="m179.7,66.87c.89-.41,1.71-.95,2.43-1.61l.23-.23c.34-.33.65-.69.94-1.06.04-.05.08-.1.12-.15,1.45-1.76,2.15-4.02,1.95-6.29h0c-.06-.99-.31-1.96-.75-2.86-.27-.54-.58-1.06-.94-1.55-.58-.82-1.34-1.49-2.22-1.96-.91-.5-1.88-.88-2.88-1.13-1.02-.26-2.07-.44-3.12-.52-1.06-.09-2.05-.13-2.95-.13h-23.99c.81.2,1.57.57,2.25,1.07.65.56,1.18,1.25,1.55,2.03.52,1.14.77,2.37.74,3.62.03.76.04,1.53.04,2.31v17.88c0,.79-.1,1.57-.28,2.34-.19.79-.46,1.56-.83,2.29-.36.72-.83,1.38-1.4,1.96-.57.58-1.24,1.06-1.98,1.4h20.72c-.45-.17-.9-.36-1.33-.57-.51-.25-.98-.59-1.37-1-.48-.51-.88-1.1-1.16-1.75-.38-.9-.61-1.86-.67-2.84-.15-1.6-.21-3.2-.18-4.8.03-1.63.04-3.23.04-4.8h1.4c.64,0,1.26,0,1.87,0,5.46,12.76,7.37,15.76,12.8,15.76h11.97c-4.1,0-9.33-9.59-12.98-17.4m-15.79-3.1v-9.25c1.08,0,2.14-.02,3.21-.07.96-.05,1.93.05,2.86.31.82.23,1.54.72,2.05,1.4.59.94.87,2.05.78,3.16.08,1.04-.22,2.08-.85,2.92-.57.64-1.32,1.09-2.16,1.29-.94.22-1.91.32-2.88.28-1.05-.03-2.05-.04-3.01-.04"/><path class="cls-1" d="m155.31,8.83c-3.13,1.43-5.21,4.48-5.39,7.91h0c-2.55-1.8-5.83-2.19-8.73-1.04.12.39.26.76.42,1.13,1.1,2.41,3.17,4.23,5.71,5-1.39,2.16-3.22,3.99-5.37,5.38-.94.6-2.01.96-3.12,1.03-2.86.34-5.64-1.1-7.01-3.64-1.75,3.13-5.57,4.44-8.87,3.04-.42-.25-.84-.51-1.24-.79-3.42-2.38-5.91-5.87-7.05-9.87.05,0,.1,0,.16-.01,2.87-.32,5.43-1.97,6.91-4.45.16-.26.3-.54.43-.82-2.33-1.73-5.34-2.26-8.13-1.43-.28.08-.56.18-.84.3.1-3.24-2.34-8.12-5.32-9.89-.38-.22-.77-.41-1.17-.59l-.26-.11-.18.23c-.23.3-.45.62-.65.95-1.76,2.99-1.27,8.37.37,11.16-.29.03-.59.08-.88.15-2.52.55-4.7,2.12-6,4.35-.16.27-.3.54-.43.82.25.18.51.35.77.51,2.49,1.47,5.52,1.68,8.2.57.05-.02.1-.04.14-.06.86,3.73.5,7.63-1.01,11.14,0-.02,0-.03-.01-.05-.02.09-.06.18-.08.27-.1.23-.21.45-.32.68-.27.54-.56,1.07-.88,1.58-2.24,2.82-6.24,3.48-9.28,1.55-.01,2.88-1.78,5.47-4.46,6.52-.62.25-1.28.4-1.95.46-2.9-.05-5.75-.79-8.31-2.17,1.85-1.9,2.79-4.49,2.59-7.13-.03-.41-.09-1.16-.17-1.55-3.19.4-5.82,3.24-7.15,4.77h0c-1.76-1.53-5-4.25-8.54-3.98-.82.13-1.61.37-2.37.71,3.96,2.97,7.72,6.18,11.28,9.62,2.5,2.39,4.9,4.95,7.19,7.56,3.18,3.64,8.62,10.99,8.62,10.99,1.42,1.32,3.3,2.02,5.23,1.96.24-.04.43-.24.44-.49.02-.19-.31-.31-.48-.38-1.31-.47-2.3-1.57-2.63-2.92-1.02-3.21,8.57-9,22.59-12.56,14.02-3.56,25.29-3.12,25.94.18.36,1.35.02,2.79-.9,3.83-.11.15-.35.41-.23.57.13.21.39.3.62.22,1.72-.88,3.03-2.4,3.64-4.23,0,0,1.51-9.11,2.54-13.84.75-3.4,1.64-6.75,2.68-10.05,1.48-4.7,3.24-9.31,5.29-13.79-.8.12-1.59.35-2.33.67"/><path class="cls-4" d="m105.77,52.36c7.57-3.24,15.55-5.43,23.71-6.53,0,0,15.92,1.57,15.92,20.25s-13.29,29.35-31.39,29.35-27.63-7.97-27.63-16.47,6.11-9.85,8.95-9.85,7.97,2.56,7.97,9.22c0,0-5.11-1.26-5.11,3.17s6.04,7.18,14.33,7.18,19.99-3.63,19.99-19.81c0-17.26-7.99-18.03-13.54-18.03v29.61c.1,1.52,1.39,2.67,2.9,2.6,0,0-2.92,2.46-10.15,2.46s-9.29-2.32-9.29-2.32c0,0,3.42.01,3.42-3s-.09-27.84-.09-27.84"/><path class="cls-3" d="m306.16,114.24c-.22-.66-.51-1.3-.86-1.91-.59-1.04-1.41-1.94-2.4-2.62h0c-.12-.09-.24-.18-.36-.26l-.02-.02c-.54-.38-1.09-.72-1.67-1.02-4.11-2.19-8.33-2.2-11.71-2.99-.54-.12-1.06-.28-1.58-.47-.19-.07-.38-.15-.56-.23-.72-.32-1.39-.74-1.99-1.24-.53-.46-.91-1.07-1.09-1.74-.19-.55-.12-1.16.17-1.66.45-.68,1.03-1.25,1.72-1.68.74-.46,1.54-.81,2.38-1.02.9-.24,1.84-.35,2.77-.33.97.01,1.93.15,2.86.42,1.07.27,2.11.62,3.12,1.05.72.32,1.41.73,2.03,1.22.3.25.59.51.87.79.29.29.6.59.92.92.32.32.68.67,1.07,1.07.39.39.88.86,1.46,1.42v-12.78s-.98,2.44-4.86,2.44c-1.09-.03-2.17-.12-3.25-.26-1.11-.18-2.22-.36-3.36-.55-1.25-.2-2.52-.28-3.79-.24-1.75,0-3.49.23-5.17.7-1.6.43-3.12,1.15-4.47,2.11-2.82,1.99-4.44,5.26-4.32,8.7-.07,1.53.28,3.06,1.03,4.4.54.9,1.21,1.71,1.99,2.41h.01s.05.05.08.08c.09.07.17.15.26.22.14.12.28.23.42.34,2.83,2.17,6.82,3.22,11.43,4.28.09.02.17.04.26.06h.03c.47.11.95.23,1.42.37.88.24,1.73.58,2.53,1,.65.33,1.23.79,1.7,1.35.4.46.53,1.1.35,1.68-.21,1-.85,1.86-1.74,2.35-.91.48-1.92.74-2.95.78-1.12.06-2.24-.03-3.34-.26-.99-.2-1.97-.46-2.92-.79-1.89-.69-3.69-1.6-5.37-2.7-1.12-.76-2.17-1.61-3.16-2.53-1.05-.99-1.98-2.1-2.77-3.31v15.24c1.65-.95,3.5-1.51,5.4-1.62,0,0,0,.01.02.02.61-.1,1.23-.16,1.85-.17.95-.02,1.9.06,2.84.22.95.16,1.89.37,2.81.63,1,.26,2.01.45,3.03.57,1.02.12,2.05.18,3.08.18,1.74,0,3.47-.2,5.17-.59,1.66-.36,3.25-1.03,4.67-1.96,1.39-.92,2.54-2.14,3.38-3.58.92-1.66,1.36-3.54,1.27-5.43-.12-1.02-.34-2.03-.66-3.01"/><path class="cls-3" d="m225.54,100.54c0-.55.03-1.15.09-1.79.06-.63.17-1.26.35-1.87.17-.59.41-1.17.72-1.7.31-.52.72-.98,1.2-1.35.51-.39,1.11-.65,1.75-.74h-16.01c.88.05,1.73.37,2.42.92.63.53,1.14,1.19,1.48,1.94.37.79.62,1.64.74,2.51.13.84.19,1.68.2,2.53v15.62l-15.01-23.51h-18.15c.88.01,1.72.33,2.4.89.61.54,1.09,1.22,1.4,1.99.33.81.55,1.66.66,2.53.11.82.17,1.66.17,2.49,0,.35,0,.87.02,1.55v16.54c0,.73-.03,1.47-.07,2.2-.03.55-.07,1.12-.13,1.7-.05.57-.17,1.13-.35,1.68-.17.54-.42,1.04-.74,1.51-.33.48-.77.88-1.27,1.18-.13.08-.26.14-.39.2-.17.07-.36.14-.54.19-.19.06-.36.12-.5.17-.08.04-.17.07-.26.09h15.66c-.43-.23-.8-.44-1.11-.63-.32-.2-.62-.42-.92-.65-.28-.22-.53-.46-.76-.72-.68-.83-1.13-1.82-1.31-2.88-.2-1.05-.3-2.11-.31-3.18v-15.37l14.77,23.44h17.91c-.64-.09-1.24-.35-1.75-.74-.48-.37-.89-.83-1.2-1.35-.31-.53-.55-1.11-.72-1.7-.18-.61-.29-1.24-.35-1.88-.06-.64-.09-1.24-.09-1.79v-19.98h0Z"/><path class="cls-3" d="m177.7,114.1v-13.84c.03-.62.09-1.25.2-1.86.13-.78.38-1.54.74-2.25.36-.69.85-1.31,1.44-1.81.68-.56,1.47-.99,2.31-1.27h-20.85c.86.23,1.65.66,2.31,1.24.68.68,1.22,1.49,1.59,2.38.54,1.36.78,2.81.72,4.27v18.32c0,.58-.02,1.28-.04,2.1.02,1.16-.23,2.3-.74,3.34-.39.76-.91,1.44-1.55,2.01-.1.09-.23.17-.34.26-5.11-2.08-10.44-7.22-14.38-13.38-2.32-3.63-4.94-8.43-7.13-12.62,2.05-2.57,4.02-4.96,5.6-6.78,3.11-3,7-5.06,11.23-5.94h-17.02s1.56,2.24-.69,4.96l-11.28,13.64v-11.2c-.12.05-.24.11-.36.16-.49.2-.99.39-1.5.56-1.56.54-3.15.97-4.77,1.3-.55.11-1.13.22-1.71.31-1.21.22-2.44.38-3.67.46v20.43l-.07,1.57c-.04.42-.09.84-.15,1.28-.14.96-.41,1.9-.8,2.79-.37.85-.91,1.62-1.6,2.25-.75.66-1.68,1.08-2.67,1.2h21.84c-.9-.18-1.7-.65-2.3-1.35-.62-.74-1.1-1.6-1.4-2.52-.35-1.05-.58-2.14-.7-3.24-.13-1.18-.21-2.34-.22-3.47,0-.21,0-.42,0-.63.87-1.15,2.21-2.92,3.82-5.01.86,1.45,1.78,2.96,2.73,4.46,4.51,7.14,8.12,11.77,13.84,11.77s32.18-.01,32.18-.01c-.85-.34-1.64-.84-2.31-1.46-.67-.7-1.21-1.51-1.59-2.4-.45-1.07-.69-2.21-.71-3.38v-6.64h0Z"/><path class="cls-3" d="m253.9,110.66c.55.54.95,1.22,1.14,1.96.2.82.29,1.66.25,2.51-.03.92-.03,1.84,0,2.77,0,.47.01,1.01.04,1.64.03.61-.05,1.21-.25,1.79-.22.59-.61,1.09-1.14,1.44-.78.45-1.68.65-2.57.59-1.14.05-2.27-.25-3.23-.87-.82-.58-1.49-1.34-1.96-2.22-.47-.9-.81-1.86-1.01-2.85v.02c-1.05-4.5-1.09-9.17-.11-13.68.21-1,.58-1.95,1.09-2.84.49-.85,1.17-1.58,1.98-2.14.91-.59,1.97-.92,3.05-.94.55-.03,1.1.01,1.64.11.58.1,1.12.21,1.64.33,2.59.56,5.06,1.57,7.3,2.99,2.52,1.65,4.56,3.32,5.44,5.74v-15.82c-.48,1.48-1.57,2.68-3,3.3-.43.15-.88.26-1.33.33-.1.01-.21.02-.32.03-.07,0-.14,0-.21,0-.86,0-1.72-.08-2.57-.21-.93-.14-1.84-.36-2.73-.66-.91-.31-1.78-.56-2.59-.76-.82-.2-1.66-.35-2.5-.44-.86-.09-1.73-.13-2.6-.13-1.76,0-3.52.19-5.23.59-1.64.38-3.21.98-4.69,1.79-1.45.8-2.77,1.81-3.91,3.01-.92.97-1.71,2.05-2.35,3.23l-.02.04c-1.99,4.67-2.54,9.83-1.6,14.82.24,1,.56,1.99.96,2.94.2.48.42.95.67,1.4.91,1.73,2.14,3.26,3.64,4.52,1.52,1.25,3.26,2.19,5.14,2.77,2.13.65,4.35.94,6.57.85,1.01-.03,2.01-.18,2.98-.43,1.02-.26,2.04-.56,3.07-.87,1.03-.32,2.07-.62,3.12-.92,1-.28,2.03-.45,3.07-.5,1-.04,2,.08,2.96.35,1.03.31,1.98.86,2.77,1.59v-10.56c0-.77.07-1.55.18-2.31.11-.79.33-1.56.63-2.29.3-.71.73-1.35,1.28-1.9.57-.57,1.28-.99,2.05-1.22h-19.48c1,.09,1.94.49,2.71,1.13"/></svg>