<?xml version="1.0" encoding="UTF-8"?><svg id="Layer_23" xmlns="http://www.w3.org/2000/svg" viewBox="0 0 380 129"><defs><style>.cls-1{fill:#fdb61b;}.cls-1,.cls-2{stroke-width:0px;}.cls-2{fill:#1b345c;}</style></defs><path class="cls-2" d="m55.52,115.93c1.19.66,2.11,1.45,2.76,2.33.65.9.97,1.99.97,3.25,0,.99-.22,1.91-.61,2.76-.43.85-1.02,1.57-1.82,2.18s-1.74,1.09-2.86,1.45c-1.12.34-2.38.53-3.83.53h-21.03v-24.11h20.36c1.36,0,2.69.26,3.88.77,1.22.53,2.21,1.22,3.01,2.11,1.09,1.19,1.63,2.55,1.63,4.1,0,.99-.2,1.89-.6,2.6-.39.78-1.02,1.45-1.87,2.04Zm-4.17-2.87c.48-.48.71-1.04.71-1.77s-.26-1.26-.75-1.72c-.49-.44-1.12-.66-1.89-.66h-14.46v4.85h14.7c.65,0,1.21-.22,1.68-.7Zm1.02,10.1c.61-.44.92-1.09.92-1.94s-.32-1.55-.94-2.09-1.5-.8-2.6-.8h-14.8v5.49h14.7c1.21.03,2.13-.2,2.72-.66Z"/><path class="cls-2" d="m71.26,128.46v-24.11h26.15v4.59h-20.3v4.98h14.1v4.59h-14.1v5.34h21.23v4.59h-27.08Z"/><path class="cls-2" d="m123.13,108.94v19.51h-5.87v-19.51h-11.5v-4.59h28.85v4.59h-11.48Z"/><path class="cls-2" d="m166.56,128.4l-5.94-8.52h-11.11v8.52h-5.87v-24.11h19.77c1.36,0,2.64.2,3.74.58,1.12.37,2.09.92,2.86,1.62.8.7,1.39,1.55,1.84,2.5.43.97.65,2.04.65,3.2,0,3.84-1.84,6.26-5.49,7.28l6.14,8.97h-6.6v-.03h.02Zm-.87-14c.66-.58,1.02-1.39,1.02-2.38,0-.94-.34-1.68-1.04-2.28-.7-.58-1.67-.87-2.93-.87h-13.24v6.41h13.27c1.28,0,2.25-.29,2.91-.88Z"/><path class="cls-2" d="m183.74,128.4v-24.11h5.87v24.11s-5.87,0-5.87,0Z"/><path class="cls-2" d="m217.93,128.4h-5.46l-14.26-24.11h6.55l10.43,17.66,10.43-17.66h6.55l-14.24,24.11Z"/><path class="cls-2" d="m240.24,128.4v-24.11h26.15v4.59h-20.3v4.98h14.1v4.59h-14.1v5.34h21.23v4.59s-27.08,0-27.08,0Z"/><path class="cls-2" d="m300.93,128.4l-5.94-8.52h-11.09v8.52h-5.87v-24.11h19.77c1.36,0,2.64.2,3.74.58,1.12.37,2.09.92,2.86,1.62.8.7,1.39,1.55,1.84,2.5.43.97.65,2.04.65,3.2,0,3.84-1.84,6.26-5.49,7.28l6.14,8.97h-6.6v-.03Zm-.87-14c.66-.58,1.02-1.39,1.02-2.38,0-.94-.34-1.68-1.04-2.28-.7-.58-1.67-.87-2.93-.87h-13.24v6.41h13.27c1.28,0,2.25-.29,2.91-.88Z"/><path class="cls-2" d="m336.2,109.05c-1.74-.43-3.56-.65-5.44-.65-2.53,0-4.44.22-5.72.7-1.26.44-1.91,1.07-1.91,1.84,0,.82.7,1.39,2.11,1.74.58.12,1.19.22,1.85.31.66.07,1.39.12,2.16.15.77.02,1.57.07,2.43.1.85.02,1.74.1,2.69.17,1.89.17,3.52.43,4.93.77,1.39.32,2.55.8,3.5,1.34.94.58,1.63,1.26,2.09,2.11.46.85.7,1.85.7,3.03,0,2.64-1.19,4.66-3.57,6.14-2.38,1.46-5.89,2.21-10.5,2.21-3.03,0-5.82-.34-8.37-1.07-2.55-.71-4.98-1.85-7.3-3.47l3.2-3.93c2.09,1.26,4.17,2.21,6.23,2.81,2.06.61,4.22.92,6.5.92,2.43,0,4.32-.32,5.63-.94,1.31-.61,1.96-1.45,1.96-2.43,0-.53-.2-.94-.58-1.24-.37-.31-.92-.53-1.63-.66-.71-.15-1.58-.26-2.6-.31-1.02-.05-2.18-.1-3.47-.17-2.36-.1-4.42-.27-6.16-.58-1.77-.31-3.2-.75-4.37-1.29-1.17-.58-2.04-1.26-2.6-2.14-.58-.85-.87-1.89-.87-3.08,0-2.38,1.14-4.27,3.42-5.63,2.28-1.39,5.63-2.09,10.04-2.09,5.89,0,10.63,1.17,14.2,3.52l-3.33,3.88c-1.75-.94-3.49-1.63-5.22-2.04Z"/><path class="cls-1" d="m162.93,58.38c-6.97-2.06-13.13-4.22-16.47-6.86h0c-1.09-.9-2.14-2.01-2.18-3.71h0c-.02-1.31.85-2.48,1.84-3.18h0c1.02-.75,2.23-1.24,3.78-1.72h0c5.87-1.74,12.15-2.69,17.59-3.9h0c5.46-1.22,9.95-2.76,12.42-5.14h0c1.62-1.58,2.6-3.47,2.65-6.53h0v-.1h0c0-2.06-1.29-4.05-4.47-6.14h0c-3.13-2.06-7.98-3.95-13.95-5.56h0c-11.98-3.23-28.51-5.41-45.91-6.8h0c-34.79-2.81-73-2.69-86.64-2.81h-.07c-.31,0-.58-.05-.82-.15h0s-.02,0-.05-.02h-.09s-.02,0-.02-.02h-.03s-.02,0-.02-.02h-.02s-.02-.02-.05-.02h0c-.7-.34-1.19-.99-1.26-1.77h0c-.1-1.22.9-2.28,2.26-2.38h0c14.31-1.02,31.23-1.57,49.2-1.57h0c46.6,0,99.82,3.57,131.42,11.87h0c10.55,2.81,18.73,6.04,23.66,10.28h0c2.81,2.42,4.63,5.34,4.63,8.62h0v.39h0c-.15,4.27-2.86,7.6-6.38,9.83h0c-3.52,2.26-7.94,3.67-12.42,4.66h0c-4.64,1.02-9.36,1.51-13.17,1.79h0c35.72,18.39,88.29,22.01,118.06,21.98h0c8.42,0,15.06-.27,18.92-.58h0c1.34-.1,2.53.8,2.65,1.99h0c.12,1.22-.85,2.28-2.18,2.42h0c-20.57,2.04-39.52,2.87-56.84,2.87h0c-62.93-.05-104.67-11.31-126.06-17.74h0Z"/><path class="cls-2" d="m346.2,125.55c.12-.31.31-.54.53-.77.22-.22.49-.39.8-.53.31-.12.61-.2.94-.2.34,0,.65.07.94.2.31.12.54.31.77.53s.39.48.53.77c.12.31.2.61.2.97s-.07.66-.2.97c-.12.31-.31.54-.53.77-.22.22-.48.39-.77.53-.31.12-.61.17-.94.17-.34,0-.65-.05-.94-.17-.31-.12-.58-.31-.8-.53-.22-.22-.39-.48-.53-.77-.12-.31-.2-.61-.2-.97.02-.34.09-.66.2-.97Zm.41,1.82c.1.26.26.48.43.66.17.2.39.32.65.44.26.1.53.15.8.15s.54-.05.8-.15c.26-.1.44-.26.65-.44.17-.2.32-.39.43-.66.1-.26.15-.53.15-.85,0-.31-.05-.58-.15-.82-.1-.26-.26-.48-.43-.65s-.39-.32-.65-.44c-.26-.1-.49-.15-.8-.15s-.54.05-.8.15c-.26.1-.48.26-.65.44-.17.17-.32.39-.43.65s-.15.53-.15.82c0,.31.05.6.15.85Zm2.02-2.26c.34,0,.6.07.75.2.17.12.26.34.26.61,0,.26-.07.44-.22.58-.15.12-.32.2-.54.22l.82,1.26h-.48l-.77-1.24h-.48v1.24h-.44v-2.86h1.12v-.02h-.02Zm-.19,1.28h.27c.1,0,.17-.02.26-.05s.12-.07.17-.15.07-.15.07-.27c0-.1-.02-.17-.05-.22-.02-.05-.07-.1-.15-.12-.05-.02-.12-.05-.2-.07-.07,0-.15-.02-.22-.02h-.6v.92l.46-.02h0Z"/></svg>