<?xml version="1.0" encoding="UTF-8"?><svg id="Layer_23" xmlns="http://www.w3.org/2000/svg" viewBox="0 0 380 129"><defs><style>.cls-1{fill:#0a3231;}.cls-1,.cls-2{stroke-width:0px;}.cls-2{fill:#bb9d5e;}</style></defs><path class="cls-2" d="m22.82,100.85l-16.68-16.53c-2.4-2.31-3.63-5.12-3.63-8.67v-6.12c0-5.12,3.47-8.67,8.67-8.67h13.54c5.2,0,8.75,3.55,8.75,8.67v9.01h-10.32v-7.68c0-.25-.16-.33-.33-.33h-9.66c-.25,0-.33.08-.33.33v5.7c0,.33.08.49.33.74l16.68,16.52c2.31,2.31,3.63,5.12,3.63,8.68v7.77c0,5.21-3.55,8.76-8.75,8.76h-13.54c-5.2,0-8.67-3.55-8.67-8.76v-9.01h10.32v7.77c0,.16.08.33.33.33h9.66c.17,0,.33-.17.33-.33v-7.44c0-.33-.16-.5-.33-.74h0Z"/><path class="cls-2" d="m63.04,96.3h-11.89v22.56h-10.33v-57.84h22.22c5.2,0,8.75,3.55,8.75,8.67v17.93c0,5.12-3.47,8.68-8.75,8.67h0Zm-1.9-25.78h-9.99v16.28h9.99c.17,0,.33-.08.33-.33v-15.62c0-.25-.16-.33-.33-.33h0Z"/><path class="cls-2" d="m100.38,119.03h-13.54c-5.12,0-8.67-3.55-8.67-8.76v-40.74c0-5.12,3.55-8.67,8.67-8.67h13.54c5.2,0,8.75,3.55,8.75,8.67v40.74c0,5.21-3.55,8.76-8.75,8.76h0Zm-1.9-48.5h-9.66c-.25,0-.33.08-.33.33v38.17c0,.16.08.33.33.33h9.66c.17,0,.33-.17.33-.33v-38.17c0-.25-.16-.33-.33-.33h0Z"/><path class="cls-2" d="m137.47,118.86l-5.86-22.56h-4.79v22.56h-10.32v-57.84h22.22c5.2,0,8.75,3.55,8.75,8.67v17.93c0,4.22-2.31,7.35-6.11,8.35l6.94,22.89h-10.82Zm-10.65-32.06h9.99c.17,0,.33-.08.33-.33v-15.61c0-.25-.16-.33-.33-.33h-9.99v16.28Z"/><path class="cls-2" d="m173.4,70.52v48.34h-10.32v-48.34h-10.32v-9.5h30.97v9.5h-10.32Z"/><path class="cls-2" d="m209.33,100.85l-16.68-16.53c-2.4-2.31-3.63-5.12-3.63-8.67v-6.12c0-5.12,3.47-8.67,8.67-8.67h13.54c5.2,0,8.75,3.55,8.75,8.67v9.01h-10.32v-7.68c0-.25-.16-.33-.33-.33h-9.66c-.25,0-.33.08-.33.33v5.7c0,.33.08.49.33.74l16.68,16.52c2.31,2.31,3.63,5.12,3.63,8.68v7.77c0,5.21-3.55,8.76-8.75,8.76h-13.54c-5.2,0-8.67-3.55-8.67-8.76v-9.01h10.32v7.77c0,.16.08.33.33.33h9.66c.17,0,.33-.17.33-.33v-7.44c0-.33-.16-.5-.33-.74h0Z"/><path class="cls-2" d="m249.64,118.86h-22.22v-57.84h22.22c5.2,0,8.76,3.55,8.76,8.67v12.31c0,3.55-1.49,5.78-4.13,6.69v.16c2.65.83,4.13,3.14,4.13,6.69v14.54c0,5.21-3.55,8.76-8.76,8.76h0Zm-1.57-34.95v-13.06c0-.25-.16-.33-.33-.33h-9.99v13.72h9.99c.17,0,.33-.08.33-.33h0Zm0,25.12v-15.37c0-.16-.16-.33-.33-.33h-9.99v16.03h9.99c.17,0,.33-.17.33-.33h0Z"/><path class="cls-2" d="m287.96,119.03h-13.54c-5.12,0-8.67-3.55-8.67-8.76v-40.74c0-5.12,3.55-8.67,8.67-8.67h13.54c5.2,0,8.75,3.55,8.75,8.67v40.74c0,5.21-3.55,8.76-8.75,8.76h0Zm-1.9-48.5h-9.66c-.25,0-.33.08-.33.33v38.17c0,.16.08.33.33.33h9.66c.17,0,.33-.17.33-.33v-38.17c0-.25-.16-.33-.33-.33h0Z"/><path class="cls-2" d="m326.29,119.03h-13.54c-5.12,0-8.67-3.55-8.67-8.76v-40.74c0-5.12,3.55-8.67,8.67-8.67h13.54c5.2,0,8.75,3.55,8.75,8.67v40.74c0,5.21-3.55,8.76-8.75,8.76h0Zm-1.9-48.5h-9.66c-.25,0-.33.08-.33.33v38.17c0,.16.08.33.33.33h9.66c.17,0,.33-.17.33-.33v-38.17c0-.25-.16-.33-.33-.33h0Z"/><path class="cls-2" d="m365.94,118.86l-8.75-21.56-4.46,8.92v12.64h-10.32v-57.84h10.32v26.69l12.96-26.69h10.82l-12.64,25.36,13.63,32.47h-11.56Z"/><path class="cls-1" d="m20.81,15.95c-2.15,0-4.12.53-5.9,1.59s-3.17,2.51-4.18,4.34-1.51,3.83-1.51,6c0,3.38,1.14,6.22,3.43,8.52,2.28,2.29,5.1,3.44,8.45,3.44,2.12,0,4.02-.45,5.68-1.34,1.67-.89,3.06-2.06,4.18-3.5l4.62,4.13c-1.6,2.04-3.67,3.66-6.19,4.86-2.53,1.2-5.33,1.8-8.43,1.8-2.66,0-5.14-.47-7.44-1.4-2.31-.93-4.26-2.2-5.86-3.8s-2.86-3.5-3.78-5.7c-.91-2.19-1.37-4.53-1.37-7.01s.45-4.81,1.36-7.01,2.16-4.09,3.75-5.7c1.6-1.6,3.54-2.87,5.83-3.8s4.76-1.4,7.42-1.4,4.87.44,7.04,1.31c2.17.87,4.06,2.1,5.68,3.67l-4.32,4.57c-2.38-2.38-5.2-3.57-8.45-3.57h0Z"/><path class="cls-1" d="m44.59,45.3h-7.02l14.91-34.84h4.73l14.91,34.84h-6.99l-3.3-7.7h-13.96l-3.28,7.7h0Zm10.25-23.98l-4.44,10.3h8.86l-4.42-10.3Z"/><path class="cls-1" d="m96.99,16.43h-14.18v7.22h10.71v5.98h-10.71v9.69h14.67v5.98h-21.37V10.46h20.88v5.98Z"/><path class="cls-1" d="m100.71,40.56l4.4-4.57c1.04,1.15,2.28,2.08,3.73,2.78,1.45.7,2.94,1.06,4.48,1.06s2.71-.42,3.65-1.25c.95-.83,1.42-1.88,1.42-3.15,0-.84-.23-1.59-.68-2.23-.45-.65-1.1-1.2-1.93-1.65-.84-.45-1.69-.85-2.56-1.2s-1.89-.76-3.05-1.25c-1.16-.49-2.13-.96-2.93-1.41-3.29-1.93-4.93-4.57-4.93-7.92,0-1.51.33-2.89.98-4.14s1.52-2.29,2.6-3.1,2.3-1.44,3.67-1.88,2.78-.67,4.24-.67c3.79,0,7.16,1.09,10.1,3.28l-3.5,4.98c-.71-.67-1.62-1.21-2.71-1.64-1.09-.43-2.19-.64-3.29-.64-.66,0-1.3.07-1.92.22s-1.19.36-1.71.64-.95.68-1.27,1.18-.49,1.08-.49,1.73.23,1.27.69,1.81c.46.54,1.07.99,1.82,1.35.75.36,1.61.74,2.57,1.15.96.41,1.95.81,2.95,1.2,1,.39,1.99.89,2.95,1.49.96.61,1.82,1.28,2.57,2.01s1.36,1.66,1.82,2.79.69,2.41.69,3.81c0,1.99-.55,3.8-1.64,5.42s-2.53,2.86-4.32,3.73-3.73,1.3-5.82,1.3c-4.62,0-8.81-1.74-12.6-5.22h0Z"/><path class="cls-1" d="m134.08,45.3h-7.02l14.91-34.84h4.73l14.91,34.84h-7l-3.3-7.7h-13.96l-3.28,7.7Zm10.25-23.98l-4.44,10.3h8.86l-4.42-10.3h0Z"/><path class="cls-1" d="m174.75,29.87h-2.45v15.43h-6.7V10.46h12.68c3.17,0,5.71.87,7.6,2.6.97.92,1.73,2,2.27,3.22s.81,2.52.81,3.9-.27,2.68-.81,3.9c-.54,1.22-1.3,2.3-2.27,3.22-.99.94-2.15,1.62-3.47,2.04l13.04,15.96h-8.31l-12.39-15.43h0Zm-2.45-5.98h5.59c1.6,0,2.73-.35,3.38-1.04.66-.71,1-1.59,1-2.62s-.33-1.99-1-2.7c-.68-.73-1.8-1.09-3.38-1.09h-5.59v7.46Z"/><path class="cls-1" d="m196.17,40.56l4.4-4.57c1.04,1.15,2.28,2.08,3.73,2.78,1.45.7,2.94,1.06,4.48,1.06s2.71-.42,3.65-1.25c.95-.83,1.42-1.88,1.42-3.15,0-.84-.23-1.59-.68-2.23-.45-.65-1.1-1.2-1.93-1.65-.84-.45-1.69-.85-2.56-1.2s-1.89-.76-3.05-1.25c-1.16-.49-2.13-.96-2.93-1.41-3.29-1.93-4.93-4.57-4.93-7.92,0-1.51.33-2.89.98-4.14s1.52-2.29,2.6-3.1c1.08-.81,2.3-1.44,3.67-1.88s2.78-.67,4.24-.67c3.79,0,7.16,1.09,10.1,3.28l-3.5,4.98c-.71-.67-1.62-1.21-2.71-1.64-1.09-.43-2.19-.64-3.29-.64-.66,0-1.3.07-1.92.22-.61.15-1.19.36-1.71.64s-.95.68-1.27,1.18-.49,1.08-.49,1.73.23,1.27.69,1.81c.46.54,1.07.99,1.82,1.35.75.36,1.61.74,2.57,1.15s1.95.81,2.95,1.2c1,.39,1.99.89,2.95,1.49.96.61,1.82,1.28,2.57,2.01s1.36,1.66,1.82,2.79.69,2.41.69,3.81c0,1.99-.55,3.8-1.64,5.42s-2.53,2.86-4.32,3.73-3.73,1.3-5.82,1.3c-4.62,0-8.81-1.74-12.6-5.22h0Z"/></svg>