<svg width="290" height="290" viewBox="0 0 290 290" fill="none" xmlns="http://www.w3.org/2000/svg">
<rect width="290" height="290" rx="145" fill="#E9F3FC"/>
<g filter="url(#filter0_d_126_13688)">
<rect x="51" y="71.8796" width="187.274" height="145.16" rx="6" fill="#FFFDFD"/>
</g>
<circle cx="145.085" cy="125.643" r="24.1933" fill="#0066EC"/>
<rect x="82.3618" y="170.445" width="125.447" height="29.5696" rx="14.7848" fill="url(#paint0_linear_126_13688)"/>
<path opacity="0.5" d="M126.038 188.422C125.504 188.422 125.011 188.325 124.558 188.132C124.104 187.938 123.708 187.668 123.368 187.322C123.028 186.975 122.761 186.568 122.568 186.102C122.381 185.635 122.288 185.125 122.288 184.572C122.288 184.018 122.378 183.508 122.558 183.042C122.744 182.568 123.004 182.162 123.338 181.822C123.678 181.475 124.074 181.208 124.528 181.022C124.981 180.828 125.474 180.732 126.008 180.732C126.541 180.732 127.018 180.822 127.438 181.002C127.864 181.182 128.224 181.422 128.518 181.722C128.811 182.015 129.021 182.338 129.148 182.692L127.938 183.272C127.798 182.885 127.561 182.572 127.228 182.332C126.894 182.092 126.488 181.972 126.008 181.972C125.541 181.972 125.128 182.082 124.768 182.302C124.414 182.522 124.138 182.825 123.938 183.212C123.744 183.598 123.648 184.052 123.648 184.572C123.648 185.092 123.748 185.548 123.948 185.942C124.154 186.328 124.438 186.632 124.798 186.852C125.158 187.072 125.571 187.182 126.038 187.182C126.418 187.182 126.768 187.108 127.088 186.962C127.408 186.808 127.664 186.595 127.858 186.322C128.051 186.042 128.148 185.712 128.148 185.332V184.762L128.768 185.302H126.008V184.152H129.508V184.902C129.508 185.475 129.411 185.982 129.218 186.422C129.024 186.862 128.761 187.232 128.428 187.532C128.101 187.825 127.731 188.048 127.318 188.202C126.904 188.348 126.478 188.422 126.038 188.422ZM130.084 188.302V180.852H135.034V182.052H131.444V183.962H134.834V185.162H131.444V187.102H135.034V188.302H130.084ZM136.851 188.302V182.052H134.921V180.852H140.121V182.052H138.221V188.302H136.851ZM141.728 188.302V180.852H144.868C145.362 180.852 145.782 180.938 146.128 181.112C146.482 181.278 146.752 181.518 146.938 181.832C147.132 182.138 147.228 182.512 147.228 182.952C147.228 183.292 147.135 183.612 146.948 183.912C146.768 184.205 146.478 184.448 146.078 184.642V184.012C146.445 184.152 146.735 184.325 146.948 184.532C147.162 184.738 147.312 184.968 147.398 185.222C147.485 185.475 147.528 185.742 147.528 186.022C147.528 186.735 147.292 187.295 146.818 187.702C146.352 188.102 145.702 188.302 144.868 188.302H141.728ZM143.088 187.102H145.008C145.362 187.102 145.642 187.005 145.848 186.812C146.062 186.612 146.168 186.348 146.168 186.022C146.168 185.695 146.062 185.432 145.848 185.232C145.642 185.032 145.362 184.932 145.008 184.932H143.088V187.102ZM143.088 183.742H144.938C145.218 183.742 145.442 183.662 145.608 183.502C145.775 183.335 145.858 183.122 145.858 182.862C145.858 182.602 145.775 182.395 145.608 182.242C145.442 182.088 145.218 182.012 144.938 182.012H143.088V183.742ZM151.812 188.422C151.266 188.422 150.756 188.325 150.282 188.132C149.809 187.938 149.396 187.668 149.042 187.322C148.689 186.975 148.412 186.568 148.212 186.102C148.019 185.628 147.922 185.118 147.922 184.572C147.922 184.018 148.019 183.508 148.212 183.042C148.406 182.575 148.679 182.168 149.032 181.822C149.386 181.475 149.799 181.208 150.272 181.022C150.746 180.828 151.259 180.732 151.812 180.732C152.366 180.732 152.879 180.828 153.352 181.022C153.826 181.215 154.239 181.485 154.592 181.832C154.946 182.172 155.219 182.575 155.412 183.042C155.612 183.508 155.712 184.018 155.712 184.572C155.712 185.118 155.612 185.628 155.412 186.102C155.212 186.568 154.936 186.975 154.582 187.322C154.229 187.668 153.816 187.938 153.342 188.132C152.876 188.325 152.366 188.422 151.812 188.422ZM151.812 187.182C152.179 187.182 152.516 187.118 152.822 186.992C153.129 186.858 153.396 186.675 153.622 186.442C153.856 186.208 154.032 185.932 154.152 185.612C154.279 185.292 154.342 184.945 154.342 184.572C154.342 184.198 154.279 183.855 154.152 183.542C154.032 183.222 153.856 182.945 153.622 182.712C153.396 182.472 153.129 182.288 152.822 182.162C152.516 182.035 152.179 181.972 151.812 181.972C151.452 181.972 151.119 182.035 150.812 182.162C150.506 182.288 150.236 182.472 150.002 182.712C149.776 182.945 149.599 183.222 149.472 183.542C149.346 183.855 149.282 184.198 149.282 184.572C149.282 184.945 149.346 185.292 149.472 185.612C149.599 185.932 149.776 186.208 150.002 186.442C150.236 186.675 150.506 186.858 150.812 186.992C151.119 187.118 151.452 187.182 151.812 187.182ZM156.422 188.302V180.852H157.482L161.582 186.372L161.032 186.482V180.852H162.392V188.302H161.322L157.282 182.742L157.782 182.632V188.302H156.422ZM166.204 188.422C165.63 188.422 165.12 188.302 164.674 188.062C164.234 187.822 163.887 187.492 163.634 187.072C163.38 186.652 163.254 186.175 163.254 185.642V180.852H164.614V185.572C164.614 185.878 164.68 186.155 164.814 186.402C164.954 186.648 165.144 186.842 165.384 186.982C165.624 187.115 165.897 187.182 166.204 187.182C166.517 187.182 166.79 187.115 167.024 186.982C167.264 186.842 167.45 186.648 167.584 186.402C167.724 186.155 167.794 185.878 167.794 185.572V180.852H169.154V185.642C169.154 186.175 169.027 186.652 168.774 187.072C168.52 187.492 168.17 187.822 167.724 188.062C167.284 188.302 166.777 188.422 166.204 188.422ZM172.672 188.422C172.198 188.422 171.758 188.335 171.352 188.162C170.952 187.988 170.605 187.748 170.312 187.442C170.025 187.128 169.815 186.765 169.682 186.352L170.812 185.862C170.992 186.288 171.252 186.625 171.592 186.872C171.932 187.112 172.315 187.232 172.742 187.232C172.982 187.232 173.188 187.195 173.362 187.122C173.542 187.042 173.678 186.935 173.772 186.802C173.872 186.668 173.922 186.508 173.922 186.322C173.922 186.102 173.855 185.922 173.722 185.782C173.595 185.635 173.402 185.522 173.142 185.442L171.712 184.982C171.132 184.802 170.695 184.532 170.402 184.172C170.108 183.812 169.962 183.388 169.962 182.902C169.962 182.475 170.065 182.098 170.272 181.772C170.485 181.445 170.778 181.192 171.152 181.012C171.532 180.825 171.965 180.732 172.452 180.732C172.898 180.732 173.308 180.812 173.682 180.972C174.055 181.125 174.375 181.342 174.642 181.622C174.915 181.895 175.118 182.218 175.252 182.592L174.132 183.092C173.985 182.718 173.765 182.432 173.472 182.232C173.178 182.025 172.838 181.922 172.452 181.922C172.225 181.922 172.025 181.962 171.852 182.042C171.678 182.115 171.542 182.222 171.442 182.362C171.348 182.495 171.302 182.655 171.302 182.842C171.302 183.048 171.368 183.232 171.502 183.392C171.635 183.545 171.838 183.665 172.112 183.752L173.482 184.182C174.075 184.375 174.518 184.642 174.812 184.982C175.112 185.322 175.262 185.742 175.262 186.242C175.262 186.668 175.152 187.045 174.932 187.372C174.712 187.698 174.408 187.955 174.022 188.142C173.635 188.328 173.185 188.422 172.672 188.422Z" fill="#555555"/>
<path d="M154.045 122.058L142.098 132.811L136.125 127.435" stroke="white" stroke-width="3" stroke-linecap="round"/>
<defs>
<filter id="filter0_d_126_13688" x="31" y="55.8796" width="227.274" height="185.16" filterUnits="userSpaceOnUse" color-interpolation-filters="sRGB">
<feFlood flood-opacity="0" result="BackgroundImageFix"/>
<feColorMatrix in="SourceAlpha" type="matrix" values="0 0 0 0 0 0 0 0 0 0 0 0 0 0 0 0 0 0 127 0" result="hardAlpha"/>
<feOffset dy="4"/>
<feGaussianBlur stdDeviation="10"/>
<feComposite in2="hardAlpha" operator="out"/>
<feColorMatrix type="matrix" values="0 0 0 0 0.0156863 0 0 0 0 0.0666667 0 0 0 0 0.117647 0 0 0 0.05 0"/>
<feBlend mode="normal" in2="BackgroundImageFix" result="effect1_dropShadow_126_13688"/>
<feBlend mode="normal" in="SourceGraphic" in2="effect1_dropShadow_126_13688" result="shape"/>
</filter>
<linearGradient id="paint0_linear_126_13688" x1="82.3618" y1="200.014" x2="207.809" y2="200.014" gradientUnits="userSpaceOnUse">
<stop stop-color="#DBDEE1"/>
<stop offset="1" stop-color="#DBDEE1" stop-opacity="0"/>
</linearGradient>
</defs>
</svg>
