<svg width="290" height="290" viewBox="0 0 290 290" fill="none" xmlns="http://www.w3.org/2000/svg">
<rect width="290" height="290" rx="145" fill="#E9F3FC"/>
<g filter="url(#filter0_d_126_13645)">
<path fill-rule="evenodd" clip-rule="evenodd" d="M54 95.177C50.6863 95.177 48 97.8633 48 101.177V139.356C48 142.669 50.6863 145.356 54 145.356L63.2328 145.356V152.524L70.4012 145.356H229.274C232.588 145.356 235.274 142.669 235.274 139.356V101.177C235.274 97.8633 232.588 95.177 229.274 95.177H54Z" fill="#FFFDFD"/>
</g>
<g filter="url(#filter1_d_126_13645)">
<path fill-rule="evenodd" clip-rule="evenodd" d="M54 160.588C50.6863 160.588 48 163.275 48 166.588V204.767C48 208.081 50.6863 210.767 54 210.767L63.2328 210.767V217.935L70.4012 210.767L229.274 210.767C232.588 210.767 235.274 208.081 235.274 204.767V166.588C235.274 163.275 232.588 160.588 229.274 160.588H54Z" fill="#FFFDFD"/>
</g>
<rect x="93.6982" y="113.994" width="91.3969" height="3.58419" rx="1.7921" fill="url(#paint0_linear_126_13645)"/>
<rect x="93.6982" y="179.406" width="91.3969" height="3.58419" rx="1.7921" fill="url(#paint1_linear_126_13645)"/>
<rect x="93.6982" y="105.033" width="21.5052" height="3.58419" rx="1.7921" fill="url(#paint2_linear_126_13645)"/>
<rect x="93.6982" y="170.445" width="21.5052" height="3.58419" rx="1.7921" fill="url(#paint3_linear_126_13645)"/>
<rect x="93.6982" y="122.954" width="86.9167" height="3.58419" rx="1.7921" fill="url(#paint4_linear_126_13645)"/>
<rect x="93.6982" y="188.366" width="86.9167" height="3.58419" rx="1.7921" fill="url(#paint5_linear_126_13645)"/>
<rect x="93.6982" y="131.019" width="62.7234" height="3.58419" rx="1.7921" fill="url(#paint6_linear_126_13645)"/>
<rect x="93.6982" y="196.43" width="62.7234" height="3.58419" rx="1.7921" fill="url(#paint7_linear_126_13645)"/>
<path d="M195.37 130.773C195.515 130.303 196.18 130.303 196.326 130.773L196.585 131.613C196.65 131.822 196.844 131.965 197.063 131.965H197.954C198.432 131.965 198.637 132.572 198.257 132.862L197.494 133.445C197.328 133.573 197.258 133.79 197.32 133.99L197.601 134.901C197.745 135.366 197.207 135.741 196.82 135.446L196.151 134.935C195.972 134.798 195.724 134.798 195.544 134.935L194.876 135.446C194.489 135.741 193.951 135.366 194.095 134.901L194.376 133.99C194.438 133.79 194.368 133.573 194.202 133.445L193.438 132.862C193.058 132.572 193.264 131.965 193.742 131.965H194.633C194.852 131.965 195.046 131.822 195.111 131.613L195.37 130.773Z" fill="#0066EC"/>
<path d="M202.539 130.773C202.684 130.303 203.349 130.303 203.494 130.773L203.754 131.613C203.818 131.822 204.012 131.965 204.231 131.965H205.122C205.601 131.965 205.806 132.572 205.426 132.862L204.663 133.445C204.496 133.573 204.426 133.79 204.488 133.99L204.77 134.901C204.913 135.366 204.375 135.741 203.988 135.446L203.32 134.935C203.141 134.798 202.892 134.798 202.713 134.935L202.044 135.446C201.657 135.741 201.119 135.366 201.263 134.901L201.544 133.99C201.606 133.79 201.537 133.573 201.37 133.445L200.607 132.862C200.227 132.572 200.432 131.965 200.91 131.965H201.801C202.021 131.965 202.214 131.822 202.279 131.613L202.539 130.773Z" fill="#0066EC"/>
<path d="M209.707 130.773C209.852 130.303 210.517 130.303 210.662 130.773L210.922 131.613C210.987 131.822 211.18 131.965 211.4 131.965H212.291C212.769 131.965 212.974 132.572 212.594 132.862L211.831 133.445C211.664 133.573 211.595 133.79 211.657 133.99L211.938 134.901C212.082 135.366 211.544 135.741 211.157 135.446L210.488 134.935C210.309 134.798 210.06 134.798 209.881 134.935L209.213 135.446C208.826 135.741 208.288 135.366 208.431 134.901L208.713 133.99C208.775 133.79 208.705 133.573 208.539 133.445L207.775 132.862C207.395 132.572 207.6 131.965 208.079 131.965H208.97C209.189 131.965 209.383 131.822 209.448 131.613L209.707 130.773Z" fill="#0066EC"/>
<path d="M216.876 130.773C217.021 130.303 217.686 130.303 217.831 130.773L218.09 131.613C218.155 131.822 218.349 131.965 218.568 131.965H219.459C219.938 131.965 220.143 132.572 219.763 132.862L218.999 133.445C218.833 133.573 218.763 133.79 218.825 133.99L219.107 134.901C219.25 135.366 218.712 135.741 218.325 135.446L217.657 134.935C217.478 134.798 217.229 134.798 217.05 134.935L216.381 135.446C215.994 135.741 215.456 135.366 215.6 134.901L215.881 133.99C215.943 133.79 215.874 133.573 215.707 133.445L214.944 132.862C214.564 132.572 214.769 131.965 215.247 131.965H216.138C216.358 131.965 216.551 131.822 216.616 131.613L216.876 130.773Z" fill="#0066EC"/>
<path d="M224.043 130.773C224.189 130.303 224.854 130.303 224.999 130.773L225.258 131.613C225.323 131.822 225.517 131.965 225.736 131.965H226.627C227.106 131.965 227.311 132.572 226.931 132.862L226.167 133.445C226.001 133.573 225.931 133.79 225.993 133.99L226.275 134.901C226.418 135.366 225.88 135.741 225.493 135.446L224.825 134.935C224.646 134.798 224.397 134.798 224.218 134.935L223.549 135.446C223.162 135.741 222.624 135.366 222.768 134.901L223.049 133.99C223.111 133.79 223.042 133.573 222.875 133.445L222.112 132.862C221.732 132.572 221.937 131.965 222.415 131.965H223.306C223.526 131.965 223.719 131.822 223.784 131.613L224.043 130.773Z" fill="#0066EC"/>
<path d="M195.37 195.288C195.515 194.818 196.18 194.818 196.326 195.288L196.585 196.128C196.65 196.337 196.844 196.48 197.063 196.48H197.954C198.432 196.48 198.637 197.087 198.257 197.378L197.494 197.961C197.328 198.088 197.258 198.306 197.32 198.506L197.601 199.416C197.745 199.881 197.207 200.256 196.82 199.961L196.151 199.45C195.972 199.313 195.724 199.313 195.544 199.45L194.876 199.961C194.489 200.256 193.951 199.881 194.095 199.416L194.376 198.506C194.438 198.306 194.368 198.088 194.202 197.961L193.438 197.378C193.058 197.087 193.264 196.48 193.742 196.48H194.633C194.852 196.48 195.046 196.337 195.111 196.128L195.37 195.288Z" fill="#818181"/>
<path d="M202.539 195.288C202.684 194.818 203.349 194.818 203.494 195.288L203.754 196.128C203.818 196.337 204.012 196.48 204.231 196.48H205.122C205.601 196.48 205.806 197.087 205.426 197.378L204.663 197.961C204.496 198.088 204.426 198.306 204.488 198.506L204.77 199.416C204.913 199.881 204.375 200.256 203.988 199.961L203.32 199.45C203.141 199.313 202.892 199.313 202.713 199.45L202.044 199.961C201.657 200.256 201.119 199.881 201.263 199.416L201.544 198.506C201.606 198.306 201.537 198.088 201.37 197.961L200.607 197.378C200.227 197.087 200.432 196.48 200.91 196.48H201.801C202.021 196.48 202.214 196.337 202.279 196.128L202.539 195.288Z" fill="#818181"/>
<path d="M209.707 195.288C209.852 194.818 210.517 194.818 210.662 195.288L210.922 196.128C210.987 196.337 211.18 196.48 211.4 196.48H212.291C212.769 196.48 212.974 197.087 212.594 197.378L211.831 197.961C211.664 198.088 211.595 198.306 211.657 198.506L211.938 199.416C212.082 199.881 211.544 200.256 211.157 199.961L210.488 199.45C210.309 199.313 210.06 199.313 209.881 199.45L209.213 199.961C208.826 200.256 208.288 199.881 208.431 199.416L208.713 198.506C208.775 198.306 208.705 198.088 208.539 197.961L207.775 197.378C207.395 197.087 207.6 196.48 208.079 196.48H208.97C209.189 196.48 209.383 196.337 209.448 196.128L209.707 195.288Z" fill="#818181"/>
<path d="M216.876 195.288C217.021 194.818 217.686 194.818 217.831 195.288L218.09 196.128C218.155 196.337 218.349 196.48 218.568 196.48H219.459C219.938 196.48 220.143 197.087 219.763 197.378L218.999 197.961C218.833 198.088 218.763 198.306 218.825 198.506L219.107 199.416C219.25 199.881 218.712 200.256 218.325 199.961L217.657 199.45C217.478 199.313 217.229 199.313 217.05 199.45L216.381 199.961C215.994 200.256 215.456 199.881 215.6 199.416L215.881 198.506C215.943 198.306 215.874 198.088 215.707 197.961L214.944 197.378C214.564 197.087 214.769 196.48 215.247 196.48H216.138C216.358 196.48 216.551 196.337 216.616 196.128L216.876 195.288Z" fill="#818181"/>
<path d="M224.043 195.288C224.189 194.818 224.854 194.818 224.999 195.288L225.258 196.128C225.323 196.337 225.517 196.48 225.736 196.48H226.627C227.106 196.48 227.311 197.087 226.931 197.378L226.167 197.961C226.001 198.088 225.931 198.306 225.993 198.506L226.275 199.416C226.418 199.881 225.88 200.256 225.493 199.961L224.825 199.45C224.646 199.313 224.397 199.313 224.218 199.45L223.549 199.961C223.162 200.256 222.624 199.881 222.768 199.416L223.049 198.506C223.111 198.306 223.042 198.088 222.875 197.961L222.112 197.378C221.732 197.087 221.937 196.48 222.415 196.48H223.306C223.526 196.48 223.719 196.337 223.784 196.128L224.043 195.288Z" fill="#DCDFE2"/>
<circle cx="71.2972" cy="121.162" r="13.4407" fill="url(#paint8_linear_126_13645)"/>
<circle cx="71.2972" cy="186.574" r="13.4407" fill="url(#paint9_linear_126_13645)"/>
<g clip-path="url(#clip0_126_13645)">
<path d="M218.582 109.413L218.255 109.304L218.473 109.031C218.746 108.648 218.91 108.266 218.91 107.829C218.91 106.737 218.036 105.864 216.944 105.864H211.757L211.812 105.536C212.085 104.062 213.013 102.096 213.286 101.496V101.441C214.05 99.1476 212.249 97.5095 211.211 97.0181C211.156 97.0181 211.156 97.0181 211.102 97.0181C211.047 97.0181 211.047 97.0181 210.993 97.0181C210.938 97.0727 210.883 97.1273 210.829 97.1819L210.119 99.8028C209.901 100.567 209.464 101.277 208.918 101.823C206.624 103.953 204.549 106.628 203.949 107.393L203.894 107.502L199.963 107.666C199.854 107.666 199.744 107.775 199.69 107.884C199.526 108.648 198.325 115.638 199.963 118.04C200.017 118.095 200.072 118.149 200.181 118.149H203.239C203.567 118.149 203.84 118.204 204.113 118.368C204.768 118.75 206.461 119.678 207.826 120.061C208.044 120.115 208.208 120.115 208.426 120.115H215.688C216.781 120.115 217.654 119.241 217.654 118.149C217.654 117.767 217.545 117.385 217.327 117.057L217.108 116.73L217.49 116.675C218.419 116.511 219.128 115.692 219.128 114.709C219.128 114.273 218.965 113.781 218.637 113.454L218.419 113.126L218.692 112.962C219.347 112.635 219.784 111.925 219.784 111.215C219.784 110.396 219.347 109.686 218.582 109.413Z" fill="#0066EC"/>
<path d="M209.737 94.7794C210.064 94.7794 210.392 94.5064 210.392 94.1242V91.5578C210.392 91.2302 210.119 90.9026 209.737 90.9026C209.355 90.9026 209.082 91.1756 209.082 91.5578V94.1788C209.082 94.5064 209.409 94.7794 209.737 94.7794Z" fill="#0066EC"/>
<path d="M202.092 96.3629C202.202 96.5813 202.42 96.6905 202.638 96.6905C202.748 96.6905 202.857 96.6359 202.966 96.5813C203.294 96.4175 203.348 96.0353 203.184 95.7077L201.874 93.469C201.765 93.2506 201.546 93.1414 201.328 93.1414C201.219 93.1414 201.109 93.196 201 93.2506C200.673 93.4144 200.618 93.7966 200.782 94.1242L202.092 96.3629Z" fill="#0066EC"/>
<path d="M197.724 100.731L195.485 99.4207C195.376 99.3661 195.267 99.3115 195.158 99.3115C194.939 99.3115 194.721 99.4207 194.612 99.6391C194.448 99.9668 194.557 100.349 194.83 100.513L197.069 101.823C197.178 101.878 197.287 101.932 197.396 101.932C197.615 101.932 197.833 101.823 197.942 101.605C198.161 101.277 198.052 100.895 197.724 100.731Z" fill="#0066EC"/>
<path d="M195.485 107.72H192.919C192.591 107.72 192.264 107.993 192.264 108.375C192.264 108.758 192.537 109.031 192.919 109.031H195.54C195.867 109.031 196.195 108.758 196.195 108.375C196.195 107.993 195.867 107.72 195.485 107.72Z" fill="#0066EC"/>
<path d="M224.643 116.238L222.404 114.928C222.295 114.873 222.186 114.819 222.077 114.819C221.858 114.819 221.64 114.928 221.531 115.146C221.367 115.474 221.476 115.856 221.749 116.02L223.988 117.33C224.097 117.385 224.206 117.44 224.315 117.44C224.534 117.44 224.752 117.33 224.861 117.112C225.025 116.784 224.916 116.402 224.643 116.238Z" fill="#0066EC"/>
<path d="M226.554 107.72H223.934C223.606 107.72 223.278 107.993 223.278 108.375C223.278 108.758 223.551 109.031 223.934 109.031H226.554C226.882 109.031 227.21 108.758 227.21 108.375C227.21 107.993 226.937 107.72 226.554 107.72Z" fill="#0066EC"/>
<path d="M222.077 101.878C222.186 101.878 222.295 101.823 222.405 101.769L224.643 100.458C224.971 100.294 225.025 99.9121 224.862 99.5845C224.752 99.366 224.534 99.2568 224.316 99.2568C224.206 99.2568 224.097 99.3114 223.988 99.366L221.749 100.731C221.422 100.895 221.367 101.277 221.531 101.605C221.64 101.769 221.858 101.878 222.077 101.878Z" fill="#0066EC"/>
<path d="M216.562 96.5813C216.671 96.6359 216.781 96.6905 216.89 96.6905C217.108 96.6905 217.327 96.5813 217.436 96.3629L218.746 94.1242C218.91 93.7966 218.801 93.4144 218.528 93.2506C218.419 93.196 218.309 93.1414 218.2 93.1414C217.982 93.1414 217.763 93.2506 217.654 93.469L216.289 95.7623C216.125 96.0353 216.235 96.4175 216.562 96.5813Z" fill="#0066EC"/>
</g>
<defs>
<filter id="filter0_d_126_13645" x="28" y="79.177" width="227.274" height="97.3472" filterUnits="userSpaceOnUse" color-interpolation-filters="sRGB">
<feFlood flood-opacity="0" result="BackgroundImageFix"/>
<feColorMatrix in="SourceAlpha" type="matrix" values="0 0 0 0 0 0 0 0 0 0 0 0 0 0 0 0 0 0 127 0" result="hardAlpha"/>
<feOffset dy="4"/>
<feGaussianBlur stdDeviation="10"/>
<feComposite in2="hardAlpha" operator="out"/>
<feColorMatrix type="matrix" values="0 0 0 0 0.0156863 0 0 0 0 0.0666667 0 0 0 0 0.117647 0 0 0 0.05 0"/>
<feBlend mode="normal" in2="BackgroundImageFix" result="effect1_dropShadow_126_13645"/>
<feBlend mode="normal" in="SourceGraphic" in2="effect1_dropShadow_126_13645" result="shape"/>
</filter>
<filter id="filter1_d_126_13645" x="28" y="144.588" width="227.274" height="97.3472" filterUnits="userSpaceOnUse" color-interpolation-filters="sRGB">
<feFlood flood-opacity="0" result="BackgroundImageFix"/>
<feColorMatrix in="SourceAlpha" type="matrix" values="0 0 0 0 0 0 0 0 0 0 0 0 0 0 0 0 0 0 127 0" result="hardAlpha"/>
<feOffset dy="4"/>
<feGaussianBlur stdDeviation="10"/>
<feComposite in2="hardAlpha" operator="out"/>
<feColorMatrix type="matrix" values="0 0 0 0 0.0156863 0 0 0 0 0.0666667 0 0 0 0 0.117647 0 0 0 0.05 0"/>
<feBlend mode="normal" in2="BackgroundImageFix" result="effect1_dropShadow_126_13645"/>
<feBlend mode="normal" in="SourceGraphic" in2="effect1_dropShadow_126_13645" result="shape"/>
</filter>
<linearGradient id="paint0_linear_126_13645" x1="93.6982" y1="117.578" x2="185.095" y2="117.578" gradientUnits="userSpaceOnUse">
<stop stop-color="#DBDEE1"/>
<stop offset="1" stop-color="#DBDEE1" stop-opacity="0"/>
</linearGradient>
<linearGradient id="paint1_linear_126_13645" x1="93.6982" y1="182.99" x2="185.095" y2="182.99" gradientUnits="userSpaceOnUse">
<stop stop-color="#DBDEE1"/>
<stop offset="1" stop-color="#DBDEE1" stop-opacity="0"/>
</linearGradient>
<linearGradient id="paint2_linear_126_13645" x1="93.6982" y1="108.618" x2="115.203" y2="108.618" gradientUnits="userSpaceOnUse">
<stop stop-color="#DBDEE1"/>
<stop offset="1" stop-color="#DBDEE1" stop-opacity="0"/>
</linearGradient>
<linearGradient id="paint3_linear_126_13645" x1="93.6982" y1="174.029" x2="115.203" y2="174.029" gradientUnits="userSpaceOnUse">
<stop stop-color="#DBDEE1"/>
<stop offset="1" stop-color="#DBDEE1" stop-opacity="0"/>
</linearGradient>
<linearGradient id="paint4_linear_126_13645" x1="93.6982" y1="126.539" x2="180.615" y2="126.539" gradientUnits="userSpaceOnUse">
<stop stop-color="#DBDEE1"/>
<stop offset="1" stop-color="#DBDEE1" stop-opacity="0"/>
</linearGradient>
<linearGradient id="paint5_linear_126_13645" x1="93.6982" y1="191.95" x2="180.615" y2="191.95" gradientUnits="userSpaceOnUse">
<stop stop-color="#DBDEE1"/>
<stop offset="1" stop-color="#DBDEE1" stop-opacity="0"/>
</linearGradient>
<linearGradient id="paint6_linear_126_13645" x1="93.6982" y1="134.603" x2="156.422" y2="134.603" gradientUnits="userSpaceOnUse">
<stop stop-color="#DBDEE1"/>
<stop offset="1" stop-color="#DBDEE1" stop-opacity="0"/>
</linearGradient>
<linearGradient id="paint7_linear_126_13645" x1="93.6982" y1="200.015" x2="156.422" y2="200.015" gradientUnits="userSpaceOnUse">
<stop stop-color="#DBDEE1"/>
<stop offset="1" stop-color="#DBDEE1" stop-opacity="0"/>
</linearGradient>
<linearGradient id="paint8_linear_126_13645" x1="57.8564" y1="134.603" x2="84.7379" y2="134.603" gradientUnits="userSpaceOnUse">
<stop stop-color="#DBDEE1"/>
<stop offset="1" stop-color="#DBDEE1" stop-opacity="0"/>
</linearGradient>
<linearGradient id="paint9_linear_126_13645" x1="57.8564" y1="200.015" x2="84.7379" y2="200.015" gradientUnits="userSpaceOnUse">
<stop stop-color="#DBDEE1"/>
<stop offset="1" stop-color="#DBDEE1" stop-opacity="0"/>
</linearGradient>
<clipPath id="clip0_126_13645">
<rect width="34.9459" height="34.9459" fill="white" transform="translate(192.264 88.0085)"/>
</clipPath>
</defs>
</svg>
