<svg xmlns="http://www.w3.org/2000/svg" width="50" height="40" viewBox="0 0 50 40" fill="none">
  <path d="M45.8673 18.1857C47.4117 18.9022 47.4117 21.0977 45.8673 21.8143L15.2862 36.0021C13.9606 36.6171 12.4445 35.6492 12.4445 34.1879L12.4445 5.81214C12.4445 4.35084 13.9606 3.38288 15.2862 3.99788L45.8673 18.1857Z" fill="#0066EC"/>
  <mask id="mask0_2_2937" style="mask-type:alpha" maskUnits="userSpaceOnUse" x="12" y="3" width="36" height="34">
    <path d="M45.8673 18.1857C47.4117 18.9022 47.4117 21.0977 45.8673 21.8143L15.2862 36.0021C13.9606 36.6171 12.4445 35.6492 12.4445 34.1879L12.4445 5.81214C12.4445 4.35084 13.9606 3.38288 15.2862 3.99788L45.8673 18.1857Z" fill="#0066EC"/>
  </mask>
  <g mask="url(#mask0_2_2937)">
    <rect x="12.4443" y="-3.11111" width="5.33333" height="45.3333" fill="#FF5758"/>
  </g>
  <path d="M26.6355 15.6858C26.7852 15.2251 27.4369 15.2251 27.5866 15.6858L28.296 17.8691C28.3629 18.0751 28.5549 18.2146 28.7715 18.2146L31.0672 18.2146C31.5515 18.2146 31.7529 18.8344 31.3611 19.1191L29.5038 20.4685C29.3286 20.5958 29.2552 20.8215 29.3222 21.0275L30.0316 23.2108C30.1813 23.6715 29.654 24.0545 29.2622 23.7698L27.4049 22.4204C27.2297 22.2931 26.9924 22.2931 26.8171 22.4204L24.9599 23.7698C24.568 24.0545 24.0408 23.6715 24.1905 23.2108L24.8999 21.0275C24.9668 20.8215 24.8935 20.5958 24.7182 20.4685L22.861 19.1191C22.4691 18.8344 22.6705 18.2146 23.1549 18.2146L25.4506 18.2146C25.6672 18.2146 25.8592 18.0751 25.9261 17.8691L26.6355 15.6858Z" fill="white"/>
</svg>