<svg xmlns="http://www.w3.org/2000/svg" width="132" height="38" viewBox="0 0 132 38" fill="none">
  <g opacity="0.5">
    <path d="M30.1826 11.3968H31.8341V22.8808H36.7887V24.5308H30.1826V11.3968ZM41.9331 11.3968C42.9131 11.3968 43.871 11.6871 44.6857 12.231C45.5005 12.775 46.1356 13.548 46.5106 14.4525C46.8855 15.357 46.9836 16.3523 46.7925 17.3125C46.6013 18.2727 46.1295 19.1547 45.4365 19.8469C44.7436 20.5393 43.8608 21.0107 42.8997 21.2017C41.9387 21.3927 40.9425 21.2947 40.0371 20.92C39.1318 20.5453 38.358 19.9109 37.8136 19.0969C37.2692 18.2828 36.9786 17.3258 36.9786 16.3468C36.9786 15.6968 37.1068 15.053 37.3557 14.4525C37.6047 13.8519 37.9697 13.3063 38.4298 12.8467C38.8898 12.387 39.436 12.0223 40.0371 11.7736C40.6382 11.5248 41.2825 11.3968 41.9331 11.3968ZM41.9331 19.6468C42.5864 19.6468 43.225 19.4533 43.7682 19.0907C44.3114 18.728 44.7348 18.2126 44.9847 17.6096C45.2348 17.0066 45.3002 16.3432 45.1727 15.703C45.0453 15.0629 44.7306 14.4749 44.2687 14.0134C43.8068 13.5519 43.2183 13.2375 42.5776 13.1102C41.9368 12.9829 41.2727 13.0482 40.6692 13.298C40.0656 13.5477 39.5497 13.9707 39.1868 14.5134C38.8238 15.0561 38.6301 15.6941 38.6301 16.3468C38.6345 17.2192 38.9844 18.0543 39.6034 18.6696C40.2223 19.2849 41.06 19.6303 41.9331 19.6303V19.6468ZM38.6301 22.8973H45.2362V24.5473H38.6301V22.8973ZM59.7695 24.5473H58.118V23.3675C57.0529 24.1124 55.7847 24.5127 54.4847 24.5143C53.3761 24.5217 52.2834 24.2503 51.3075 23.725C50.3314 23.1997 49.5034 22.4374 48.8998 21.5085C48.2961 20.5795 47.9361 19.5137 47.853 18.4092C47.7699 17.3048 47.9663 16.1971 48.4242 15.1885C48.8821 14.1798 49.5867 13.3024 50.473 12.6373C51.3595 11.9721 52.3992 11.5404 53.4964 11.3822C54.5937 11.2239 55.7131 11.3441 56.7516 11.7316C57.7902 12.1191 58.7144 12.7614 59.4392 13.5996L58.2253 14.6803C57.6741 14.0645 56.9774 13.5964 56.1986 13.3186C55.4199 13.0408 54.584 12.9621 53.7671 13.0897C52.9501 13.2173 52.1782 13.5472 51.5214 14.0493C50.8648 14.5514 50.3443 15.2095 50.0076 15.9641C49.6707 16.7185 49.5283 17.5452 49.5932 18.3688C49.6581 19.1924 49.9282 19.9866 50.3791 20.6791C50.8299 21.3716 51.447 21.9405 52.1743 22.3337C52.9014 22.7269 53.7156 22.932 54.5425 22.9303C55.2287 22.9317 55.9071 22.785 56.5314 22.5002C57.1556 22.2154 57.7109 21.7993 58.1593 21.2803H53.7002V19.6303H59.786L59.7695 24.5473ZM65.8471 11.4298C66.827 11.4298 67.7849 11.7201 68.5997 12.264C69.4144 12.808 70.0495 13.581 70.4245 14.4855C70.7995 15.39 70.8976 16.3853 70.7064 17.3455C70.5153 18.3057 70.0434 19.1877 69.3504 19.8799C68.6576 20.5723 67.7747 21.0437 66.8136 21.2347C65.8526 21.4257 64.8564 21.3277 63.9511 20.953C63.0457 20.5783 62.272 19.9439 61.7275 19.1299C61.1831 18.3158 60.8925 17.3588 60.8925 16.3798C60.8882 15.7256 61.0137 15.077 61.2617 14.4716C61.5098 13.8661 61.8755 13.3158 62.3378 12.8524C62.8 12.389 63.3497 12.0218 63.9549 11.7719C64.5601 11.5221 65.2088 11.3946 65.8636 11.3968L65.8471 11.4298ZM65.8471 19.6798C66.5003 19.6798 67.139 19.4863 67.6822 19.1237C68.2254 18.761 68.6487 18.2456 68.8987 17.6426C69.1487 17.0396 69.2141 16.3762 69.0866 15.736C68.9592 15.0959 68.6446 14.5079 68.1827 14.0464C67.7207 13.5849 67.1322 13.2705 66.4915 13.1432C65.8507 13.0159 65.1866 13.0812 64.5831 13.331C63.9796 13.5807 63.4636 14.0037 63.1007 14.5464C62.7378 15.0891 62.5441 15.7271 62.5441 16.3798C62.5571 17.2493 62.9131 18.0785 63.5347 18.6872C64.1563 19.2958 64.9933 19.6348 65.8636 19.6303L65.8471 19.6798ZM62.5441 22.9303H69.1501V24.5803H62.5441V22.9303ZM72.5605 11.3968H74.212V24.5143H72.5605V11.3968ZM76.4994 11.3968H78.1509C78.2359 11.3878 78.3217 11.3878 78.4069 11.3968C79.0985 11.3218 79.7983 11.3933 80.4604 11.6064C81.1226 11.8195 81.7325 12.1696 82.2503 12.6338C82.7681 13.098 83.1822 13.666 83.4657 14.3008C83.7493 14.9356 83.8958 15.6229 83.8958 16.3179C83.8958 17.013 83.7493 17.7003 83.4657 18.335C83.1822 18.9698 82.7681 19.5378 82.2503 20.002C81.7325 20.4663 81.1226 20.8163 80.4604 21.0295C79.7983 21.2426 79.0985 21.314 78.4069 21.239H78.1509V24.5391H76.4994V11.3968ZM78.1509 13.0468V19.5725H78.4069C78.8733 19.6346 79.3476 19.5964 79.7982 19.4604C80.2486 19.3244 80.6648 19.0938 81.0188 18.7841C81.3729 18.4744 81.6565 18.0927 81.8509 17.6645C82.0453 17.2363 82.1459 16.7716 82.1459 16.3014C82.1459 15.8313 82.0453 15.3665 81.8509 14.9384C81.6565 14.5102 81.3729 14.1285 81.0188 13.8188C80.6648 13.509 80.2486 13.2785 79.7982 13.1424C79.3476 13.0065 78.8733 12.9683 78.4069 13.0303C78.3169 13.0396 78.2282 13.059 78.1426 13.0881L78.1509 13.0468ZM90.05 12.3456L88.8279 13.3108C88.6171 13.0907 88.3477 12.9353 88.0515 12.8628C87.7553 12.7904 87.4446 12.8039 87.1558 12.9018C86.867 12.9997 86.6123 13.1779 86.4213 13.4155C86.2304 13.6531 86.1113 13.9402 86.0781 14.2431V14.3751C86.0781 15.1011 86.5819 15.5878 87.5645 15.6538C91.3465 15.8848 93.0806 17.6586 93.0806 20.0016V20.1501C92.9829 21.0774 92.6207 21.9571 92.0371 22.6848C91.4534 23.4124 90.6728 23.9572 89.7883 24.2544C88.9036 24.5516 87.9522 24.5887 87.0471 24.3613C86.142 24.1339 85.3213 23.6515 84.6826 22.9716L85.946 21.9981C86.2401 22.313 86.5992 22.5601 86.9985 22.7226C87.3977 22.8849 87.8275 22.9587 88.2581 22.9385C89.0535 22.9805 89.8343 22.7137 90.4374 22.1941C91.0406 21.6745 91.4196 20.9421 91.4951 20.1501V20.0346C91.4951 17.8318 89.3316 17.4276 87.4572 17.2461C85.7231 17.081 84.4762 16.0003 84.4762 14.4411V14.3751C84.5373 13.5633 84.9081 12.8059 85.512 12.2594C86.1159 11.7129 86.9068 11.4188 87.7214 11.4381C88.1531 11.4253 88.5826 11.5031 88.9823 11.6666C89.382 11.83 89.7429 12.0754 90.0418 12.3868L90.05 12.3456ZM99.5462 22.8396C101.602 22.8396 103.229 20.6203 103.229 17.8896V11.2896H104.881V17.8896C104.881 21.5196 102.502 24.4483 99.5793 24.4483C96.6561 24.4483 94.2779 21.5196 94.2779 17.8896V11.2896H95.9294V17.8896C95.8634 20.6616 97.4901 22.8808 99.538 22.8808L99.5462 22.8396ZM117.556 24.4896H115.905V16.3221L112.098 21.2721L108.291 16.3221V24.5143H106.64V11.3968L112.09 18.5661L117.54 11.3968L117.556 24.4896Z" fill="white"/>
    <path d="M22.2548 9.42501C22.2548 8.23472 21.7815 7.09317 20.9391 6.25152C20.0966 5.40985 18.954 4.93701 17.7626 4.93701C16.5712 4.93701 15.4287 5.40985 14.5862 6.25152C13.7438 7.09317 13.2705 8.23472 13.2705 9.42501V22.9963L16.9699 25.6445V32.096H18.5554V25.6445L22.2548 22.9963V9.42501ZM20.6693 17.015L18.5554 19.127V17.147L20.6693 15.035V17.015ZM14.889 15.035L17.0029 17.147V19.127L14.889 17.015V15.035ZM20.6693 12.791L17.7626 15.695L14.856 12.725V10.745L17.7626 13.649L20.6693 10.745V12.791ZM17.7626 6.52101C18.4019 6.52383 19.0226 6.73595 19.5297 7.12485C20.0368 7.51376 20.4022 8.05801 20.5702 8.67426L17.7626 11.471L14.9551 8.67426C15.1169 8.05188 15.4797 7.50025 15.9874 7.10495C16.495 6.70966 17.119 6.49279 17.7626 6.488V6.52101ZM14.856 22.196V19.226L16.9699 21.338V23.6975L14.856 22.196ZM18.5554 23.7058V21.338L20.6693 19.226V22.1878L18.5554 23.7058Z" fill="white"/>
  </g>
</svg>