<svg xmlns="http://www.w3.org/2000/svg" width="150" height="38" viewBox="0 0 150 38" fill="none">
  <g opacity="0.5">
    <path d="M40.902 13.55C41.2429 13.55 41.3565 13.6726 41.3565 14.0026V21.47H45.2107C45.5421 21.47 45.6652 21.5926 45.6652 21.9226V22.5826C45.6652 22.9126 45.5421 23.0352 45.2107 23.0352H40.1349C39.8035 23.0352 39.6709 22.9126 39.6709 22.5826V14.0026C39.6709 13.6726 39.8035 13.55 40.1349 13.55H40.902Z" fill="white"/>
    <path d="M49.0266 16.8406C49.0266 14.6626 50.4092 13.3521 52.8145 13.3521C55.2198 13.3521 56.6024 14.6626 56.6024 16.8406V19.7446C56.6024 21.9226 55.2103 23.2332 52.8145 23.2332C50.4187 23.2332 49.0266 21.9226 49.0266 19.7446V16.8406ZM55.0115 16.8406C55.0115 15.6149 54.2444 14.9549 52.8618 14.9549C51.4793 14.9549 50.7217 15.6243 50.7217 16.8406V19.7635C50.7217 20.9986 51.4793 21.6492 52.8618 21.6492C54.2444 21.6492 55.0115 20.9703 55.0115 19.7635V16.8406Z" fill="white"/>
    <path d="M67.8812 17.8397C68.2505 17.8397 68.3357 17.9623 68.3357 18.2923V20.0837C68.3457 20.5056 68.2608 20.9245 68.0871 21.3095C67.9134 21.6946 67.6554 22.036 67.3319 22.3088C66.5286 22.9457 65.5157 23.2617 64.491 23.1951C62.0384 23.1951 60.7031 21.8845 60.7031 19.7065V16.7837C60.7031 14.634 62.0857 13.314 64.491 13.314C66.3849 13.314 67.616 14.0588 68.1368 15.5485C68.166 15.6045 68.1816 15.6665 68.1825 15.7295C68.1833 15.7925 68.1694 15.855 68.1419 15.9116C68.1143 15.9684 68.0738 16.018 68.0236 16.0565C67.9734 16.0948 67.9149 16.1211 67.8527 16.1331L67.1141 16.3877C66.7921 16.5008 66.6596 16.4348 66.5459 16.1048C66.389 15.7021 66.1018 15.3629 65.7296 15.1409C65.3575 14.919 64.9217 14.8268 64.491 14.8791C63.099 14.8791 62.3414 15.5485 62.3414 16.7648V19.7631C62.3414 20.9983 63.1084 21.6488 64.491 21.6488C65.8736 21.6488 66.7259 21.0171 66.7259 20.0931V19.3954H64.6709C64.33 19.3954 64.2069 19.2634 64.2069 18.9334V18.2923C64.2069 17.9623 64.33 17.8397 64.6709 17.8397H67.8812Z" fill="white"/>
    <path d="M72.2461 16.8406C72.2461 14.6626 73.6287 13.3521 76.034 13.3521C78.4393 13.3521 79.8219 14.6626 79.8219 16.8406V19.7446C79.8219 21.9226 78.4298 23.2332 76.034 23.2332C73.6381 23.2332 72.2461 21.9226 72.2461 19.7446V16.8406ZM78.2215 16.8406C78.2215 15.6149 77.4544 14.9549 76.0813 14.9549C74.7082 14.9549 73.9317 15.6243 73.9317 16.8406V19.7635C73.9317 20.9986 74.6987 21.6492 76.0813 21.6492C77.4639 21.6492 78.2215 20.9703 78.2215 19.7635V16.8406Z" fill="white"/>
    <path d="M84.2822 13.8235C84.2822 13.616 84.3485 13.55 84.5568 13.55H84.9925C85.2008 13.55 85.2481 13.616 85.2481 13.8235V22.7618C85.2481 22.9692 85.2481 23.0352 84.9925 23.0352H84.5568C84.3485 23.0352 84.2822 22.9692 84.2822 22.7618V13.8235Z" fill="white"/>
    <path d="M93.8749 13.55C94.6636 13.55 95.4198 13.8619 95.9775 14.4172C96.5352 14.9723 96.8484 15.7254 96.8484 16.5106C96.8484 17.2958 96.5352 18.0489 95.9775 18.604C95.4198 19.1593 94.6636 19.4712 93.8749 19.4712H91.034V22.7618C91.034 22.9692 90.9867 23.0352 90.7878 23.0352H90.3427C90.1439 23.0352 90.0681 22.9692 90.0681 22.7618V13.8235C90.0681 13.616 90.1439 13.55 90.3427 13.55H93.8749ZM93.7897 18.5378C94.0608 18.5378 94.3293 18.4846 94.5798 18.3813C94.8301 18.278 95.0578 18.1266 95.2495 17.9358C95.4411 17.7449 95.5932 17.5183 95.697 17.269C95.8007 17.0196 95.8541 16.7523 95.8541 16.4823C95.8541 16.2124 95.8007 15.9451 95.697 15.6957C95.5932 15.4464 95.4411 15.2198 95.2495 15.0289C95.0578 14.8381 94.8301 14.6867 94.5798 14.5833C94.3293 14.4801 94.0608 14.4269 93.7897 14.4269H90.9488V18.5378H93.7897Z" fill="white"/>
    <path d="M104.244 13.3619C104.975 13.2815 105.713 13.4381 106.347 13.8084C106.982 14.1787 107.48 14.7429 107.767 15.4173C107.842 15.5681 107.767 15.6907 107.615 15.7661L107.198 15.9547C107.028 16.0207 106.962 16.0113 106.858 15.8321C106.643 15.3317 106.274 14.9121 105.804 14.6341C105.334 14.3562 104.788 14.2342 104.244 14.2858C102.644 14.2858 101.772 14.9176 101.772 16.049C101.763 16.3947 101.88 16.7323 102.101 16.9991C102.322 17.2659 102.632 17.4442 102.975 17.501C103.484 17.6664 104.012 17.7677 104.547 17.8027C105.194 17.837 105.832 17.9673 106.441 18.1893C106.908 18.3363 107.309 18.6385 107.578 19.0455C107.847 19.4524 107.967 19.9391 107.918 20.4239C107.918 22.187 106.63 23.2524 104.263 23.2524C103.486 23.3409 102.703 23.1617 102.043 22.7448C101.383 22.328 100.886 21.6984 100.636 20.9613C100.619 20.9277 100.61 20.8908 100.609 20.8533C100.609 20.8158 100.616 20.7786 100.632 20.7444C100.647 20.7102 100.67 20.6797 100.698 20.6553C100.727 20.6308 100.761 20.613 100.797 20.603L101.214 20.4521C101.246 20.4387 101.282 20.4323 101.317 20.4333C101.353 20.4342 101.387 20.4425 101.419 20.4576C101.451 20.4727 101.48 20.4942 101.503 20.5209C101.527 20.5476 101.544 20.5787 101.555 20.6124C101.766 21.145 102.143 21.5967 102.63 21.9019C103.117 22.207 103.689 22.3498 104.263 22.3096C106.053 22.3096 106.933 21.6873 106.933 20.4239C106.95 20.0918 106.848 19.7645 106.645 19.5003C106.442 19.2362 106.152 19.0523 105.825 18.9813C105.335 18.8358 104.83 18.7472 104.32 18.7173L103.297 18.5853C102.977 18.5177 102.661 18.4326 102.35 18.3307C102.043 18.2384 101.757 18.0879 101.507 17.8876C101.256 17.6611 101.058 17.3824 100.927 17.0711C100.796 16.7599 100.735 16.4239 100.75 16.0867C100.816 14.4367 102.056 13.3619 104.244 13.3619Z" fill="white"/>
    <path d="M113.022 19.8106C113.062 20.4774 113.357 21.1037 113.845 21.5617C114.334 22.0196 114.98 22.2746 115.65 22.2746C116.321 22.2746 116.966 22.0196 117.455 21.5617C117.944 21.1037 118.237 20.4774 118.278 19.8106V13.8235C118.278 13.616 118.344 13.55 118.553 13.55H118.988C119.196 13.55 119.263 13.616 119.263 13.8235V19.8012C119.263 21.9415 117.994 23.2332 115.655 23.2332C113.316 23.2332 112.047 21.9415 112.047 19.8012V13.8235C112.047 13.616 112.113 13.55 112.312 13.55H112.757C112.956 13.55 113.022 13.616 113.022 13.8235V19.8106Z" fill="white"/>
    <path d="M132.331 13.5504C132.54 13.5504 132.606 13.6164 132.606 13.8239V22.7622C132.606 22.9696 132.54 23.0356 132.331 23.0356H131.934C131.735 23.0356 131.669 22.9696 131.669 22.7622V17.3219C131.669 16.5303 131.723 15.7397 131.83 14.9553H131.773C131.477 15.6725 131.132 16.3687 130.741 17.039L128.705 20.6124C128.68 20.6745 128.636 20.7275 128.581 20.7645C128.525 20.8015 128.459 20.8208 128.392 20.8199H128.127C128.059 20.8202 127.992 20.8007 127.935 20.764C127.878 20.7271 127.832 20.6745 127.805 20.6124L125.741 17.0013C125.374 16.3406 125.058 15.6536 124.794 14.9459H124.737C124.833 15.7374 124.885 16.5339 124.888 17.3313V22.7622C124.888 22.9696 124.822 23.0356 124.614 23.0356H124.244C124.036 23.0356 123.97 22.9696 123.97 22.7622V13.8239C123.97 13.6164 124.036 13.5504 124.244 13.5504H124.585C124.663 13.5433 124.742 13.5601 124.809 13.599C124.877 13.6378 124.931 13.6967 124.964 13.7673L128.278 19.6319L131.574 13.8239C131.678 13.6259 131.735 13.5976 131.943 13.5976L132.331 13.5504Z" fill="white"/>
    <path d="M24.0549 21.6023V28.4191C24.0549 28.6805 23.9506 28.9311 23.765 29.1158C23.5795 29.3006 23.3278 29.4044 23.0653 29.4044C22.8029 29.4044 22.5512 29.3006 22.3656 29.1158C22.18 28.9311 22.0757 28.6805 22.0757 28.4191V21.6117C22.3513 21.8121 22.6816 21.9239 23.0227 21.9323C23.3945 21.9428 23.7588 21.8264 24.0549 21.6023ZM32.4829 19.6317C32.2318 19.6317 31.9909 19.7311 31.8133 19.9079C31.6358 20.0847 31.5359 20.3245 31.5359 20.5746V21.7626C31.5359 22.0239 31.6402 22.2745 31.8258 22.4592C32.0113 22.6441 32.263 22.7479 32.5255 22.7479C32.788 22.7479 33.0397 22.6441 33.2252 22.4592C33.4109 22.2745 33.5151 22.0239 33.5151 21.7626V20.6217C33.5225 20.4865 33.5005 20.3513 33.4507 20.2253C33.4009 20.0994 33.3245 19.9855 33.2265 19.8916C33.1286 19.7977 33.0114 19.7258 32.8832 19.6809C32.7549 19.6361 32.6183 19.6194 32.4829 19.6317ZM19.9261 24.1857C19.5854 24.1755 19.2555 24.0639 18.9791 23.8651V30.7009C18.9791 30.9634 19.0839 31.2153 19.2704 31.4009C19.4568 31.5866 19.7097 31.6909 19.9734 31.6909C20.2372 31.6909 20.4901 31.5866 20.6765 31.4009C20.863 31.2153 20.9678 30.9634 20.9678 30.7009V23.9123C20.6585 24.1113 20.2937 24.2071 19.9261 24.1857ZM29.3958 17.5857C29.2675 17.5793 29.1393 17.599 29.0188 17.6435C28.8984 17.688 28.7884 17.7565 28.6953 17.8446C28.6023 17.9329 28.5284 18.0389 28.4778 18.1565C28.4273 18.2741 28.4013 18.4007 28.4015 18.5286V23.7803C28.4015 24.0429 28.5062 24.2947 28.6927 24.4804C28.8792 24.666 29.1321 24.7703 29.3958 24.7703C29.6595 24.7703 29.9125 24.666 30.0989 24.4804C30.2854 24.2947 30.3901 24.0429 30.3901 23.7803V18.5946C30.3977 18.4585 30.3755 18.3225 30.3252 18.1957C30.2748 18.069 30.1975 17.9547 30.0984 17.8606C29.9994 17.7665 29.8811 17.6948 29.7517 17.6507C29.6222 17.6065 29.4846 17.5907 29.3484 17.6046L29.3958 17.5857ZM26.2519 19.6034C25.8951 19.601 25.548 19.4891 25.2575 19.2829V26.1374C25.2575 26.4 25.3623 26.6519 25.5487 26.8375C25.7353 27.0232 25.9881 27.1274 26.2519 27.1274C26.5156 27.1274 26.7684 27.0232 26.955 26.8375C27.1414 26.6519 27.2462 26.4 27.2462 26.1374V19.2923C26.9458 19.5151 26.579 19.6312 26.2045 19.6223L26.2519 19.6034ZM17.7765 24.8551V5.70571C17.774 5.47229 17.6791 5.24929 17.5124 5.08511C17.3458 4.92093 17.1208 4.82885 16.8863 4.82886H16.678C16.4435 4.82885 16.2186 4.92093 16.0519 5.08511C15.8852 5.24929 15.7903 5.47229 15.7878 5.70571V24.8551C15.7878 25.0902 15.8816 25.3156 16.0486 25.4819C16.2155 25.6481 16.4419 25.7414 16.678 25.7414H16.8863C17.1224 25.7414 17.3488 25.6481 17.5158 25.4819C17.6827 25.3156 17.7765 25.0902 17.7765 24.8551ZM20.0303 23.4597H19.8219C19.5859 23.4597 19.3594 23.3664 19.1925 23.2001C19.0256 23.0339 18.9318 22.8085 18.9318 22.5734V7.98743C18.9343 7.75402 19.0292 7.53099 19.1958 7.36682C19.3625 7.20264 19.5875 7.11056 19.8219 7.11057H20.0303C20.2647 7.11056 20.4897 7.20264 20.6564 7.36682C20.823 7.53099 20.9179 7.75402 20.9204 7.98743V22.5923C20.9204 22.8273 20.8266 23.0528 20.6597 23.219C20.4928 23.3852 20.2663 23.4786 20.0303 23.4786V23.4597ZM23.1647 21.2157H22.9469C22.7134 21.2157 22.4894 21.1233 22.3242 20.9589C22.1591 20.7944 22.0663 20.5715 22.0663 20.3389V10.2503C22.065 10.1343 22.0869 10.0193 22.1305 9.91183C22.1742 9.80435 22.2389 9.70658 22.3208 9.62415C22.4027 9.54173 22.5002 9.47629 22.6077 9.43164C22.7152 9.38699 22.8305 9.36399 22.9469 9.364H23.1647C23.3992 9.36649 23.6232 9.46095 23.788 9.6269C23.953 9.79284 24.0454 10.0169 24.0454 10.2503V20.3389C24.0454 20.5715 23.9526 20.7944 23.7875 20.9589C23.6223 21.1233 23.3984 21.2157 23.1647 21.2157ZM26.2992 18.9057H26.1003C25.8659 18.9057 25.6409 18.8137 25.4742 18.6494C25.3075 18.4853 25.2127 18.2623 25.2102 18.0289V12.598C25.2024 12.4769 25.2197 12.3556 25.2609 12.2414C25.3021 12.1273 25.3665 12.0228 25.45 11.9344C25.5334 11.846 25.6341 11.7756 25.7461 11.7276C25.8579 11.6796 25.9785 11.6549 26.1003 11.6551H26.3087C26.5448 11.6551 26.7712 11.7485 26.9381 11.9147C27.1051 12.0809 27.1988 12.3064 27.1988 12.5414V18.01C27.2001 18.1272 27.178 18.2435 27.1338 18.3521C27.0896 18.4607 27.0243 18.5595 26.9414 18.6428C26.8587 18.7261 26.7602 18.7922 26.6515 18.8374C26.5429 18.8825 26.4264 18.9057 26.3087 18.9057H26.2992ZM29.4431 16.8786H29.2348C28.9987 16.8786 28.7723 16.7852 28.6054 16.619C28.4384 16.4528 28.3447 16.2273 28.3447 15.9923V14.5874C28.3471 14.354 28.442 14.131 28.6087 13.9668C28.7753 13.8026 29.0003 13.7106 29.2348 13.7106H29.4431C29.6776 13.7106 29.9026 13.8026 30.0693 13.9668C30.2359 14.131 30.3308 14.354 30.3333 14.5874V15.9923C30.3333 16.2257 30.2409 16.4498 30.0759 16.6157C29.911 16.7816 29.6871 16.8761 29.4526 16.8786H29.4431Z" fill="white"/>
  </g>
</svg>