<svg xmlns="http://www.w3.org/2000/svg" width="15" height="10" viewBox="0 0 15 10" fill="none">
  <path d="M11.9318 9.00204L14.3811 6.55267C14.7789 6.13588 15.0008 5.5819 15.0008 5.00579C15.0008 4.42968 14.7789 3.8757 14.3811 3.45891L11.9318 1.00954C11.756 0.833667 11.5175 0.73483 11.2689 0.734772C11.0202 0.734713 10.7817 0.833438 10.6058 1.00923C10.43 1.18502 10.3311 1.42347 10.3311 1.67213C10.331 1.92079 10.4297 2.15929 10.6055 2.33516L12.343 4.07329L0.936768 4.08767C0.688127 4.08767 0.44967 4.18644 0.273855 4.36225C0.0980396 4.53807 -0.000732422 4.77653 -0.000732422 5.02517C-0.000732422 5.27381 0.0980396 5.51226 0.273855 5.68808C0.44967 5.86389 0.688127 5.96267 0.936768 5.96267L12.3311 5.94829L10.6055 7.67642C10.4347 7.85323 10.3403 8.09005 10.3424 8.33586C10.3445 8.58167 10.4431 8.8168 10.6169 8.99062C10.7908 9.16444 11.0259 9.26304 11.2717 9.26518C11.5175 9.26731 11.7543 9.17282 11.9311 9.00204H11.9318Z" fill="white"/>
</svg>