<svg xmlns="http://www.w3.org/2000/svg" width="20" height="20" viewBox="0 0 20 20" fill="none">
  <g opacity="0.5">
    <path d="M10 20C4.48593 20 0 15.5141 0 10C0 4.48593 4.48593 0 10 0C15.5141 0 20 4.48593 20 10C20 15.5141 15.5141 20 10 20ZM10 1.42857C5.27343 1.42857 1.42857 5.27379 1.42857 10C1.42857 14.7262 5.27343 18.5714 10 18.5714C14.7266 18.5714 18.5714 14.7262 18.5714 10C18.5714 5.27379 14.7266 1.42857 10 1.42857Z" fill="white"/>
    <path d="M16.7857 17.0501C16.5953 17.0501 16.4049 16.9741 16.2639 16.8237C14.5278 14.9668 13.5714 12.5436 13.5714 9.99999C13.5714 7.45642 14.5278 5.03313 16.2639 3.17628C16.5339 2.88713 16.9866 2.87392 17.2733 3.14242C17.5614 3.41199 17.5767 3.86406 17.3075 4.15213C15.8197 5.74321 15 7.82013 15 9.99999C15 12.1798 15.8197 14.2568 17.3075 15.8478C17.5768 16.1359 17.5614 16.5879 17.2733 16.8576C17.1359 16.9863 16.9608 17.0501 16.7857 17.0501Z" fill="white"/>
    <path d="M15.7136 10.8827C15.6061 10.8827 15.4973 10.8587 15.3948 10.8074C14.7 10.46 13.8713 10.46 13.1766 10.8074C12.8236 10.9842 12.3953 10.8405 12.2181 10.4879C12.0416 10.1349 12.1846 9.70594 12.5376 9.52944C13.6328 8.98258 14.9386 8.98258 16.0337 9.52944C16.3866 9.70594 16.5296 10.1349 16.3532 10.4879C16.2277 10.7384 15.9758 10.8827 15.7136 10.8827Z" fill="white"/>
    <path d="M16.1307 8.18536C15.9417 8.18536 15.7526 8.11072 15.6117 7.96215C15.0781 7.39815 14.2989 7.11429 13.5274 7.20358C13.1319 7.24858 12.7811 6.96708 12.7364 6.57543C12.6911 6.18343 12.9722 5.82908 13.3642 5.78408C14.5807 5.64422 15.8077 6.09101 16.6496 6.98001C16.9203 7.26636 16.9084 7.71836 16.6217 7.98972C16.4836 8.12051 16.3072 8.18536 16.1307 8.18536Z" fill="white"/>
    <path d="M13.561 14.5372C13.3845 14.5372 13.2081 14.4724 13.0699 14.3416C12.7832 14.0702 12.7713 13.6182 13.042 13.3319C13.8832 12.4432 15.1102 11.9981 16.3274 12.1359C16.7194 12.1809 17.0006 12.5353 16.9552 12.9273C16.9098 13.3189 16.559 13.5976 16.1642 13.5554C15.3983 13.4669 14.6136 13.7497 14.0799 14.314C13.939 14.4622 13.75 14.5372 13.561 14.5372Z" fill="white"/>
    <path d="M3.21428 17.0501C3.03921 17.0501 2.86414 16.9862 2.72671 16.8576C2.43864 16.588 2.42328 16.1359 2.69249 15.8479C4.18035 14.2568 4.99999 12.1799 4.99999 10C4.99999 7.82015 4.18035 5.74322 2.69249 4.15215C2.42321 3.86407 2.43857 3.41207 2.72671 3.14243C3.01407 2.87457 3.46614 2.88786 3.73607 3.17629C5.47221 5.03315 6.42857 7.45643 6.42857 10C6.42857 12.5436 5.47221 14.9669 3.73607 16.8237C3.59514 16.9741 3.40471 17.0501 3.21428 17.0501Z" fill="white"/>
    <path d="M7.14215 10.8827C7.03472 10.8827 6.92594 10.8587 6.82336 10.8074C6.12858 10.46 5.29994 10.46 4.60515 10.8074C4.25222 10.9842 3.82386 10.8405 3.64672 10.4879C3.47022 10.1349 3.61322 9.70594 3.96622 9.52944C5.06137 8.98258 6.36715 8.98258 7.46229 9.52944C7.81522 9.70594 7.95822 10.1349 7.78179 10.4879C7.65629 10.7384 7.40444 10.8827 7.14215 10.8827Z" fill="white"/>
    <path d="M3.86928 8.18535C3.69278 8.18535 3.51635 8.12049 3.37821 7.9897C3.09149 7.71835 3.07964 7.26635 3.35028 6.97999C4.19221 6.09099 5.41714 5.64492 6.63571 5.78406C7.02771 5.82906 7.30885 6.18342 7.26349 6.57542C7.21814 6.96706 6.86592 7.24785 6.47249 7.20356C5.70935 7.11356 4.92185 7.3982 4.38821 7.96213C4.24735 8.11035 4.05828 8.18535 3.86928 8.18535Z" fill="white"/>
    <path d="M6.439 14.5372C6.25 14.5372 6.06093 14.4626 5.92 14.314C5.38636 13.7497 4.6065 13.4675 3.83572 13.5554C3.43879 13.5984 3.09007 13.3189 3.04472 12.9273C2.99936 12.5353 3.2805 12.1809 3.6725 12.1359C4.88829 11.9971 6.116 12.4432 6.95793 13.3319C7.22857 13.6182 7.21672 14.0702 6.93 14.3416C6.792 14.4723 6.6155 14.5372 6.439 14.5372Z" fill="white"/>
  </g>
</svg>