<svg xmlns="http://www.w3.org/2000/svg" width="20" height="20" viewBox="0 0 20 20" fill="none">
  <g opacity="0.5">
    <path d="M10 20C4.48593 20 0 15.5141 0 10C0 4.48593 4.48593 0 10 0C15.5141 0 20 4.48593 20 10C20 15.5141 15.5141 20 10 20ZM10 1.42857C5.27343 1.42857 1.42857 5.27379 1.42857 10C1.42857 14.7262 5.27343 18.5714 10 18.5714C14.7266 18.5714 18.5714 14.7262 18.5714 10C18.5714 5.27379 14.7266 1.42857 10 1.42857Z" fill="#04111E"/>
    <path d="M16.7857 17.0501C16.5953 17.0501 16.4048 16.9741 16.2639 16.8237C14.5278 14.9668 13.5714 12.5436 13.5714 9.99999C13.5714 7.45642 14.5278 5.03313 16.2639 3.17628C16.5338 2.88713 16.9866 2.87392 17.2733 3.14242C17.5613 3.41199 17.5767 3.86406 17.3075 4.15213C15.8196 5.74321 15 7.82013 15 9.99999C15 12.1798 15.8196 14.2568 17.3075 15.8478C17.5768 16.1359 17.5614 16.5879 17.2733 16.8576C17.1358 16.9863 16.9608 17.0501 16.7857 17.0501Z" fill="#04111E"/>
    <path d="M15.7136 10.8827C15.6062 10.8827 15.4974 10.8587 15.3948 10.8074C14.7001 10.46 13.8714 10.46 13.1766 10.8074C12.8237 10.9842 12.3953 10.8405 12.2182 10.4879C12.0417 10.1349 12.1847 9.70594 12.5377 9.52944C13.6328 8.98258 14.9386 8.98258 16.0338 9.52944C16.3867 9.70594 16.5297 10.1349 16.3533 10.4879C16.2278 10.7384 15.9759 10.8827 15.7136 10.8827Z" fill="#04111E"/>
    <path d="M16.1308 8.18536C15.9418 8.18536 15.7527 8.11072 15.6118 7.96215C15.0781 7.39815 14.299 7.11429 13.5275 7.20358C13.132 7.24858 12.7811 6.96708 12.7365 6.57543C12.6911 6.18343 12.9723 5.82908 13.3643 5.78408C14.5808 5.64422 15.8078 6.09101 16.6497 6.98001C16.9203 7.26636 16.9085 7.71836 16.6218 7.98972C16.4837 8.12051 16.3073 8.18536 16.1308 8.18536Z" fill="#04111E"/>
    <path d="M13.561 14.5372C13.3845 14.5372 13.2081 14.4724 13.0699 14.3416C12.7832 14.0702 12.7713 13.6182 13.042 13.3319C13.8832 12.4432 15.1102 11.9981 16.3274 12.1359C16.7194 12.1809 17.0006 12.5353 16.9552 12.9273C16.9098 13.3189 16.559 13.5976 16.1642 13.5554C15.3983 13.4669 14.6136 13.7497 14.0799 14.314C13.939 14.4622 13.75 14.5372 13.561 14.5372Z" fill="#04111E"/>
    <path d="M3.21425 17.0501C3.03918 17.0501 2.86411 16.9862 2.72668 16.8576C2.43861 16.588 2.42325 16.1359 2.69246 15.8479C4.18032 14.2568 4.99996 12.1799 4.99996 10C4.99996 7.82015 4.18032 5.74322 2.69246 4.15215C2.42318 3.86407 2.43854 3.41207 2.72668 3.14243C3.01404 2.87457 3.46611 2.88786 3.73604 3.17629C5.47218 5.03315 6.42854 7.45643 6.42854 10C6.42854 12.5436 5.47218 14.9669 3.73604 16.8237C3.59511 16.9741 3.40468 17.0501 3.21425 17.0501Z" fill="#04111E"/>
    <path d="M7.14209 10.8827C7.03466 10.8827 6.92588 10.8587 6.8233 10.8074C6.12852 10.46 5.29988 10.46 4.60509 10.8074C4.25216 10.9842 3.8238 10.8405 3.64666 10.4879C3.47016 10.1349 3.61316 9.70594 3.96616 9.52944C5.0613 8.98258 6.36709 8.98258 7.46223 9.52944C7.81516 9.70594 7.95816 10.1349 7.78173 10.4879C7.65623 10.7384 7.40438 10.8827 7.14209 10.8827Z" fill="#04111E"/>
    <path d="M3.86934 8.18535C3.69284 8.18535 3.51641 8.12049 3.37827 7.9897C3.09155 7.71835 3.0797 7.26635 3.35034 6.97999C4.19227 6.09099 5.4172 5.64492 6.63577 5.78406C7.02777 5.82906 7.30891 6.18342 7.26355 6.57542C7.2182 6.96706 6.86598 7.24785 6.47255 7.20356C5.70941 7.11356 4.92191 7.3982 4.38827 7.96213C4.24741 8.11035 4.05834 8.18535 3.86934 8.18535Z" fill="#04111E"/>
    <path d="M6.439 14.5372C6.25 14.5372 6.06093 14.4626 5.92 14.314C5.38636 13.7497 4.6065 13.4675 3.83572 13.5554C3.43879 13.5984 3.09007 13.3189 3.04472 12.9273C2.99936 12.5353 3.2805 12.1809 3.6725 12.1359C4.88829 11.9971 6.116 12.4432 6.95793 13.3319C7.22857 13.6182 7.21672 14.0702 6.93 14.3416C6.792 14.4723 6.6155 14.5372 6.439 14.5372Z" fill="#04111E"/>
  </g>
</svg>