<svg xmlns="http://www.w3.org/2000/svg" width="20" height="20" viewBox="0 0 20 20" fill="none">
  <g opacity="0.5">
    <path d="M16.6655 17.4536C16.4575 17.6616 16.1333 17.7267 15.8528 17.5932C12.9361 16.2044 10.2872 14.3297 7.97877 12.0212C5.67034 9.71272 3.79562 7.06385 2.40676 4.14722C2.23725 3.7912 2.38854 3.36557 2.74478 3.19485C3.10108 3.02513 3.52742 3.17663 3.69714 3.53286C5.01597 6.30193 6.79636 8.81766 8.98931 11.0106C11.1822 13.2035 13.698 14.984 16.4671 16.3028C16.8234 16.4725 16.9749 16.8989 16.8051 17.2551C16.7689 17.331 16.7215 17.3976 16.6655 17.4536Z" fill="white"/>
    <path d="M17.0743 17.0743C13.1735 20.9752 6.82653 20.9752 2.92566 17.0743C-0.975219 13.1735 -0.975219 6.82653 2.92566 2.92566C6.82653 -0.975219 13.1735 -0.975219 17.0743 2.92566C20.9752 6.82653 20.9752 13.1735 17.0743 17.0743ZM3.93627 3.93627C0.592792 7.27974 0.592792 12.7202 3.93627 16.0637C7.27974 19.4073 12.7202 19.4072 16.0637 16.0637C19.4073 12.7203 19.4072 7.27981 16.0637 3.93627C12.7203 0.59272 7.27974 0.592792 3.93627 3.93627Z" fill="white"/>
    <path d="M19.7275 9.41894C19.673 9.47347 19.6083 9.51984 19.5351 9.55565C16.2363 11.1653 12.9695 10.9482 11.0107 8.98938C9.05193 7.03055 8.83476 3.76383 10.4444 0.465014C10.6172 0.110707 11.0452 -0.0370758 11.3998 0.135861C11.7548 0.308799 11.9019 0.736639 11.729 1.09123C10.3951 3.8255 10.5071 6.46457 12.0213 7.97877C13.5355 9.49298 16.1746 9.60503 18.9088 8.27112C19.2634 8.09819 19.6912 8.24518 19.8642 8.60028C20.0014 8.88155 19.9372 9.2092 19.7275 9.41894Z" fill="white"/>
    <path d="M8.19144 19.4993C8.02443 19.6663 7.77817 19.7472 7.52992 19.692C7.14502 19.6061 6.9022 19.2242 6.98831 18.839C7.43073 16.853 7.06456 15.1496 5.95748 14.0425C4.85039 12.9354 3.14696 12.5693 1.16097 13.0117C0.775794 13.0978 0.393903 12.855 0.308006 12.4701C0.222609 12.0842 0.46515 11.702 0.850114 11.6171C3.29424 11.0723 5.5242 11.588 6.96809 13.0319C8.41197 14.4758 8.92764 16.7058 8.38288 19.1499C8.35258 19.2873 8.28419 19.4065 8.19144 19.4993Z" fill="white"/>
    <path d="M17.0743 3.93627L3.93627 17.0743C3.65722 17.3534 3.20472 17.3534 2.92566 17.0743C2.64661 16.7953 2.64661 16.3428 2.92566 16.0637L16.0637 2.92566C16.3428 2.64661 16.7953 2.64661 17.0743 2.92566C17.3534 3.20472 17.3534 3.65722 17.0743 3.93627Z" fill="white"/>
  </g>
</svg>