<svg xmlns="http://www.w3.org/2000/svg" width="20" height="20" viewBox="0 0 20 20" fill="none">
  <g opacity="0.5">
    <path d="M16.6656 17.4536C16.4576 17.6616 16.1334 17.7267 15.8529 17.5932C12.9363 16.2044 10.2873 14.3297 7.97889 12.0212C5.67046 9.71272 3.79574 7.06385 2.40688 4.14722C2.23738 3.7912 2.38866 3.36557 2.7449 3.19485C3.10121 3.02513 3.52754 3.17663 3.69727 3.53286C5.01609 6.30193 6.79649 8.81766 8.98943 11.0106C11.1824 13.2035 13.6981 14.984 16.4672 16.3028C16.8235 16.4725 16.975 16.8989 16.8052 17.2551C16.769 17.331 16.7216 17.3976 16.6656 17.4536Z" fill="#04111E"/>
    <path d="M17.0743 17.0743C13.1735 20.9752 6.82653 20.9752 2.92566 17.0743C-0.975219 13.1735 -0.975219 6.82653 2.92566 2.92566C6.82653 -0.975219 13.1735 -0.975219 17.0743 2.92566C20.9752 6.82653 20.9752 13.1735 17.0743 17.0743ZM3.93627 3.93627C0.592792 7.27974 0.592792 12.7202 3.93627 16.0637C7.27974 19.4073 12.7202 19.4072 16.0637 16.0637C19.4073 12.7203 19.4072 7.27981 16.0637 3.93627C12.7203 0.59272 7.27974 0.592792 3.93627 3.93627Z" fill="#04111E"/>
    <path d="M19.7275 9.41894C19.673 9.47347 19.6083 9.51984 19.5351 9.55565C16.2363 11.1653 12.9695 10.9482 11.0107 8.98938C9.05193 7.03055 8.83476 3.76383 10.4444 0.465014C10.6172 0.110707 11.0452 -0.0370758 11.3998 0.135861C11.7548 0.308799 11.9019 0.736639 11.729 1.09123C10.3951 3.8255 10.5071 6.46457 12.0213 7.97877C13.5355 9.49298 16.1746 9.60503 18.9088 8.27112C19.2634 8.09819 19.6912 8.24518 19.8642 8.60028C20.0014 8.88155 19.9372 9.2092 19.7275 9.41894Z" fill="#04111E"/>
    <path d="M8.19156 19.4993C8.02455 19.6663 7.7783 19.7472 7.53004 19.692C7.14515 19.6061 6.90232 19.2242 6.98843 18.839C7.43085 16.853 7.06468 15.1496 5.9576 14.0425C4.85051 12.9354 3.14708 12.5693 1.16109 13.0117C0.775916 13.0978 0.394025 12.855 0.308128 12.4701C0.222731 12.0842 0.465272 11.702 0.850236 11.6171C3.29437 11.0723 5.52433 11.588 6.96821 13.0319C8.41209 14.4758 8.92776 16.7058 8.38301 19.1499C8.35271 19.2873 8.28432 19.4065 8.19156 19.4993Z" fill="#04111E"/>
    <path d="M17.0743 3.93627L3.93621 17.0743C3.65715 17.3534 3.20466 17.3534 2.9256 17.0743C2.64654 16.7953 2.64654 16.3428 2.9256 16.0637L16.0637 2.92566C16.3427 2.64661 16.7952 2.64661 17.0743 2.92566C17.3533 3.20472 17.3533 3.65722 17.0743 3.93627Z" fill="#04111E"/>
  </g>
</svg>