<svg xmlns="http://www.w3.org/2000/svg" width="22" height="22" viewBox="0 0 22 22" fill="none">
  <path d="M19.25 10.3125V17.875C19.25 18.2397 19.1051 18.5894 18.8473 18.8473C18.5894 19.1051 18.2397 19.25 17.875 19.25H4.8125C4.44783 19.25 4.09809 19.1051 3.84023 18.8473C3.58237 18.5894 3.4375 18.2397 3.4375 17.875V10.3125M11 4.46875C11 3.99284 10.8589 3.52762 10.5945 3.13191C10.3301 2.7362 9.95427 2.42779 9.51458 2.24567C9.0749 2.06354 8.59108 2.01589 8.12431 2.10874C7.65755 2.20158 7.22879 2.43076 6.89227 2.76728C6.55575 3.1038 6.32658 3.53255 6.23374 3.99932C6.14089 4.46608 6.18854 4.9499 6.37066 5.38958C6.55279 5.82927 6.8612 6.20507 7.25691 6.46947C7.65262 6.73388 8.11784 6.875 8.59375 6.875H11M11 4.46875V6.875M11 4.46875C11 3.99284 11.1411 3.52762 11.4055 3.13191C11.6699 2.7362 12.0457 2.42779 12.4854 2.24567C12.9251 2.06354 13.4089 2.01589 13.8757 2.10874C14.3425 2.20158 14.7712 2.43076 15.1077 2.76728C15.4442 3.1038 15.6734 3.53255 15.7663 3.99932C15.8591 4.46608 15.8115 4.9499 15.6293 5.38958C15.4472 5.82927 15.1388 6.20507 14.7431 6.46947C14.3474 6.73388 13.8822 6.875 13.4063 6.875H11M11 6.875V19.25M3.09375 10.3125H19.5938C20.163 10.3125 20.625 9.8505 20.625 9.28125V7.90625C20.625 7.337 20.163 6.875 19.5938 6.875H3.09375C2.5245 6.875 2.0625 7.337 2.0625 7.90625V9.28125C2.0625 9.8505 2.5245 10.3125 3.09375 10.3125Z" stroke="#0066EC" stroke-width="1.5" stroke-linecap="round" stroke-linejoin="round"/>
</svg>