 <svg xmlns="http://www.w3.org/2000/svg" width="14" height="14" viewBox="0 0 14 14"
                        fill="">
                        <path opacity="0.5"
                            d="M0.145396 13.854C0.191833 13.9005 0.246977 13.9374 0.307676 13.9626C0.368375 13.9877 0.433439 14.0007 0.499146 14.0007C0.564854 14.0007 0.629917 13.9877 0.690616 13.9626C0.751316 13.9374 0.80646 13.9005 0.852896 13.854L6.9979 7.70903L13.1454 13.854C13.2392 13.9478 13.3665 14.0006 13.4991 14.0006C13.6318 14.0006 13.7591 13.9478 13.8529 13.854C13.9467 13.7602 13.9994 13.633 13.9994 13.5003C13.9994 13.3676 13.9467 13.2403 13.8529 13.1465L7.7054 7.00153L13.8504 0.854028C13.9442 0.760208 13.9969 0.63296 13.9969 0.500278C13.9969 0.367596 13.9442 0.240348 13.8504 0.146528C13.7566 0.0527077 13.6293 0 13.4966 0C13.364 0 13.2367 0.0527077 13.1429 0.146528L6.9979 6.29403L0.850396 0.149028C0.754746 0.0671149 0.631708 0.0243118 0.50587 0.0291724C0.380032 0.034033 0.260662 0.0861991 0.171615 0.175246C0.0825674 0.264294 0.0304013 0.383663 0.0255407 0.509501C0.0206801 0.635339 0.0634832 0.758377 0.145396 0.854028L6.2904 7.00153L0.145396 13.149C0.0522709 13.2427 0 13.3694 0 13.5015C0 13.6336 0.0522709 13.7603 0.145396 13.854Z"
                            fill="var(--color-default)" />
                    </svg>