<svg xmlns="http://www.w3.org/2000/svg" width="24" height="24" viewBox="0 0 24 24" fill="none">
  <path fill-rule="evenodd" clip-rule="evenodd" d="M17.715 15.15C16.4556 15.8672 14.9927 16.1429 13.5587 15.9334C12.1247 15.7239 10.8018 15.0412 9.80023 13.9937C8.7987 12.9462 8.17596 11.594 8.03097 10.152C7.88598 8.71001 8.22705 7.26093 9 6.035C6.106 6.922 4 9.645 4 12.867C4 16.807 7.153 20.003 11.042 20.003C14.143 20.003 16.776 17.971 17.715 15.15Z" fill="#088B33" fill-opacity="0.1" stroke="white" stroke-width="2" stroke-linejoin="round"/>
  <path fill-rule="evenodd" clip-rule="evenodd" d="M17 3C17.2652 3 17.5196 3.10536 17.7071 3.29289C17.8946 3.48043 18 3.73478 18 4C18 4.53043 18.2107 5.03914 18.5858 5.41421C18.9609 5.78929 19.4696 6 20 6C20.2652 6 20.5196 6.10536 20.7071 6.29289C20.8946 6.48043 21 6.73478 21 7C21 7.26522 20.8946 7.51957 20.7071 7.70711C20.5196 7.89464 20.2652 8 20 8C19.4696 8 18.9609 8.21071 18.5858 8.58579C18.2107 8.96086 18 9.46957 18 10C18 10.2652 17.8946 10.5196 17.7071 10.7071C17.5196 10.8946 17.2652 11 17 11C16.7348 11 16.4804 10.8946 16.2929 10.7071C16.1054 10.5196 16 10.2652 16 10C16 9.46957 15.7893 8.96086 15.4142 8.58579C15.0391 8.21071 14.5304 8 14 8C13.7348 8 13.4804 7.89464 13.2929 7.70711C13.1054 7.51957 13 7.26522 13 7C13 6.73478 13.1054 6.48043 13.2929 6.29289C13.4804 6.10536 13.7348 6 14 6C14.5304 6 15.0391 5.78929 15.4142 5.41421C15.7893 5.03914 16 4.53043 16 4C16 3.73478 16.1054 3.48043 16.2929 3.29289C16.4804 3.10536 16.7348 3 17 3Z" fill="white"/>
</svg>