<svg xmlns="http://www.w3.org/2000/svg" width="20" height="20" viewBox="0 0 20 20" fill="none">
  <g opacity="0.5">
    <path d="M6.35683 19.9883C4.30629 19.9883 2.5441 19.4381 1.55004 18.444C-1.07918 15.8148 -0.435966 8.50097 4.03509 4.02915C6.14601 1.91787 8.96475 0.528394 11.9709 0.116528C14.7093 -0.258994 17.1937 0.28784 18.45 1.5441C21.0792 4.17332 20.436 11.4872 15.9648 15.959C13.8539 18.0703 11.0352 19.4597 8.02904 19.8716C7.45795 19.9498 6.89706 19.9883 6.35683 19.9883ZM13.6548 1.40541C13.1743 1.40541 12.6732 1.43936 12.1618 1.50938C10.5959 1.72392 7.58701 2.46569 5.02915 5.02314C0.985706 9.06686 0.626703 15.5326 2.54403 17.4499C3.48178 18.3866 5.55911 18.7902 7.83825 18.4786C9.4041 18.2641 12.413 17.5223 14.9709 14.9648C19.0143 10.9211 19.3733 4.45542 17.456 2.53809C16.729 1.81151 15.3162 1.40541 13.6548 1.40541Z" fill="white"/>
    <path d="M18.8495 8.80576C18.7252 8.80576 18.5996 8.77314 18.4857 8.70383C17.0894 7.8574 15.7397 6.7865 14.4738 5.52026C13.2093 4.25605 12.1377 2.90608 11.2899 1.50803C11.0888 1.17609 11.1952 0.743627 11.5267 0.542509C11.859 0.342025 12.2915 0.447399 12.4926 0.778986C13.2814 2.08094 14.283 3.34163 15.4678 4.52585C16.6541 5.71245 17.9145 6.71368 19.2147 7.50177C19.5463 7.70288 19.6526 8.13507 19.4515 8.46729C19.319 8.68527 19.087 8.80576 18.8495 8.80576Z" fill="white"/>
    <path d="M8.10939 19.5472C7.87185 19.5472 7.63981 19.4267 7.50737 19.2088C6.71794 17.9068 5.71699 16.6465 4.53215 15.4623C3.3459 14.2757 2.08549 13.2744 0.785291 12.4863C0.453703 12.2852 0.347345 11.853 0.548463 11.5208C0.750283 11.1889 1.18275 11.0822 1.51433 11.2843C2.91063 12.1308 4.26031 13.2017 5.52614 14.4679C6.79063 15.7318 7.86159 17.0817 8.71007 18.4797C8.91118 18.8117 8.80546 19.2441 8.47324 19.4452C8.35929 19.5143 8.23367 19.5472 8.10939 19.5472Z" fill="white"/>
    <path d="M12.9821 9.70295C12.8022 9.70295 12.6224 9.63427 12.4851 9.49698L10.4971 7.50859C10.2225 7.23401 10.2225 6.78882 10.4971 6.51453C10.7716 6.23995 11.2165 6.23995 11.4911 6.51453L13.4792 8.50293C13.7538 8.7775 13.7538 9.22269 13.4792 9.49698C13.3418 9.63434 13.1619 9.70295 12.9821 9.70295Z" fill="white"/>
    <path d="M11.4911 12.1881C11.3112 12.1881 11.1314 12.1194 10.9941 11.9821L8.01196 9.00001C7.73739 8.72543 7.73739 8.28059 8.01196 8.00595C8.28654 7.7313 8.73138 7.73137 9.00602 8.00595L11.9881 10.9881C12.2627 11.2626 12.2627 11.7075 11.9881 11.9821C11.8508 12.1194 11.671 12.1881 11.4911 12.1881Z" fill="white"/>
    <path d="M9.00592 13.6795C8.82603 13.6795 8.64621 13.6108 8.50892 13.4735L6.52087 11.4851C6.2463 11.2105 6.2463 10.7654 6.52087 10.4911C6.79545 10.2165 7.24029 10.2165 7.51493 10.4911L9.50298 12.4795C9.77756 12.754 9.77756 13.1992 9.50298 13.4735C9.36569 13.6108 9.1858 13.6795 9.00592 13.6795Z" fill="white"/>
    <path d="M7.01787 13.6795C6.83798 13.6795 6.65816 13.6108 6.52087 13.4735C6.2463 13.1989 6.2463 12.7541 6.52087 12.4794L12.4851 6.51453C12.7597 6.23995 13.2045 6.23995 13.4791 6.51453C13.7538 6.7891 13.7537 7.23394 13.4791 7.50859L7.51493 13.4735C7.37757 13.6108 7.19776 13.6795 7.01787 13.6795Z" fill="white"/>
  </g>
</svg>