<svg xmlns="http://www.w3.org/2000/svg" width="20" height="20" viewBox="0 0 20 20" fill="none">
  <g opacity="0.5">
    <path d="M6.35683 19.9883C4.30629 19.9883 2.5441 19.4381 1.55004 18.444C-1.07918 15.8148 -0.435966 8.50097 4.03509 4.02915C6.14601 1.91787 8.96475 0.528394 11.9709 0.116528C14.7093 -0.258994 17.1937 0.28784 18.45 1.5441C21.0792 4.17332 20.436 11.4872 15.9648 15.959C13.8539 18.0703 11.0352 19.4597 8.02904 19.8716C7.45795 19.9498 6.89706 19.9883 6.35683 19.9883ZM13.6548 1.40541C13.1743 1.40541 12.6732 1.43936 12.1618 1.50938C10.5959 1.72392 7.58701 2.46569 5.02915 5.02314C0.985706 9.06686 0.626703 15.5326 2.54403 17.4499C3.48178 18.3866 5.55911 18.7902 7.83825 18.4786C9.4041 18.2641 12.413 17.5223 14.9709 14.9648C19.0143 10.9211 19.3733 4.45542 17.456 2.53809C16.729 1.81151 15.3162 1.40541 13.6548 1.40541Z" fill="#04111E"/>
    <path d="M18.8496 8.80576C18.7253 8.80576 18.5997 8.77314 18.4857 8.70383C17.0894 7.8574 15.7397 6.7865 14.4739 5.52026C13.2093 4.25605 12.1378 2.90608 11.29 1.50803C11.0889 1.17609 11.1952 0.743627 11.5268 0.542509C11.8591 0.342025 12.2916 0.447399 12.4927 0.778986C13.2815 2.08094 14.2831 3.34163 15.4679 4.52585C16.6541 5.71245 17.9146 6.71368 19.2148 7.50177C19.5463 7.70288 19.6527 8.13507 19.4516 8.46729C19.3191 8.68527 19.0871 8.80576 18.8496 8.80576Z" fill="#04111E"/>
    <path d="M8.10945 19.5472C7.87191 19.5472 7.63987 19.4267 7.50743 19.2088C6.718 17.9068 5.71705 16.6465 4.53221 15.4623C3.34596 14.2757 2.08555 13.2744 0.785352 12.4863C0.453764 12.2852 0.347406 11.853 0.548524 11.5208C0.750344 11.1889 1.18281 11.0822 1.51439 11.2843C2.91069 12.1308 4.26038 13.2017 5.5262 14.4679C6.79069 15.7318 7.86165 17.0817 8.71013 18.4797C8.91124 18.8117 8.80552 19.2441 8.4733 19.4452C8.35935 19.5143 8.23373 19.5472 8.10945 19.5472Z" fill="#04111E"/>
    <path d="M12.982 9.70295C12.8021 9.70295 12.6223 9.63427 12.485 9.49698L10.4969 7.50859C10.2224 7.23401 10.2224 6.78882 10.4969 6.51453C10.7715 6.23995 11.2164 6.23995 11.491 6.51453L13.4791 8.50293C13.7536 8.7775 13.7536 9.22269 13.4791 9.49698C13.3417 9.63434 13.1618 9.70295 12.982 9.70295Z" fill="#04111E"/>
    <path d="M11.4909 12.1881C11.3111 12.1881 11.1312 12.1194 10.9939 11.9821L8.01184 9.00001C7.73726 8.72543 7.73726 8.28059 8.01184 8.00595C8.28642 7.7313 8.73125 7.73137 9.0059 8.00595L11.988 10.9881C12.2626 11.2626 12.2626 11.7075 11.988 11.9821C11.8506 12.1194 11.6708 12.1881 11.4909 12.1881Z" fill="#04111E"/>
    <path d="M9.00592 13.6795C8.82603 13.6795 8.64621 13.6108 8.50892 13.4735L6.52087 11.4851C6.2463 11.2105 6.2463 10.7654 6.52087 10.4911C6.79545 10.2165 7.24029 10.2165 7.51493 10.4911L9.50298 12.4795C9.77756 12.754 9.77756 13.1992 9.50298 13.4735C9.36569 13.6108 9.1858 13.6795 9.00592 13.6795Z" fill="#04111E"/>
    <path d="M7.01787 13.6795C6.83798 13.6795 6.65816 13.6108 6.52087 13.4735C6.2463 13.1989 6.2463 12.7541 6.52087 12.4794L12.4851 6.51453C12.7597 6.23995 13.2045 6.23995 13.4791 6.51453C13.7538 6.7891 13.7537 7.23394 13.4791 7.50859L7.51493 13.4735C7.37757 13.6108 7.19776 13.6795 7.01787 13.6795Z" fill="#04111E"/>
  </g>
</svg>