<svg xmlns="http://www.w3.org/2000/svg" width="14" height="15" viewBox="0 0 14 15" fill="none">
  <g clip-path="url(#clip0_37_27)">
    <path d="M6.5 0.5C4.99215 0.501863 3.5466 1.10168 2.48039 2.16789C1.41418 3.2341 0.814363 4.67965 0.8125 6.1875C0.8125 7.71825 2.00417 9.85242 4.35554 12.5299C4.62369 12.8346 4.95368 13.0787 5.32354 13.2459C5.6934 13.4131 6.09464 13.4996 6.50054 13.4996C6.90644 13.4996 7.30768 13.4131 7.67754 13.2459C8.0474 13.0787 8.37739 12.8346 8.64554 12.5299C10.9958 9.85296 12.1875 7.71879 12.1875 6.1875C12.1856 4.67965 11.5858 3.2341 10.5196 2.16789C9.4534 1.10168 8.00785 0.501863 6.5 0.5V0.5ZM7.42408 11.4585C7.30597 11.5854 7.16295 11.6867 7.00396 11.7559C6.84497 11.8252 6.67342 11.8609 6.5 11.8609C6.32658 11.8609 6.15503 11.8252 5.99604 11.7559C5.83705 11.6867 5.69403 11.5854 5.57592 11.4585C3.58096 9.18617 2.43425 7.26488 2.43425 6.18804C2.43425 5.1106 2.86226 4.07729 3.62413 3.31542C4.386 2.55355 5.41931 2.12554 6.49675 2.12554C7.57419 2.12554 8.6075 2.55355 9.36937 3.31542C10.1312 4.07729 10.5592 5.1106 10.5592 6.18804C10.5625 7.26488 9.41904 9.18617 7.42408 11.4585Z" fill="#0066EC"/>
    <path d="M6.50001 3.78003C6.0326 3.78003 5.57568 3.91863 5.18704 4.17832C4.7984 4.438 4.49549 4.80709 4.31661 5.23893C4.13774 5.67076 4.09094 6.14594 4.18213 6.60438C4.27332 7.06281 4.4984 7.48391 4.82891 7.81442C5.15942 8.14493 5.58052 8.37001 6.03896 8.4612C6.49739 8.55239 6.97257 8.50559 7.4044 8.32672C7.83624 8.14785 8.20533 7.84494 8.46502 7.4563C8.7247 7.06765 8.8633 6.61074 8.8633 6.14332C8.86259 5.51676 8.61337 4.91606 8.17032 4.47301C7.72727 4.02997 7.12657 3.78075 6.50001 3.78003ZM6.50001 6.88161C6.35399 6.88161 6.21125 6.83831 6.08984 6.75719C5.96843 6.67606 5.8738 6.56076 5.81792 6.42585C5.76204 6.29095 5.74742 6.1425 5.77591 5.99929C5.80439 5.85607 5.87471 5.72452 5.97796 5.62127C6.08121 5.51802 6.21276 5.4477 6.35598 5.41922C6.49919 5.39073 6.64764 5.40535 6.78254 5.46123C6.91745 5.51711 7.03275 5.61174 7.11388 5.73315C7.195 5.85456 7.2383 5.9973 7.2383 6.14332C7.23816 6.33908 7.16033 6.52679 7.0219 6.66521C6.88348 6.80364 6.69577 6.88147 6.50001 6.88161Z" fill="#0066EC"/>
  </g>
  <defs>
    <clipPath id="clip0_37_27">
      <rect width="13" height="13" fill="white" transform="translate(0 0.5)"/>
    </clipPath>
  </defs>
</svg>