<svg xmlns="http://www.w3.org/2000/svg" width="50" height="51" viewBox="0 0 50 51" fill="none">
  <path d="M35.4166 38.1251C35.9691 38.1251 36.499 37.9057 36.8897 37.515C37.2804 37.1243 37.4999 36.5943 37.4999 36.0418V15.2085C37.4999 14.6559 37.2804 14.126 36.8897 13.7353C36.499 13.3446 35.9691 13.1251 35.4166 13.1251C34.8641 13.1251 34.3342 13.3446 33.9435 13.7353C33.5528 14.126 33.3333 14.6559 33.3333 15.2085V36.0418C33.3333 36.5943 33.5528 37.1243 33.9435 37.515C34.3342 37.9057 34.8641 38.1251 35.4166 38.1251ZM37.4999 11.0418H39.5833V13.1251C39.5833 13.6777 39.8028 14.2076 40.1935 14.5983C40.5842 14.989 41.1141 15.2085 41.6666 15.2085C42.2191 15.2085 42.749 14.989 43.1397 14.5983C43.5304 14.2076 43.7499 13.6777 43.7499 13.1251V11.0418H45.8333C46.3858 11.0418 46.9157 10.8223 47.3064 10.4317C47.6971 10.041 47.9166 9.51105 47.9166 8.95852C47.9166 8.40598 47.6971 7.87608 47.3064 7.48538C46.9157 7.09468 46.3858 6.87519 45.8333 6.87519H43.7499V4.79185C43.7499 4.23932 43.5304 3.70941 43.1397 3.31871C42.749 2.92801 42.2191 2.70852 41.6666 2.70852C41.1141 2.70852 40.5842 2.92801 40.1935 3.31871C39.8028 3.70941 39.5833 4.23932 39.5833 4.79185V6.87519H37.4999C36.9474 6.87519 36.4175 7.09468 36.0268 7.48538C35.6361 7.87608 35.4166 8.40598 35.4166 8.95852C35.4166 9.51105 35.6361 10.041 36.0268 10.4317C36.4175 10.8223 36.9474 11.0418 37.4999 11.0418ZM44.9999 19.3751C44.7318 19.4298 44.477 19.5368 44.2502 19.6899C44.0235 19.8431 43.8291 20.0394 43.6781 20.2677C43.5272 20.496 43.4228 20.7517 43.3708 21.0204C43.3187 21.2891 43.3202 21.5654 43.3749 21.8335C44.1883 25.7839 43.7062 29.8913 42.0002 33.546C40.2941 37.2007 37.455 40.2079 33.9044 42.1211C30.3537 44.0343 26.2808 44.7516 22.2901 44.1665C18.2995 43.5814 14.6039 41.7251 11.7519 38.8731C8.89996 36.0212 7.04365 32.3256 6.45854 28.3349C5.87343 24.3443 6.59073 20.2713 8.50395 16.7207C10.4172 13.17 13.4243 10.331 17.079 8.62495C20.7337 6.91888 24.8412 6.43677 28.7916 7.25019C29.3441 7.36069 29.9179 7.24718 30.3868 6.93462C30.8556 6.62206 31.1811 6.13605 31.2916 5.58352C31.4021 5.03098 31.2886 4.45718 30.976 3.98834C30.6635 3.5195 30.1775 3.19403 29.6249 3.08352C28.1003 2.79946 26.5504 2.67379 24.9999 2.70852C20.4674 2.70852 16.0367 4.05256 12.2681 6.57067C8.49948 9.08879 5.5622 12.6678 3.82769 16.8553C2.09318 21.0428 1.63935 25.6506 2.5236 30.096C3.40784 34.5414 5.59045 38.6247 8.7954 41.8297C12.0004 45.0346 16.0837 47.2172 20.5291 48.1015C24.9745 48.9857 29.5823 48.5319 33.7698 46.7974C37.9572 45.0629 41.5363 42.1256 44.0544 38.357C46.5726 34.5883 47.9166 30.1576 47.9166 25.6251C47.921 24.0857 47.7674 22.5499 47.4583 21.0418C47.4084 20.7699 47.3049 20.5107 47.1538 20.2792C47.0027 20.0477 46.807 19.8486 46.5782 19.6935C46.3494 19.5384 46.092 19.4303 45.8211 19.3757C45.5501 19.321 45.271 19.3208 44.9999 19.3751ZM20.8333 27.7085H22.9166C24.5742 27.7085 26.1639 27.05 27.336 25.8779C28.5081 24.7058 29.1666 23.1161 29.1666 21.4585V19.3751C29.1666 17.7175 28.5081 16.1278 27.336 14.9557C26.1639 13.7836 24.5742 13.1251 22.9166 13.1251H20.8333C19.1757 13.1251 17.5859 13.7836 16.4138 14.9557C15.2417 16.1278 14.5833 17.7175 14.5833 19.3751C14.5833 19.9277 14.8028 20.4576 15.1935 20.8483C15.5842 21.239 16.1141 21.4585 16.6666 21.4585C17.2191 21.4585 17.749 21.239 18.1397 20.8483C18.5304 20.4576 18.7499 19.9277 18.7499 19.3751C18.7499 18.8226 18.9694 18.2927 19.3601 17.902C19.7508 17.5113 20.2807 17.2918 20.8333 17.2918H22.9166C23.4691 17.2918 23.999 17.5113 24.3897 17.902C24.7804 18.2927 24.9999 18.8226 24.9999 19.3751V21.4585C24.9999 22.011 24.7804 22.5409 24.3897 22.9316C23.999 23.3223 23.4691 23.5418 22.9166 23.5418H20.8333C19.1757 23.5418 17.5859 24.2003 16.4138 25.3724C15.2417 26.5445 14.5833 28.1342 14.5833 29.7918V36.0418C14.5833 36.5943 14.8028 37.1243 15.1935 37.515C15.5842 37.9057 16.1141 38.1251 16.6666 38.1251H27.0833C27.6358 38.1251 28.1657 37.9057 28.5564 37.515C28.9471 37.1243 29.1666 36.5943 29.1666 36.0418C29.1666 35.4893 28.9471 34.9594 28.5564 34.5687C28.1657 34.178 27.6358 33.9585 27.0833 33.9585H18.7499V29.7918C18.7499 29.2393 18.9694 28.7094 19.3601 28.3187C19.7508 27.928 20.2807 27.7085 20.8333 27.7085Z" fill="white"/>
</svg>