<svg width="97" height="16" viewBox="0 0 97 16" fill="none" xmlns="http://www.w3.org/2000/svg">
<path d="M7.93617 1.46353C8.08584 1.00287 8.73755 1.00287 8.88723 1.46353L10.2852 5.76596C10.3521 5.97198 10.5441 6.11146 10.7607 6.11146H15.2846C15.7689 6.11146 15.9703 6.73126 15.5784 7.01596L11.9186 9.67502C11.7433 9.80234 11.67 10.028 11.7369 10.234L13.1349 14.5365C13.2846 14.9971 12.7573 15.3802 12.3655 15.0955L8.70559 12.4364C8.53035 12.3091 8.29305 12.3091 8.11781 12.4364L4.45793 15.0955C4.06607 15.3802 3.53883 14.9971 3.68851 14.5365L5.08646 10.234C5.15339 10.028 5.08007 9.80234 4.90482 9.67502L1.24495 7.01596C0.853092 6.73126 1.05448 6.11146 1.53884 6.11146H6.06269C6.27931 6.11146 6.47128 5.97198 6.53822 5.76596L7.93617 1.46353Z" fill="#088B33"/>
<path d="M27.7597 1.46353C27.9093 1.00287 28.561 1.00287 28.7107 1.46353L30.1087 5.76596C30.1756 5.97198 30.3676 6.11146 30.5842 6.11146H35.108C35.5924 6.11146 35.7938 6.73126 35.4019 7.01596L31.7421 9.67502C31.5668 9.80234 31.4935 10.028 31.5604 10.234L32.9584 14.5365C33.108 14.9971 32.5808 15.3802 32.189 15.0955L28.5291 12.4364C28.3538 12.3091 28.1165 12.3091 27.9413 12.4364L24.2814 15.0955C23.8896 15.3802 23.3623 14.9971 23.512 14.5365L24.9099 10.234C24.9769 10.028 24.9036 9.80234 24.7283 9.67502L21.0684 7.01596C20.6766 6.73126 20.878 6.11146 21.3623 6.11146H25.8862C26.1028 6.11146 26.2948 5.97198 26.3617 5.76596L27.7597 1.46353Z" fill="#088B33"/>
<path d="M47.5829 1.46353C47.7326 1.00287 48.3843 1.00287 48.534 1.46353L49.9319 5.76596C49.9988 5.97198 50.1908 6.11146 50.4074 6.11146H54.9313C55.4156 6.11146 55.617 6.73126 55.2252 7.01596L51.5653 9.67502C51.3901 9.80234 51.3167 10.028 51.3837 10.234L52.7816 14.5365C52.9313 14.9971 52.404 15.3802 52.0122 15.0955L48.3523 12.4364C48.1771 12.3091 47.9398 12.3091 47.7645 12.4364L44.1047 15.0955C43.7128 15.3802 43.1856 14.9971 43.3352 14.5365L44.7332 10.234C44.8001 10.028 44.7268 9.80234 44.5516 9.67502L40.8917 7.01596C40.4998 6.73126 40.7012 6.11146 41.1856 6.11146H45.7094C45.926 6.11146 46.118 5.97198 46.185 5.76596L47.5829 1.46353Z" fill="#088B33"/>
<path d="M67.4064 1.46353C67.5561 1.00287 68.2078 1.00287 68.3574 1.46353L69.7554 5.76596C69.8223 5.97198 70.0143 6.11146 70.2309 6.11146H74.7548C75.2391 6.11146 75.4405 6.73126 75.0487 7.01596L71.3888 9.67502C71.2135 9.80234 71.1402 10.028 71.2072 10.234L72.6051 14.5365C72.7548 14.9971 72.2275 15.3802 71.8357 15.0955L68.1758 12.4364C68.0006 12.3091 67.7633 12.3091 67.588 12.4364L63.9281 15.0955C63.5363 15.3802 63.009 14.9971 63.1587 14.5365L64.5567 10.234C64.6236 10.028 64.5503 9.80234 64.375 9.67502L60.7152 7.01596C60.3233 6.73126 60.5247 6.11146 61.0091 6.11146H65.5329C65.7495 6.11146 65.9415 5.97198 66.0084 5.76596L67.4064 1.46353Z" fill="#088B33"/>
<path d="M87.2299 1.46353C87.3795 1.00287 88.0313 1.00287 88.1809 1.46353L89.5789 5.76596C89.6458 5.97198 89.8378 6.11146 90.0544 6.11146H94.5783C95.0626 6.11146 95.264 6.73126 94.8721 7.01596L91.2123 9.67502C91.037 9.80234 90.9637 10.028 91.0306 10.234L92.4286 14.5365C92.5783 14.9971 92.051 15.3802 91.6592 15.0955L87.9993 12.4364C87.824 12.3091 87.5868 12.3091 87.4115 12.4364L83.7516 15.0955C83.3598 15.3802 82.8325 14.9971 82.9822 14.5365L84.3802 10.234C84.4471 10.028 84.3738 9.80234 84.1985 9.67502L80.5387 7.01596C80.1468 6.73126 80.3482 6.11146 80.8325 6.11146H85.3564C85.573 6.11146 85.765 5.97198 85.8319 5.76596L87.2299 1.46353Z" fill="#082B33"/>
</svg>
