<svg xmlns="http://www.w3.org/2000/svg" width="20" height="20" viewBox="0 0 20 20" fill="none">
  <g opacity="0.5">
    <path d="M10 20C4.48593 20 0 15.5141 0 10C0 4.48593 4.48593 0 10 0C15.5141 0 20 4.48593 20 10C20 15.5141 15.5141 20 10 20ZM10 1.42857C5.27343 1.42857 1.42857 5.27343 1.42857 10C1.42857 14.7266 5.27343 18.5714 10 18.5714C14.7266 18.5714 18.5714 14.7266 18.5714 10C18.5714 5.27343 14.7266 1.42857 10 1.42857Z" fill="#04111E"/>
    <path d="M11.6497 13.5714H8.35037C8.09508 13.5714 7.8593 13.4354 7.73165 13.2143L6.08194 10.3571C5.9543 10.136 5.9543 9.86399 6.08194 9.64284L7.73165 6.7857C7.8593 6.56456 8.09508 6.42856 8.35037 6.42856H11.6497C11.905 6.42856 12.1408 6.56456 12.2684 6.7857L13.9182 9.64284C14.0458 9.86399 14.0458 10.136 13.9182 10.3571L12.2684 13.2143C12.1408 13.4354 11.905 13.5714 11.6497 13.5714ZM8.76258 12.1428H11.2374L12.4749 9.99999L11.2374 7.85713H8.76258L7.52515 9.99999L8.76258 12.1428Z" fill="#04111E"/>
    <path d="M1.15717 13.5359C0.992524 13.5359 0.827238 13.4794 0.692595 13.3643C0.393381 13.1076 0.357738 12.657 0.614452 12.357L2.6311 10L0.614524 7.643C0.357809 7.34307 0.393381 6.89243 0.692595 6.63571C0.99181 6.38043 1.44388 6.41457 1.69988 6.71386L4.1141 9.53543C4.34288 9.80328 4.34288 10.1967 4.1141 10.4646L1.69988 13.2861C1.55895 13.4508 1.3581 13.5359 1.15717 13.5359Z" fill="#04111E"/>
    <path d="M8.02174 19.7859C7.72738 19.7859 7.45181 19.6024 7.34788 19.3087L6.31552 16.3797L3.26724 16.9517C2.88217 17.0256 2.50624 16.7696 2.43367 16.3818C2.36045 15.9939 2.61574 15.6208 3.0036 15.5482L6.65388 14.8625C6.99567 14.799 7.34238 14.9944 7.45952 15.3271L8.69559 18.8344C8.82674 19.2061 8.63145 19.6142 8.25895 19.7454C8.18074 19.7726 8.10052 19.7859 8.02174 19.7859Z" fill="#04111E"/>
    <path d="M11.9783 19.7858C11.8994 19.7858 11.8192 19.7726 11.7411 19.7454C11.3686 19.6143 11.1733 19.2062 11.3045 18.8344L12.5406 15.3271C12.6584 14.9944 12.9988 14.7991 13.3462 14.8626L16.9965 15.5483C17.3843 15.6208 17.6396 15.994 17.5664 16.3819C17.4938 16.7697 17.1221 17.0257 16.7328 16.9518L13.6846 16.3798L12.6522 19.3088C12.5482 19.6024 12.2726 19.7858 11.9783 19.7858Z" fill="#04111E"/>
    <path d="M18.8428 13.5359C18.6418 13.5359 18.441 13.4508 18.3 13.2861L15.8858 10.4646C15.657 10.1967 15.657 9.80329 15.8858 9.53543L18.3 6.71386C18.5568 6.41465 19.0088 6.38043 19.3073 6.63572C19.6065 6.89243 19.6422 7.343 19.3855 7.643L17.3688 10L19.3854 12.357C19.6421 12.6569 19.6065 13.1076 19.3073 13.3643C19.1727 13.4794 19.0074 13.5359 18.8428 13.5359Z" fill="#04111E"/>
    <path d="M13.2135 5.14998C12.9157 5.14998 12.643 4.96306 12.5404 4.67284L11.3043 1.16556C11.1733 0.793771 11.3685 0.385699 11.741 0.254556C12.1108 0.125485 12.5202 0.319414 12.652 0.691199L13.6844 3.6202L16.7327 3.0482C17.1219 2.97634 17.4937 3.23027 17.5663 3.61813C17.6395 4.00598 17.3842 4.37913 16.9963 4.4517L13.346 5.13741C13.3021 5.14577 13.2575 5.14998 13.2135 5.14998Z" fill="#04111E"/>
    <path d="M6.78638 5.15C6.74245 5.15 6.69852 5.14578 6.65388 5.13743L3.0036 4.45171C2.61574 4.37914 2.36045 4.006 2.43367 3.61814C2.50624 3.23028 2.88217 2.97643 3.26724 3.04821L6.31552 3.62021L7.34788 0.691213C7.47974 0.318713 7.88988 0.125499 8.25888 0.25457C8.63138 0.385713 8.82667 0.793784 8.69552 1.16557L7.45952 4.67286C7.35695 4.963 7.08424 5.15 6.78638 5.15Z" fill="#04111E"/>
    <path d="M6.69996 10.7143H3.57146C3.17668 10.7143 2.85718 10.3948 2.85718 9.99999C2.85718 9.60521 3.17668 9.28571 3.57146 9.28571H6.69996C7.09475 9.28571 7.41425 9.60521 7.41425 9.99999C7.41425 10.3948 7.09475 10.7143 6.69996 10.7143Z" fill="#04111E"/>
    <path d="M6.78494 16.2786C6.66359 16.2786 6.5408 16.2478 6.42851 16.183C6.08673 15.9856 5.96951 15.5482 6.16694 15.2071L7.73151 12.5C7.92894 12.1575 8.3663 12.041 8.70737 12.2384C9.04916 12.4358 9.16637 12.8732 8.96894 13.2143L7.40437 15.9214C7.27187 16.1509 7.03187 16.2786 6.78494 16.2786Z" fill="#04111E"/>
    <path d="M13.215 16.2786C12.968 16.2786 12.7281 16.1509 12.5955 15.9214L11.031 13.2143C10.8335 12.8732 10.9507 12.4358 11.2925 12.2384C11.633 12.041 12.0703 12.1575 12.2684 12.5L13.833 15.2071C14.0304 15.5482 13.9132 15.9856 13.5714 16.183C13.4591 16.2479 13.3363 16.2786 13.215 16.2786Z" fill="#04111E"/>
    <path d="M16.4286 10.7143H13.3001C12.9053 10.7143 12.5858 10.3948 12.5858 9.99999C12.5858 9.60521 12.9053 9.28571 13.3001 9.28571H16.4286C16.8234 9.28571 17.1429 9.60521 17.1429 9.99999C17.1429 10.3948 16.8234 10.7143 16.4286 10.7143Z" fill="#04111E"/>
    <path d="M11.649 7.85715C11.5276 7.85715 11.4048 7.82643 11.2925 7.76158C10.9507 7.56415 10.8335 7.12679 11.031 6.78572L12.5955 4.07858C12.793 3.73536 13.2303 3.61958 13.5714 3.817C13.9132 4.01443 14.0304 4.45179 13.833 4.79286L12.2684 7.5C12.1358 7.7295 11.8959 7.85715 11.649 7.85715Z" fill="#04111E"/>
    <path d="M8.35094 7.85715C8.10401 7.85715 7.86409 7.7295 7.73151 7.5L6.16694 4.79286C5.96951 4.45172 6.08673 4.01436 6.42851 3.817C6.76894 3.61958 7.2063 3.73536 7.40437 4.07858L8.96894 6.78572C9.16637 7.12679 9.04916 7.56415 8.70737 7.76158C8.59509 7.82643 8.4723 7.85715 8.35094 7.85715Z" fill="#04111E"/>
  </g>
</svg>