<svg xmlns="http://www.w3.org/2000/svg" width="20" height="20" viewBox="0 0 20 20" fill="none">
  <g opacity="0.5">
    <path d="M10 20C4.48593 20 0 15.5141 0 10C0 4.48593 4.48593 0 10 0C15.5141 0 20 4.48593 20 10C20 15.5141 15.5141 20 10 20ZM10 1.42857C5.27343 1.42857 1.42857 5.27343 1.42857 10C1.42857 14.7266 5.27343 18.5714 10 18.5714C14.7266 18.5714 18.5714 14.7266 18.5714 10C18.5714 5.27343 14.7266 1.42857 10 1.42857Z" fill="white"/>
    <path d="M11.6497 13.5714H8.35037C8.09508 13.5714 7.8593 13.4354 7.73165 13.2143L6.08194 10.3571C5.9543 10.136 5.9543 9.86399 6.08194 9.64284L7.73165 6.7857C7.8593 6.56456 8.09508 6.42856 8.35037 6.42856H11.6497C11.905 6.42856 12.1408 6.56456 12.2684 6.7857L13.9182 9.64284C14.0458 9.86399 14.0458 10.136 13.9182 10.3571L12.2684 13.2143C12.1408 13.4354 11.905 13.5714 11.6497 13.5714ZM8.76258 12.1428H11.2374L12.4749 9.99999L11.2374 7.85713H8.76258L7.52515 9.99999L8.76258 12.1428Z" fill="white"/>
    <path d="M1.15723 13.5359C0.992585 13.5359 0.827299 13.4794 0.692656 13.3643C0.393442 13.1076 0.357799 12.657 0.614513 12.357L2.63116 10L0.614585 7.643C0.357871 7.34307 0.393442 6.89243 0.692656 6.63571C0.991871 6.38043 1.44394 6.41457 1.69994 6.71386L4.11416 9.53543C4.34294 9.80328 4.34294 10.1967 4.11416 10.4646L1.69994 13.2861C1.55901 13.4508 1.35816 13.5359 1.15723 13.5359Z" fill="white"/>
    <path d="M8.0218 19.7859C7.72744 19.7859 7.45187 19.6024 7.34794 19.3087L6.31558 16.3797L3.2673 16.9517C2.88223 17.0256 2.5063 16.7696 2.43373 16.3818C2.36051 15.9939 2.6158 15.6208 3.00366 15.5482L6.65394 14.8625C6.99573 14.799 7.34244 14.9944 7.45959 15.3271L8.69566 18.8344C8.8268 19.2061 8.63151 19.6142 8.25901 19.7454C8.1808 19.7726 8.10058 19.7859 8.0218 19.7859Z" fill="white"/>
    <path d="M11.9782 19.7858C11.8994 19.7858 11.8191 19.7726 11.7411 19.7454C11.3686 19.6143 11.1733 19.2062 11.3044 18.8344L12.5405 15.3271C12.6584 14.9944 12.9988 14.7991 13.3461 14.8626L16.9964 15.5483C17.3843 15.6208 17.6396 15.994 17.5664 16.3819C17.4938 16.7697 17.122 17.0257 16.7328 16.9518L13.6845 16.3798L12.6521 19.3088C12.5481 19.6024 12.2726 19.7858 11.9782 19.7858Z" fill="white"/>
    <path d="M18.8428 13.5359C18.6419 13.5359 18.441 13.4508 18.3001 13.2861L15.8859 10.4646C15.6571 10.1967 15.6571 9.80329 15.8859 9.53543L18.3001 6.71386C18.5568 6.41465 19.0088 6.38043 19.3074 6.63572C19.6066 6.89243 19.6422 7.343 19.3855 7.643L17.3689 10L19.3854 12.357C19.6421 12.6569 19.6066 13.1076 19.3073 13.3643C19.1727 13.4794 19.0074 13.5359 18.8428 13.5359Z" fill="white"/>
    <path d="M13.2136 5.14998C12.9157 5.14998 12.643 4.96306 12.5404 4.67284L11.3044 1.16556C11.1733 0.793771 11.3686 0.385699 11.7411 0.254556C12.1108 0.125485 12.5202 0.319414 12.6521 0.691199L13.6844 3.6202L16.7327 3.0482C17.1219 2.97634 17.4937 3.23027 17.5663 3.61813C17.6395 4.00598 17.3842 4.37913 16.9964 4.4517L13.3461 5.13741C13.3021 5.14577 13.2575 5.14998 13.2136 5.14998Z" fill="white"/>
    <path d="M6.78644 5.15C6.74251 5.15 6.69859 5.14578 6.65394 5.13743L3.00366 4.45171C2.6158 4.37914 2.36051 4.006 2.43373 3.61814C2.5063 3.23028 2.88223 2.97643 3.2673 3.04821L6.31558 3.62021L7.34794 0.691213C7.4798 0.318713 7.88994 0.125499 8.25894 0.25457C8.63144 0.385713 8.82673 0.793784 8.69559 1.16557L7.45959 4.67286C7.35701 4.963 7.0843 5.15 6.78644 5.15Z" fill="white"/>
    <path d="M6.69993 10.7143H3.57143C3.17665 10.7143 2.85715 10.3948 2.85715 9.99999C2.85715 9.60521 3.17665 9.28571 3.57143 9.28571H6.69993C7.09472 9.28571 7.41422 9.60521 7.41422 9.99999C7.41422 10.3948 7.09472 10.7143 6.69993 10.7143Z" fill="white"/>
    <path d="M6.785 16.2786C6.66365 16.2786 6.54086 16.2478 6.42858 16.183C6.08679 15.9856 5.96958 15.5482 6.167 15.2071L7.73158 12.5C7.929 12.1575 8.36636 12.041 8.70743 12.2384C9.04922 12.4358 9.16643 12.8732 8.969 13.2143L7.40443 15.9214C7.27193 16.1509 7.03193 16.2786 6.785 16.2786Z" fill="white"/>
    <path d="M13.215 16.2786C12.9681 16.2786 12.7281 16.1509 12.5956 15.9214L11.031 13.2143C10.8336 12.8732 10.9508 12.4358 11.2926 12.2384C11.633 12.041 12.0703 12.1575 12.2684 12.5L13.833 15.2071C14.0304 15.5482 13.9132 15.9856 13.5714 16.183C13.4591 16.2479 13.3363 16.2786 13.215 16.2786Z" fill="white"/>
    <path d="M16.4286 10.7143H13.3001C12.9053 10.7143 12.5858 10.3948 12.5858 9.99999C12.5858 9.60521 12.9053 9.28571 13.3001 9.28571H16.4286C16.8234 9.28571 17.1429 9.60521 17.1429 9.99999C17.1429 10.3948 16.8234 10.7143 16.4286 10.7143Z" fill="white"/>
    <path d="M11.649 7.85715C11.5276 7.85715 11.4048 7.82643 11.2926 7.76158C10.9508 7.56415 10.8336 7.12679 11.031 6.78572L12.5956 4.07858C12.793 3.73536 13.2303 3.61958 13.5714 3.817C13.9132 4.01443 14.0304 4.45179 13.833 4.79286L12.2684 7.5C12.1358 7.7295 11.8959 7.85715 11.649 7.85715Z" fill="white"/>
    <path d="M8.351 7.85715C8.10408 7.85715 7.86415 7.7295 7.73158 7.5L6.167 4.79286C5.96958 4.45172 6.08679 4.01436 6.42858 3.817C6.769 3.61958 7.20636 3.73536 7.40443 4.07858L8.969 6.78572C9.16643 7.12679 9.04922 7.56415 8.70743 7.76158C8.59515 7.82643 8.47236 7.85715 8.351 7.85715Z" fill="white"/>
  </g>
</svg>