<svg xmlns="http://www.w3.org/2000/svg" width="16" height="15" viewBox="0 0 16 15" fill="none">
  <path d="M7.52229 0.545905C7.66748 0.0760658 8.33252 0.0760675 8.47771 0.545906L9.77965 4.75908C9.84439 4.96858 10.0381 5.11146 10.2574 5.11146H14.5219C15.0001 5.11146 15.2054 5.71845 14.8254 6.00878L11.3329 8.67682C11.1664 8.80402 11.0968 9.02156 11.1587 9.22177L12.4824 13.5054C12.6261 13.9705 12.088 14.3459 11.7012 14.0504L8.30353 11.4548C8.12433 11.3179 7.87567 11.3179 7.69647 11.4548L4.29882 14.0504C3.91198 14.3459 3.37385 13.9705 3.51758 13.5054L4.8413 9.22177C4.90317 9.02156 4.83363 8.80402 4.66712 8.67682L1.17462 6.00878C0.794561 5.71845 0.999881 5.11146 1.47815 5.11146H5.74263C5.96191 5.11146 6.15561 4.96858 6.22035 4.75908L7.52229 0.545905Z" fill="#0066EC"/>
</svg>