<svg width="216" height="57" viewBox="0 0 216 57" fill="none" xmlns="http://www.w3.org/2000/svg">
<g id="Logo" opacity="0.5">
<rect x="0.0908203" width="215.909" height="57" rx="8" fill="#F2F5F8"/>
<path id="Vector" d="M73.9928 23.55C74.3337 23.55 74.4473 23.6726 74.4473 24.0026V31.47H78.3015C78.6329 31.47 78.756 31.5926 78.756 31.9226V32.5826C78.756 32.9126 78.6329 33.0352 78.3015 33.0352H73.2257C72.8943 33.0352 72.7617 32.9126 72.7617 32.5826V24.0026C72.7617 23.6726 72.8943 23.55 73.2257 23.55H73.9928Z" fill="black"/>
<path id="Vector_2" d="M82.1173 26.8406C82.1173 24.6626 83.4999 23.3521 85.9052 23.3521C88.3105 23.3521 89.6931 24.6626 89.6931 26.8406V29.7446C89.6931 31.9226 88.301 33.2332 85.9052 33.2332C83.5094 33.2332 82.1173 31.9226 82.1173 29.7446V26.8406ZM88.1022 26.8406C88.1022 25.6149 87.3351 24.9549 85.9525 24.9549C84.57 24.9549 83.8124 25.6243 83.8124 26.8406V29.7635C83.8124 30.9986 84.57 31.6492 85.9525 31.6492C87.3351 31.6492 88.1022 30.9703 88.1022 29.7635V26.8406Z" fill="black"/>
<path id="Vector_3" d="M100.972 27.8398C101.341 27.8398 101.427 27.9624 101.427 28.2924V30.0838C101.437 30.5057 101.352 30.9246 101.178 31.3096C101.004 31.6947 100.746 32.0361 100.423 32.3089C99.6194 32.9458 98.6065 33.2618 97.5818 33.1952C95.1292 33.1952 93.7939 31.8847 93.7939 29.7067V26.7838C93.7939 24.6341 95.1765 23.3141 97.5818 23.3141C99.4758 23.3141 100.707 24.0589 101.228 25.5487C101.257 25.6047 101.272 25.6666 101.273 25.7296C101.274 25.7927 101.26 25.8551 101.233 25.9118C101.205 25.9685 101.165 26.0181 101.114 26.0566C101.064 26.0949 101.006 26.1213 100.944 26.1332L100.205 26.3878C99.883 26.5009 99.7504 26.4349 99.6367 26.1049C99.4798 25.7022 99.1926 25.363 98.8205 25.1411C98.4483 24.9191 98.0125 24.8269 97.5818 24.8792C96.1898 24.8792 95.4322 25.5487 95.4322 26.7649V29.7632C95.4322 30.9984 96.1992 31.6489 97.5818 31.6489C98.9644 31.6489 99.8167 31.0172 99.8167 30.0932V29.3955H97.7617C97.4208 29.3955 97.2977 29.2635 97.2977 28.9335V28.2924C97.2977 27.9624 97.4208 27.8398 97.7617 27.8398H100.972Z" fill="black"/>
<path id="Vector_4" d="M105.337 26.8406C105.337 24.6626 106.72 23.3521 109.125 23.3521C111.53 23.3521 112.913 24.6626 112.913 26.8406V29.7446C112.913 31.9226 111.521 33.2332 109.125 33.2332C106.729 33.2332 105.337 31.9226 105.337 29.7446V26.8406ZM111.312 26.8406C111.312 25.6149 110.545 24.9549 109.172 24.9549C107.799 24.9549 107.023 25.6243 107.023 26.8406V29.7635C107.023 30.9986 107.79 31.6492 109.172 31.6492C110.555 31.6492 111.312 30.9703 111.312 29.7635V26.8406Z" fill="black"/>
<path id="Vector_5" d="M117.373 23.8235C117.373 23.616 117.439 23.55 117.648 23.55H118.083C118.292 23.55 118.339 23.616 118.339 23.8235V32.7618C118.339 32.9692 118.339 33.0352 118.083 33.0352H117.648C117.439 33.0352 117.373 32.9692 117.373 32.7618V23.8235Z" fill="black"/>
<path id="Vector_6" d="M126.966 23.55C127.755 23.55 128.511 23.8619 129.068 24.4172C129.626 24.9723 129.939 25.7254 129.939 26.5106C129.939 27.2958 129.626 28.0489 129.068 28.604C128.511 29.1593 127.755 29.4712 126.966 29.4712H124.125V32.7618C124.125 32.9692 124.078 33.0352 123.879 33.0352H123.434C123.235 33.0352 123.159 32.9692 123.159 32.7618V23.8235C123.159 23.616 123.235 23.55 123.434 23.55H126.966ZM126.881 28.5378C127.152 28.5378 127.42 28.4846 127.671 28.3813C127.921 28.278 128.149 28.1266 128.34 27.9358C128.532 27.7449 128.684 27.5183 128.788 27.269C128.892 27.0196 128.945 26.7523 128.945 26.4823C128.945 26.2124 128.892 25.9451 128.788 25.6957C128.684 25.4464 128.532 25.2198 128.34 25.0289C128.149 24.8381 127.921 24.6867 127.671 24.5833C127.42 24.4801 127.152 24.4269 126.881 24.4269H124.04V28.5378H126.881Z" fill="black"/>
<path id="Vector_7" d="M137.335 23.3617C138.066 23.2814 138.803 23.438 139.438 23.8083C140.072 24.1786 140.571 24.7428 140.857 25.4172C140.933 25.568 140.857 25.6906 140.706 25.766L140.289 25.9546C140.119 26.0206 140.053 26.0112 139.948 25.832C139.734 25.3315 139.365 24.912 138.895 24.634C138.425 24.3561 137.879 24.2341 137.335 24.2857C135.734 24.2857 134.863 24.9174 134.863 26.0489C134.854 26.3946 134.97 26.7322 135.192 26.999C135.413 27.2658 135.723 27.4441 136.066 27.5009C136.575 27.6662 137.103 27.7676 137.638 27.8026C138.285 27.8369 138.923 27.9672 139.532 28.1892C139.999 28.3361 140.4 28.6384 140.669 29.0454C140.938 29.4523 141.058 29.939 141.009 30.4237C141.009 32.1869 139.721 33.2523 137.354 33.2523C136.577 33.3407 135.794 33.1616 135.134 32.7447C134.474 32.3278 133.977 31.6983 133.727 30.9612C133.71 30.9276 133.701 30.8907 133.7 30.8532C133.699 30.8157 133.707 30.7785 133.722 30.7443C133.738 30.7101 133.761 30.6796 133.789 30.6552C133.818 30.6307 133.851 30.6129 133.888 30.6029L134.304 30.452C134.337 30.4386 134.372 30.4322 134.408 30.4332C134.443 30.4341 134.478 30.4424 134.51 30.4575C134.542 30.4726 134.571 30.4941 134.594 30.5207C134.617 30.5474 134.635 30.5785 134.645 30.6123C134.857 31.1449 135.234 31.5965 135.721 31.9018C136.208 32.2069 136.78 32.3497 137.354 32.3094C139.143 32.3094 140.024 31.6872 140.024 30.4237C140.041 30.0917 139.939 29.7644 139.736 29.5002C139.533 29.2361 139.242 29.0522 138.916 28.9812C138.426 28.8357 137.921 28.747 137.41 28.7172L136.388 28.5852C136.068 28.5176 135.752 28.4325 135.441 28.3306C135.134 28.2383 134.848 28.0878 134.598 27.8874C134.347 27.661 134.149 27.3823 134.018 27.071C133.887 26.7598 133.826 26.4238 133.84 26.0866C133.907 24.4366 135.147 23.3617 137.335 23.3617Z" fill="black"/>
<path id="Vector_8" d="M146.113 29.8106C146.153 30.4774 146.447 31.1037 146.936 31.5617C147.425 32.0196 148.07 32.2746 148.741 32.2746C149.411 32.2746 150.057 32.0196 150.546 31.5617C151.034 31.1037 151.328 30.4774 151.369 29.8106V23.8235C151.369 23.616 151.435 23.55 151.643 23.55H152.079C152.287 23.55 152.354 23.616 152.354 23.8235V29.8012C152.354 31.9415 151.085 33.2332 148.746 33.2332C146.407 33.2332 145.138 31.9415 145.138 29.8012V23.8235C145.138 23.616 145.204 23.55 145.403 23.55H145.848C146.047 23.55 146.113 23.616 146.113 23.8235V29.8106Z" fill="black"/>
<path id="Vector_9" d="M165.422 23.5503C165.631 23.5503 165.697 23.6163 165.697 23.8237V32.762C165.697 32.9695 165.631 33.0355 165.422 33.0355H165.025C164.826 33.0355 164.759 32.9695 164.759 32.762V27.3217C164.759 26.5302 164.813 25.7395 164.92 24.9552H164.864C164.568 25.6724 164.222 26.3686 163.831 27.0389L161.795 30.6123C161.771 30.6744 161.727 30.7273 161.671 30.7644C161.615 30.8014 161.55 30.8207 161.483 30.8197H161.218C161.15 30.8201 161.083 30.8006 161.026 30.7638C160.969 30.727 160.923 30.6744 160.896 30.6123L158.831 27.0012C158.465 26.3405 158.149 25.6535 157.884 24.9457H157.828C157.924 25.7373 157.975 26.5338 157.979 27.3312V32.762C157.979 32.9695 157.913 33.0355 157.704 33.0355H157.335C157.127 33.0355 157.061 32.9695 157.061 32.762V23.8237C157.061 23.6163 157.127 23.5503 157.335 23.5503H157.676C157.754 23.5431 157.832 23.56 157.9 23.5989C157.968 23.6377 158.022 23.6966 158.055 23.7672L161.369 29.6317L164.665 23.8237C164.769 23.6257 164.826 23.5975 165.034 23.5975L165.422 23.5503Z" fill="black"/>
<path id="Vector_10" d="M57.1457 31.6023V38.4191C57.1457 38.6805 57.0414 38.9311 56.8558 39.1158C56.6703 39.3006 56.4186 39.4044 56.1561 39.4044C55.8937 39.4044 55.642 39.3006 55.4564 39.1158C55.2708 38.9311 55.1665 38.6805 55.1665 38.4191V31.6117C55.4421 31.8121 55.7724 31.9239 56.1135 31.9323C56.4853 31.9428 56.8496 31.8264 57.1457 31.6023ZM65.5737 29.6317C65.3226 29.6317 65.0817 29.7311 64.9041 29.9079C64.7266 30.0847 64.6268 30.3245 64.6268 30.5746V31.7626C64.6268 32.0239 64.731 32.2745 64.9166 32.4592C65.1021 32.6441 65.3539 32.7479 65.6164 32.7479C65.8789 32.7479 66.1306 32.6441 66.3161 32.4592C66.5017 32.2745 66.6059 32.0239 66.6059 31.7626V30.6217C66.6133 30.4865 66.5914 30.3513 66.5415 30.2253C66.4917 30.0994 66.4153 29.9855 66.3173 29.8916C66.2194 29.7977 66.1022 29.7258 65.974 29.6809C65.8457 29.6361 65.7092 29.6194 65.5737 29.6317ZM53.0169 34.1857C52.6762 34.1755 52.3463 34.0639 52.0699 33.8651V40.7009C52.0699 40.9634 52.1747 41.2153 52.3612 41.4009C52.5476 41.5866 52.8006 41.6909 53.0643 41.6909C53.328 41.6909 53.5809 41.5866 53.7674 41.4009C53.9538 41.2153 54.0586 40.9634 54.0586 40.7009V33.9123C53.7494 34.1113 53.3845 34.2071 53.0169 34.1857ZM62.4866 27.5857C62.3583 27.5793 62.2301 27.599 62.1096 27.6435C61.9893 27.688 61.8792 27.7565 61.7861 27.8446C61.6932 27.9329 61.6192 28.0389 61.5686 28.1565C61.5182 28.2741 61.4921 28.4007 61.4923 28.5286V33.7803C61.4923 34.0429 61.597 34.2947 61.7835 34.4804C61.97 34.666 62.2229 34.7703 62.4866 34.7703C62.7503 34.7703 63.0033 34.666 63.1897 34.4804C63.3762 34.2947 63.4809 34.0429 63.4809 33.7803V28.5946C63.4885 28.4585 63.4664 28.3225 63.416 28.1957C63.3656 28.069 63.2883 27.9547 63.1893 27.8606C63.0902 27.7665 62.9719 27.6948 62.8425 27.6507C62.713 27.6065 62.5754 27.5907 62.4393 27.6046L62.4866 27.5857ZM59.3427 29.6034C58.986 29.601 58.6388 29.4891 58.3484 29.2829V36.1374C58.3484 36.4 58.4531 36.6519 58.6396 36.8375C58.8261 37.0232 59.0789 37.1274 59.3427 37.1274C59.6064 37.1274 59.8592 37.0232 60.0458 36.8375C60.2323 36.6519 60.337 36.4 60.337 36.1374V29.2923C60.0366 29.5151 59.6699 29.6312 59.2953 29.6223L59.3427 29.6034ZM50.8673 34.8551V15.7057C50.8648 15.4723 50.7699 15.2493 50.6033 15.0851C50.4366 14.9209 50.2116 14.8288 49.9771 14.8289H49.7688C49.5344 14.8288 49.3094 14.9209 49.1427 15.0851C48.976 15.2493 48.8812 15.4723 48.8787 15.7057V34.8551C48.8787 35.0902 48.9725 35.3156 49.1394 35.4819C49.3063 35.6481 49.5327 35.7414 49.7688 35.7414H49.9771C50.2132 35.7414 50.4396 35.6481 50.6066 35.4819C50.7735 35.3156 50.8673 35.0902 50.8673 34.8551ZM53.1211 33.4597H52.9128C52.6767 33.4597 52.4503 33.3664 52.2833 33.2001C52.1164 33.0339 52.0226 32.8085 52.0226 32.5734V17.9874C52.0251 17.754 52.12 17.531 52.2866 17.3668C52.4533 17.2026 52.6783 17.1106 52.9128 17.1106H53.1211C53.3555 17.1106 53.5805 17.2026 53.7472 17.3668C53.9139 17.531 54.0087 17.754 54.0112 17.9874V32.5923C54.0112 32.8273 53.9174 33.0528 53.7505 33.219C53.5836 33.3852 53.3572 33.4786 53.1211 33.4786V33.4597ZM56.2556 31.2157H56.0378C55.8042 31.2157 55.5802 31.1233 55.415 30.9589C55.2499 30.7944 55.1571 30.5715 55.1571 30.3389V20.2503C55.1558 20.1343 55.1777 20.0193 55.2214 19.9118C55.265 19.8044 55.3297 19.7066 55.4116 19.6242C55.4935 19.5417 55.5911 19.4763 55.6985 19.4316C55.806 19.387 55.9213 19.364 56.0378 19.364H56.2556C56.49 19.3665 56.714 19.461 56.8789 19.6269C57.0438 19.7928 57.1362 20.0169 57.1362 20.2503V30.3389C57.1362 30.5715 57.0434 30.7944 56.8783 30.9589C56.7131 31.1233 56.4892 31.2157 56.2556 31.2157ZM59.39 28.9057H59.1912C58.9567 28.9057 58.7317 28.8137 58.565 28.6494C58.3984 28.4853 58.3035 28.2623 58.301 28.0289V22.598C58.2932 22.4769 58.3105 22.3556 58.3518 22.2414C58.393 22.1273 58.4574 22.0228 58.5408 21.9344C58.6242 21.846 58.725 21.7756 58.8369 21.7276C58.9487 21.6796 59.0693 21.6549 59.1912 21.6551H59.3995C59.6356 21.6551 59.862 21.7485 60.0289 21.9147C60.1959 22.0809 60.2896 22.3064 60.2896 22.5414V28.01C60.2909 28.1272 60.2688 28.2435 60.2246 28.3521C60.1805 28.4607 60.1151 28.5595 60.0323 28.6428C59.9495 28.7261 59.851 28.7922 59.7423 28.8374C59.6337 28.8825 59.5172 28.9057 59.3995 28.9057H59.39ZM62.534 26.8786H62.3256C62.0896 26.8786 61.8631 26.7852 61.6962 26.619C61.5292 26.4528 61.4355 26.2273 61.4355 25.9923V24.5874C61.4379 24.354 61.5328 24.131 61.6995 23.9668C61.8662 23.8026 62.0912 23.7106 62.3256 23.7106H62.534C62.7684 23.7106 62.9934 23.8026 63.1601 23.9668C63.3268 24.131 63.4217 24.354 63.4241 24.5874V25.9923C63.4241 26.2257 63.3317 26.4498 63.1667 26.6157C63.0019 26.7816 62.7779 26.8761 62.5434 26.8786H62.534Z" fill="black"/>
</g>
</svg>
