<svg xmlns="http://www.w3.org/2000/svg" width="189" height="57" viewBox="0 0 189 57" fill="none">
  <g opacity="0.5">
    <rect width="188.273" height="57" rx="8" fill="#051C0D"/>
    <path d="M58.1826 21.3968H59.8341V32.8808H64.7887V34.5308H58.1826V21.3968ZM69.9331 21.3968C70.9131 21.3968 71.871 21.6871 72.6857 22.231C73.5005 22.775 74.1356 23.548 74.5106 24.4525C74.8855 25.357 74.9836 26.3523 74.7925 27.3125C74.6013 28.2727 74.1295 29.1547 73.4365 29.8469C72.7436 30.5393 71.8608 31.0107 70.8997 31.2017C69.9387 31.3927 68.9425 31.2947 68.0371 30.92C67.1318 30.5453 66.358 29.9109 65.8136 29.0969C65.2692 28.2828 64.9786 27.3258 64.9786 26.3468C64.9786 25.6968 65.1068 25.053 65.3557 24.4525C65.6047 23.8519 65.9697 23.3063 66.4298 22.8467C66.8898 22.387 67.436 22.0223 68.0371 21.7736C68.6382 21.5248 69.2825 21.3968 69.9331 21.3968ZM69.9331 29.6468C70.5864 29.6468 71.225 29.4533 71.7682 29.0907C72.3114 28.728 72.7348 28.2126 72.9847 27.6096C73.2348 27.0066 73.3002 26.3432 73.1727 25.703C73.0453 25.0629 72.7306 24.4749 72.2687 24.0134C71.8068 23.5519 71.2183 23.2375 70.5776 23.1102C69.9368 22.9829 69.2727 23.0482 68.6692 23.298C68.0656 23.5477 67.5497 23.9707 67.1868 24.5134C66.8238 25.0561 66.6301 25.6941 66.6301 26.3468C66.6345 27.2192 66.9844 28.0543 67.6034 28.6696C68.2223 29.2849 69.06 29.6303 69.9331 29.6303V29.6468ZM66.6301 32.8973H73.2362V34.5473H66.6301V32.8973ZM87.7695 34.5473H86.118V33.3675C85.0529 34.1124 83.7847 34.5127 82.4847 34.5143C81.3761 34.5217 80.2834 34.2503 79.3075 33.725C78.3314 33.1997 77.5034 32.4374 76.8998 31.5085C76.2961 30.5795 75.9361 29.5137 75.853 28.4092C75.7699 27.3048 75.9663 26.1971 76.4242 25.1885C76.8821 24.1798 77.5867 23.3024 78.473 22.6373C79.3595 21.9721 80.3992 21.5404 81.4964 21.3822C82.5937 21.2239 83.7131 21.3441 84.7516 21.7316C85.7902 22.1191 86.7144 22.7614 87.4392 23.5996L86.2253 24.6803C85.6741 24.0645 84.9774 23.5964 84.1986 23.3186C83.4199 23.0408 82.584 22.9621 81.7671 23.0897C80.9501 23.2173 80.1782 23.5472 79.5214 24.0493C78.8648 24.5514 78.3443 25.2095 78.0076 25.9641C77.6707 26.7185 77.5283 27.5452 77.5932 28.3688C77.6581 29.1924 77.9282 29.9866 78.3791 30.6791C78.8299 31.3716 79.447 31.9405 80.1743 32.3337C80.9014 32.7269 81.7156 32.932 82.5425 32.9303C83.2287 32.9317 83.9071 32.785 84.5314 32.5002C85.1556 32.2154 85.7109 31.7993 86.1593 31.2803H81.7002V29.6303H87.786L87.7695 34.5473ZM93.8471 21.4298C94.827 21.4298 95.7849 21.7201 96.5997 22.264C97.4144 22.808 98.0495 23.581 98.4245 24.4855C98.7995 25.39 98.8976 26.3853 98.7064 27.3455C98.5153 28.3057 98.0434 29.1877 97.3504 29.8799C96.6576 30.5723 95.7747 31.0437 94.8136 31.2347C93.8526 31.4257 92.8564 31.3277 91.9511 30.953C91.0457 30.5783 90.272 29.9439 89.7275 29.1299C89.1831 28.3158 88.8925 27.3588 88.8925 26.3798C88.8882 25.7256 89.0137 25.077 89.2617 24.4716C89.5098 23.8661 89.8755 23.3158 90.3378 22.8524C90.8 22.389 91.3497 22.0218 91.9549 21.7719C92.5601 21.5221 93.2088 21.3946 93.8636 21.3968L93.8471 21.4298ZM93.8471 29.6798C94.5003 29.6798 95.139 29.4863 95.6822 29.1237C96.2254 28.761 96.6487 28.2456 96.8987 27.6426C97.1487 27.0396 97.2141 26.3762 97.0866 25.736C96.9592 25.0959 96.6446 24.5079 96.1827 24.0464C95.7207 23.5849 95.1322 23.2705 94.4915 23.1432C93.8507 23.0159 93.1866 23.0812 92.5831 23.331C91.9796 23.5807 91.4636 24.0037 91.1007 24.5464C90.7378 25.0891 90.5441 25.7271 90.5441 26.3798C90.5571 27.2493 90.9131 28.0785 91.5347 28.6872C92.1563 29.2958 92.9933 29.6348 93.8636 29.6303L93.8471 29.6798ZM90.5441 32.9303H97.1501V34.5803H90.5441V32.9303ZM100.56 21.3968H102.212V34.5143H100.56V21.3968ZM104.499 21.3968H106.151C106.236 21.3878 106.322 21.3878 106.407 21.3968C107.099 21.3218 107.798 21.3933 108.46 21.6064C109.123 21.8195 109.733 22.1696 110.25 22.6338C110.768 23.098 111.182 23.666 111.466 24.3008C111.749 24.9356 111.896 25.6229 111.896 26.3179C111.896 27.013 111.749 27.7003 111.466 28.335C111.182 28.9698 110.768 29.5378 110.25 30.002C109.733 30.4663 109.123 30.8163 108.46 31.0295C107.798 31.2426 107.099 31.314 106.407 31.239H106.151V34.5391H104.499V21.3968ZM106.151 23.0468V29.5725H106.407C106.873 29.6346 107.348 29.5964 107.798 29.4604C108.249 29.3244 108.665 29.0938 109.019 28.7841C109.373 28.4744 109.657 28.0927 109.851 27.6645C110.045 27.2363 110.146 26.7716 110.146 26.3014C110.146 25.8313 110.045 25.3665 109.851 24.9384C109.657 24.5102 109.373 24.1285 109.019 23.8188C108.665 23.509 108.249 23.2785 107.798 23.1424C107.348 23.0065 106.873 22.9683 106.407 23.0303C106.317 23.0396 106.228 23.059 106.143 23.0881L106.151 23.0468ZM118.05 22.3456L116.828 23.3108C116.617 23.0907 116.348 22.9353 116.052 22.8628C115.755 22.7904 115.445 22.8039 115.156 22.9018C114.867 22.9997 114.612 23.1779 114.421 23.4155C114.23 23.6531 114.111 23.9402 114.078 24.2431V24.3751C114.078 25.1011 114.582 25.5878 115.565 25.6538C119.346 25.8848 121.081 27.6586 121.081 30.0016V30.1501C120.983 31.0774 120.621 31.9571 120.037 32.6848C119.453 33.4124 118.673 33.9572 117.788 34.2544C116.904 34.5516 115.952 34.5887 115.047 34.3613C114.142 34.1339 113.321 33.6515 112.683 32.9716L113.946 31.9981C114.24 32.313 114.599 32.5601 114.998 32.7226C115.398 32.8849 115.828 32.9587 116.258 32.9385C117.054 32.9805 117.834 32.7137 118.437 32.1941C119.041 31.6745 119.42 30.9421 119.495 30.1501V30.0346C119.495 27.8318 117.332 27.4276 115.457 27.2461C113.723 27.081 112.476 26.0003 112.476 24.4411V24.3751C112.537 23.5633 112.908 22.8059 113.512 22.2594C114.116 21.7129 114.907 21.4188 115.721 21.4381C116.153 21.4253 116.583 21.5031 116.982 21.6666C117.382 21.83 117.743 22.0754 118.042 22.3868L118.05 22.3456ZM127.546 32.8396C129.602 32.8396 131.229 30.6203 131.229 27.8896V21.2896H132.881V27.8896C132.881 31.5196 130.502 34.4483 127.579 34.4483C124.656 34.4483 122.278 31.5196 122.278 27.8896V21.2896H123.929V27.8896C123.863 30.6616 125.49 32.8808 127.538 32.8808L127.546 32.8396ZM145.556 34.4896H143.905V26.3221L140.098 31.2721L136.291 26.3221V34.5143H134.64V21.3968L140.09 28.5661L145.54 21.3968L145.556 34.4896Z" fill="white"/>
    <path d="M50.2548 19.425C50.2548 18.2347 49.7815 17.0932 48.9391 16.2515C48.0966 15.4099 46.954 14.937 45.7626 14.937C44.5712 14.937 43.4287 15.4099 42.5862 16.2515C41.7438 17.0932 41.2705 18.2347 41.2705 19.425V32.9963L44.9699 35.6445V42.096H46.5554V35.6445L50.2548 32.9963V19.425ZM48.6693 27.015L46.5554 29.127V27.147L48.6693 25.035V27.015ZM42.889 25.035L45.0029 27.147V29.127L42.889 27.015V25.035ZM48.6693 22.791L45.7626 25.695L42.856 22.725V20.745L45.7626 23.649L48.6693 20.745V22.791ZM45.7626 16.521C46.4019 16.5238 47.0226 16.7359 47.5297 17.1249C48.0368 17.5138 48.4022 18.058 48.5702 18.6743L45.7626 21.471L42.9551 18.6743C43.1169 18.0519 43.4797 17.5002 43.9874 17.105C44.495 16.7097 45.119 16.4928 45.7626 16.488V16.521ZM42.856 32.196V29.226L44.9699 31.338V33.6975L42.856 32.196ZM46.5554 33.7058V31.338L48.6693 29.226V32.1878L46.5554 33.7058Z" fill="white"/>
  </g>
</svg>