<?xml version="1.0" encoding="UTF-8"?><svg id="Layer_23" xmlns="http://www.w3.org/2000/svg" viewBox="0 0 380 129"><defs><style>.cls-1{fill:#ea0001;fill-rule:evenodd;stroke-width:0px;}</style></defs><path class="cls-1" d="m120.29,24.51c-6.6.34-19.14,5.82-27.7,22.02l-21.71,44.13c-4.44,8.76-12.17,22.48-23.74,20.36-11.4-2.78-12.42-17.81-6.51-32.52,5.91-14.71,32.74-58.36,68.06-65.69,17.17-2.68,29.72-2.04,34.37,10.17,4.65,12.21-6.72,24.45-21.9,30.1-3.63,1.33-14.35,5.97-16,8.78-1.37,2.34-1.64,4.46.51,6.44,2.58,2.38,11.08,9.06,8.79,16.83-2.3,7.77-10.53,17.36-19.45,16.55,1.81-1.82,1.49-7.36-.84-8.92-1.98-1.32-6.28-1.64-8.09,2.33-1.81,3.97-.48,9.25,6.13,11.55,6.61,2.3,21.96.29,31.02-13.6,3.13-4.96,5.58-18.01-10.95-26.56-2.31-1.15-2.16-4.29,1.97-4.96,4.13-.67,27.73-4.02,36.13-17.08,4.61-6.45,7.56-17.02,2.92-25.6-4.64-8.58-21.33-13.17-36.35-11.49-15.02,1.68-48.87,5.88-78.5,48.54-19.1,27.45-10.46,52.53-.21,57.8,10.25,5.26,30.73,5.88,45.2-24.53l17.76-39.01c3.94-9.25,11.85-20.33,19.27-23.32,1.82-.33,2.64-2.32-.17-2.31,0,0,2.81,0,0,0h0Z"/><path class="cls-1" d="m249.44,36.3c4.46,1.97-2.78,15.53-6.07,20.98-6.91,12.56-14.99,20.01-19.44,23.82-.52-11.39,18.23-47.26,25.5-44.8l3.29-8.59c-7.25-.85-19.96,12.09-29.01,27.3-9.05,15.21-11.67,27.27-11.81,37.67-6.26,5.79-19.63,10.61-20.98-3.92,8.73-8.93,23.56-27.29,32.12-41.35,8.56-14.05,13.65-30.25,6.37-34.53l-4.44,6.78c3.81,3.1-3.6,17.51-8.04,25.45-6.75,11.08-18.27,27.61-24.87,34.23,1.95-17.67,11.16-35.86,14.61-41.48,3.46-5.62,14.65-21.17,18.29-18.2l4.44-6.78c-7.27-4.28-25.57,13.59-35.11,29.96-9.54,16.37-13.31,30.41-14.6,50.06-2.63,3.64-11.54,7.45-14.19,5.31-1.65-1.48-2.49-3.96-.02-8.75l9.37-18.51c-4.3-1.48-8.92-.97-11.39.02l-10.04,17.03c-2.96,5.29-8.56,12.73-13.35,10.93-5.05-1.9-2.17-9.74-.52-14.53,1.64-4.79,7.89-18.01,19.93-23.49,2.31-1.16,4.46.32,5.78,2.47,1.16,2.14,6.28,3.12,8.75.48,2.47-2.65,2-6.32-.84-8.58-3.31-2.64-11.73-1.13-14.86.03-2.4.89-26.4,12.27-30.97,34.9-1.63,9.91,2.51,16.51,9.61,16.99,4.46.16,11.38-4.65,14.68-8.12.67,3.3,3.98,9.4,10.75,9.39,4.13,0,8.75-.84,17.98-8.79,1.66,3.79,5.47,8.41,13.56,8.23,4.95-.01,13.03-5.31,18.8-10.28,1.5,4.79,7.78,8.24,11.91,8.07,4.13-.17,9.74-2.99,17.32-9.28.83,4.13,3.98,7.26,7.61,7.25s9.58-1.18,15.51-6.64l-12.99,24.96,10.4-.02,32.56-66.78-9.91.02c-3.45,6.61-18.09,38.02-27.66,39.36-3.47.5-6.28-1.8-3.65-7.09l17.11-32.23-10.73.02-14.97,26.78c-2.14,3.47-7.57,14.05-14.83,14.4-3.63,0-5.79-3.13-6.62-7.42,9.89-8.11,24.22-25.15,30.47-38.87,2.63-5.45,6.73-21.48-1.53-22.45l-3.29,8.59h0Z"/><path class="cls-1" d="m300,48.92l1.65.82c5.94-2.82,12.36-10.1,12.68-17.03.49-4.13-6.45-5.11-8.43-2.79-1.65,1.32-2.63,5.12-.48,6.94,1.49,1.15,1.17,5.28-5.43,12.07,0,0,6.59-6.78,0,0h0Z"/><path class="cls-1" d="m275.99,100.65c2.47-3.8,7.57-12.57,10.37-17.69,2.8-5.12,16.29-27.61,33.79-29.13,3.47-.34,3.97,1.64,2.49,4.12-1.48,2.48-.65,6.44,1.5,7.92,2.15,1.48,13.56,8.89,13.91,17.81.35,8.92-7.88,21.32-27.86,23.01-9.41.51-14.21-6.25-14.22-10.21,0-3.96,3.45-6.45,6.76-6.62,3.3-.17,7.61,5.1,3.65,10.56,1.82,1.32,6.11,1.47,12.71-3.82,6.59-5.3,11.86-15.71,6.23-21.81-2.65-2.64-7.28-6.59-6.8-12.87.49-2.48-1.16-2.47-2.98-1.48-1.81.99-6.76,3.32-16.47,21-1.65,3.14-8.39,15.37-10.86,19.18-2.47,3.8-9.9,3.98-12.22.02,0,0,2.32,3.96,0,0h0Z"/><path class="cls-1" d="m346.31,90.5c2.94,0,5.26,2.31,5.27,5.38s-2.31,5.43-5.24,5.44-5.29-2.29-5.3-5.42,2.31-5.4,5.28-5.4v-1.08c-3.57,0-6.59,2.76-6.58,6.49,0,3.76,3.04,6.5,6.61,6.5,3.54,0,6.56-2.76,6.55-6.52,0-3.73-3.04-6.47-6.57-6.46v1.08h0Z"/><path class="cls-1" d="m344.94,93.13h1.55c.79,0,1.63.17,1.63,1.09,0,1.15-.86,1.22-1.82,1.22h-1.36s0,.96,0,.96h1.31s1.98,3.24,1.98,3.24h1.27s-2.14-3.3-2.14-3.3c1.1-.14,1.94-.73,1.94-2.07,0-1.48-.88-2.13-2.65-2.12h-2.85s.02,7.49.02,7.49h1.13s-.01-6.53-.01-6.53h0Z"/></svg>