<svg width="293" height="202" viewBox="0 -25 293 202" fill="none" xmlns="http://www.w3.org/2000/svg">
<rect y="34" width="293" height="141" rx="8" fill="#F9FAFB"/>
<g filter="url(#filter0_d_54_3171)">
<path fill-rule="evenodd" clip-rule="evenodd" d="M48 16C44.6863 16 42 18.6863 42 22V66C42 69.3137 44.6863 72 48 72H59V80L67 72H245C248.314 72 251 69.3137 251 66V22C251 18.6863 248.314 16 245 16H48Z" fill="#FFFDFD"/>
</g>
<g filter="url(#filter1_d_54_3171)">
<path fill-rule="evenodd" clip-rule="evenodd" d="M48 89C44.6863 89 42 91.6863 42 95V139C42 142.314 44.6863 145 48 145H59V153L67 145H245C248.314 145 251 142.314 251 139V95C251 91.6863 248.314 89 245 89H48Z" fill="#FFFDFD"/>
</g>
<rect x="93" y="37" width="102" height="4" rx="2" fill="url(#paint0_linear_54_3171)"/>
<rect x="93" y="110" width="102" height="4" rx="2" fill="url(#paint1_linear_54_3171)"/>
<rect x="93" y="27" width="24" height="4" rx="2" fill="url(#paint2_linear_54_3171)"/>
<rect x="93" y="100" width="24" height="4" rx="2" fill="url(#paint3_linear_54_3171)"/>
<rect x="93" y="47" width="97" height="4" rx="2" fill="url(#paint4_linear_54_3171)"/>
<rect x="93" y="120" width="97" height="4" rx="2" fill="url(#paint5_linear_54_3171)"/>
<rect x="93" y="56" width="70" height="4" rx="2" fill="url(#paint6_linear_54_3171)"/>
<rect x="93" y="129" width="70" height="4" rx="2" fill="url(#paint7_linear_54_3171)"/>
<path d="M206.522 55.5459C206.667 55.0761 207.333 55.0761 207.478 55.5459L207.835 56.7033C207.9 56.9129 208.094 57.0557 208.313 57.0557H209.522C210 57.0557 210.205 57.6627 209.825 57.9531L208.805 58.7325C208.639 58.8598 208.569 59.0773 208.631 59.2775L209.01 60.5054C209.154 60.9705 208.616 61.3459 208.229 61.0504L207.304 60.3433C207.124 60.2064 206.876 60.2064 206.696 60.3433L205.771 61.0504C205.384 61.3459 204.846 60.9705 204.99 60.5054L205.369 59.2775C205.431 59.0773 205.361 58.8598 205.195 58.7325L204.175 57.9531C203.795 57.6627 204 57.0557 204.478 57.0557H205.687C205.906 57.0557 206.1 56.9129 206.165 56.7033L206.522 55.5459Z" fill="#088B33"/>
<path d="M214.522 55.5459C214.667 55.0761 215.333 55.0761 215.478 55.5459L215.835 56.7033C215.9 56.9129 216.094 57.0557 216.313 57.0557H217.522C218 57.0557 218.205 57.6627 217.825 57.9531L216.805 58.7325C216.639 58.8598 216.569 59.0773 216.631 59.2775L217.01 60.5054C217.154 60.9705 216.616 61.3459 216.229 61.0504L215.304 60.3433C215.124 60.2064 214.876 60.2064 214.696 60.3433L213.771 61.0504C213.384 61.3459 212.846 60.9705 212.99 60.5054L213.369 59.2775C213.431 59.0773 213.361 58.8598 213.195 58.7325L212.175 57.9531C211.795 57.6627 212 57.0557 212.478 57.0557H213.687C213.906 57.0557 214.1 56.9129 214.165 56.7033L214.522 55.5459Z" fill="#088B33"/>
<path d="M222.522 55.5459C222.667 55.0761 223.333 55.0761 223.478 55.5459L223.835 56.7033C223.9 56.9129 224.094 57.0557 224.313 57.0557H225.522C226 57.0557 226.205 57.6627 225.825 57.9531L224.805 58.7325C224.639 58.8598 224.569 59.0773 224.631 59.2775L225.01 60.5054C225.154 60.9705 224.616 61.3459 224.229 61.0504L223.304 60.3433C223.124 60.2064 222.876 60.2064 222.696 60.3433L221.771 61.0504C221.384 61.3459 220.846 60.9705 220.99 60.5054L221.369 59.2775C221.431 59.0773 221.361 58.8598 221.195 58.7325L220.175 57.9531C219.795 57.6627 220 57.0557 220.478 57.0557H221.687C221.906 57.0557 222.1 56.9129 222.165 56.7033L222.522 55.5459Z" fill="#088B33"/>
<path d="M230.522 55.5459C230.667 55.0761 231.333 55.0761 231.478 55.5459L231.835 56.7033C231.9 56.9129 232.094 57.0557 232.313 57.0557H233.522C234 57.0557 234.205 57.6627 233.825 57.9531L232.805 58.7325C232.639 58.8598 232.569 59.0773 232.631 59.2775L233.01 60.5054C233.154 60.9705 232.616 61.3459 232.229 61.0504L231.304 60.3433C231.124 60.2064 230.876 60.2064 230.696 60.3433L229.771 61.0504C229.384 61.3459 228.846 60.9705 228.99 60.5054L229.369 59.2775C229.431 59.0773 229.361 58.8598 229.195 58.7325L228.175 57.9531C227.795 57.6627 228 57.0557 228.478 57.0557H229.687C229.906 57.0557 230.1 56.9129 230.165 56.7033L230.522 55.5459Z" fill="#088B33"/>
<path d="M238.522 55.5459C238.667 55.0761 239.333 55.0761 239.478 55.5459L239.835 56.7033C239.9 56.9129 240.094 57.0557 240.313 57.0557H241.522C242 57.0557 242.205 57.6627 241.825 57.9531L240.805 58.7325C240.639 58.8598 240.569 59.0773 240.631 59.2775L241.01 60.5054C241.154 60.9705 240.616 61.3459 240.229 61.0504L239.304 60.3433C239.124 60.2064 238.876 60.2064 238.696 60.3433L237.771 61.0504C237.384 61.3459 236.846 60.9705 236.99 60.5054L237.369 59.2775C237.431 59.0773 237.361 58.8598 237.195 58.7325L236.175 57.9531C235.795 57.6627 236 57.0557 236.478 57.0557H237.687C237.906 57.0557 238.1 56.9129 238.165 56.7033L238.522 55.5459Z" fill="#088B33"/>
<path d="M206.522 127.546C206.667 127.076 207.333 127.076 207.478 127.546L207.835 128.703C207.9 128.913 208.094 129.056 208.313 129.056H209.522C210 129.056 210.205 129.663 209.825 129.953L208.805 130.733C208.639 130.86 208.569 131.077 208.631 131.277L209.01 132.505C209.154 132.971 208.616 133.346 208.229 133.05L207.304 132.343C207.124 132.206 206.876 132.206 206.696 132.343L205.771 133.05C205.384 133.346 204.846 132.971 204.99 132.505L205.369 131.277C205.431 131.077 205.361 130.86 205.195 130.733L204.175 129.953C203.795 129.663 204 129.056 204.478 129.056H205.687C205.906 129.056 206.1 128.913 206.165 128.703L206.522 127.546Z" fill="#818181"/>
<path d="M214.522 127.546C214.667 127.076 215.333 127.076 215.478 127.546L215.835 128.703C215.9 128.913 216.094 129.056 216.313 129.056H217.522C218 129.056 218.205 129.663 217.825 129.953L216.805 130.733C216.639 130.86 216.569 131.077 216.631 131.277L217.01 132.505C217.154 132.971 216.616 133.346 216.229 133.05L215.304 132.343C215.124 132.206 214.876 132.206 214.696 132.343L213.771 133.05C213.384 133.346 212.846 132.971 212.99 132.505L213.369 131.277C213.431 131.077 213.361 130.86 213.195 130.733L212.175 129.953C211.795 129.663 212 129.056 212.478 129.056H213.687C213.906 129.056 214.1 128.913 214.165 128.703L214.522 127.546Z" fill="#818181"/>
<path d="M222.522 127.546C222.667 127.076 223.333 127.076 223.478 127.546L223.835 128.703C223.9 128.913 224.094 129.056 224.313 129.056H225.522C226 129.056 226.205 129.663 225.825 129.953L224.805 130.733C224.639 130.86 224.569 131.077 224.631 131.277L225.01 132.505C225.154 132.971 224.616 133.346 224.229 133.05L223.304 132.343C223.124 132.206 222.876 132.206 222.696 132.343L221.771 133.05C221.384 133.346 220.846 132.971 220.99 132.505L221.369 131.277C221.431 131.077 221.361 130.86 221.195 130.733L220.175 129.953C219.795 129.663 220 129.056 220.478 129.056H221.687C221.906 129.056 222.1 128.913 222.165 128.703L222.522 127.546Z" fill="#818181"/>
<path d="M230.522 127.546C230.667 127.076 231.333 127.076 231.478 127.546L231.835 128.703C231.9 128.913 232.094 129.056 232.313 129.056H233.522C234 129.056 234.205 129.663 233.825 129.953L232.805 130.733C232.639 130.86 232.569 131.077 232.631 131.277L233.01 132.505C233.154 132.971 232.616 133.346 232.229 133.05L231.304 132.343C231.124 132.206 230.876 132.206 230.696 132.343L229.771 133.05C229.384 133.346 228.846 132.971 228.99 132.505L229.369 131.277C229.431 131.077 229.361 130.86 229.195 130.733L228.175 129.953C227.795 129.663 228 129.056 228.478 129.056H229.687C229.906 129.056 230.1 128.913 230.165 128.703L230.522 127.546Z" fill="#818181"/>
<path d="M238.522 127.546C238.667 127.076 239.333 127.076 239.478 127.546L239.835 128.703C239.9 128.913 240.094 129.056 240.313 129.056H241.522C242 129.056 242.205 129.663 241.825 129.953L240.805 130.733C240.639 130.86 240.569 131.077 240.631 131.277L241.01 132.505C241.154 132.971 240.616 133.346 240.229 133.05L239.304 132.343C239.124 132.206 238.876 132.206 238.696 132.343L237.771 133.05C237.384 133.346 236.846 132.971 236.99 132.505L237.369 131.277C237.431 131.077 237.361 130.86 237.195 130.733L236.175 129.953C235.795 129.663 236 129.056 236.478 129.056H237.687C237.906 129.056 238.1 128.913 238.165 128.703L238.522 127.546Z" fill="#DCDFE2"/>
<circle cx="68" cy="45" r="15" fill="url(#paint8_linear_54_3171)"/>
<circle cx="68" cy="118" r="15" fill="url(#paint9_linear_54_3171)"/>
<path d="M232.372 31.8875L232.006 31.7656L232.25 31.4609C232.555 31.0344 232.738 30.6078 232.738 30.1203C232.738 28.9016 231.763 27.9266 230.544 27.9266H224.755L224.816 27.5609C225.12 25.9156 226.156 23.7219 226.461 23.0516V22.9906C227.314 20.4313 225.303 18.6031 224.145 18.0547C224.084 18.0547 224.084 18.0547 224.023 18.0547C223.963 18.0547 223.963 18.0547 223.902 18.0547C223.841 18.1156 223.78 18.1766 223.719 18.2375L222.927 21.1625C222.683 22.0156 222.195 22.8078 221.586 23.4172C219.027 25.7937 216.711 28.7797 216.041 29.6328L215.98 29.7547L211.592 29.9375C211.47 29.9375 211.348 30.0594 211.288 30.1813C211.105 31.0344 209.764 38.8344 211.592 41.5156C211.653 41.5766 211.714 41.6375 211.836 41.6375H215.248C215.614 41.6375 215.919 41.6984 216.223 41.8812C216.955 42.3078 218.844 43.3438 220.367 43.7703C220.611 43.8313 220.794 43.8312 221.038 43.8312H229.142C230.361 43.8312 231.336 42.8563 231.336 41.6375C231.336 41.2109 231.214 40.7844 230.97 40.4188L230.727 40.0531L231.153 39.9922C232.189 39.8094 232.981 38.8953 232.981 37.7984C232.981 37.3109 232.798 36.7625 232.433 36.3969L232.189 36.0312L232.494 35.8484C233.225 35.4828 233.713 34.6906 233.713 33.8984C233.713 32.9844 233.225 32.1922 232.372 31.8875Z" fill="#088B33"/>
<path d="M222.5 15.5563C222.866 15.5563 223.231 15.2516 223.231 14.825V11.961C223.231 11.5954 222.927 11.2297 222.5 11.2297C222.073 11.2297 221.769 11.5344 221.769 11.961V14.886C221.769 15.2516 222.134 15.5563 222.5 15.5563Z" fill="#088B33"/>
<path d="M213.969 17.3236C214.091 17.5673 214.334 17.6892 214.578 17.6892C214.7 17.6892 214.822 17.6283 214.944 17.5673C215.309 17.3845 215.37 16.958 215.187 16.5923L213.725 14.0939C213.603 13.8501 213.359 13.7283 213.116 13.7283C212.994 13.7283 212.872 13.7892 212.75 13.8501C212.384 14.033 212.323 14.4595 212.506 14.8251L213.969 17.3236Z" fill="#088B33"/>
<path d="M209.094 22.1984L206.595 20.7359C206.473 20.675 206.352 20.614 206.23 20.614C205.986 20.614 205.742 20.7359 205.62 20.9796C205.438 21.3453 205.559 21.7718 205.864 21.9546L208.363 23.4171C208.484 23.4781 208.606 23.539 208.728 23.539C208.972 23.539 209.216 23.4171 209.338 23.1734C209.581 22.8078 209.459 22.3812 209.094 22.1984Z" fill="#088B33"/>
<path d="M206.595 29.9985H203.731C203.366 29.9985 203 30.3032 203 30.7298C203 31.1563 203.305 31.461 203.731 31.461H206.656C207.022 31.461 207.387 31.1563 207.387 30.7298C207.387 30.3032 207.022 29.9985 206.595 29.9985Z" fill="#088B33"/>
<path d="M239.136 39.5048L236.637 38.0423C236.515 37.9813 236.393 37.9204 236.271 37.9204C236.028 37.9204 235.784 38.0423 235.662 38.286C235.479 38.6517 235.601 39.0782 235.906 39.261L238.404 40.7235C238.526 40.7845 238.648 40.8454 238.77 40.8454C239.014 40.8454 239.257 40.7235 239.379 40.4798C239.562 40.1142 239.44 39.6876 239.136 39.5048Z" fill="#088B33"/>
<path d="M241.269 29.9985H238.344C237.978 29.9985 237.613 30.3032 237.613 30.7298C237.613 31.1563 237.917 31.461 238.344 31.461H241.269C241.634 31.461 242 31.1563 242 30.7298C242 30.3032 241.695 29.9985 241.269 29.9985Z" fill="#088B33"/>
<path d="M236.272 23.4782C236.394 23.4782 236.516 23.4173 236.637 23.3563L239.136 21.8938C239.502 21.711 239.562 21.2845 239.38 20.9188C239.258 20.6751 239.014 20.5532 238.77 20.5532C238.648 20.5532 238.527 20.6142 238.405 20.6751L235.906 22.1985C235.541 22.3813 235.48 22.8079 235.662 23.1735C235.784 23.3563 236.028 23.4782 236.272 23.4782Z" fill="#088B33"/>
<path d="M230.117 17.5673C230.239 17.6283 230.361 17.6892 230.483 17.6892C230.727 17.6892 230.97 17.5673 231.092 17.3236L232.555 14.8251C232.738 14.4595 232.616 14.033 232.311 13.8501C232.189 13.7892 232.067 13.7283 231.945 13.7283C231.702 13.7283 231.458 13.8501 231.336 14.0939L229.813 16.6533C229.63 16.958 229.752 17.3845 230.117 17.5673Z" fill="#088B33"/>
<defs>
<filter id="filter0_d_54_3171" x="22" y="0" width="249" height="104" filterUnits="userSpaceOnUse" color-interpolation-filters="sRGB">
<feFlood flood-opacity="0" result="BackgroundImageFix"/>
<feColorMatrix in="SourceAlpha" type="matrix" values="0 0 0 0 0 0 0 0 0 0 0 0 0 0 0 0 0 0 127 0" result="hardAlpha"/>
<feOffset dy="4"/>
<feGaussianBlur stdDeviation="10"/>
<feComposite in2="hardAlpha" operator="out"/>
<feColorMatrix type="matrix" values="0 0 0 0 0.0156863 0 0 0 0 0.0666667 0 0 0 0 0.117647 0 0 0 0.05 0"/>
<feBlend mode="normal" in2="BackgroundImageFix" result="effect1_dropShadow_54_3171"/>
<feBlend mode="normal" in="SourceGraphic" in2="effect1_dropShadow_54_3171" result="shape"/>
</filter>
<filter id="filter1_d_54_3171" x="22" y="73" width="249" height="104" filterUnits="userSpaceOnUse" color-interpolation-filters="sRGB">
<feFlood flood-opacity="0" result="BackgroundImageFix"/>
<feColorMatrix in="SourceAlpha" type="matrix" values="0 0 0 0 0 0 0 0 0 0 0 0 0 0 0 0 0 0 127 0" result="hardAlpha"/>
<feOffset dy="4"/>
<feGaussianBlur stdDeviation="10"/>
<feComposite in2="hardAlpha" operator="out"/>
<feColorMatrix type="matrix" values="0 0 0 0 0.0156863 0 0 0 0 0.0666667 0 0 0 0 0.117647 0 0 0 0.05 0"/>
<feBlend mode="normal" in2="BackgroundImageFix" result="effect1_dropShadow_54_3171"/>
<feBlend mode="normal" in="SourceGraphic" in2="effect1_dropShadow_54_3171" result="shape"/>
</filter>
<linearGradient id="paint0_linear_54_3171" x1="93" y1="41" x2="195" y2="41" gradientUnits="userSpaceOnUse">
<stop stop-color="#DBDEE1"/>
<stop offset="1" stop-color="#DBDEE1" stop-opacity="0"/>
</linearGradient>
<linearGradient id="paint1_linear_54_3171" x1="93" y1="114" x2="195" y2="114" gradientUnits="userSpaceOnUse">
<stop stop-color="#DBDEE1"/>
<stop offset="1" stop-color="#DBDEE1" stop-opacity="0"/>
</linearGradient>
<linearGradient id="paint2_linear_54_3171" x1="93" y1="31" x2="117" y2="31" gradientUnits="userSpaceOnUse">
<stop stop-color="#DBDEE1"/>
<stop offset="1" stop-color="#DBDEE1" stop-opacity="0"/>
</linearGradient>
<linearGradient id="paint3_linear_54_3171" x1="93" y1="104" x2="117" y2="104" gradientUnits="userSpaceOnUse">
<stop stop-color="#DBDEE1"/>
<stop offset="1" stop-color="#DBDEE1" stop-opacity="0"/>
</linearGradient>
<linearGradient id="paint4_linear_54_3171" x1="93" y1="51" x2="190" y2="51" gradientUnits="userSpaceOnUse">
<stop stop-color="#DBDEE1"/>
<stop offset="1" stop-color="#DBDEE1" stop-opacity="0"/>
</linearGradient>
<linearGradient id="paint5_linear_54_3171" x1="93" y1="124" x2="190" y2="124" gradientUnits="userSpaceOnUse">
<stop stop-color="#DBDEE1"/>
<stop offset="1" stop-color="#DBDEE1" stop-opacity="0"/>
</linearGradient>
<linearGradient id="paint6_linear_54_3171" x1="93" y1="60" x2="163" y2="60" gradientUnits="userSpaceOnUse">
<stop stop-color="#DBDEE1"/>
<stop offset="1" stop-color="#DBDEE1" stop-opacity="0"/>
</linearGradient>
<linearGradient id="paint7_linear_54_3171" x1="93" y1="133" x2="163" y2="133" gradientUnits="userSpaceOnUse">
<stop stop-color="#DBDEE1"/>
<stop offset="1" stop-color="#DBDEE1" stop-opacity="0"/>
</linearGradient>
<linearGradient id="paint8_linear_54_3171" x1="53" y1="60.0001" x2="83" y2="60.0001" gradientUnits="userSpaceOnUse">
<stop stop-color="#DBDEE1"/>
<stop offset="1" stop-color="#DBDEE1" stop-opacity="0"/>
</linearGradient>
<linearGradient id="paint9_linear_54_3171" x1="53" y1="133" x2="83" y2="133" gradientUnits="userSpaceOnUse">
<stop stop-color="#DBDEE1"/>
<stop offset="1" stop-color="#DBDEE1" stop-opacity="0"/>
</linearGradient>
</defs>
</svg>
