<svg width="293" height="202" viewBox="0 0 293 202" fill="none" xmlns="http://www.w3.org/2000/svg">
<rect y="50" width="293" height="141" rx="8" fill="#F9FAFB"/>
<g filter="url(#filter0_d_54_3133)">
<rect x="42" y="16" width="209" height="50" rx="6" fill="#FFFDFD"/>
</g>
<g filter="url(#filter1_d_54_3133)">
<rect x="42" y="72" width="209" height="50" rx="6" fill="#FFFDFD"/>
</g>
<path d="M108 86L104.667 89L103 87.5" stroke="#DBDEE1" stroke-width="1.5" stroke-linecap="round"/>
<path d="M108 95L104.667 98L103 96.5" stroke="#DBDEE1" stroke-width="1.5" stroke-linecap="round"/>
<path d="M108 105L104.667 108L103 106.5" stroke="#DBDEE1" stroke-width="1.5" stroke-linecap="round"/>
<g filter="url(#filter2_d_54_3133)">
<rect x="42" y="129" width="209" height="49" rx="6" fill="#FFFDFD"/>
</g>
<path d="M108 143L104.667 146L103 144.5" stroke="#DBDEE1" stroke-width="1.5" stroke-linecap="round"/>
<path d="M108 152L104.667 155L103 153.5" stroke="#DBDEE1" stroke-width="1.5" stroke-linecap="round"/>
<path d="M108 161L104.667 164L103 162.5" stroke="#DBDEE1" stroke-width="1.5" stroke-linecap="round"/>
<path d="M215.15 31.0928C215.203 31.3862 215.323 31.6128 215.51 31.7728C215.703 31.9262 215.96 32.0028 216.28 32.0028C216.693 32.0028 216.993 31.8328 217.18 31.4928C217.367 31.1462 217.46 30.5662 217.46 29.7528C217.307 29.9662 217.09 30.1328 216.81 30.2528C216.537 30.3728 216.24 30.4328 215.92 30.4328C215.493 30.4328 215.107 30.3462 214.76 30.1728C214.42 29.9928 214.15 29.7295 213.95 29.3828C213.75 29.0295 213.65 28.6028 213.65 28.1028C213.65 27.3628 213.87 26.7762 214.31 26.3428C214.75 25.9028 215.35 25.6828 216.11 25.6828C217.057 25.6828 217.723 25.9862 218.11 26.5928C218.503 27.1995 218.7 28.1128 218.7 29.3328C218.7 30.1995 218.623 30.9095 218.47 31.4628C218.323 32.0162 218.067 32.4362 217.7 32.7228C217.34 33.0095 216.847 33.1528 216.22 33.1528C215.727 33.1528 215.307 33.0595 214.96 32.8728C214.613 32.6795 214.347 32.4295 214.16 32.1228C213.98 31.8095 213.877 31.4662 213.85 31.0928H215.15ZM216.21 29.2928C216.557 29.2928 216.83 29.1862 217.03 28.9728C217.23 28.7595 217.33 28.4728 217.33 28.1128C217.33 27.7195 217.223 27.4162 217.01 27.2028C216.803 26.9828 216.52 26.8728 216.16 26.8728C215.8 26.8728 215.513 26.9862 215.3 27.2128C215.093 27.4328 214.99 27.7262 214.99 28.0928C214.99 28.4462 215.09 28.7362 215.29 28.9628C215.497 29.1828 215.803 29.2928 216.21 29.2928ZM220.07 33.2128C219.816 33.2128 219.606 33.1362 219.44 32.9828C219.28 32.8228 219.2 32.6262 219.2 32.3928C219.2 32.1595 219.28 31.9662 219.44 31.8128C219.606 31.6528 219.816 31.5728 220.07 31.5728C220.316 31.5728 220.52 31.6528 220.68 31.8128C220.84 31.9662 220.92 32.1595 220.92 32.3928C220.92 32.6262 220.84 32.8228 220.68 32.9828C220.52 33.1362 220.316 33.2128 220.07 33.2128ZM225.167 27.6728C225.101 27.3928 224.984 27.1828 224.817 27.0428C224.657 26.9028 224.424 26.8328 224.117 26.8328C223.657 26.8328 223.317 27.0195 223.097 27.3928C222.884 27.7595 222.774 28.3595 222.767 29.1928C222.927 28.9262 223.161 28.7195 223.467 28.5728C223.774 28.4195 224.107 28.3428 224.467 28.3428C224.901 28.3428 225.284 28.4362 225.617 28.6228C225.951 28.8095 226.211 29.0828 226.397 29.4428C226.584 29.7962 226.677 30.2228 226.677 30.7228C226.677 31.1962 226.581 31.6195 226.387 31.9928C226.201 32.3595 225.924 32.6462 225.557 32.8528C225.191 33.0595 224.754 33.1628 224.247 33.1628C223.554 33.1628 223.007 33.0095 222.607 32.7028C222.214 32.3962 221.937 31.9695 221.777 31.4228C221.624 30.8695 221.547 30.1895 221.547 29.3828C221.547 28.1628 221.757 27.2428 222.177 26.6228C222.597 25.9962 223.261 25.6828 224.167 25.6828C224.867 25.6828 225.411 25.8728 225.797 26.2528C226.184 26.6328 226.407 27.1062 226.467 27.6728H225.167ZM224.147 29.4928C223.794 29.4928 223.497 29.5962 223.257 29.8028C223.017 30.0095 222.897 30.3095 222.897 30.7028C222.897 31.0962 223.007 31.4062 223.227 31.6328C223.454 31.8595 223.771 31.9728 224.177 31.9728C224.537 31.9728 224.821 31.8628 225.027 31.6428C225.241 31.4228 225.347 31.1262 225.347 30.7528C225.347 30.3662 225.244 30.0595 225.037 29.8328C224.837 29.6062 224.541 29.4928 224.147 29.4928Z" fill="#04111E"/>
<path d="M236.554 24.9279C236.703 24.4672 237.355 24.4672 237.505 24.9279L238.264 27.2659C238.331 27.4719 238.523 27.6114 238.74 27.6114H241.198C241.683 27.6114 241.884 28.2312 241.492 28.5159L239.503 29.9609C239.328 30.0882 239.255 30.3139 239.322 30.5199L240.081 32.858C240.231 33.3186 239.704 33.7017 239.312 33.417L237.323 31.972C237.148 31.8447 236.911 31.8447 236.735 31.972L234.746 33.417C234.355 33.7017 233.827 33.3186 233.977 32.858L234.737 30.5199C234.804 30.3139 234.73 30.0882 234.555 29.9609L232.566 28.5159C232.174 28.2312 232.376 27.6114 232.86 27.6114H235.318C235.535 27.6114 235.727 27.4719 235.794 27.2659L236.554 24.9279Z" fill="#088B33"/>
<path d="M215.15 87.4141C215.203 87.7074 215.323 87.9341 215.51 88.0941C215.703 88.2474 215.96 88.3241 216.28 88.3241C216.693 88.3241 216.993 88.1541 217.18 87.8141C217.367 87.4674 217.46 86.8874 217.46 86.0741C217.307 86.2874 217.09 86.4541 216.81 86.5741C216.537 86.6941 216.24 86.7541 215.92 86.7541C215.493 86.7541 215.107 86.6674 214.76 86.4941C214.42 86.3141 214.15 86.0508 213.95 85.7041C213.75 85.3508 213.65 84.9241 213.65 84.4241C213.65 83.6841 213.87 83.0974 214.31 82.6641C214.75 82.2241 215.35 82.0041 216.11 82.0041C217.057 82.0041 217.723 82.3074 218.11 82.9141C218.503 83.5208 218.7 84.4341 218.7 85.6541C218.7 86.5208 218.623 87.2308 218.47 87.7841C218.323 88.3374 218.067 88.7574 217.7 89.0441C217.34 89.3308 216.847 89.4741 216.22 89.4741C215.727 89.4741 215.307 89.3808 214.96 89.1941C214.613 89.0008 214.347 88.7508 214.16 88.4441C213.98 88.1308 213.877 87.7874 213.85 87.4141H215.15ZM216.21 85.6141C216.557 85.6141 216.83 85.5074 217.03 85.2941C217.23 85.0808 217.33 84.7941 217.33 84.4341C217.33 84.0408 217.223 83.7374 217.01 83.5241C216.803 83.3041 216.52 83.1941 216.16 83.1941C215.8 83.1941 215.513 83.3074 215.3 83.5341C215.093 83.7541 214.99 84.0474 214.99 84.4141C214.99 84.7674 215.09 85.0574 215.29 85.2841C215.497 85.5041 215.803 85.6141 216.21 85.6141ZM220.07 89.5341C219.816 89.5341 219.606 89.4574 219.44 89.3041C219.28 89.1441 219.2 88.9474 219.2 88.7141C219.2 88.4808 219.28 88.2874 219.44 88.1341C219.606 87.9741 219.816 87.8941 220.07 87.8941C220.316 87.8941 220.52 87.9741 220.68 88.1341C220.84 88.2874 220.92 88.4808 220.92 88.7141C220.92 88.9474 220.84 89.1441 220.68 89.3041C220.52 89.4574 220.316 89.5341 220.07 89.5341ZM226.287 83.3841H223.047V85.0941C223.187 84.9208 223.387 84.7808 223.647 84.6741C223.907 84.5608 224.184 84.5041 224.477 84.5041C225.011 84.5041 225.447 84.6208 225.787 84.8541C226.127 85.0874 226.374 85.3874 226.527 85.7541C226.681 86.1141 226.757 86.5008 226.757 86.9141C226.757 87.6808 226.537 88.2974 226.097 88.7641C225.664 89.2308 225.044 89.4641 224.237 89.4641C223.477 89.4641 222.871 89.2741 222.417 88.8941C221.964 88.5141 221.707 88.0174 221.647 87.4041H223.007C223.067 87.6708 223.201 87.8841 223.407 88.0441C223.621 88.2041 223.891 88.2841 224.217 88.2841C224.611 88.2841 224.907 88.1608 225.107 87.9141C225.307 87.6674 225.407 87.3408 225.407 86.9341C225.407 86.5208 225.304 86.2074 225.097 85.9941C224.897 85.7741 224.601 85.6641 224.207 85.6641C223.927 85.6641 223.694 85.7341 223.507 85.8741C223.321 86.0141 223.187 86.2008 223.107 86.4341H221.767V82.1541H226.287V83.3841Z" fill="#04111E"/>
<path d="M236.554 81.2492C236.703 80.7885 237.355 80.7885 237.505 81.2492L238.264 83.5872C238.331 83.7932 238.523 83.9327 238.74 83.9327H241.198C241.683 83.9327 241.884 84.5525 241.492 84.8372L239.503 86.2822C239.328 86.4095 239.255 86.6352 239.322 86.8412L240.081 89.1793C240.231 89.6399 239.704 90.023 239.312 89.7383L237.323 88.2933C237.148 88.166 236.911 88.166 236.735 88.2933L234.746 89.7383C234.355 90.023 233.827 89.6399 233.977 89.1793L234.737 86.8412C234.804 86.6352 234.73 86.4095 234.555 86.2822L232.566 84.8372C232.174 84.5525 232.376 83.9327 232.86 83.9327H235.318C235.535 83.9327 235.727 83.7932 235.794 83.5872L236.554 81.2492Z" fill="#088B33"/>
<path d="M215.15 143.736C215.203 144.029 215.323 144.256 215.51 144.416C215.703 144.569 215.96 144.646 216.28 144.646C216.693 144.646 216.993 144.476 217.18 144.136C217.367 143.789 217.46 143.209 217.46 142.396C217.307 142.609 217.09 142.776 216.81 142.896C216.537 143.016 216.24 143.076 215.92 143.076C215.493 143.076 215.107 142.989 214.76 142.816C214.42 142.636 214.15 142.372 213.95 142.026C213.75 141.672 213.65 141.246 213.65 140.746C213.65 140.006 213.87 139.419 214.31 138.986C214.75 138.546 215.35 138.326 216.11 138.326C217.057 138.326 217.723 138.629 218.11 139.236C218.503 139.842 218.7 140.756 218.7 141.976C218.7 142.842 218.623 143.552 218.47 144.106C218.323 144.659 218.067 145.079 217.7 145.366C217.34 145.652 216.847 145.796 216.22 145.796C215.727 145.796 215.307 145.702 214.96 145.516C214.613 145.322 214.347 145.072 214.16 144.766C213.98 144.452 213.877 144.109 213.85 143.736H215.15ZM216.21 141.936C216.557 141.936 216.83 141.829 217.03 141.616C217.23 141.402 217.33 141.116 217.33 140.756C217.33 140.362 217.223 140.059 217.01 139.846C216.803 139.626 216.52 139.516 216.16 139.516C215.8 139.516 215.513 139.629 215.3 139.856C215.093 140.076 214.99 140.369 214.99 140.736C214.99 141.089 215.09 141.379 215.29 141.606C215.497 141.826 215.803 141.936 216.21 141.936ZM220.07 145.856C219.816 145.856 219.606 145.779 219.44 145.626C219.28 145.466 219.2 145.269 219.2 145.036C219.2 144.802 219.28 144.609 219.44 144.456C219.606 144.296 219.816 144.216 220.07 144.216C220.316 144.216 220.52 144.296 220.68 144.456C220.84 144.609 220.92 144.802 220.92 145.036C220.92 145.269 220.84 145.466 220.68 145.626C220.52 145.779 220.316 145.856 220.07 145.856ZM221.827 144.206C222.467 143.672 222.977 143.229 223.357 142.876C223.737 142.516 224.054 142.142 224.307 141.756C224.561 141.369 224.687 140.989 224.687 140.616C224.687 140.276 224.607 140.009 224.447 139.816C224.287 139.622 224.041 139.526 223.707 139.526C223.374 139.526 223.117 139.639 222.937 139.866C222.757 140.086 222.664 140.389 222.657 140.776H221.297C221.324 139.976 221.561 139.369 222.007 138.956C222.461 138.542 223.034 138.336 223.727 138.336C224.487 138.336 225.071 138.539 225.477 138.946C225.884 139.346 226.087 139.876 226.087 140.536C226.087 141.056 225.947 141.552 225.667 142.026C225.387 142.499 225.067 142.912 224.707 143.266C224.347 143.612 223.877 144.032 223.297 144.526H226.247V145.686H221.307V144.646L221.827 144.206Z" fill="#04111E"/>
<path d="M236.554 137.571C236.703 137.11 237.355 137.11 237.505 137.571L238.264 139.909C238.331 140.115 238.523 140.254 238.74 140.254H241.198C241.683 140.254 241.884 140.874 241.492 141.159L239.503 142.604C239.328 142.731 239.255 142.957 239.322 143.163L240.081 145.501C240.231 145.961 239.704 146.345 239.312 146.06L237.323 144.615C237.148 144.488 236.911 144.488 236.735 144.615L234.746 146.06C234.355 146.345 233.827 145.961 233.977 145.501L234.737 143.163C234.804 142.957 234.73 142.731 234.555 142.604L232.566 141.159C232.174 140.874 232.376 140.254 232.86 140.254H235.318C235.535 140.254 235.727 140.115 235.794 139.909L236.554 137.571Z" fill="#088B33"/>
<circle cx="68" cy="41" r="15" fill="url(#paint0_linear_54_3133)"/>
<circle cx="68" cy="98" r="15" fill="url(#paint1_linear_54_3133)"/>
<circle cx="68" cy="154" r="15" fill="url(#paint2_linear_54_3133)"/>
<path d="M66.2582 37.8V36.252H69.1502V45H67.4222V37.8H66.2582Z" fill="white"/>
<path d="M65.7187 100.104C66.4867 99.464 67.0987 98.932 67.5547 98.508C68.0107 98.076 68.3907 97.628 68.6947 97.164C68.9987 96.7 69.1507 96.244 69.1507 95.796C69.1507 95.388 69.0547 95.068 68.8627 94.836C68.6707 94.604 68.3747 94.488 67.9747 94.488C67.5747 94.488 67.2667 94.624 67.0507 94.896C66.8347 95.16 66.7227 95.524 66.7147 95.988H65.0827C65.1147 95.028 65.3987 94.3 65.9347 93.804C66.4787 93.308 67.1667 93.06 67.9987 93.06C68.9107 93.06 69.6107 93.304 70.0987 93.792C70.5867 94.272 70.8307 94.908 70.8307 95.7C70.8307 96.324 70.6627 96.92 70.3267 97.488C69.9907 98.056 69.6067 98.552 69.1747 98.976C68.7427 99.392 68.1787 99.896 67.4827 100.488H71.0227V101.88H65.0947V100.632L65.7187 100.104Z" fill="white"/>
<path d="M65.0682 151.556C65.1082 150.756 65.3882 150.14 65.9082 149.708C66.4362 149.268 67.1282 149.048 67.9842 149.048C68.5682 149.048 69.0682 149.152 69.4842 149.36C69.9002 149.56 70.2122 149.836 70.4202 150.188C70.6362 150.532 70.7442 150.924 70.7442 151.364C70.7442 151.868 70.6122 152.296 70.3482 152.648C70.0922 152.992 69.7842 153.224 69.4242 153.344V153.392C69.8882 153.536 70.2482 153.792 70.5042 154.16C70.7682 154.528 70.9002 155 70.9002 155.576C70.9002 156.056 70.7882 156.484 70.5642 156.86C70.3482 157.236 70.0242 157.532 69.5922 157.748C69.1682 157.956 68.6562 158.06 68.0562 158.06C67.1522 158.06 66.4162 157.832 65.8482 157.376C65.2802 156.92 64.9802 156.248 64.9482 155.36H66.5802C66.5962 155.752 66.7282 156.068 66.9762 156.308C67.2322 156.54 67.5802 156.656 68.0202 156.656C68.4282 156.656 68.7402 156.544 68.9562 156.32C69.1802 156.088 69.2922 155.792 69.2922 155.432C69.2922 154.952 69.1402 154.608 68.8362 154.4C68.5322 154.192 68.0602 154.088 67.4202 154.088H67.0722V152.708H67.4202C68.5562 152.708 69.1242 152.328 69.1242 151.568C69.1242 151.224 69.0202 150.956 68.8122 150.764C68.6122 150.572 68.3202 150.476 67.9362 150.476C67.5602 150.476 67.2682 150.58 67.0602 150.788C66.8602 150.988 66.7442 151.244 66.7122 151.556H65.0682Z" fill="white"/>
<rect x="112" y="29" width="61" height="4" rx="2" fill="url(#paint3_linear_54_3133)"/>
<rect x="112" y="85" width="61" height="4" rx="2" fill="url(#paint4_linear_54_3133)"/>
<rect x="112" y="142" width="61" height="4" rx="2" fill="url(#paint5_linear_54_3133)"/>
<rect x="112" y="39" width="50" height="4" rx="2" fill="url(#paint6_linear_54_3133)"/>
<rect x="112" y="94" width="50" height="4" rx="2" fill="url(#paint7_linear_54_3133)"/>
<rect x="112" y="151" width="50" height="4" rx="2" fill="url(#paint8_linear_54_3133)"/>
<rect x="112" y="48" width="61" height="4" rx="2" fill="url(#paint9_linear_54_3133)"/>
<rect x="112" y="105" width="61" height="4" rx="2" fill="url(#paint10_linear_54_3133)"/>
<rect x="112" y="161" width="61" height="4" rx="2" fill="url(#paint11_linear_54_3133)"/>
<path d="M108 30L104.667 33L103 31.5" stroke="#DBDEE1" stroke-width="1.5" stroke-linecap="round"/>
<path d="M108 39L104.667 42L103 40.5" stroke="#DBDEE1" stroke-width="1.5" stroke-linecap="round"/>
<path d="M108 49L104.667 52L103 50.5" stroke="#DBDEE1" stroke-width="1.5" stroke-linecap="round"/>
<defs>
<filter id="filter0_d_54_3133" x="22" y="0" width="249" height="90" filterUnits="userSpaceOnUse" color-interpolation-filters="sRGB">
<feFlood flood-opacity="0" result="BackgroundImageFix"/>
<feColorMatrix in="SourceAlpha" type="matrix" values="0 0 0 0 0 0 0 0 0 0 0 0 0 0 0 0 0 0 127 0" result="hardAlpha"/>
<feOffset dy="4"/>
<feGaussianBlur stdDeviation="10"/>
<feComposite in2="hardAlpha" operator="out"/>
<feColorMatrix type="matrix" values="0 0 0 0 0.0156863 0 0 0 0 0.0666667 0 0 0 0 0.117647 0 0 0 0.05 0"/>
<feBlend mode="normal" in2="BackgroundImageFix" result="effect1_dropShadow_54_3133"/>
<feBlend mode="normal" in="SourceGraphic" in2="effect1_dropShadow_54_3133" result="shape"/>
</filter>
<filter id="filter1_d_54_3133" x="22" y="56" width="249" height="90" filterUnits="userSpaceOnUse" color-interpolation-filters="sRGB">
<feFlood flood-opacity="0" result="BackgroundImageFix"/>
<feColorMatrix in="SourceAlpha" type="matrix" values="0 0 0 0 0 0 0 0 0 0 0 0 0 0 0 0 0 0 127 0" result="hardAlpha"/>
<feOffset dy="4"/>
<feGaussianBlur stdDeviation="10"/>
<feComposite in2="hardAlpha" operator="out"/>
<feColorMatrix type="matrix" values="0 0 0 0 0.0156863 0 0 0 0 0.0666667 0 0 0 0 0.117647 0 0 0 0.05 0"/>
<feBlend mode="normal" in2="BackgroundImageFix" result="effect1_dropShadow_54_3133"/>
<feBlend mode="normal" in="SourceGraphic" in2="effect1_dropShadow_54_3133" result="shape"/>
</filter>
<filter id="filter2_d_54_3133" x="22" y="113" width="249" height="89" filterUnits="userSpaceOnUse" color-interpolation-filters="sRGB">
<feFlood flood-opacity="0" result="BackgroundImageFix"/>
<feColorMatrix in="SourceAlpha" type="matrix" values="0 0 0 0 0 0 0 0 0 0 0 0 0 0 0 0 0 0 127 0" result="hardAlpha"/>
<feOffset dy="4"/>
<feGaussianBlur stdDeviation="10"/>
<feComposite in2="hardAlpha" operator="out"/>
<feColorMatrix type="matrix" values="0 0 0 0 0.0156863 0 0 0 0 0.0666667 0 0 0 0 0.117647 0 0 0 0.05 0"/>
<feBlend mode="normal" in2="BackgroundImageFix" result="effect1_dropShadow_54_3133"/>
<feBlend mode="normal" in="SourceGraphic" in2="effect1_dropShadow_54_3133" result="shape"/>
</filter>
<linearGradient id="paint0_linear_54_3133" x1="53" y1="26" x2="79.7892" y2="26.4894" gradientUnits="userSpaceOnUse">
<stop stop-color="#C49F37"/>
<stop offset="1" stop-color="#EECE71"/>
</linearGradient>
<linearGradient id="paint1_linear_54_3133" x1="53" y1="83" x2="82.3169" y2="83.5245" gradientUnits="userSpaceOnUse">
<stop stop-color="#A5A3A0"/>
<stop offset="1" stop-color="#DEDCD5"/>
</linearGradient>
<linearGradient id="paint2_linear_54_3133" x1="53" y1="139" x2="82.3172" y2="139.49" gradientUnits="userSpaceOnUse">
<stop stop-color="#C48337"/>
<stop offset="1" stop-color="#EEBA71"/>
</linearGradient>
<linearGradient id="paint3_linear_54_3133" x1="112" y1="33" x2="173" y2="33" gradientUnits="userSpaceOnUse">
<stop stop-color="#DBDEE1"/>
<stop offset="1" stop-color="#DBDEE1" stop-opacity="0"/>
</linearGradient>
<linearGradient id="paint4_linear_54_3133" x1="112" y1="89" x2="173" y2="89" gradientUnits="userSpaceOnUse">
<stop stop-color="#DBDEE1"/>
<stop offset="1" stop-color="#DBDEE1" stop-opacity="0"/>
</linearGradient>
<linearGradient id="paint5_linear_54_3133" x1="112" y1="146" x2="173" y2="146" gradientUnits="userSpaceOnUse">
<stop stop-color="#DBDEE1"/>
<stop offset="1" stop-color="#DBDEE1" stop-opacity="0"/>
</linearGradient>
<linearGradient id="paint6_linear_54_3133" x1="112" y1="43" x2="162" y2="43" gradientUnits="userSpaceOnUse">
<stop stop-color="#DBDEE1"/>
<stop offset="1" stop-color="#DBDEE1" stop-opacity="0"/>
</linearGradient>
<linearGradient id="paint7_linear_54_3133" x1="112" y1="98" x2="162" y2="98" gradientUnits="userSpaceOnUse">
<stop stop-color="#DBDEE1"/>
<stop offset="1" stop-color="#DBDEE1" stop-opacity="0"/>
</linearGradient>
<linearGradient id="paint8_linear_54_3133" x1="112" y1="155" x2="162" y2="155" gradientUnits="userSpaceOnUse">
<stop stop-color="#DBDEE1"/>
<stop offset="1" stop-color="#DBDEE1" stop-opacity="0"/>
</linearGradient>
<linearGradient id="paint9_linear_54_3133" x1="112" y1="52" x2="173" y2="52" gradientUnits="userSpaceOnUse">
<stop stop-color="#DBDEE1"/>
<stop offset="1" stop-color="#DBDEE1" stop-opacity="0"/>
</linearGradient>
<linearGradient id="paint10_linear_54_3133" x1="112" y1="109" x2="173" y2="109" gradientUnits="userSpaceOnUse">
<stop stop-color="#DBDEE1"/>
<stop offset="1" stop-color="#DBDEE1" stop-opacity="0"/>
</linearGradient>
<linearGradient id="paint11_linear_54_3133" x1="112" y1="165" x2="173" y2="165" gradientUnits="userSpaceOnUse">
<stop stop-color="#DBDEE1"/>
<stop offset="1" stop-color="#DBDEE1" stop-opacity="0"/>
</linearGradient>
</defs>
</svg>
