<svg xmlns="http://www.w3.org/2000/svg" width="123" height="15" viewBox="0 0 123 15" fill="none">
  <path d="M0 7.96518C0 6.70494 0.281412 5.5793 0.844235 4.58824C1.41929 3.58494 2.19624 2.808 3.17506 2.25741C4.16612 1.69459 5.27341 1.41318 6.49694 1.41318C7.92847 1.41318 9.18259 1.78024 10.2593 2.51435C11.336 3.24847 12.0885 4.264 12.5167 5.56094H9.56188C9.26824 4.94918 8.85224 4.49035 8.31388 4.18447C7.78777 3.87859 7.176 3.72565 6.47859 3.72565C5.73224 3.72565 5.06541 3.90306 4.47812 4.25788C3.90306 4.60047 3.45035 5.08988 3.12 5.72612C2.80188 6.36235 2.64282 7.10871 2.64282 7.96518C2.64282 8.80941 2.80188 9.55577 3.12 10.2042C3.45035 10.8405 3.90306 11.336 4.47812 11.6908C5.06541 12.0334 5.73224 12.2047 6.47859 12.2047C7.176 12.2047 7.78777 12.0518 8.31388 11.7459C8.85224 11.4278 9.26824 10.9628 9.56188 10.3511H12.5167C12.0885 11.6602 11.336 12.6819 10.2593 13.416C9.19483 14.1379 7.94071 14.4988 6.49694 14.4988C5.27341 14.4988 4.16612 14.2235 3.17506 13.6729C2.19624 13.1101 1.41929 12.3332 0.844235 11.3421C0.281412 10.3511 0 9.22541 0 7.96518Z" fill="#04111E"/>
  <path d="M14.0506 9.26824C14.0506 8.24047 14.2525 7.32894 14.6563 6.53365C15.0723 5.73835 15.629 5.12659 16.3264 4.69835C17.036 4.27012 17.8252 4.056 18.6939 4.056C19.4525 4.056 20.1132 4.20894 20.676 4.51482C21.2511 4.82071 21.7099 5.20612 22.0525 5.67106V4.22118H24.6403V14.3887H22.0525V12.9021C21.7221 13.3793 21.2633 13.7769 20.676 14.0951C20.101 14.4009 19.4341 14.5539 18.6756 14.5539C17.8191 14.5539 17.036 14.3336 16.3264 13.8932C15.629 13.4527 15.0723 12.8348 14.6563 12.0395C14.2525 11.232 14.0506 10.3082 14.0506 9.26824ZM22.0525 9.30494C22.0525 8.68094 21.9301 8.14871 21.6854 7.70824C21.4407 7.25553 21.1104 6.91294 20.6944 6.68047C20.2784 6.43577 19.8318 6.31341 19.3546 6.31341C18.8774 6.31341 18.437 6.42965 18.0332 6.66212C17.6294 6.89459 17.2991 7.23718 17.0421 7.68988C16.7974 8.13035 16.6751 8.65647 16.6751 9.26824C16.6751 9.88 16.7974 10.4184 17.0421 10.8833C17.2991 11.336 17.6294 11.6847 18.0332 11.9294C18.4492 12.1741 18.8897 12.2965 19.3546 12.2965C19.8318 12.2965 20.2784 12.1802 20.6944 11.9478C21.1104 11.7031 21.4407 11.3605 21.6854 10.92C21.9301 10.4673 22.0525 9.92894 22.0525 9.30494Z" fill="#04111E"/>
  <path d="M31.0406 14.5539C30.2086 14.5539 29.4622 14.4071 28.8015 14.1134C28.1408 13.8075 27.6147 13.3976 27.2232 12.8838C26.8439 12.3699 26.6359 11.8009 26.5991 11.1769H29.1869C29.2359 11.5685 29.4255 11.8927 29.7559 12.1496C30.0984 12.4066 30.5206 12.5351 31.0222 12.5351C31.5116 12.5351 31.8909 12.4372 32.1601 12.2414C32.4415 12.0456 32.5822 11.7948 32.5822 11.4889C32.5822 11.1586 32.4109 10.9139 32.0683 10.7548C31.738 10.5835 31.2057 10.4 30.4716 10.2042C29.713 10.0207 29.089 9.83106 28.5996 9.6353C28.1224 9.43953 27.7064 9.13977 27.3516 8.736C27.009 8.33224 26.8377 7.78777 26.8377 7.10259C26.8377 6.53977 26.9968 6.02588 27.3149 5.56094C27.6453 5.096 28.1102 4.72894 28.7097 4.45977C29.3215 4.19059 30.0373 4.056 30.857 4.056C32.0683 4.056 33.0349 4.36188 33.7568 4.97365C34.4787 5.57318 34.8763 6.38682 34.9497 7.41459H32.4904C32.4537 7.01082 32.2824 6.69271 31.9766 6.46024C31.6829 6.21553 31.2853 6.09318 30.7836 6.09318C30.3187 6.09318 29.9577 6.17882 29.7008 6.35012C29.4561 6.52141 29.3337 6.76 29.3337 7.06588C29.3337 7.40847 29.505 7.67153 29.8476 7.85506C30.1902 8.02635 30.7224 8.20377 31.4443 8.38729C32.1784 8.57082 32.7841 8.76047 33.2613 8.95624C33.7384 9.152 34.1483 9.45788 34.4909 9.87388C34.8457 10.2776 35.0293 10.816 35.0415 11.4889C35.0415 12.0762 34.8763 12.6024 34.546 13.0673C34.2279 13.5322 33.7629 13.8993 33.1511 14.1685C32.5516 14.4254 31.8481 14.5539 31.0406 14.5539Z" fill="#04111E"/>
  <path d="M38.4537 3.00988C38.001 3.00988 37.6217 2.86918 37.3158 2.58777C37.0222 2.29412 36.8754 1.93318 36.8754 1.50494C36.8754 1.07671 37.0222 0.721883 37.3158 0.440471C37.6217 0.146824 38.001 0 38.4537 0C38.9064 0 39.2796 0.146824 39.5732 0.440471C39.8791 0.721883 40.0321 1.07671 40.0321 1.50494C40.0321 1.93318 39.8791 2.29412 39.5732 2.58777C39.2796 2.86918 38.9064 3.00988 38.4537 3.00988ZM39.7201 4.22118V14.3887H37.1507V4.22118H39.7201Z" fill="#04111E"/>
  <path d="M47.893 4.07435C49.1043 4.07435 50.0831 4.45977 50.8295 5.23059C51.5758 5.98918 51.949 7.05365 51.949 8.424V14.3887H49.3796V8.77271C49.3796 7.96518 49.1777 7.3473 48.7739 6.91906C48.3702 6.47859 47.8196 6.25835 47.1222 6.25835C46.4125 6.25835 45.8497 6.47859 45.4337 6.91906C45.0299 7.3473 44.8281 7.96518 44.8281 8.77271V14.3887H42.2587V4.22118H44.8281V5.48753C45.1707 5.04706 45.605 4.70447 46.1311 4.45977C46.6695 4.20282 47.2568 4.07435 47.893 4.07435Z" fill="#04111E"/>
  <path d="M58.9072 14.5539C57.9284 14.5539 57.0474 14.3398 56.2644 13.9115C55.4813 13.4711 54.8634 12.8532 54.4107 12.0579C53.9703 11.2626 53.75 10.3449 53.75 9.30494C53.75 8.26494 53.9764 7.3473 54.4291 6.552C54.894 5.75671 55.5242 5.14494 56.3194 4.71671C57.1147 4.27624 58.0018 4.056 58.9806 4.056C59.9594 4.056 60.8465 4.27624 61.6418 4.71671C62.4371 5.14494 63.0611 5.75671 63.5138 6.552C63.9787 7.3473 64.2112 8.26494 64.2112 9.30494C64.2112 10.3449 63.9726 11.2626 63.4954 12.0579C63.0305 12.8532 62.3943 13.4711 61.5867 13.9115C60.7914 14.3398 59.8983 14.5539 58.9072 14.5539ZM58.9072 12.3148C59.3722 12.3148 59.8065 12.2047 60.2103 11.9845C60.6263 11.752 60.9566 11.4094 61.2013 10.9567C61.446 10.504 61.5684 9.95341 61.5684 9.30494C61.5684 8.33836 61.3114 7.59812 60.7976 7.08424C60.2959 6.55812 59.678 6.29506 58.9439 6.29506C58.2098 6.29506 57.5919 6.55812 57.0903 7.08424C56.6009 7.59812 56.3562 8.33836 56.3562 9.30494C56.3562 10.2715 56.5947 11.0179 57.0719 11.544C57.5613 12.0579 58.1731 12.3148 58.9072 12.3148Z" fill="#04111E"/>
  <path d="M74.0061 1.57835V3.65224H68.6654V6.93741H72.7581V8.97459H68.6654V14.3887H66.096V1.57835H74.0061Z" fill="#04111E"/>
  <path d="M77.1311 3.00988C76.6784 3.00988 76.2991 2.86918 75.9932 2.58777C75.6996 2.29412 75.5528 1.93318 75.5528 1.50494C75.5528 1.07671 75.6996 0.721883 75.9932 0.440471C76.2991 0.146824 76.6784 0 77.1311 0C77.5838 0 77.957 0.146824 78.2506 0.440471C78.5565 0.721883 78.7095 1.07671 78.7095 1.50494C78.7095 1.93318 78.5565 2.29412 78.2506 2.58777C77.957 2.86918 77.5838 3.00988 77.1311 3.00988ZM78.3975 4.22118V14.3887H75.8281V4.22118H78.3975Z" fill="#04111E"/>
  <path d="M86.5704 4.07435C87.7817 4.07435 88.7605 4.45977 89.5069 5.23059C90.2532 5.98918 90.6264 7.05365 90.6264 8.424V14.3887H88.057V8.77271C88.057 7.96518 87.8551 7.3473 87.4513 6.91906C87.0476 6.47859 86.497 6.25835 85.7996 6.25835C85.0899 6.25835 84.5271 6.47859 84.1111 6.91906C83.7074 7.3473 83.5055 7.96518 83.5055 8.77271V14.3887H80.9361V4.22118H83.5055V5.48753C83.8481 5.04706 84.2824 4.70447 84.8085 4.45977C85.3469 4.20282 85.9342 4.07435 86.5704 4.07435Z" fill="#04111E"/>
  <path d="M92.4091 9.26824C92.4091 8.24047 92.611 7.32894 93.0147 6.53365C93.4307 5.73835 93.9936 5.12659 94.7032 4.69835C95.4128 4.27012 96.202 4.056 97.0707 4.056C97.7314 4.056 98.3615 4.20283 98.9611 4.49647C99.5606 4.77788 100.038 5.15718 100.393 5.63435V0.80753H102.999V14.3887H100.393V12.8838C100.075 13.3854 99.6279 13.7892 99.0528 14.0951C98.4778 14.4009 97.811 14.5539 97.0524 14.5539C96.1959 14.5539 95.4128 14.3336 94.7032 13.8932C93.9936 13.4527 93.4307 12.8348 93.0147 12.0395C92.611 11.232 92.4091 10.3082 92.4091 9.26824ZM100.411 9.30494C100.411 8.68094 100.289 8.14871 100.044 7.70824C99.7992 7.25553 99.4688 6.91294 99.0528 6.68047C98.6368 6.43577 98.1903 6.31341 97.7131 6.31341C97.2359 6.31341 96.7954 6.42965 96.3917 6.66212C95.9879 6.89459 95.6576 7.23718 95.4006 7.68988C95.1559 8.13035 95.0336 8.65647 95.0336 9.26824C95.0336 9.88 95.1559 10.4184 95.4006 10.8833C95.6576 11.336 95.9879 11.6847 96.3917 11.9294C96.8077 12.1741 97.2481 12.2965 97.7131 12.2965C98.1903 12.2965 98.6368 12.1802 99.0528 11.9478C99.4688 11.7031 99.7992 11.3605 100.044 10.92C100.289 10.4673 100.411 9.92894 100.411 9.30494Z" fill="#04111E"/>
  <path d="M114.96 9.08471C114.96 9.45177 114.936 9.78212 114.887 10.0758H107.454C107.515 10.8099 107.772 11.3849 108.224 11.8009C108.677 12.2169 109.234 12.4249 109.895 12.4249C110.849 12.4249 111.528 12.0151 111.932 11.1953H114.703C114.409 12.1741 113.847 12.9816 113.015 13.6179C112.183 14.2419 111.161 14.5539 109.95 14.5539C108.971 14.5539 108.09 14.3398 107.307 13.9115C106.536 13.4711 105.93 12.8532 105.49 12.0579C105.062 11.2626 104.847 10.3449 104.847 9.30494C104.847 8.25271 105.062 7.32894 105.49 6.53365C105.918 5.73835 106.518 5.12659 107.288 4.69835C108.059 4.27012 108.946 4.056 109.95 4.056C110.916 4.056 111.779 4.264 112.537 4.68C113.308 5.096 113.902 5.68941 114.318 6.46024C114.746 7.21883 114.96 8.09365 114.96 9.08471ZM112.299 8.35059C112.287 7.68988 112.048 7.16377 111.583 6.77224C111.118 6.36847 110.549 6.16659 109.876 6.16659C109.24 6.16659 108.702 6.36235 108.261 6.75388C107.833 7.13318 107.57 7.66541 107.472 8.35059H112.299Z" fill="#04111E"/>
  <path d="M119.405 5.79953C119.735 5.26118 120.163 4.83906 120.69 4.53318C121.228 4.22729 121.84 4.07435 122.525 4.07435V6.77224H121.846C121.038 6.77224 120.426 6.96188 120.01 7.34118C119.607 7.72047 119.405 8.38118 119.405 9.3233V14.3887H116.835V4.22118H119.405V5.79953Z" fill="#04111E"/>
</svg>
