<svg xmlns="http://www.w3.org/2000/svg" width="10" height="6" viewBox="0 0 10 6" fill="none">
  <path d="M9.79231 0.706184C9.72592 0.640851 9.64693 0.588995 9.55989 0.553607C9.47286 0.518219 9.37951 0.5 9.28523 0.5C9.19094 0.5 9.09759 0.518219 9.01056 0.553607C8.92353 0.588995 8.84454 0.640851 8.77814 0.706184L5.50708 3.89864C5.44069 3.96397 5.3617 4.01583 5.27467 4.05122C5.18763 4.08661 5.09428 4.10483 5 4.10483C4.90572 4.10483 4.81237 4.08661 4.72533 4.05122C4.6383 4.01583 4.55931 3.96397 4.49291 3.89864L1.22186 0.706184C1.15546 0.640851 1.07647 0.588995 0.989437 0.553607C0.902405 0.518219 0.809054 0.5 0.714771 0.5C0.620487 0.5 0.527137 0.518219 0.440104 0.553607C0.353072 0.588995 0.27408 0.640851 0.207685 0.706184C0.0746641 0.836784 0 1.01345 0 1.1976C0 1.38175 0.0746641 1.55841 0.207685 1.68901L3.48589 4.88844C3.88763 5.28004 4.4322 5.5 5 5.5C5.56779 5.5 6.11237 5.28004 6.51411 4.88844L9.79231 1.68901C9.92533 1.55841 10 1.38175 10 1.1976C10 1.01345 9.92533 0.836784 9.79231 0.706184Z" fill="#088B33"/>
</svg>
