<svg width="139" height="57" viewBox="0 0 139 57" fill="none" xmlns="http://www.w3.org/2000/svg">
<g id="Logo" opacity="0.5">
<rect x="-83" width="221.091" height="57" rx="8" fill="#F2F5F8"/>
<path id="Vector" d="M2.05933 22.3844H5.1561V34.8934H2.05933V22.3844ZM6.38449 30.1703C6.38449 27.0766 8.28384 25.2306 11.2155 25.2306C14.1471 25.2306 16.0464 27.0766 16.0464 30.1703C16.0464 33.2641 14.1884 35.1203 11.2155 35.1203C8.24255 35.1203 6.38449 33.3156 6.38449 30.1703ZM12.9393 30.1703C12.9393 28.4687 12.2684 27.4684 11.2155 27.4684C10.1626 27.4684 9.50191 28.4997 9.50191 30.1703C9.50191 31.8409 10.1522 32.8516 11.2155 32.8516C12.2787 32.8516 12.9393 31.9028 12.9393 30.1806V30.1703ZM17.2129 35.5019H20.1858C20.3273 35.8159 20.5665 36.0759 20.8678 36.2431C21.1691 36.4103 21.5165 36.4759 21.858 36.43C23.0348 36.43 23.6542 35.7906 23.6542 34.8625V33.13H23.5922C23.3455 33.661 22.9451 34.1059 22.4428 34.4074C21.9405 34.7088 21.3592 34.853 20.7742 34.8212C18.5135 34.8212 17.0167 33.0991 17.0167 30.1394C17.0167 27.1797 18.4413 25.3131 20.8155 25.3131C21.4189 25.2895 22.0151 25.4507 22.5244 25.775C23.0336 26.0995 23.4314 26.5716 23.6645 27.1281V25.4059H26.7613V34.7903C26.7613 37.0487 24.769 38.4512 21.8271 38.4512C19.0916 38.4512 17.3884 37.2241 17.2129 35.5122V35.5019ZM23.6645 30.16C23.6645 28.6544 22.9729 27.7056 21.8787 27.7056C20.7845 27.7056 20.1135 28.6441 20.1135 30.16C20.1135 31.6759 20.7742 32.5319 21.8787 32.5319C22.9832 32.5319 23.6645 31.6966 23.6645 30.1703V30.16ZM27.9277 30.16C27.9277 27.0662 29.8271 25.2203 32.7587 25.2203C35.6903 25.2203 37.6 27.0662 37.6 30.16C37.6 33.2537 35.7419 35.11 32.7587 35.11C29.7755 35.11 27.9277 33.3156 27.9277 30.1703V30.16ZM34.4826 30.16C34.4826 28.4584 33.8116 27.4581 32.7587 27.4581C31.7058 27.4581 31.0967 28.4997 31.0967 30.1806C31.0967 31.8616 31.7471 32.8619 32.8 32.8619C33.8529 32.8619 34.4826 31.9028 34.4826 30.1806V30.16ZM38.7767 23.1578C38.7686 22.8454 38.8535 22.5377 39.0207 22.2736C39.1879 22.0095 39.4298 21.801 39.7157 21.6744C40.0016 21.5478 40.3187 21.5088 40.6269 21.5625C40.935 21.6162 41.2202 21.7601 41.4464 21.9759C41.6726 22.1917 41.8295 22.4698 41.8974 22.7748C41.9652 23.0798 41.9408 23.3981 41.8273 23.6893C41.7138 23.9804 41.5164 24.2314 41.2599 24.4104C41.0036 24.5893 40.6997 24.6882 40.3871 24.6944C40.1798 24.7086 39.9718 24.6798 39.7762 24.6099C39.5805 24.54 39.4015 24.4305 39.2502 24.2881C39.099 24.1457 38.9789 23.9736 38.8974 23.7826C38.8159 23.5918 38.7748 23.386 38.7767 23.1784V23.1578ZM38.7767 25.4266H41.8735V34.8934H38.7767V25.4266ZM53.1148 30.16C53.1148 33.2537 51.7419 35.0172 49.3884 35.0172C48.7849 35.0559 48.184 34.9085 47.6671 34.595C47.1501 34.2814 46.7421 33.8168 46.498 33.2641H46.4361V37.9253H43.3393V25.4059H46.4361V27.0972H46.498C46.7307 26.5353 47.131 26.0586 47.6445 25.732C48.1579 25.4054 48.7596 25.2448 49.3677 25.2719C51.7419 25.3131 53.1561 27.0869 53.1561 30.1806L53.1148 30.16ZM50.018 30.16C50.018 28.6544 49.3264 27.6953 48.2426 27.6953C47.1587 27.6953 46.4671 28.6647 46.4567 30.16C46.4464 31.6553 47.1587 32.6144 48.2426 32.6144C49.3264 32.6144 50.018 31.6759 50.018 30.1806V30.16ZM58.4309 25.21C61.0013 25.21 62.56 26.4269 62.6322 28.3759H59.8142C59.8142 27.7056 59.2567 27.2828 58.4 27.2828C57.5432 27.2828 57.1613 27.6128 57.1613 28.0975C57.1613 28.5822 57.5019 28.7369 58.1935 28.8812L60.1755 29.2834C62.0645 29.6856 62.8696 30.4487 62.8696 31.8822C62.8696 33.8416 61.0838 35.0997 58.4516 35.0997C55.8193 35.0997 54.0955 33.8416 53.9613 31.9131H56.9445C57.0374 32.6144 57.5948 33.0269 58.5032 33.0269C59.4116 33.0269 59.8245 32.7278 59.8245 32.2328C59.8245 31.7378 59.5355 31.6347 58.7922 31.48L57.0064 31.0984C55.1587 30.7169 54.1884 29.7372 54.1884 28.2934C54.209 26.4372 55.8709 25.2306 58.4309 25.2306V25.21ZM73.2025 34.8728H70.2193V33.1094H70.1574C69.9933 33.7014 69.632 34.2196 69.1324 34.578C68.6328 34.9362 68.0258 35.1131 67.4116 35.0791C66.9411 35.1058 66.4704 35.0313 66.0311 34.8606C65.5919 34.69 65.1945 34.4272 64.8657 34.0899C64.5369 33.7527 64.2844 33.3487 64.1253 32.9056C63.9661 32.4625 63.9041 31.9904 63.9432 31.5212V25.4059H67.04V30.8097C67.04 31.9337 67.618 32.5319 68.578 32.5319C68.8031 32.5323 69.026 32.4847 69.2315 32.3922C69.4358 32.2997 69.6196 32.1644 69.7682 31.9955C69.9158 31.8265 70.0273 31.6278 70.0924 31.4127C70.1574 31.1974 70.177 30.9708 70.1471 30.7478V25.4059H73.2439L73.2025 34.8728ZM74.6993 25.4059H77.6929V27.2312H77.7548C77.9189 26.647 78.273 26.1337 78.7602 25.7717C79.2475 25.4098 79.842 25.2194 80.449 25.2306C81.0673 25.1812 81.6805 25.3659 82.1687 25.7481C82.656 26.1303 82.9822 26.6818 83.0813 27.2931H83.1432C83.33 26.6753 83.7182 26.1374 84.2456 25.764C84.7721 25.3906 85.409 25.2029 86.0542 25.2306C86.4753 25.2165 86.8944 25.2911 87.2846 25.4495C87.6758 25.6078 88.0278 25.8465 88.32 26.1499C88.6121 26.4534 88.8371 26.8148 88.9806 27.2107C89.1231 27.6066 89.1819 28.0283 89.1509 28.4481V34.8934H86.0542V29.2731C86.0542 28.2419 85.5896 27.7675 84.7225 27.7675C84.5295 27.7658 84.3375 27.8057 84.161 27.8842C83.9845 27.9628 83.8265 28.0783 83.6985 28.223C83.5705 28.3677 83.4745 28.538 83.4178 28.7227C83.361 28.9075 83.3455 29.1022 83.3703 29.2937V34.8934H80.4284V29.2319C80.4284 28.2831 79.9638 27.7675 79.1174 27.7675C78.9223 27.7676 78.7282 27.8091 78.5507 27.8892C78.3721 27.9694 78.2121 28.0865 78.0831 28.2326C77.953 28.3787 77.856 28.5507 77.7971 28.7373C77.7393 28.9237 77.7207 29.1204 77.7445 29.3144V34.8934H74.6477L74.6993 25.4059Z" fill="black"/>
</g>
</svg>
