<svg width="293" height="202" viewBox="0 0 293 202" fill="none" xmlns="http://www.w3.org/2000/svg">
<rect y="60" width="293" height="141" rx="8" fill="#F9FAFB"/>
<g filter="url(#filter0_d_54_3214)">
<rect x="42" y="16" width="209" height="162" rx="6" fill="#FFFDFD"/>
</g>
<circle cx="147" cy="76" r="27" fill="#088B33"/>
<rect x="77" y="126" width="140" height="33" rx="16.5" fill="url(#paint0_linear_54_3214)"/>
<path opacity="0.5" d="M126.55 141.12C126.39 140.827 126.17 140.603 125.89 140.45C125.61 140.297 125.283 140.22 124.91 140.22C124.497 140.22 124.13 140.313 123.81 140.5C123.49 140.687 123.24 140.953 123.06 141.3C122.88 141.647 122.79 142.047 122.79 142.5C122.79 142.967 122.88 143.373 123.06 143.72C123.247 144.067 123.503 144.333 123.83 144.52C124.157 144.707 124.537 144.8 124.97 144.8C125.503 144.8 125.94 144.66 126.28 144.38C126.62 144.093 126.843 143.697 126.95 143.19H124.55V142.12H128.33V143.34C128.237 143.827 128.037 144.277 127.73 144.69C127.423 145.103 127.027 145.437 126.54 145.69C126.06 145.937 125.52 146.06 124.92 146.06C124.247 146.06 123.637 145.91 123.09 145.61C122.55 145.303 122.123 144.88 121.81 144.34C121.503 143.8 121.35 143.187 121.35 142.5C121.35 141.813 121.503 141.2 121.81 140.66C122.123 140.113 122.55 139.69 123.09 139.39C123.637 139.083 124.243 138.93 124.91 138.93C125.697 138.93 126.38 139.123 126.96 139.51C127.54 139.89 127.94 140.427 128.16 141.12H126.55ZM130.266 140.15V141.9H132.616V143.01H130.266V144.86H132.916V146H128.866V139.01H132.916V140.15H130.266ZM138.438 139.02V140.15H136.578V146H135.178V140.15H133.318V139.02H138.438ZM144.802 142.42C145.196 142.493 145.519 142.69 145.772 143.01C146.026 143.33 146.152 143.697 146.152 144.11C146.152 144.483 146.059 144.813 145.872 145.1C145.692 145.38 145.429 145.6 145.082 145.76C144.736 145.92 144.326 146 143.852 146H140.842V139.02H143.722C144.196 139.02 144.602 139.097 144.942 139.25C145.289 139.403 145.549 139.617 145.722 139.89C145.902 140.163 145.992 140.473 145.992 140.82C145.992 141.227 145.882 141.567 145.662 141.84C145.449 142.113 145.162 142.307 144.802 142.42ZM142.242 141.9H143.522C143.856 141.9 144.112 141.827 144.292 141.68C144.472 141.527 144.562 141.31 144.562 141.03C144.562 140.75 144.472 140.533 144.292 140.38C144.112 140.227 143.856 140.15 143.522 140.15H142.242V141.9ZM143.652 144.86C143.992 144.86 144.256 144.78 144.442 144.62C144.636 144.46 144.732 144.233 144.732 143.94C144.732 143.64 144.632 143.407 144.432 143.24C144.232 143.067 143.962 142.98 143.622 142.98H142.242V144.86H143.652ZM150.008 146.07C149.355 146.07 148.755 145.917 148.208 145.61C147.661 145.303 147.228 144.88 146.908 144.34C146.588 143.793 146.428 143.177 146.428 142.49C146.428 141.81 146.588 141.2 146.908 140.66C147.228 140.113 147.661 139.687 148.208 139.38C148.755 139.073 149.355 138.92 150.008 138.92C150.668 138.92 151.268 139.073 151.808 139.38C152.355 139.687 152.785 140.113 153.098 140.66C153.418 141.2 153.578 141.81 153.578 142.49C153.578 143.177 153.418 143.793 153.098 144.34C152.785 144.88 152.355 145.303 151.808 145.61C151.261 145.917 150.661 146.07 150.008 146.07ZM150.008 144.82C150.428 144.82 150.798 144.727 151.118 144.54C151.438 144.347 151.688 144.073 151.868 143.72C152.048 143.367 152.138 142.957 152.138 142.49C152.138 142.023 152.048 141.617 151.868 141.27C151.688 140.917 151.438 140.647 151.118 140.46C150.798 140.273 150.428 140.18 150.008 140.18C149.588 140.18 149.215 140.273 148.888 140.46C148.568 140.647 148.318 140.917 148.138 141.27C147.958 141.617 147.868 142.023 147.868 142.49C147.868 142.957 147.958 143.367 148.138 143.72C148.318 144.073 148.568 144.347 148.888 144.54C149.215 144.727 149.588 144.82 150.008 144.82ZM160.09 146H158.69L155.52 141.21V146H154.12V139.01H155.52L158.69 143.81V139.01H160.09V146ZM162.353 139.02V143.34C162.353 143.813 162.477 144.177 162.723 144.43C162.97 144.677 163.317 144.8 163.763 144.8C164.217 144.8 164.567 144.677 164.813 144.43C165.06 144.177 165.183 143.813 165.183 143.34V139.02H166.593V143.33C166.593 143.923 166.463 144.427 166.203 144.84C165.95 145.247 165.607 145.553 165.173 145.76C164.747 145.967 164.27 146.07 163.743 146.07C163.223 146.07 162.75 145.967 162.323 145.76C161.903 145.553 161.57 145.247 161.323 144.84C161.077 144.427 160.953 143.923 160.953 143.33V139.02H162.353ZM169.856 146.07C169.369 146.07 168.929 145.987 168.536 145.82C168.149 145.653 167.843 145.413 167.616 145.1C167.389 144.787 167.273 144.417 167.266 143.99H168.766C168.786 144.277 168.886 144.503 169.066 144.67C169.253 144.837 169.506 144.92 169.826 144.92C170.153 144.92 170.409 144.843 170.596 144.69C170.783 144.53 170.876 144.323 170.876 144.07C170.876 143.863 170.813 143.693 170.686 143.56C170.559 143.427 170.399 143.323 170.206 143.25C170.019 143.17 169.759 143.083 169.426 142.99C168.973 142.857 168.603 142.727 168.316 142.6C168.036 142.467 167.793 142.27 167.586 142.01C167.386 141.743 167.286 141.39 167.286 140.95C167.286 140.537 167.389 140.177 167.596 139.87C167.803 139.563 168.093 139.33 168.466 139.17C168.839 139.003 169.266 138.92 169.746 138.92C170.466 138.92 171.049 139.097 171.496 139.45C171.949 139.797 172.199 140.283 172.246 140.91H170.706C170.693 140.67 170.589 140.473 170.396 140.32C170.209 140.16 169.959 140.08 169.646 140.08C169.373 140.08 169.153 140.15 168.986 140.29C168.826 140.43 168.746 140.633 168.746 140.9C168.746 141.087 168.806 141.243 168.926 141.37C169.053 141.49 169.206 141.59 169.386 141.67C169.573 141.743 169.833 141.83 170.166 141.93C170.619 142.063 170.989 142.197 171.276 142.33C171.563 142.463 171.809 142.663 172.016 142.93C172.223 143.197 172.326 143.547 172.326 143.98C172.326 144.353 172.229 144.7 172.036 145.02C171.843 145.34 171.559 145.597 171.186 145.79C170.813 145.977 170.369 146.07 169.856 146.07Z" fill="#555555"/>
<path d="M157 72L143.667 84L137 78" stroke="white" stroke-width="3" stroke-linecap="round"/>
<defs>
<filter id="filter0_d_54_3214" x="22" y="0" width="249" height="202" filterUnits="userSpaceOnUse" color-interpolation-filters="sRGB">
<feFlood flood-opacity="0" result="BackgroundImageFix"/>
<feColorMatrix in="SourceAlpha" type="matrix" values="0 0 0 0 0 0 0 0 0 0 0 0 0 0 0 0 0 0 127 0" result="hardAlpha"/>
<feOffset dy="4"/>
<feGaussianBlur stdDeviation="10"/>
<feComposite in2="hardAlpha" operator="out"/>
<feColorMatrix type="matrix" values="0 0 0 0 0.0156863 0 0 0 0 0.0666667 0 0 0 0 0.117647 0 0 0 0.05 0"/>
<feBlend mode="normal" in2="BackgroundImageFix" result="effect1_dropShadow_54_3214"/>
<feBlend mode="normal" in="SourceGraphic" in2="effect1_dropShadow_54_3214" result="shape"/>
</filter>
<linearGradient id="paint0_linear_54_3214" x1="77" y1="159" x2="217" y2="159" gradientUnits="userSpaceOnUse">
<stop stop-color="#DBDEE1"/>
<stop offset="1" stop-color="#DBDEE1" stop-opacity="0"/>
</linearGradient>
</defs>
</svg>
