<svg width="201" height="57" viewBox="0 0 201 57" fill="none" xmlns="http://www.w3.org/2000/svg">
<g id="Logo" opacity="0.5">
<rect x="0.272461" width="200.364" height="57" rx="8" fill="#F2F5F8"/>
<path id="Vector" d="M81.0188 33.0003V20.1663H78.9052V33.0003H81.0188Z" fill="black"/>
<path id="Vector_2" d="M82.3124 28.7221C82.3124 31.3441 84.0795 33.2071 86.7648 33.2071C89.4501 33.2071 91.2173 31.3441 91.2173 28.7221C91.2173 26.1001 89.4501 24.2371 86.7648 24.2371C84.0795 24.2371 82.3124 26.1001 82.3124 28.7221ZM84.4433 28.7221C84.4433 27.1868 85.3615 26.1173 86.7648 26.1173C88.1681 26.1173 89.0863 27.1868 89.0863 28.7221C89.0863 30.2401 88.1681 31.3268 86.7648 31.3268C85.3615 31.3268 84.4433 30.2401 84.4433 28.7221Z" fill="black"/>
<path id="Vector_3" d="M91.9277 28.5493C91.9277 31.0333 93.5389 32.8273 95.9471 32.8273C97.1944 32.8273 98.2686 32.327 98.8056 31.499V32.948C98.8056 34.3453 97.9221 35.2768 96.4495 35.2768C95.1328 35.2768 94.2319 34.6385 94.1106 33.5173H91.9797C92.2569 35.7425 93.972 37.1915 96.3282 37.1915C99.1001 37.1915 100.867 35.3803 100.867 32.5685V24.4783H98.9962L98.8749 25.634C98.3552 24.737 97.2811 24.2023 96.0164 24.2023C93.5736 24.2023 91.9277 26.048 91.9277 28.5493ZM94.076 28.4975C94.076 27.083 94.9769 26.048 96.3109 26.048C97.7661 26.048 98.7363 27.1003 98.7363 28.4975C98.7363 29.912 97.7661 30.9988 96.3109 30.9988C94.9942 30.9988 94.076 29.9293 94.076 28.4975Z" fill="black"/>
<path id="Vector_4" d="M101.914 28.7221C101.914 31.3441 103.681 33.2071 106.367 33.2071C109.052 33.2071 110.819 31.3441 110.819 28.7221C110.819 26.1001 109.052 24.2371 106.367 24.2371C103.681 24.2371 101.914 26.1001 101.914 28.7221ZM104.045 28.7221C104.045 27.1868 104.963 26.1173 106.367 26.1173C107.77 26.1173 108.688 27.1868 108.688 28.7221C108.688 30.2401 107.77 31.3268 106.367 31.3268C104.963 31.3268 104.045 30.2401 104.045 28.7221Z" fill="black"/>
<path id="Vector_5" d="M113.106 22.7365C113.799 22.7365 114.371 22.1845 114.371 21.4772C114.371 20.7872 113.799 20.2352 113.106 20.2352C112.396 20.2352 111.859 20.7872 111.859 21.4772C111.859 22.1845 112.396 22.7365 113.106 22.7365ZM112.049 33.0002H114.163V24.4787H112.049V33.0002Z" fill="black"/>
<path id="Vector_6" d="M116.014 36.9502H118.076V31.827C118.613 32.7067 119.774 33.2242 121.056 33.2242C123.585 33.2242 125.093 31.2922 125.058 28.6357C125.006 25.962 123.464 24.2197 121.039 24.2197C119.739 24.2197 118.561 24.789 118.042 25.7722L117.92 24.4785H116.014V36.9502ZM118.163 28.7392C118.163 27.204 119.098 26.1345 120.571 26.1345C122.044 26.1345 122.927 27.2212 122.927 28.7392C122.927 30.2572 122.044 31.3267 120.571 31.3267C119.098 31.3267 118.163 30.2745 118.163 28.7392Z" fill="black"/>
<path id="Vector_7" d="M125.595 30.447C125.664 32.1375 126.981 33.2242 129.025 33.2242C131.035 33.2242 132.403 32.1547 132.403 30.4987C132.403 29.274 131.641 28.446 130.238 28.101L128.73 27.7387C128.089 27.5662 127.656 27.342 127.656 26.79C127.656 26.2035 128.124 25.7895 128.886 25.7895C129.683 25.7895 130.203 26.238 130.203 26.9797H132.126C132.057 25.2892 130.792 24.2197 128.938 24.2197C127.102 24.2197 125.733 25.2892 125.733 26.9107C125.733 28.0147 126.374 28.929 128.02 29.3602L129.51 29.7397C130.064 29.895 130.411 30.1537 130.411 30.6367C130.411 31.3095 129.77 31.62 128.99 31.62C128.055 31.62 127.518 31.1887 127.518 30.447H125.595Z" fill="black"/>
<path id="Vector_8" d="M136.787 33.2245C137.948 33.2245 139.057 32.6898 139.559 31.8963L139.698 33.0003H141.673V24.4788H139.559V28.9465C139.559 30.4818 138.97 31.3443 137.584 31.3443C136.51 31.3443 135.765 30.8268 135.765 29.0673V24.4788H133.651V29.809C133.651 31.8445 134.76 33.2245 136.787 33.2245Z" fill="black"/>
<path id="Vector_9" d="M145.652 33V28.101C145.652 26.721 146.466 26.0655 147.471 26.0655C148.476 26.0655 149.134 26.7037 149.134 27.9112V33H151.196V28.1182C151.196 26.721 151.993 26.0655 152.997 26.0655C154.02 26.0655 154.678 26.7037 154.678 27.9112V33H156.722V27.4282C156.722 25.4617 155.631 24.2197 153.552 24.2197C152.253 24.2197 151.23 24.8407 150.815 25.8412C150.347 24.8407 149.411 24.2197 147.991 24.2197C146.986 24.2197 146.085 24.6855 145.583 25.4445L145.479 24.4785H143.538V33H145.652Z" fill="black"/>
<path id="Vector_10" d="M140.585 40.6158C140.9 40.6158 141.173 40.3518 141.173 40.0383C141.173 39.7165 140.9 39.4525 140.585 39.4525C140.262 39.4525 139.988 39.7165 139.988 40.0383C139.988 40.3518 140.262 40.6158 140.585 40.6158Z" fill="black"/>
<path id="Vector_11" d="M141.781 38.487C141.781 39.7492 142.56 40.599 143.695 40.599C144.673 40.599 145.419 40.0132 145.576 39.1387H144.83C144.69 39.6255 144.259 39.9142 143.745 39.9142C143.016 39.9142 142.552 39.3532 142.552 38.4787C142.552 37.5877 143.041 37.0432 143.762 37.0432C144.259 37.0432 144.69 37.3072 144.822 37.827H145.568C145.435 36.9442 144.739 36.3502 143.77 36.3502C142.593 36.3502 141.781 37.2165 141.781 38.487Z" fill="black"/>
<path id="Vector_12" d="M145.869 38.479C145.869 39.6918 146.698 40.5993 147.941 40.5993C149.183 40.5993 150.012 39.6918 150.012 38.479C150.012 37.2663 149.183 36.3588 147.941 36.3588C146.698 36.3588 145.869 37.2663 145.869 38.479ZM146.656 38.479C146.656 37.654 147.162 37.0518 147.941 37.0518C148.719 37.0518 149.225 37.654 149.225 38.479C149.225 39.304 148.719 39.9063 147.941 39.9063C147.162 39.9063 146.656 39.304 146.656 38.479Z" fill="black"/>
<path id="Vector_13" d="M151.457 40.5085V38.083C151.457 37.4478 151.854 37.0353 152.434 37.0353C152.989 37.0353 153.337 37.39 153.337 38.0253V40.5085H154.1V38.0913C154.1 37.4478 154.489 37.0353 155.077 37.0353C155.624 37.0353 155.972 37.39 155.972 38.0253V40.5085H156.726V37.8603C156.726 36.928 156.179 36.3588 155.251 36.3588C154.622 36.3588 154.133 36.664 153.934 37.159C153.727 36.664 153.271 36.3588 152.608 36.3588C152.103 36.3588 151.655 36.5898 151.432 36.9858L151.374 36.4743H150.678V40.5085H151.457Z" fill="black"/>
<path id="Vector_14" fill-rule="evenodd" clip-rule="evenodd" d="M43.7793 28.8262L43.7808 28.6759L43.7837 28.5256L43.7883 28.3752L43.7944 28.2248L43.802 28.0744L43.8112 27.9241L43.822 27.7738L43.8343 27.6235L43.8482 27.4732L43.8636 27.323L43.8805 27.173L43.899 27.023L43.9191 26.8732L43.9407 26.7235L43.9639 26.5739L43.9886 26.4246L44.0149 26.2753L44.0427 26.1264L44.072 25.9776L44.1029 25.829L44.1354 25.6807L44.1693 25.5326L44.2049 25.3849L44.2419 25.2373L44.2805 25.0902L44.3206 24.9433L44.3622 24.7967L44.4054 24.6505L44.4501 24.5047L44.4963 24.3593L44.544 24.2143L44.5933 24.0696L44.644 23.9254L44.6963 23.7816L44.75 23.6383L44.8053 23.4954L44.862 23.353L44.9202 23.2111L44.9799 23.0698L45.0411 22.929L45.1038 22.7887L45.1679 22.6489L45.2335 22.5098L45.3006 22.3712L45.3691 22.2332L45.439 22.0959L45.5104 21.9592L45.5833 21.823L45.6575 21.6877L45.7332 21.5529L45.8103 21.4188L45.8888 21.2854L45.9687 21.1528L46.05 21.0208L46.1327 20.8897L46.2168 20.7592L46.3022 20.6296L46.3891 20.5007L46.4773 20.3727L46.5668 20.2454L46.6577 20.119L46.7499 19.9934L46.8434 19.8686L46.9383 19.7448L47.0345 19.6218L47.132 19.4996L47.2307 19.3784L47.3308 19.2582L47.4321 19.1388L47.5347 19.0204L47.6386 18.9029L47.7437 18.7864L47.8501 18.6709L47.9576 18.5564L48.0664 18.4429L48.1765 18.3304L48.2877 18.219L48.4001 18.1086L48.5136 17.9992L48.6284 17.8909L48.7443 17.7837L48.8614 17.6776L48.9795 17.5726L49.0989 17.4687L49.2193 17.3659L49.3408 17.2642L49.4635 17.1637L49.5872 17.0644L49.712 16.9662L49.8378 16.8692L49.9647 16.7735L50.0926 16.6789L50.2216 16.5855L50.3515 16.4933L50.4824 16.4024L50.6144 16.3127L50.7473 16.2243L50.8811 16.1371L51.016 16.0512L51.1518 15.9666L51.2884 15.8833L51.426 15.8013L51.5645 15.7206L51.7038 15.6413L51.8441 15.5632L51.9852 15.4865L52.1271 15.4112L52.2698 15.3372L52.4134 15.2645L52.5578 15.1933L52.7029 15.1234L52.8489 15.0549L52.9956 14.9878L53.1431 14.9221L53.2912 14.8579L53.4401 14.795L53.5897 14.7336L53.74 14.6736L53.891 14.6151L54.0426 14.558L54.1948 14.5024L54.3477 14.4482L54.5012 14.3956L54.6554 14.3443L54.81 14.2946L54.9652 14.2464L55.1211 14.1997L55.2775 14.1544L55.4343 14.1107L55.5917 14.0685L55.7496 14.0278L55.9079 13.9887L56.0667 13.951L56.226 13.9149L56.3857 13.8804L56.5458 13.8474L56.7063 13.8159L56.8672 13.786L57.0285 13.7577L57.1901 13.7309L57.352 13.7057L57.5143 13.6821L57.6769 13.66L57.8397 13.6395L58.0029 13.6206L58.1662 13.6033L58.3298 13.5876L58.4937 13.5735L58.6577 13.5609L58.8219 13.55L59.705 13.4998L59.7554 17.7363L59.7843 17.7359L59.9062 17.7358L60.0282 17.7368L60.1501 17.739L60.2722 17.7424L60.3943 17.747L60.5164 17.7528L60.6385 17.7598L60.7606 17.768L60.8826 17.7774L61.0047 17.788L61.1266 17.7998L61.2486 17.8127L61.3704 17.8269L61.4922 17.8423L61.6138 17.8589L61.7354 17.8767L61.8568 17.8956L61.9782 17.9158L62.0993 17.9372L62.2204 17.9598L62.3412 17.9835L62.4618 18.0085L62.5823 18.0346L62.7025 18.062L62.8225 18.0905L62.9423 18.1202L63.0619 18.1511L63.1811 18.1832L63.3001 18.2165L63.4189 18.2509L63.5373 18.2865L63.6554 18.3233L63.7733 18.3613L63.8908 18.4005L64.0079 18.4408L64.1246 18.4823L64.2411 18.5249L64.3571 18.5687L64.4727 18.6137L64.588 18.6598L64.7028 18.707L64.8171 18.7554L64.9311 18.805L65.0446 18.8557L65.1576 18.9075L65.2701 18.9605L65.3822 19.0146L65.4937 19.0698L65.6048 19.1261L65.7153 19.1835L65.8252 19.2421L65.9347 19.3017L66.0435 19.3625L66.1519 19.4243L66.2596 19.4872L66.3667 19.5513L66.4732 19.6164L66.5791 19.6825L66.6843 19.7498L66.789 19.8181L66.8929 19.8874L66.9962 19.9579L67.0988 20.0293L67.2008 20.1018L67.3021 20.1753L67.4025 20.2498L67.5024 20.3254L67.6015 20.402L67.6999 20.4796L67.7974 20.5582L67.8943 20.6377L67.9903 20.7184L68.0856 20.7999L68.1801 20.8824L68.2738 20.9659L68.3666 21.0503L68.4587 21.1357L68.5499 21.2221L68.6403 21.3093L68.7298 21.3975L68.8184 21.4866L68.9062 21.5767L68.9931 21.6676L69.079 21.7594L69.1642 21.8521L69.2483 21.9457L69.3315 22.0401L69.4139 22.1354L69.4952 22.2316L69.5757 22.3285L69.6551 22.4264L69.7336 22.525L69.8111 22.6245L69.8877 22.7248L69.9632 22.8259L70.0377 22.9277L70.1112 23.0304L70.1837 23.1338L70.2552 23.2379L70.3256 23.3428L70.395 23.4485L70.4633 23.5549L70.5305 23.662L70.5967 23.7698L70.6618 23.8783L70.7258 23.9875L70.7887 24.0974L70.8505 24.208L70.9112 24.3192L70.9708 24.431L71.0293 24.5435L71.0866 24.6566L71.1428 24.7703L71.1979 24.8847L71.2518 24.9996L71.3045 25.1151L71.3561 25.2312L71.4065 25.3478L71.4557 25.465L71.5037 25.5827L71.5506 25.701L71.5963 25.8197L71.6407 25.939L71.6839 26.0587L71.726 26.179L71.7668 26.2997L71.8064 26.4209L71.8447 26.5425L71.8819 26.6645L71.9177 26.787L71.9524 26.9098L71.9858 27.0331L72.0179 27.1568L72.0487 27.2808L72.0784 27.4052L72.1067 27.5299L72.1338 27.655L72.1596 27.7804L72.1841 27.9061L72.2073 28.0321L72.2293 28.1584L72.2499 28.285L72.2693 28.4118L72.2874 28.5389L72.3041 28.6662L72.3195 28.7938L72.3337 28.9215L72.3465 29.0494L72.358 29.1775L72.3683 29.3059L72.3771 29.4343L72.3847 29.563L72.3909 29.6917L72.3959 29.8206L72.3994 29.9495L72.4018 30.0786L72.4027 30.2077L72.4023 30.337L72.4006 30.4663L72.3975 30.5956L72.3931 30.7249L72.3874 30.8543L72.3804 30.9837L72.3719 31.1131L72.3622 31.2424L72.3512 31.3717L72.3387 31.501L72.325 31.6303L72.3099 31.7593L72.2935 31.8884L72.2758 32.0173L72.2566 32.1462L72.2362 32.2749L72.2144 32.4034L72.1913 32.5318L72.1669 32.6601L72.1411 32.7882L72.114 32.9161L72.0856 33.0437L72.0558 33.1712L72.0248 33.2984L71.9923 33.4254L71.9586 33.5521L71.9235 33.6785L71.8872 33.8047L71.8495 33.9305L71.8105 34.0561L71.7701 34.1813L71.7285 34.3063L71.6856 34.4308L71.6413 34.555L71.5958 34.6788L71.5489 34.8022L71.5008 34.9252L71.4514 35.0478L71.4007 35.17L71.3487 35.2917L71.2955 35.413L71.2409 35.5338L71.1851 35.6542L71.128 35.774L71.0697 35.8933L71.0101 36.0122L70.9493 36.1305L70.8871 36.2483L70.8239 36.3655L70.7592 36.4822L70.6935 36.5982L70.6264 36.7137L70.5582 36.8286L70.4887 36.9428L70.4181 37.0565L70.3462 37.1695L70.2731 37.2818L70.1989 37.3935L70.1234 37.5045L70.0468 37.6148L69.969 37.7245L69.8901 37.8334L69.8099 37.9416L69.7286 38.0491L69.6462 38.1558L69.5627 38.2617L69.478 38.3669L69.3922 38.4713L69.3053 38.5749L69.2173 38.6777L69.1282 38.7797L69.0379 38.8809L68.9466 38.9812L68.8543 39.0808L68.7609 39.1794L68.6663 39.2772L68.5708 39.374L68.4742 39.47L68.3766 39.5651L68.278 39.6593L68.1783 39.7526L68.0777 39.8449L67.976 39.9364L67.8733 40.0267L67.7698 40.1162L67.6651 40.2048L67.5596 40.2923L67.4531 40.3788L67.3457 40.4644L67.2373 40.5489L67.128 40.6324L67.0178 40.7148L66.9067 40.7962L66.7948 40.8766L66.6818 40.9559L66.5681 41.0342L66.4535 41.1114L66.3381 41.1874L66.2218 41.2624L66.1048 41.3364L65.9869 41.4091L65.8682 41.4808L65.7486 41.5513L65.6283 41.6208L65.5074 41.689L65.3855 41.7561L65.263 41.8221L65.1397 41.8868L65.0157 41.9504L64.891 42.0129L64.7656 42.0741L64.6395 42.1341L64.5127 42.193L64.3853 42.2506L64.2572 42.307L64.1285 42.3621L63.9992 42.416L63.8692 42.4687L63.7387 42.5202L63.6075 42.5704L63.4758 42.6193L63.3435 42.667L63.2107 42.7134L63.0773 42.7585L62.9435 42.8023L62.809 42.8449L62.6741 42.8861L62.5388 42.9261L62.4029 42.9647L62.2666 43.0021L62.1299 43.0381L61.9927 43.0728L61.8551 43.1062L61.7171 43.1383L61.5787 43.1689L61.4399 43.1983L61.3008 43.2264L61.1613 43.2531L61.0215 43.2784L60.8814 43.3024L60.7409 43.325L60.6002 43.3463L60.4591 43.3662L60.3179 43.3847L60.1763 43.4019L60.0345 43.4176L59.8925 43.432L59.7503 43.4451L59.608 43.4567L59.4654 43.467L59.3226 43.4758L59.1797 43.4833L59.0366 43.4894L58.8935 43.4941L58.7502 43.4974L58.6068 43.4992L58.4633 43.4998L58.3198 43.4989L58.1763 43.4965L58.0326 43.4929L57.889 43.4877L57.7453 43.4812L57.6017 43.4733L57.4581 43.4639L57.3145 43.4532L57.171 43.441L57.0275 43.4275L56.8841 43.4125L56.7408 43.3962L56.5976 43.3784L56.4545 43.3592L56.3116 43.3386L56.1688 43.3166L56.0262 43.2932L55.8837 43.2685L55.7415 43.2422L55.5995 43.2146L55.4576 43.1857L55.3161 43.1552L55.1747 43.1234L55.0337 43.0903L54.8929 43.0557L54.7524 43.0197L54.6123 42.9823L54.4725 42.9436L54.333 42.9035L54.1938 42.862L54.055 42.8191L53.9166 42.7749L53.7786 42.7293L53.641 42.6823L53.5039 42.6339L53.3671 42.5842L53.2309 42.5332L53.0951 42.4807L52.9598 42.427L52.825 42.3718L52.6907 42.3154L52.5569 42.2576L52.4236 42.1985L52.2909 42.1381L52.1588 42.0763L52.0273 42.0132L51.8964 41.9488L51.766 41.8831L51.6363 41.8161L51.5072 41.7478L51.3787 41.6782L51.251 41.6074L51.1239 41.5352L50.9975 41.4618L50.8718 41.3871L50.7468 41.3112L50.6225 41.2339L50.499 41.1556L50.3763 41.0758L50.2543 40.995L50.1331 40.9128L50.0127 40.8295L49.8931 40.7449L49.7743 40.6591L49.6564 40.5722L49.5393 40.484L49.423 40.3947L49.3077 40.3042L49.1932 40.2125L49.0796 40.1197L48.9669 40.0258L48.8552 39.9307L48.7443 39.8344L48.6345 39.737L48.5255 39.6385L48.4176 39.539L48.3106 39.4383L48.2047 39.3366L48.0997 39.2337L47.9957 39.1298L47.8928 39.0249L47.7909 38.9188L47.69 38.8118L47.5903 38.7037L47.4916 38.5946L47.3939 38.4845L47.2974 38.3734L47.202 38.2613L47.1077 38.1483L47.0145 38.0342L46.9224 37.9192L46.8315 37.8033L46.7418 37.6864L46.6532 37.5686L46.5658 37.4499L46.4796 37.3303L46.3945 37.2097L46.3107 37.0884L46.2281 36.9661L46.1467 36.843L46.0666 36.7191L45.9877 36.5943L45.9101 36.4687L45.8337 36.3423L45.7586 36.215L45.6847 36.0871L45.6122 35.9583L45.5409 35.8288L45.471 35.6984L45.4024 35.5674L45.3351 35.4357L45.2691 35.3032L45.2044 35.1701L45.1412 35.0362L45.0792 34.9018L45.0186 34.7665L44.9594 34.6308L44.9016 34.4943L44.8451 34.3573L44.79 34.2196L44.7363 34.0813L44.6841 33.9424L44.6332 33.803L44.5838 33.6631L44.5357 33.5226L44.4891 33.3815L44.444 33.24L44.4002 33.0979L44.3579 32.9554L44.3171 32.8124L44.2777 32.6689L44.2398 32.5251L44.2034 32.3808L44.1684 32.236L44.1349 32.0909L44.1029 31.9453L44.0723 31.7995L44.0433 31.6532L44.0157 31.5067L43.9897 31.3597L43.9651 31.2125L43.9421 31.065L43.9205 30.9172L43.9005 30.769L43.882 30.6207L43.865 30.4721L43.8496 30.3233L43.8356 30.1744L43.8232 30.0251L43.8124 29.8757L43.803 29.7262L43.7952 29.5765L43.7889 29.4266L43.7842 29.2767L43.781 29.1266L43.7794 28.9765L43.7793 28.8262ZM58.3758 17.825L58.3414 14.9373L58.3088 14.9405L58.1591 14.9564L58.0097 14.9737L57.8604 14.9924L57.7117 15.0126L57.5632 15.0343L57.4148 15.0574L57.2669 15.0819L57.1191 15.1078L56.972 15.1352L56.8248 15.164L56.6786 15.1942L56.5321 15.2258L56.3865 15.2589L56.2409 15.2933L56.0961 15.3291L55.9516 15.3664L55.8075 15.405L55.6639 15.445L55.5209 15.4864L55.3782 15.5292L55.2362 15.5733L55.0946 15.6189L54.9537 15.6656L54.8131 15.7139L54.6732 15.7635L54.534 15.8143L54.3952 15.8666L54.2571 15.9201L54.1198 15.9749L53.9829 16.0311L53.8466 16.0887L53.711 16.1475L53.5762 16.2075L53.442 16.2689L53.3086 16.3315L53.1757 16.3954L53.0437 16.4606L52.9124 16.527L52.7819 16.5947L52.6521 16.6636L52.5232 16.7337L52.3949 16.8051L52.2673 16.8777L52.1409 16.9514L52.0149 17.0265L51.8901 17.1026L51.7661 17.1799L51.6427 17.2584L51.5203 17.3381L51.3988 17.419L51.2785 17.5008L51.1586 17.5841L51.0398 17.6682L50.922 17.7535L50.8051 17.84L50.6891 17.9276L50.5743 18.0161L50.4601 18.1059L50.3472 18.1966L50.2351 18.2885L50.124 18.3813L50.014 18.4753L49.9051 18.5701L49.797 18.6661L49.6901 18.763L49.5841 18.861L49.4794 18.9599L49.3756 19.0598L49.273 19.1606L49.1714 19.2624L49.0708 19.3652L48.9716 19.4688L48.8734 19.5733L48.7761 19.6789L48.6802 19.7853L48.5854 19.8924L48.4917 20.0006L48.3992 20.1095L48.3078 20.2194L48.2177 20.33L48.1287 20.4415L48.0409 20.5538L47.9543 20.6668L47.8689 20.7807L47.7847 20.8954L47.7018 21.0107L47.62 21.127L47.5396 21.2438L47.4604 21.3614L47.3823 21.4798L47.3056 21.5988L47.2302 21.7184L47.156 21.8388L47.0831 21.9598L47.0115 22.0815L46.9411 22.2039L46.8721 22.3267L46.8043 22.4503L46.7379 22.5745L46.6728 22.6992L46.6089 22.8245L46.5465 22.9503L46.4853 23.0767L46.4255 23.2036L46.367 23.3311L46.3099 23.4589L46.2541 23.5874L46.1996 23.7163L46.1465 23.8456L46.0948 23.9755L46.0444 24.1057L45.9954 24.2364L45.9478 24.3675L45.9015 24.4989L45.8566 24.6308L45.8131 24.763L45.771 24.8956L45.7303 25.0285L45.6909 25.1618L45.653 25.2953L45.6164 25.4292L45.5813 25.5633L45.5475 25.6978L45.5151 25.8324L45.4842 25.9673L45.4546 26.1025L45.4265 26.2378L45.3997 26.3734L45.3744 26.5091L45.3505 26.645L45.328 26.7811L45.3069 26.9173L45.2872 27.0537L45.2689 27.1902L45.252 27.3268L45.2366 27.4634L45.2226 27.6002L45.2099 27.737L45.1987 27.8738L45.1889 28.0108L45.1806 28.1477L45.1736 28.2846L45.168 28.4215L45.1639 28.5584L45.1612 28.6953L45.1598 28.8321L45.1599 28.9689L45.1614 29.1055L45.1643 29.2422L45.1686 29.3787L45.1743 29.515L45.1814 29.6513L45.1899 29.7874L45.1998 29.9233L45.2111 30.0591L45.2238 30.1947L45.2379 30.3301L45.2533 30.4653L45.2702 30.6003L45.2884 30.735L45.308 30.8695L45.3289 31.0037L45.3513 31.1376L45.375 31.2712L45.4 31.4046L45.4265 31.5376L45.4542 31.6703L45.4833 31.8026L45.5138 31.9346L45.5456 32.0662L45.5788 32.1975L45.6132 32.3284L45.649 32.4587L45.6862 32.5888L45.7246 32.7184L45.7644 32.8475L45.8054 32.9762L45.8478 33.1044L45.8915 33.2321L45.9364 33.3593L45.9826 33.4861L46.0301 33.6122L46.079 33.7379L46.129 33.863L46.1803 33.9876L46.2329 34.1116L46.2867 34.2349L46.3417 34.3578L46.398 34.48L46.4555 34.6016L46.5142 34.7226L46.5742 34.8429L46.6353 34.9626L46.6977 35.0816L46.7612 35.2L46.8259 35.3176L46.8918 35.4346L46.9589 35.5508L47.0271 35.6664L47.0964 35.7811L47.1669 35.8952L47.2386 36.0085L47.3113 36.121L47.3852 36.2329L47.4602 36.3439L47.5363 36.454L47.6135 36.5635L47.6918 36.6721L47.7711 36.7798L47.8515 36.8868L47.933 36.9928L48.0155 37.0981L48.099 37.2024L48.1836 37.3059L48.2692 37.4086L48.3558 37.5103L48.4434 37.6111L48.532 37.711L48.6216 37.81L48.7121 37.908L48.8036 38.0051L48.896 38.1013L48.9894 38.1965L49.0837 38.2908L49.1789 38.384L49.275 38.4763L49.372 38.5676L49.4699 38.658L49.5687 38.7473L49.6684 38.8356L49.7688 38.9228L49.8702 39.0091L49.9724 39.0943L50.0753 39.1784L50.1792 39.2616L50.2837 39.3436L50.3891 39.4246L50.4952 39.5045L50.6022 39.5833L50.7098 39.661L50.8182 39.7377L50.9273 39.8132L51.0372 39.8877L51.1477 39.961L51.259 40.0332L51.3709 40.1043L51.4835 40.1742L51.5968 40.243L51.7106 40.3107L51.8252 40.3772L51.9403 40.4425L52.056 40.5067L52.1723 40.5697L52.2893 40.6316L52.4068 40.6923L52.5248 40.7518L52.6434 40.8101L52.7626 40.8673L52.8822 40.9232L53.0024 40.978L53.1229 41.0314L53.2441 41.0838L53.3657 41.1349L53.4878 41.1848L53.6103 41.2335L53.7332 41.2809L53.8566 41.3272L53.9803 41.3722L54.1044 41.4159L54.229 41.4584L54.3539 41.4997L54.4792 41.5398L54.6047 41.5786L54.7307 41.6161L54.8568 41.6524L54.9834 41.6875L55.1102 41.7213L55.2373 41.7538L55.3647 41.7851L55.4922 41.8151L55.6201 41.8439L55.7482 41.8714L55.8764 41.8976L56.0049 41.9226L56.1335 41.9463L56.2623 41.9687L56.3913 41.9899L56.5204 42.0097L56.6496 42.0283L56.7791 42.0457L56.9085 42.0618L57.038 42.0766L57.1677 42.0901L57.2974 42.1024L57.4271 42.1133L57.5569 42.1231L57.6867 42.1315L57.8166 42.1387L57.9464 42.1445L58.0761 42.1492L58.2059 42.1525L58.3357 42.1546L58.4653 42.1554L58.595 42.1549L58.7245 42.1532L58.8539 42.1503L58.9833 42.146L59.1125 42.1405L59.2416 42.1338L59.3705 42.1258L59.4993 42.1165L59.628 42.106L59.7564 42.0943L59.8846 42.0812L60.0127 42.067L60.1404 42.0515L60.268 42.0348L60.3953 42.0168L60.5224 41.9976L60.6492 41.9772L60.7757 41.9555L60.902 41.9326L61.0278 41.9086L61.1534 41.8833L61.2787 41.8567L61.4035 41.8291L61.5281 41.8001L61.6523 41.77L61.776 41.7387L61.8994 41.7061L62.0223 41.6725L62.145 41.6376L62.2671 41.6015L62.3888 41.5643L62.51 41.526L62.6308 41.4864L62.7511 41.4457L62.8708 41.4039L62.9902 41.3608L63.109 41.3167L63.2272 41.2714L63.345 41.2251L63.4621 41.1776L63.5787 41.1289L63.6948 41.0792L63.8102 41.0284L63.925 40.9765L64.0394 40.9234L64.153 40.8693L64.266 40.8142L64.3785 40.7578L64.4902 40.7005L64.6013 40.6422L64.7118 40.5827L64.8215 40.5223L64.9305 40.4608L65.0389 40.3983L65.1466 40.3347L65.2535 40.2702L65.3598 40.2046L65.4652 40.138L65.5699 40.0705L65.6739 40.0019L65.7772 39.9323L65.8795 39.862L65.9811 39.7905L66.082 39.7181L66.182 39.6448L66.2813 39.5705L66.3796 39.4954L66.4773 39.4192L66.5739 39.3423L66.6697 39.2644L66.7648 39.1856L66.859 39.1059L66.9522 39.0254L67.0446 38.944L67.136 38.8618L67.2267 38.7787L67.3164 38.6947L67.405 38.6101L67.4929 38.5244L67.5799 38.438L67.6658 38.3509L67.7508 38.2629L67.8348 38.1742L67.9178 38.0848L68.0001 37.9944L68.0811 37.9035L68.1614 37.8117L68.2405 37.7193L68.3186 37.6261L68.3958 37.5322L68.4719 37.4377L68.547 37.3423L68.6211 37.2465L68.6942 37.1498L68.7661 37.0526L68.8372 36.9547L68.9072 36.856L68.9759 36.757L69.0438 36.6572L69.1105 36.5569L69.1761 36.4559L69.2408 36.3543L69.3043 36.2523L69.3666 36.1497L69.428 36.0463L69.4881 35.9427L69.5473 35.8384L69.6053 35.7335L69.6621 35.6284L69.718 35.5225L69.7726 35.4161L69.826 35.3097L69.8785 35.2024L69.9298 35.0947L69.9799 34.9867L70.0288 34.8782L70.0766 34.7693L70.1233 34.6601L70.1688 34.5503L70.2132 34.4402L70.2564 34.33L70.2984 34.219L70.3392 34.108L70.379 33.9965L70.4176 33.8848L70.4549 33.7726L70.491 33.6605L70.5261 33.5476L70.5599 33.4348L70.5925 33.3216L70.624 33.2083L70.6542 33.0945L70.6832 32.9807L70.7112 32.8666L70.7378 32.7522L70.7634 32.6377L70.7877 32.523L70.8108 32.4083L70.8327 32.2931L70.8534 32.1782L70.8729 32.0629L70.8912 31.9474L70.9083 31.832L70.9243 31.7164L70.939 31.6009L70.9525 31.4848L70.9648 31.3693L70.976 31.2533L70.9858 31.1376L70.9946 31.0215L71.0021 30.9058L71.0084 30.7898L71.0135 30.6737L71.0175 30.5579L71.0202 30.4423L71.0217 30.3263L71.0221 30.2105L71.0213 30.0949L71.0193 29.9793L71.016 29.8637L71.0116 29.7486L71.006 29.633L70.9992 29.518L70.9912 29.4029L70.9821 29.2882L70.9718 29.1733L70.9604 29.059L70.9477 28.9445L70.9338 28.8304L70.9189 28.7164L70.9027 28.6028L70.8853 28.4891L70.8669 28.3759L70.8473 28.2631L70.8265 28.1503L70.8045 28.0378L70.7815 27.9257L70.7572 27.8136L70.732 27.7023L70.7054 27.5908L70.6779 27.4801L70.649 27.3693L70.6192 27.2593L70.5883 27.1494L70.5562 27.0397L70.523 26.9308L70.4887 26.8222L70.4533 26.7136L70.4169 26.6059L70.3792 26.4983L70.3407 26.3914L70.3009 26.2846L70.2601 26.1787L70.2182 26.0728L70.1752 25.9676L70.1313 25.8631L70.0864 25.759L70.0401 25.655L69.9932 25.552L69.9449 25.4491L69.8958 25.3472L69.8456 25.2457L69.7943 25.1445L69.7422 25.0441L69.689 24.9442L69.6346 24.8448L69.5797 24.7463L69.5234 24.6481L69.4663 24.5506L69.4081 24.4537L69.3492 24.3577L69.289 24.2619L69.2281 24.167L69.1661 24.0726L69.1033 23.979L69.0397 23.8862L68.9749 23.7938L68.9093 23.7022L68.8428 23.6113L68.7754 23.5213L68.7072 23.4317L68.638 23.3431L68.568 23.255L68.4972 23.1678L68.4255 23.0813L68.3528 22.9955L68.2794 22.9105L68.2052 22.8263L68.1303 22.7429L68.0544 22.6603L67.9776 22.5783L67.9004 22.4974L67.8219 22.417L67.743 22.3378L67.6632 22.2591L67.5828 22.1814L67.5013 22.1043L67.4195 22.0284L67.3366 21.9531L67.2531 21.8787L67.1691 21.8053L67.0843 21.7327L66.9985 21.6607L66.9123 21.5899L66.8254 21.5199L66.7378 21.4508L66.6495 21.3826L66.5608 21.3154L66.4711 21.2488L66.3811 21.1835L66.2903 21.119L66.1989 21.0553L66.107 20.9927L66.0142 20.9308L65.9214 20.8702L65.8276 20.8103L65.7334 20.7514L65.6385 20.6935L65.5432 20.6365L65.4474 20.5805L65.3512 20.5256L65.2541 20.4714L65.157 20.4184L65.0591 20.3663L64.9608 20.3152L64.8621 20.2652L64.7629 20.2161L64.6632 20.1679L64.5632 20.1209L64.4626 20.0748L64.3618 20.0298L64.2605 19.9857L64.1556 19.9413L64.0569 19.9007L63.9543 19.8596L63.8517 19.8198L63.7484 19.7807L63.6451 19.7429L63.5413 19.706L63.4372 19.6702L63.3328 19.6354L63.2282 19.6017L63.1232 19.569L63.018 19.5373L62.9127 19.5068L62.8069 19.4772L62.7008 19.4487L62.5948 19.4213L62.4886 19.3949L62.3817 19.3695L62.2752 19.3453L62.1682 19.3221L62.0611 19.2999L61.9537 19.2788L61.8464 19.2588L61.7389 19.2398L61.6314 19.222L61.5234 19.2051L61.4157 19.1893L61.3077 19.1746L61.1996 19.161L61.0915 19.1484L60.9835 19.1369L60.8753 19.1264L60.767 19.117L60.6587 19.1087L60.5503 19.1014L60.4422 19.0952L60.3341 19.0901L60.2255 19.086L60.1176 19.083L60.0094 19.081L59.9013 19.0801L59.7931 19.0803L59.7714 19.0805L59.8055 21.9472L59.8669 21.9469L59.9459 21.9473L60.0249 21.9485L60.104 21.9505L60.1832 21.9533L60.2624 21.9569L60.3415 21.9613L60.4208 21.9664L60.5 21.9723L60.5793 21.979L60.6585 21.9865L60.7377 21.9947L60.8169 22.0038L60.8961 22.0136L60.9752 22.0242L61.0543 22.0357L61.1333 22.0478L61.2122 22.0608L61.2912 22.0746L61.3699 22.0891L61.4487 22.1045L61.5273 22.1206L61.6059 22.1375L61.6843 22.1552L61.7625 22.1737L61.8407 22.193L61.9187 22.213L61.9966 22.2339L62.0743 22.2555L62.1519 22.2779L62.2293 22.3011L62.3065 22.325L62.3835 22.3498L62.4603 22.3753L62.537 22.4016L62.6134 22.4287L62.6896 22.4565L62.7656 22.4851L62.8413 22.5145L62.9168 22.5446L62.9921 22.5755L63.067 22.6072L63.1417 22.6396L63.2162 22.6729L63.2903 22.7068L63.3641 22.7415L63.4377 22.777L63.5109 22.8132L63.5838 22.8502L63.6564 22.8879L63.7287 22.9263L63.8006 22.9655L63.8722 23.0054L63.9433 23.0461L64.0142 23.0875L64.0847 23.1296L64.1548 23.1724L64.2244 23.216L64.2937 23.2603L64.3627 23.3053L64.4311 23.351L64.4992 23.3974L64.5669 23.4446L64.6341 23.4924L64.7008 23.5409L64.7671 23.5902L64.833 23.6401L64.8983 23.6907L64.9632 23.742L65.0276 23.7939L65.0916 23.8465L65.155 23.8999L65.218 23.9538L65.2804 24.0084L65.3423 24.0637L65.4037 24.1196L65.4645 24.1762L65.5249 24.2334L65.5846 24.2912L65.6438 24.3497L65.7025 24.4088L65.7605 24.4686L65.8181 24.5289L65.875 24.5899L65.9313 24.6514L65.987 24.7136L66.0422 24.7763L66.0967 24.8397L66.1507 24.9036L66.204 24.9681L66.2566 25.0332L66.3087 25.0988L66.3601 25.165L66.4108 25.2318L66.4609 25.2991L66.5103 25.3669L66.5591 25.4353L66.6072 25.5043L66.6546 25.5737L66.7013 25.6437L66.7474 25.7141L66.7927 25.7851L66.8374 25.8566L66.8814 25.9285L66.9246 26.001L66.9671 26.074L67.0089 26.1473L67.05 26.2212L67.0903 26.2955L67.1299 26.3703L67.1687 26.4455L67.2068 26.5212L67.2441 26.5973L67.2807 26.6738L67.3165 26.7507L67.3516 26.8281L67.3858 26.9058L67.4193 26.9839L67.452 27.0625L67.484 27.1414L67.5151 27.2206L67.5454 27.3002L67.5749 27.3802L67.6036 27.4606L67.6315 27.5413L67.6587 27.6223L67.6849 27.7036L67.7103 27.7852L67.735 27.8672L67.7588 27.9495L67.7817 28.0321L67.8038 28.1149L67.8251 28.198L67.8455 28.2814L67.8651 28.3651L67.8839 28.449L67.9017 28.5331L67.9187 28.6175L67.9349 28.7021L67.9502 28.787L67.9646 28.8721L67.9782 28.9573L67.9908 29.0428L68.0027 29.1283L68.0136 29.2141L68.0237 29.3002L68.0328 29.3863L68.0411 29.4726L68.0485 29.5591L68.055 29.6456L68.0607 29.7323L68.0653 29.8191L68.0692 29.906L68.0721 29.9931L68.0741 30.0802L68.0753 30.1674L68.0755 30.2547L68.0748 30.342L68.0732 30.4294L68.0708 30.5168L68.0674 30.6043L68.0631 30.6918L68.0579 30.7793L68.0518 30.8669L68.0448 30.9544L68.0368 31.042L68.028 31.1295L68.0182 31.2169L68.0076 31.3045L67.996 31.3918L67.9834 31.4792L67.97 31.5665L67.9557 31.6537L67.9405 31.7409L67.9243 31.828L67.9073 31.915L67.8893 32.0018L67.8704 32.0886L67.8507 32.1752L67.8299 32.2617L67.8083 32.348L67.7858 32.4343L67.7624 32.5203L67.738 32.6062L67.7128 32.6918L67.6867 32.7773L67.6596 32.8627L67.6316 32.9478L67.6028 33.0326L67.573 33.1173L67.5424 33.2017L67.5109 33.2859L67.4784 33.3698L67.4451 33.4535L67.4109 33.5369L67.3758 33.6201L67.3398 33.7029L67.303 33.7855L67.2652 33.8677L67.2266 33.9496L67.1871 34.0312L67.1467 34.1125L67.1055 34.1935L67.0634 34.2741L67.0204 34.3543L66.9766 34.4341L66.9319 34.5136L66.8864 34.5928L66.84 34.6714L66.7928 34.7498L66.7447 34.8277L66.6959 34.9052L66.6461 34.9822L66.5955 35.0589L66.5441 35.135L66.4919 35.2108L66.4388 35.2861L66.385 35.3608L66.3303 35.4352L66.2749 35.509L66.2186 35.5824L66.1615 35.6552L66.1036 35.7275L66.045 35.7994L65.9855 35.8706L65.9254 35.9414L65.8643 36.0116L65.8026 36.0813L65.7401 36.1504L65.6768 36.2189L65.6128 36.2869L65.5481 36.3543L65.4825 36.421L65.4163 36.4873L65.3493 36.5528L65.2816 36.6178L65.2132 36.6822L65.1441 36.7459L65.0743 36.809L65.0037 36.8714L64.9325 36.9332L64.8606 36.9944L64.788 37.0549L64.7147 37.1147L64.6408 37.1738L64.5662 37.2322L64.4909 37.29L64.4151 37.3471L64.3386 37.4034L64.2614 37.459L64.1836 37.514L64.1052 37.5682L64.0262 37.6216L63.9465 37.6744L63.8663 37.7263L63.7855 37.7776L63.7041 37.828L63.6221 37.8777L63.5396 37.9267L63.4564 37.9748L63.3728 38.0221L63.2886 38.0687L63.2039 38.1145L63.1186 38.1595L63.0328 38.2037L62.9465 38.2471L62.8597 38.2896L62.7724 38.3314L62.6846 38.3722L62.5963 38.4123L62.5076 38.4515L62.4184 38.4899L62.3287 38.5274L62.2386 38.5641L62.148 38.5999L62.0571 38.6349L61.9657 38.669L61.8739 38.7022L61.7817 38.7346L61.689 38.766L61.5961 38.7966L61.5027 38.8262L61.409 38.855L61.3149 38.8829L61.2204 38.9098L61.1257 38.9359L61.0305 38.9611L60.9351 38.9853L60.8394 39.0086L60.7433 39.031L60.6469 39.0525L60.5503 39.073L60.4534 39.0926L60.3562 39.1113L60.2588 39.1291L60.1611 39.1459L60.0632 39.1617L59.9651 39.1765L59.8668 39.1905L59.7682 39.2035L59.6694 39.2155L59.5705 39.2266L59.4714 39.2367L59.3721 39.2458L59.2727 39.254L59.1731 39.2612L59.0734 39.2674L58.9735 39.2727L58.8735 39.277L58.7734 39.2803L58.6732 39.2826L58.573 39.2839L58.4726 39.2843L58.3722 39.2837L58.2718 39.2821L58.1712 39.2795L58.0706 39.2759L57.9701 39.2713L57.8695 39.2658L57.7689 39.2593L57.6683 39.2518L57.5677 39.2432L57.4671 39.2337L57.3666 39.2232L57.2661 39.2117L57.1657 39.1993L57.0653 39.1858L56.965 39.1713L56.8649 39.1558L56.7647 39.1394L56.6647 39.1219L56.5648 39.1036L56.4651 39.0841L56.3655 39.0637L56.266 39.0423L56.1667 39.0199L56.0676 38.9965L55.9686 38.9722L55.8699 38.9468L55.7713 38.9205L55.6729 38.8932L55.5748 38.8649L55.4769 38.8357L55.3792 38.8054L55.2818 38.7742L55.1847 38.742L55.0878 38.7088L54.9912 38.6747L54.895 38.6396L54.7989 38.6035L54.7033 38.5665L54.6079 38.5285L54.5128 38.4895L54.4182 38.4496L54.3238 38.4088L54.2299 38.367L54.1363 38.3242L54.0431 38.2806L53.9503 38.236L53.8579 38.1904L53.7658 38.1439L53.6743 38.0965L53.5832 38.0481L53.4925 37.9988L53.4023 37.9486L53.3125 37.8975L53.2231 37.8455L53.1343 37.7926L53.046 37.7387L52.9581 37.684L52.8708 37.6284L52.7841 37.5719L52.6978 37.5145L52.6121 37.4562L52.5269 37.3971L52.4423 37.3371L52.3583 37.2762L52.2748 37.2145L52.1919 37.1518L52.1096 37.0884L52.028 37.0241L51.9469 36.9589L51.8665 36.893L51.7866 36.8262L51.7074 36.7586L51.629 36.6901L51.5511 36.6209L51.4739 36.5509L51.3974 36.4801L51.3216 36.4084L51.2464 36.336L51.172 36.2628L51.0983 36.1888L51.0253 36.1141L50.953 36.0386L50.8814 35.9623L50.8107 35.8854L50.7407 35.8076L50.6714 35.7292L50.6029 35.65L50.5351 35.5701L50.4682 35.4895L50.402 35.4081L50.3367 35.3261L50.2721 35.2434L50.2084 35.16L50.1455 35.0759L50.0834 34.9912L50.0221 34.9058L49.9618 34.8198L49.9022 34.7331L49.8435 34.6458L49.7857 34.5579L49.7288 34.4693L49.6727 34.3801L49.6176 34.2904L49.5633 34.2L49.5099 34.1091L49.4574 34.0175L49.4059 33.9255L49.3552 33.8328L49.3055 33.7396L49.2568 33.6459L49.2089 33.5516L49.162 33.4568L49.1161 33.3615L49.0711 33.2657L49.0271 33.1693L48.984 33.0726L48.942 32.9753L48.9009 32.8775L48.8607 32.7793L48.8216 32.6807L48.7835 32.5816L48.7464 32.482L48.7102 32.3821L48.6751 32.2817L48.641 32.181L48.608 32.0798L48.5759 31.9783L48.5449 31.8764L48.5149 31.7741L48.486 31.6715L48.4581 31.5685L48.4312 31.4652L48.4054 31.3616L48.3806 31.2577L48.3569 31.1534L48.3343 31.0489L48.3127 30.9441L48.2922 30.839L48.2728 30.7336L48.2545 30.628L48.2372 30.5222L48.221 30.4162L48.2059 30.3099L48.1919 30.2034L48.179 30.0967L48.1672 29.9898L48.1564 29.8828L48.1468 29.7755L48.1383 29.6681L48.1308 29.5606L48.1245 29.4529L48.1193 29.3452L48.1152 29.2373L48.1122 29.1293L48.1103 29.0212L48.1096 28.913L48.1099 28.8048L48.1114 28.6965L48.114 28.5882L48.1177 28.4798L48.1225 28.3714L48.1284 28.263L48.1355 28.1545L48.1437 28.0462L48.153 27.9377L48.1634 27.8294L48.175 27.721L48.1877 27.6128L48.2015 27.5046L48.2165 27.3964L48.2325 27.2884L48.2497 27.1804L48.268 27.0726L48.2874 26.9649L48.308 26.8573L48.3297 26.7498L48.3525 26.6425L48.3764 26.5354L48.4014 26.4284L48.4276 26.3216L48.4549 26.215L48.4832 26.1087L48.5127 26.0025L48.5433 25.8966L48.5751 25.7909L48.6079 25.6855L48.6418 25.5802L48.6769 25.4754L48.713 25.3708L48.7503 25.2664L48.7886 25.1624L48.828 25.0587L48.8686 24.9553L48.9102 24.8523L48.9529 24.7496L48.9967 24.6473L49.0415 24.5453L49.0875 24.4438L49.1345 24.3426L49.1826 24.2418L49.2317 24.1414L49.282 24.0415L49.3332 23.942L49.3856 23.843L49.4389 23.7444L49.4934 23.6463L49.5488 23.5486L49.6053 23.4514L49.6629 23.3548L49.7214 23.2587L49.781 23.1631L49.8417 23.068L49.9033 22.9734L49.9659 22.8794L50.0295 22.786L50.0942 22.6931L50.1598 22.6008L50.2264 22.5091L50.2941 22.418L50.3626 22.3275L50.4322 22.2376L50.5027 22.1484L50.5742 22.0598L50.6466 21.9719L50.7199 21.8846L50.7943 21.798L50.8695 21.712L50.9457 21.6268L51.0228 21.5423L51.1008 21.4585L51.1797 21.3754L51.2596 21.2929L51.3402 21.2113L51.4218 21.1304L51.5043 21.0502L51.5877 20.9709L51.6719 20.8922L51.7569 20.8144L51.8429 20.7373L51.9297 20.6611L52.0172 20.5857L52.1056 20.5111L52.1949 20.4373L52.2849 20.3643L52.3757 20.2921L52.4674 20.2209L52.5598 20.1505L52.653 20.0809L52.747 20.0122L52.8417 19.9444L52.9371 19.8775L53.0334 19.8115L53.1303 19.7464L53.2279 19.6823L53.3264 19.619L53.4255 19.5567L53.5253 19.4953L53.6257 19.4348L53.7269 19.3753L53.8287 19.3168L53.9312 19.2592L54.0343 19.2026L54.138 19.1469L54.2424 19.0923L54.3474 19.0386L54.453 18.986L54.5592 18.9343L54.666 18.8837L54.7735 18.8341L54.8814 18.7855L54.9899 18.7379L55.099 18.6914L55.2086 18.6459L55.3187 18.6014L55.4293 18.5581L55.5405 18.5157L55.6521 18.4745L55.7643 18.4343L55.8769 18.3951L55.99 18.3571L56.1035 18.3202L56.2174 18.2843L56.3318 18.2495L56.4466 18.2159L56.5618 18.1833L56.6774 18.1518L56.7934 18.1215L56.9097 18.0923L57.0265 18.0642L57.1436 18.0372L57.261 18.0114L57.3787 17.9867L57.4967 17.9631L57.6152 17.9407L57.7338 17.9194L57.8527 17.8993L57.972 17.8803L58.0914 17.8625L58.2111 17.8458L58.331 17.8303L58.3758 17.825ZM58.4264 22.0768L58.3919 19.1787L58.2936 19.1924L58.1879 19.2081L58.0822 19.2249L57.9771 19.2427L57.8719 19.2616L57.7672 19.2814L57.6627 19.3023L57.5586 19.3241L57.4547 19.347L57.3511 19.3709L57.2477 19.3957L57.1448 19.4216L57.042 19.4485L56.9433 19.4753L56.838 19.5051L56.7364 19.5349L56.6353 19.5656L56.5346 19.5973L56.4342 19.63L56.3342 19.6636L56.2346 19.6982L56.1356 19.7337L56.0369 19.7702L55.9387 19.8076L55.8408 19.846L55.7437 19.8852L55.6466 19.9255L55.5503 19.9666L55.4544 20.0086L55.3592 20.0515L55.2642 20.0953L55.1697 20.1401L55.0761 20.1856L54.9826 20.2322L54.8901 20.2795L54.7978 20.3279L54.7063 20.3769L54.6151 20.4271L54.5247 20.4778L54.4349 20.5294L54.3455 20.582L54.2569 20.6353L54.1687 20.6896L54.0814 20.7445L53.9945 20.8004L53.9084 20.857L53.8229 20.9144L53.738 20.9727L53.6536 21.0318L53.5702 21.0914L53.4873 21.1521L53.405 21.2134L53.3235 21.2755L53.2428 21.3383L53.1626 21.402L53.0833 21.4663L53.0046 21.5313L52.9266 21.5972L52.8495 21.6636L52.773 21.7309L52.6972 21.7988L52.6223 21.8674L52.5481 21.9366L52.4746 22.0066L52.402 22.0771L52.3302 22.1484L52.259 22.2204L52.1887 22.2929L52.1192 22.3662L52.0505 22.44L51.9826 22.5144L51.9155 22.5895L51.8491 22.6652L51.7839 22.7413L51.7193 22.8182L51.6555 22.8957L51.5926 22.9736L51.5306 23.0521L51.4693 23.1313L51.4089 23.2108L51.3494 23.291L51.2908 23.3717L51.2331 23.4529L51.1763 23.5345L51.1203 23.6167L51.0652 23.6995L51.0109 23.7826L50.9577 23.8662L50.9053 23.9503L50.8538 24.0349L50.8032 24.1198L50.7535 24.2053L50.7047 24.2911L50.657 24.3772L50.61 24.4639L50.5639 24.5511L50.519 24.6384L50.4748 24.7263L50.4317 24.8145L50.3894 24.9029L50.3481 24.9919L50.3078 25.081L50.2684 25.1706L50.2299 25.2604L50.1924 25.3506L50.1559 25.441L50.1203 25.5319L50.0856 25.6229L50.052 25.7142L50.0193 25.8058L49.9876 25.8976L49.9568 25.9897L49.9271 26.082L49.8982 26.1745L49.8704 26.2672L49.8435 26.3602L49.8177 26.4532L49.7928 26.5466L49.7689 26.6401L49.7459 26.7337L49.724 26.8276L49.703 26.9215L49.683 27.0156L49.664 27.1098L49.646 27.2041L49.6289 27.2986L49.6129 27.3931L49.5978 27.4877L49.5838 27.5823L49.5707 27.6771L49.5586 27.7719L49.5474 27.8668L49.5373 27.9616L49.5282 28.0566L49.52 28.1515L49.5128 28.2464L49.5067 28.3414L49.5014 28.4364L49.4972 28.5313L49.494 28.6261L49.4917 28.7209L49.4904 28.8157L49.4901 28.9105L49.4908 29.0052L49.4924 29.0998L49.4951 29.1943L49.4986 29.2886L49.5032 29.383L49.5087 29.4772L49.5152 29.5711L49.5227 29.6651L49.5311 29.7589L49.5405 29.8525L49.5508 29.9459L49.5621 30.0392L49.5744 30.1324L49.5876 30.2252L49.6017 30.318L49.6168 30.4104L49.6329 30.5027L49.6498 30.5948L49.6678 30.6865L49.6866 30.7782L49.7064 30.8695L49.7271 30.9606L49.7487 31.0513L49.7712 31.1418L49.7947 31.232L49.8191 31.3219L49.8443 31.4115L49.8705 31.5008L49.8975 31.5898L49.9256 31.6784L49.9544 31.7668L49.9842 31.8547L50.0148 31.9422L50.0463 32.0294L50.0787 32.1163L50.112 32.2027L50.1461 32.2888L50.1811 32.3744L50.2169 32.4597L50.2536 32.5445L50.2912 32.6289L50.3295 32.7129L50.3688 32.7964L50.4088 32.8795L50.4497 32.9621L50.4914 33.0442L50.5339 33.126L50.5772 33.2072L50.6213 33.2879L50.6662 33.3682L50.712 33.4479L50.7584 33.5271L50.8057 33.6058L50.8538 33.684L50.9026 33.7616L50.9522 33.8387L51.0026 33.9154L51.0536 33.9913L51.1055 34.0668L51.158 34.1416L51.2113 34.216L51.2653 34.2897L51.3201 34.3628L51.3755 34.4353L51.4317 34.5073L51.4885 34.5787L51.546 34.6494L51.6043 34.7195L51.6632 34.789L51.7227 34.8578L51.783 34.9261L51.8439 34.9936L51.9054 35.0606L51.9675 35.1268L52.0304 35.1925L52.0938 35.2574L52.1579 35.3217L52.2225 35.3853L52.2878 35.4482L52.3537 35.5105L52.4201 35.572L52.4872 35.6329L52.5548 35.6929L52.6229 35.7523L52.6917 35.8111L52.761 35.869L52.8308 35.9263L52.9012 35.9828L52.9721 36.0386L53.0435 36.0937L53.1154 36.148L53.1879 36.2016L53.2607 36.2544L53.3341 36.3064L53.408 36.3577L53.4823 36.4083L53.5572 36.4581L53.6324 36.5071L53.7081 36.5553L53.7843 36.6028L53.8608 36.6494L53.9378 36.6953L54.0152 36.7404L54.093 36.7846L54.1712 36.8281L54.2497 36.8708L54.3287 36.9127L54.4081 36.9538L54.4877 36.994L54.5677 37.0336L54.6482 37.0722L54.7289 37.1101L54.8098 37.147L54.8913 37.1833L54.9728 37.2186L55.0548 37.2531L55.1371 37.2868L55.2196 37.3197L55.3023 37.3517L55.3854 37.3829L55.4687 37.4133L55.5522 37.4428L55.636 37.4715L55.7201 37.4994L55.8043 37.5263L55.8887 37.5525L55.9734 37.5778L56.0582 37.6022L56.1432 37.6258L56.2284 37.6486L56.3137 37.6705L56.3992 37.6915L56.4848 37.7117L56.5706 37.7311L56.6566 37.7496L56.7426 37.7672L56.8287 37.7839L56.915 37.7998L57.0013 37.8149L57.0877 37.8292L57.1742 37.8424L57.2608 37.855L57.3474 37.8666L57.434 37.8774L57.5207 37.8873L57.6074 37.8964L57.6942 37.9045L57.7809 37.9119L57.8677 37.9183L57.9545 37.924L58.0412 37.9288L58.1279 37.9327L58.2147 37.9358L58.3013 37.9381L58.3878 37.9394L58.4744 37.9399L58.5609 37.9396L58.6473 37.9384L58.7336 37.9365L58.8198 37.9336L58.9059 37.93L58.9919 37.9254L59.0777 37.9201L59.1635 37.9138L59.2491 37.9068L59.3345 37.8989L59.4199 37.8902L59.5051 37.8807L59.59 37.8703L59.6748 37.8592L59.7594 37.8472L59.8439 37.8344L59.9281 37.8208L60.012 37.8064L60.0958 37.7911L60.1794 37.775L60.2627 37.7582L60.3458 37.7405L60.4285 37.7221L60.5111 37.7029L60.5933 37.6828L60.6754 37.662L60.7571 37.6404L60.8385 37.618L60.9197 37.5948L61.0005 37.5709L61.0809 37.5462L61.1611 37.5207L61.241 37.4944L61.3205 37.4674L61.3996 37.4397L61.4784 37.4112L61.5568 37.3819L61.6349 37.3519L61.7125 37.3212L61.7899 37.2897L61.8668 37.2575L61.9432 37.2246L62.0194 37.191L62.095 37.1566L62.1703 37.1215L62.2452 37.0858L62.3195 37.0494L62.3936 37.0121L62.467 36.9743L62.5402 36.9357L62.6126 36.8965L62.6848 36.8566L62.7565 36.8161L62.8276 36.7748L62.8984 36.7329L62.9686 36.6904L63.0382 36.6472L63.1075 36.6033L63.176 36.5589L63.2442 36.5137L63.3119 36.4679L63.3789 36.4216L63.4454 36.3747L63.5115 36.327L63.5769 36.2789L63.6418 36.2301L63.7062 36.1807L63.7698 36.1308L63.8331 36.0802L63.8958 36.029L63.9576 35.9774L64.0193 35.925L64.0801 35.8723L64.1402 35.819L64.2 35.7649L64.2589 35.7106L64.3174 35.6557L64.3752 35.6002L64.4323 35.5442L64.4889 35.4877L64.5449 35.4307L64.6002 35.3731L64.6547 35.3152L64.7087 35.2567L64.7621 35.1977L64.8147 35.1384L64.8668 35.0784L64.9181 35.0181L64.9687 34.9573L65.0188 34.896L65.0681 34.8345L65.1167 34.7723L65.1647 34.7098L65.212 34.6468L65.2586 34.5835L65.3044 34.5199L65.3496 34.4557L65.3941 34.3912L65.4379 34.3264L65.481 34.261L65.5232 34.1956L65.5649 34.1296L65.6058 34.0632L65.6461 33.9966L65.6854 33.9296L65.7243 33.8622L65.7622 33.7948L65.7996 33.7267L65.8361 33.6585L65.8718 33.59L65.907 33.521L65.9412 33.4522L65.9748 33.3826L66.0075 33.3132L66.0398 33.2431L66.071 33.1731L66.1016 33.1025L66.1314 33.032L66.1604 32.9612L66.1888 32.8901L66.2163 32.8188L66.243 32.7475L66.2691 32.6757L66.2943 32.6038L66.3188 32.5318L66.3425 32.4596L66.3655 32.3872L66.3877 32.3146L66.4091 32.242L66.4297 32.1691L66.4495 32.0962L66.4687 32.0231L66.487 31.9499L66.5045 31.8767L66.5213 31.8031L66.5373 31.7296L66.5526 31.6561L66.567 31.5825L66.5807 31.5088L66.5936 31.4347L66.6057 31.361L66.6171 31.2871L66.6276 31.213L66.6374 31.1392L66.6464 31.0651L66.6547 30.9909L66.6622 30.9172L66.669 30.8428L66.6749 30.7688L66.68 30.6949L66.6845 30.6208L66.6881 30.5469L66.691 30.473L66.6931 30.3989L66.6943 30.3253L66.6949 30.2513L66.6947 30.1776L66.6938 30.1039L66.6921 30.0304L66.6896 29.9569L66.6864 29.8834L66.6824 29.8103L66.6776 29.737L66.6721 29.6638L66.6659 29.5911L66.6589 29.5181L66.6512 29.4456L66.6427 29.3729L66.6335 29.3006L66.6235 29.2284L66.6128 29.1562L66.6014 29.0844L66.5893 29.0128L66.5764 28.9413L66.5628 28.87L66.5484 28.7987L66.5333 28.7279L66.5176 28.6573L66.5011 28.5868L66.4838 28.5165L66.466 28.4467L66.4473 28.3768L66.428 28.3074L66.408 28.2381L66.3872 28.1692L66.3659 28.1005L66.3437 28.032L66.321 27.964L66.2975 27.8962L66.2733 27.8284L66.2486 27.7613L66.223 27.6943L66.1969 27.6278L66.1701 27.5614L66.1426 27.4954L66.1145 27.4299L66.0856 27.3645L66.0563 27.2996L66.0262 27.2351L65.9955 27.1708L65.9641 27.1068L65.9322 27.0434L65.8995 26.9802L65.8664 26.9176L65.8326 26.8553L65.7981 26.7931L65.7631 26.7317L65.7274 26.6705L65.6912 26.6098L65.6543 26.5494L65.617 26.4896L65.5789 26.43L65.5404 26.371L65.5012 26.3125L65.4615 26.2543L65.4211 26.1965L65.3803 26.1393L65.339 26.0826L65.297 26.0261L65.2546 25.9703L65.2115 25.9149L65.1681 25.8601L65.124 25.8055L65.0794 25.7516L65.0343 25.6981L64.9887 25.6451L64.9427 25.5928L64.896 25.5407L64.849 25.4893L64.8014 25.4383L64.7535 25.3881L64.7048 25.3381L64.6559 25.2888L64.6063 25.2398L64.5565 25.1916L64.5062 25.1439L64.4555 25.0966L64.4042 25.0499L64.3525 25.0039L64.3005 24.9583L64.2478 24.9132L64.1951 24.8689L64.1417 24.8249L64.088 24.7816L64.034 24.739L63.9794 24.6967L63.9246 24.6551L63.8695 24.6142L63.8138 24.5737L63.7577 24.5338L63.7015 24.4947L63.6447 24.4559L63.5879 24.418L63.5306 24.3805L63.4729 24.3436L63.4148 24.3073L63.3566 24.2718L63.2979 24.2367L63.239 24.2023L63.1797 24.1684L63.1204 24.1354L63.0606 24.1028L63.0005 24.0708L62.9402 24.0394L62.8797 24.0088L62.8188 23.9787L62.7577 23.9492L62.6964 23.9204L62.635 23.8923L62.573 23.8646L62.5112 23.8378L62.449 23.8115L62.3865 23.7858L62.3239 23.7608L62.2612 23.7365L62.1982 23.7128L62.1349 23.6896L62.0717 23.6673L62.0081 23.6455L61.9444 23.6243L61.8807 23.6038L61.8168 23.584L61.7528 23.5648L61.6883 23.5462L61.6241 23.5284L61.5597 23.5111L61.4951 23.4946L61.4305 23.4786L61.3656 23.4633L61.3008 23.4487L61.236 23.4347L61.1709 23.4214L61.1057 23.4086L61.0409 23.3967L60.9755 23.3853L60.9104 23.3746L60.8449 23.3644L60.7799 23.3551L60.7142 23.3462L60.6491 23.3382L60.5837 23.3307L60.5183 23.3239L60.453 23.3177L60.3876 23.3122L60.3224 23.3073L60.2569 23.3031L60.1916 23.2995L60.1266 23.2966L60.061 23.2942L59.996 23.2926L59.9309 23.2916L59.8659 23.2912L59.8215 23.2914L59.8552 26.1229L59.8753 26.123L59.9126 26.1235L59.9501 26.1244L59.9876 26.1256L60.0251 26.1274L60.0627 26.1294L60.1003 26.1318L60.1379 26.1346L60.1756 26.1379L60.2133 26.1415L60.2511 26.1454L60.2888 26.1498L60.3266 26.1546L60.3644 26.1598L60.4022 26.1653L60.44 26.1713L60.4778 26.1777L60.5155 26.1844L60.5533 26.1916L60.5911 26.1991L60.6288 26.2072L60.6666 26.2155L60.7043 26.2243L60.7419 26.2334L60.7795 26.2429L60.8171 26.2529L60.8546 26.2633L60.8922 26.274L60.9296 26.2852L60.967 26.2967L61.0042 26.3087L61.0415 26.3211L61.0787 26.3338L61.1158 26.347L61.1528 26.3605L61.1897 26.3745L61.2265 26.3888L61.2633 26.4036L61.2999 26.4187L61.3364 26.4343L61.3729 26.4502L61.4092 26.4666L61.4454 26.4833L61.4815 26.5005L61.5174 26.518L61.5533 26.5359L61.5889 26.5543L61.6245 26.5729L61.6599 26.5921L61.6951 26.6116L61.7302 26.6314L61.7652 26.6517L61.7999 26.6723L61.8345 26.6934L61.869 26.7148L61.9032 26.7367L61.9373 26.7588L61.9712 26.7814L62.0049 26.8044L62.0385 26.8277L62.0717 26.8514L62.1049 26.8755L62.1378 26.8999L62.1705 26.9248L62.203 26.95L62.2353 26.9755L62.2673 27.0015L62.2991 27.0277L62.3307 27.0544L62.362 27.0814L62.3932 27.1088L62.424 27.1366L62.4546 27.1647L62.485 27.1931L62.515 27.2219L62.5449 27.2511L62.5745 27.2806L62.6038 27.3104L62.6328 27.3406L62.6615 27.3711L62.69 27.402L62.7182 27.4332L62.7461 27.4647L62.7737 27.4966L62.801 27.5287L62.828 27.5612L62.8547 27.5941L62.881 27.6272L62.9071 27.6607L62.9329 27.6945L62.9583 27.7285L62.9834 27.763L63.0081 27.7976L63.0326 27.8326L63.0567 27.868L63.0804 27.9036L63.1038 27.9394L63.127 27.9757L63.1496 28.0121L63.172 28.0489L63.194 28.0859L63.2156 28.1232L63.2369 28.1608L63.2578 28.1986L63.2784 28.2367L63.2986 28.2751L63.3183 28.3138L63.3377 28.3526L63.3567 28.3918L63.3753 28.4312L63.3935 28.4708L63.4114 28.5107L63.4289 28.5508L63.4459 28.5912L63.4625 28.6318L63.4787 28.6726L63.4946 28.7136L63.51 28.7548L63.525 28.7963L63.5395 28.838L63.5537 28.8799L63.5674 28.9219L63.5806 28.9642L63.5935 29.0067L63.606 29.0494L63.6179 29.0923L63.6295 29.1352L63.6407 29.1784L63.6513 29.2219L63.6615 29.2654L63.6713 29.3091L63.6807 29.353L63.6896 29.3971L63.6979 29.4412L63.7059 29.4856L63.7134 29.53L63.7205 29.5746L63.7271 29.6194L63.7332 29.6642L63.7388 29.7092L63.744 29.7544L63.7488 29.7996L63.753 29.8449L63.7568 29.8903L63.7601 29.9359L63.7629 29.9815L63.7652 30.0273L63.767 30.0731L63.7684 30.119L63.7693 30.165L63.7697 30.211L63.7696 30.2571L63.769 30.3033L63.768 30.3496L63.7664 30.3958L63.7644 30.4422L63.7618 30.4885L63.7588 30.535L63.7553 30.5814L63.7512 30.6279L63.7467 30.6744L63.7417 30.7209L63.7361 30.7674L63.7301 30.814L63.7236 30.8605L63.7166 30.907L63.7091 30.9535L63.701 31L63.6925 31.0465L63.6835 31.093L63.674 31.1395L63.6639 31.1859L63.6533 31.2322L63.6423 31.2786L63.6307 31.3249L63.6187 31.3711L63.6062 31.4173L63.5931 31.4634L63.5795 31.5094L63.5654 31.5553L63.5509 31.6012L63.5358 31.647L63.5202 31.6927L63.5042 31.7383L63.4875 31.7838L63.4704 31.8292L63.4529 31.8745L63.4348 31.9197L63.4162 31.9647L63.3972 32.0096L63.3776 32.0544L63.3575 32.0991L63.3369 32.1436L63.3158 32.1879L63.2942 32.2321L63.2722 32.2762L63.2496 32.32L63.2265 32.3638L63.203 32.4073L63.1789 32.4506L63.1545 32.4938L63.1295 32.5368L63.1039 32.5796L63.078 32.6221L63.0515 32.6646L63.0246 32.7067L62.9972 32.7487L62.9692 32.7904L62.9409 32.8319L62.9121 32.8732L62.8828 32.9143L62.8529 32.9551L62.8227 32.9956L62.792 33.0359L62.7608 33.076L62.7292 33.1158L62.6971 33.1553L62.6645 33.1945L62.6316 33.2335L62.5981 33.2722L62.5641 33.3106L62.5298 33.3487L62.495 33.3866L62.4597 33.4241L62.4241 33.4613L62.388 33.4983L62.3514 33.5349L62.3144 33.5711L62.2771 33.6071L62.2392 33.6427L62.2009 33.678L62.1623 33.7129L62.1232 33.7476L62.0837 33.7819L62.0438 33.8158L62.0035 33.8493L61.9627 33.8825L61.9216 33.9154L61.8801 33.9478L61.8382 33.9799L61.796 34.0116L61.7533 34.0429L61.7103 34.0738L61.6668 34.1044L61.623 34.1346L61.5788 34.1643L61.5343 34.1937L61.4894 34.2226L61.4441 34.2511L61.3985 34.2793L61.3525 34.3069L61.3062 34.3342L61.2596 34.361L61.2126 34.3874L61.1652 34.4134L61.1176 34.4389L61.0696 34.464L61.0213 34.4887L60.9727 34.5128L60.9238 34.5366L60.8745 34.5598L60.825 34.5826L60.7752 34.605L60.725 34.6268L60.6746 34.6483L60.6239 34.6692L60.5729 34.6896L60.5216 34.7095L60.4701 34.729L60.4183 34.748L60.3662 34.7665L60.314 34.7845L60.2614 34.802L60.2086 34.819L60.1556 34.8355L60.1023 34.8514L60.0487 34.867L59.995 34.8819L59.9411 34.8964L59.887 34.9102L59.8326 34.9237L59.778 34.9365L59.7232 34.9489L59.6682 34.9606L59.6131 34.972L59.5577 34.9827L59.5022 34.9929L59.4465 35.0026L59.3906 35.0117L59.3347 35.0203L59.2785 35.0283L59.2222 35.0358L59.1657 35.0428L59.1091 35.0491L59.0524 35.0549L58.9956 35.0602L58.9386 35.0649L58.8815 35.0691L58.8243 35.0726L58.767 35.0757L58.7096 35.0782L58.6522 35.08L58.5945 35.0813L58.5369 35.0821L58.4792 35.0823L58.4214 35.0819L58.3636 35.0809L58.3057 35.0794L58.2477 35.0773L58.1897 35.0746L58.1317 35.0713L58.0736 35.0674L58.0155 35.063L57.9574 35.058L57.8993 35.0524L57.8412 35.0462L57.7831 35.0394L57.725 35.032L57.6668 35.0241L57.6088 35.0156L57.5507 35.0065L57.4927 34.9968L57.4347 34.9865L57.3768 34.9756L57.3188 34.9642L57.261 34.9522L57.2032 34.9396L57.1455 34.9263L57.0879 34.9125L57.0303 34.8982L56.9728 34.8832L56.9155 34.8676L56.8581 34.8514L56.8011 34.8347L56.744 34.8174L56.687 34.7995L56.6302 34.781L56.5735 34.762L56.517 34.7423L56.4606 34.7221L56.4043 34.7012L56.3483 34.6798L56.2923 34.6579L56.2366 34.6353L56.181 34.6122L56.1256 34.5885L56.0704 34.5642L56.0153 34.5394L55.9606 34.5139L55.9059 34.4879L55.8515 34.4614L55.7973 34.4342L55.7434 34.4065L55.6897 34.3783L55.6362 34.3495L55.583 34.3201L55.53 34.2901L55.4772 34.2596L55.4248 34.2286L55.3726 34.197L55.3207 34.1648L55.269 34.1321L55.2177 34.0989L55.1666 34.0651L55.1158 34.0307L55.0654 33.9958L55.0153 33.9604L54.9654 33.9245L54.9159 33.888L54.8667 33.851L54.8179 33.8135L54.7694 33.7754L54.7213 33.7369L54.6734 33.6978L54.626 33.6582L54.5789 33.6181L54.5322 33.5774L54.4859 33.5363L54.4399 33.4947L54.3944 33.4525L54.3492 33.4099L54.3044 33.3668L54.26 33.3232L54.2161 33.2791L54.1725 33.2346L54.1294 33.1895L54.0867 33.1441L54.0444 33.098L54.0026 33.0516L53.9612 33.0047L53.9203 32.9573L53.8797 32.9095L53.8397 32.8612L53.8001 32.8125L53.761 32.7634L53.7224 32.7138L53.6842 32.6638L53.6465 32.6133L53.6094 32.5624L53.5727 32.5111L53.5365 32.4594L53.5008 32.4073L53.4656 32.3548L53.4309 32.3018L53.3968 32.2485L53.3632 32.1948L53.3301 32.1407L53.2975 32.0862L53.2655 32.0314L53.234 31.9761L53.203 31.9205L53.1726 31.8646L53.1428 31.8082L53.1135 31.7515L53.0847 31.6945L53.0565 31.6372L53.0289 31.5795L53.0019 31.5215L52.9755 31.4632L52.9496 31.4045L52.9243 31.3455L52.8996 31.2862L52.8755 31.2266L52.852 31.1668L52.8291 31.1065L52.8069 31.0461L52.7852 30.9853L52.7641 30.9244L52.7436 30.8631L52.7238 30.8015L52.7046 30.7397L52.686 30.6777L52.668 30.6154L52.6507 30.5528L52.634 30.49L52.6179 30.427L52.6025 30.3638L52.5878 30.3004L52.5736 30.2368L52.5601 30.1729L52.5473 30.1089L52.5351 30.0447L52.5236 29.9803L52.5127 29.9157L52.5026 29.851L52.493 29.786L52.4841 29.721L52.476 29.6557L52.4685 29.5904L52.4616 29.5249L52.4554 29.4592L52.4499 29.3935L52.4451 29.3276L52.441 29.2616L52.4375 29.1955L52.4347 29.1294L52.4326 29.0631L52.4312 28.9967L52.4306 28.9303L52.4305 28.8638L52.4312 28.7972L52.4326 28.7306L52.4346 28.6639L52.4374 28.5972L52.4409 28.5304L52.445 28.4637L52.4498 28.3969L52.4554 28.33L52.4617 28.2632L52.4686 28.1964L52.4763 28.1296L52.4846 28.0627L52.4937 27.996L52.5035 27.9292L52.5139 27.8625L52.5252 27.7958L52.537 27.7291L52.5496 27.6625L52.5629 27.596L52.5769 27.5296L52.5916 27.4632L52.607 27.3969L52.6231 27.3307L52.6399 27.2646L52.6574 27.1986L52.6757 27.1327L52.6946 27.067L52.7142 27.0013L52.7345 26.9358L52.7555 26.8704L52.7772 26.8051L52.7997 26.7401L52.8228 26.6752L52.8466 26.6104L52.8711 26.5459L52.8963 26.4815L52.9222 26.4173L52.9488 26.3533L52.9761 26.2895L53.004 26.2259L53.0327 26.1625L53.062 26.0994L53.0921 26.0365L53.1227 25.9738L53.1541 25.9114L53.1861 25.8492L53.2189 25.7873L53.2523 25.7257L53.2864 25.6643L53.3211 25.6032L53.3565 25.5424L53.3926 25.4819L53.4294 25.4217L53.4667 25.3618L53.5048 25.3022L53.5436 25.2429L53.5829 25.1839L53.6229 25.1254L53.6636 25.0671L53.7048 25.0092L53.7468 24.9517L53.7893 24.8944L53.8325 24.8376L53.8763 24.7812L53.9208 24.7251L53.9659 24.6694L54.0116 24.6141L54.0579 24.5593L54.1048 24.5047L54.1523 24.4507L54.2005 24.397L54.2492 24.3438L54.2985 24.2911L54.3485 24.2387L54.399 24.1868L54.4501 24.1354L54.5018 24.0844L54.554 24.0338L54.6068 23.9838L54.6602 23.9342L54.7142 23.8851L54.7686 23.8365L54.8237 23.7883L54.8794 23.7408L54.9355 23.6936L54.9922 23.647L55.0494 23.601L55.1071 23.5554L55.1654 23.5104L55.2242 23.4659L55.2835 23.422L55.3433 23.3785L55.4036 23.3357L55.4644 23.2934L55.5257 23.2516L55.5876 23.2105L55.6498 23.1699L55.7125 23.1299L55.7758 23.0905L55.8395 23.0516L55.9036 23.0134L55.9682 22.9757L56.0333 22.9387L56.0987 22.9022L56.1646 22.8664L56.231 22.8312L56.2977 22.7966L56.3649 22.7626L56.4325 22.7293L56.5005 22.6966L56.5689 22.6646L56.6377 22.6332L56.7068 22.6024L56.7763 22.5724L56.8463 22.5429L56.9166 22.5141L56.9872 22.486L57.0582 22.4586L57.1295 22.4318L57.2012 22.4057L57.2732 22.3804L57.3456 22.3556L57.4182 22.3316L57.4912 22.3083L57.5644 22.2856L57.638 22.2637L57.7118 22.2425L57.7859 22.222L57.8603 22.2022L57.935 22.1831L58.0099 22.1647L58.0851 22.1471L58.1606 22.1302L58.2362 22.114L58.3121 22.0986L58.3882 22.0839L58.4264 22.0768ZM59.3619 27.5221L58.4937 27.7286L58.4427 23.4465L58.4018 23.4556L58.3402 23.4701L58.2786 23.4852L58.2175 23.5008L58.1565 23.517L58.0959 23.5338L58.0352 23.5513L57.9752 23.5691L57.915 23.5877L57.8556 23.6067L57.796 23.6264L57.7368 23.6467L57.6779 23.6674L57.6192 23.6887L57.5611 23.7106L57.503 23.7331L57.4452 23.756L57.3878 23.7795L57.3305 23.8036L57.2739 23.8281L57.2174 23.8533L57.1613 23.8789L57.1054 23.9051L57.0499 23.9317L56.9946 23.959L56.9399 23.9866L56.8855 24.0148L56.8314 24.0436L56.7777 24.0727L56.7243 24.1024L56.6713 24.1327L56.6188 24.1633L56.5663 24.1945L56.5145 24.2261L56.4631 24.2582L56.4121 24.2908L56.3613 24.3238L56.3111 24.3574L56.2612 24.3913L56.2117 24.4257L56.1627 24.4605L56.114 24.4958L56.0658 24.5316L56.0181 24.5677L55.9707 24.6043L55.9238 24.6412L55.8774 24.6787L55.8313 24.7165L55.7857 24.7549L55.7406 24.7934L55.696 24.8325L55.6517 24.8719L55.608 24.9117L55.5647 24.952L55.5219 24.9925L55.4796 25.0334L55.4376 25.0748L55.3962 25.1164L55.3553 25.1585L55.315 25.2008L55.2749 25.2437L55.2355 25.2867L55.1966 25.3301L55.1581 25.3739L55.1202 25.4179L55.0827 25.4623L55.0458 25.5069L55.0093 25.552L54.9734 25.5973L54.938 25.6429L54.9031 25.6889L54.8687 25.735L54.8349 25.7815L54.8016 25.8282L54.7687 25.8753L54.7364 25.9225L54.7047 25.9702L54.6735 26.0179L54.6428 26.0659L54.6126 26.1142L54.5831 26.1627L54.554 26.2116L54.5255 26.2604L54.4975 26.3097L54.47 26.3591L54.4432 26.4087L54.4168 26.4585L54.391 26.5085L54.3657 26.5588L54.3411 26.6091L54.3169 26.6598L54.2933 26.7105L54.2704 26.7614L54.2478 26.8125L54.2259 26.8638L54.2046 26.9151L54.1838 26.9667L54.1636 27.0184L54.1439 27.0702L54.1248 27.122L54.1063 27.1741L54.0883 27.2263L54.0709 27.2786L54.054 27.331L54.0378 27.3835L54.022 27.4361L54.007 27.4887L53.9923 27.5415L53.9783 27.5944L53.9649 27.6472L53.952 27.7002L53.9396 27.7532L53.9279 27.8063L53.9167 27.8595L53.9061 27.9126L53.896 27.9658L53.8865 28.0191L53.8776 28.0723L53.8693 28.1255L53.8614 28.1789L53.8542 28.2321L53.8476 28.2855L53.8415 28.3387L53.8359 28.392L53.8309 28.4454L53.8265 28.4986L53.8226 28.5518L53.8193 28.6051L53.8165 28.6582L53.8144 28.7113L53.8127 28.7643L53.8116 28.8174L53.811 28.8703L53.8111 28.9232L53.8116 28.976L53.8128 29.0288L53.8144 29.0815L53.8166 29.134L53.8193 29.1865L53.8226 29.2389L53.8265 29.2912L53.8308 29.3434L53.8357 29.3954L53.8412 29.4475L53.8471 29.4991L53.8536 29.551L53.8606 29.6024L53.8682 29.6539L53.8763 29.7052L53.8849 29.7563L53.894 29.8074L53.9036 29.8582L53.9138 29.9089L53.9244 29.9593L53.9356 30.0097L53.9473 30.0598L53.9595 30.1098L53.9722 30.1594L53.9854 30.2092L53.999 30.2584L54.0132 30.3077L54.0279 30.3566L54.043 30.4054L54.0587 30.454L54.0748 30.5022L54.0915 30.5504L54.1086 30.5983L54.1261 30.6458L54.1441 30.6933L54.1627 30.7405L54.1816 30.7873L54.2011 30.834L54.2209 30.8803L54.2413 30.9265L54.2621 30.9724L54.2833 31.018L54.305 31.0633L54.3271 31.1083L54.3498 31.1533L54.3727 31.1977L54.3961 31.2418L54.42 31.2858L54.4443 31.3294L54.469 31.3727L54.4941 31.4158L54.5196 31.4584L54.5456 31.5008L54.5719 31.5429L54.5986 31.5846L54.6258 31.6261L54.6533 31.6672L54.6813 31.708L54.7095 31.7483L54.7382 31.7885L54.7673 31.8283L54.7967 31.8676L54.8266 31.9068L54.8567 31.9455L54.8872 31.9838L54.9181 32.0218L54.9493 32.0596L54.9808 32.0968L55.0128 32.1337L55.0451 32.1703L55.0776 32.2065L55.1107 32.2423L55.1438 32.2777L55.1774 32.3128L55.2113 32.3475L55.2454 32.3818L55.28 32.4157L55.3148 32.4492L55.3499 32.4823L55.3853 32.515L55.421 32.5474L55.457 32.5793L55.4933 32.6108L55.5298 32.6419L55.5666 32.6727L55.6036 32.703L55.641 32.7329L55.6786 32.7624L55.7164 32.7914L55.7545 32.8201L55.7928 32.8483L55.8314 32.8762L55.8702 32.9035L55.9092 32.9305L55.9485 32.9571L55.9879 32.9832L56.0275 33.0088L56.0674 33.0341L56.1076 33.059L56.1478 33.0833L56.1883 33.1073L56.229 33.1309L56.2698 33.1539L56.3108 33.1765L56.3521 33.1988L56.3935 33.2206L56.435 33.2419L56.4766 33.2627L56.5186 33.2832L56.5605 33.3031L56.6027 33.3227L56.645 33.3418L56.6873 33.3604L56.7299 33.3787L56.7727 33.3964L56.8154 33.4138L56.8583 33.4306L56.9013 33.447L56.9445 33.463L56.9876 33.4785L57.0311 33.4936L57.0744 33.5081L57.1179 33.5223L57.1615 33.536L57.2052 33.5493L57.2489 33.562L57.2926 33.5744L57.3365 33.5863L57.3804 33.5977L57.4244 33.6087L57.4684 33.6193L57.5123 33.6293L57.5564 33.6389L57.6005 33.6481L57.6447 33.6568L57.6888 33.6652L57.733 33.673L57.7772 33.6804L57.8214 33.6873L57.8656 33.6938L57.9097 33.6998L57.9539 33.7054L57.998 33.7105L58.0423 33.7153L58.0864 33.7195L58.1305 33.7233L58.1746 33.7267L58.2186 33.7296L58.2627 33.7321L58.3066 33.7341L58.3504 33.7357L58.3944 33.7369L58.4381 33.7376L58.4818 33.7379L58.5255 33.7378L58.569 33.7372L58.6126 33.7362L58.6561 33.7348L58.6993 33.733L58.7425 33.7306L58.7859 33.7279L58.8288 33.7248L58.8718 33.7213L58.9146 33.7173L58.9574 33.7129L59 33.7081L59.0424 33.7029L59.0849 33.6973L59.1271 33.6912L59.1691 33.6847L59.2112 33.6779L59.253 33.6706L59.2947 33.663L59.3363 33.6549L59.3777 33.6464L59.4188 33.6376L59.4598 33.6283L59.5008 33.6187L59.5415 33.6086L59.582 33.5983L59.6224 33.5875L59.6626 33.5763L59.7027 33.5647L59.7425 33.5527L59.7819 33.5404L59.8216 33.5277L59.8607 33.5146L59.8998 33.5013L59.9386 33.4875L59.9771 33.4733L60.0156 33.4588L60.0538 33.4439L60.0917 33.4287L60.1294 33.4132L60.1669 33.3972L60.2043 33.3809L60.2412 33.3643L60.2781 33.3474L60.3146 33.3301L60.3509 33.3125L60.387 33.2946L60.4227 33.2764L60.4584 33.2578L60.4937 33.2388L60.5287 33.2196L60.5634 33.2001L60.598 33.1802L60.6323 33.16L60.6662 33.1396L60.6999 33.1188L60.7333 33.0977L60.7664 33.0764L60.7994 33.0547L60.8319 33.0328L60.8642 33.0106L60.8962 32.9881L60.9279 32.9653L60.9593 32.9422L60.9904 32.9189L61.0212 32.8953L61.0517 32.8714L61.082 32.8473L61.1118 32.823L61.1414 32.7984L61.1706 32.7735L61.1996 32.7484L61.2283 32.723L61.2566 32.6974L61.2846 32.6716L61.3122 32.6455L61.3396 32.6192L61.3666 32.5927L61.3934 32.566L61.4197 32.539L61.4457 32.5118L61.4714 32.4845L61.4969 32.4568L61.5218 32.4292L61.5466 32.4011L61.5709 32.3729L61.5949 32.3446L61.6187 32.316L61.6419 32.2873L61.6649 32.2584L61.6876 32.2294L61.7098 32.2001L61.7318 32.1706L61.7533 32.1412L61.7746 32.1113L61.7955 32.0814L61.816 32.0515L61.8362 32.0212L61.8561 31.9909L61.8754 31.9604L61.8946 31.9298L61.9133 31.8991L61.9317 31.8682L61.9498 31.8372L61.9674 31.8061L61.9847 31.7749L62.0017 31.7434L62.0183 31.7121L62.0345 31.6805L62.0504 31.6489L62.0659 31.6171L62.081 31.5852L62.0958 31.5533L62.1102 31.5213L62.1242 31.4893L62.1379 31.457L62.1511 31.4248L62.1642 31.3924L62.1767 31.3602L62.1889 31.3275L62.2007 31.2953L62.2122 31.2626L62.2234 31.2299L62.2341 31.1974L62.2445 31.1647L62.2545 31.132L62.2642 31.099L62.2734 31.0665L62.2824 31.0334L62.2909 31.0009L62.2992 30.9679L62.307 30.9349L62.3144 30.9021L62.3215 30.8694L62.3283 30.8362L62.3347 30.8035L62.3407 30.7704L62.3464 30.7377L62.3517 30.7048L62.3567 30.6719L62.3613 30.639L62.3655 30.6061L62.3694 30.5734L62.373 30.5408L62.3761 30.5079L62.379 30.4753L62.3815 30.4426L62.3836 30.4099L62.3854 30.3774L62.3868 30.3449L62.3879 30.3126L62.3886 30.28L62.3891 30.2476L62.3892 30.2154L62.3889 30.1832L62.3883 30.1511L62.3873 30.1191L62.386 30.0869L62.3843 30.0553L62.3824 30.0231L62.3801 29.9917L62.3775 29.9601L62.3745 29.9283L62.3712 29.8969L62.3677 29.8657L62.3637 29.8342L62.3595 29.8033L62.3549 29.7721L62.3501 29.7415L62.3448 29.7105L62.3393 29.6797L62.3335 29.6493L62.3274 29.6189L62.3209 29.5885L62.3141 29.5584L62.3071 29.5283L62.2998 29.4985L62.2921 29.4688L62.2841 29.439L62.2759 29.4097L62.2674 29.3802L62.2586 29.3512L62.2494 29.3221L62.24 29.2933L62.2303 29.2646L62.2203 29.236L62.2101 29.2078L62.1996 29.1796L62.1887 29.1514L62.1777 29.1237L62.1663 29.0958L62.1548 29.0686L62.1428 29.041L62.1307 29.014L62.1183 28.9871L62.1056 28.9603L62.0928 28.9337L62.0796 28.9073L62.0662 28.8811L62.0525 28.8551L62.0386 28.8293L62.0245 28.8037L62.0101 28.7783L61.9954 28.7531L61.9807 28.7281L61.9656 28.7034L61.9502 28.6787L61.9347 28.6545L61.919 28.6303L61.903 28.6064L61.8868 28.5826L61.8705 28.5592L61.8538 28.5359L61.837 28.5129L61.82 28.4901L61.8028 28.4675L61.7854 28.4452L61.7677 28.423L61.75 28.4011L61.732 28.3795L61.7138 28.358L61.6954 28.3368L61.677 28.3159L61.6582 28.2952L61.6393 28.2747L61.6202 28.2544L61.601 28.2344L61.5816 28.2147L61.562 28.1951L61.5424 28.1759L61.5225 28.1569L61.5025 28.1382L61.4822 28.1196L61.462 28.1014L61.4415 28.0833L61.4209 28.0656L61.4002 28.048L61.3793 28.0309L61.3583 28.0138L61.3372 27.9971L61.3159 27.9806L61.2945 27.9643L61.2731 27.9484L61.2515 27.9327L61.2297 27.9172L61.2079 27.9021L61.186 27.8871L61.164 27.8725L61.1419 27.8581L61.1196 27.8439L61.0973 27.83L61.0748 27.8164L61.0524 27.803L61.0299 27.79L61.0072 27.7771L60.9844 27.7645L60.9616 27.7522L60.9388 27.7402L60.9158 27.7284L60.8929 27.7169L60.8697 27.7056L60.8467 27.6946L60.8235 27.684L60.8003 27.6735L60.777 27.6633L60.7536 27.6533L60.7304 27.6437L60.7069 27.6343L60.6834 27.6252L60.6599 27.6163L60.6364 27.6077L60.6129 27.5994L60.5894 27.5913L60.5658 27.5834L60.5423 27.5759L60.5186 27.5686L60.495 27.5615L60.4715 27.5548L60.4477 27.5482L60.4242 27.542L60.4005 27.536L60.3769 27.5302L60.3532 27.5248L60.3296 27.5195L60.306 27.5146L60.2824 27.5098L60.2589 27.5053L60.2354 27.5011L60.2118 27.4972L60.1884 27.4935L60.1647 27.49L60.1415 27.4868L60.118 27.4838L60.0946 27.4811L60.0714 27.4786L60.0481 27.4765L60.0249 27.4744L60.0017 27.4727L59.9785 27.4712L59.9554 27.4699L59.9324 27.469L59.9095 27.4682L59.8866 27.4676L59.8638 27.4673L59.8409 27.4672L59.8183 27.4675L59.7956 27.4678L59.7731 27.4684L59.7505 27.4693L59.7282 27.4704L59.7058 27.4717L59.6837 27.4732L59.6615 27.475L59.6394 27.477L59.6175 27.4792L59.5955 27.4816L59.5738 27.4842L59.5521 27.487L59.5306 27.4901L59.509 27.4934L59.4877 27.4969L59.4664 27.5005L59.4454 27.5044L59.4242 27.5086L59.4034 27.5128L59.3825 27.5173L59.3619 27.5221Z" fill="black"/>
</g>
</svg>
