<svg xmlns="http://www.w3.org/2000/svg" width="222" height="57" viewBox="0 0 222 57" fill="none">
  <g opacity="0.5">
    <rect x="0.635742" width="221.091" height="57" rx="8" fill="#F2F5F8"/>
    <path d="M85.6951 22.3844H88.7918V34.8934H85.6951V22.3844ZM90.0202 30.1703C90.0202 27.0766 91.9196 25.2306 94.8512 25.2306C97.7828 25.2306 99.6822 27.0766 99.6822 30.1703C99.6822 33.2641 97.8241 35.1203 94.8512 35.1203C91.8783 35.1203 90.0202 33.3156 90.0202 30.1703ZM96.5751 30.1703C96.5751 28.4687 95.9041 27.4684 94.8512 27.4684C93.7983 27.4684 93.1377 28.4997 93.1377 30.1703C93.1377 31.8409 93.788 32.8516 94.8512 32.8516C95.9144 32.8516 96.5751 31.9028 96.5751 30.1806V30.1703ZM100.849 35.5019H103.822C103.963 35.8159 104.202 36.0759 104.504 36.2431C104.805 36.4103 105.152 36.4759 105.494 36.43C106.671 36.43 107.29 35.7906 107.29 34.8625V33.13H107.228C106.981 33.661 106.581 34.1059 106.079 34.4074C105.576 34.7088 104.995 34.853 104.41 34.8212C102.149 34.8212 100.652 33.0991 100.652 30.1394C100.652 27.1797 102.077 25.3131 104.451 25.3131C105.055 25.2895 105.651 25.4507 106.16 25.775C106.669 26.0995 107.067 26.5716 107.3 27.1281V25.4059H110.397V34.7903C110.397 37.0487 108.405 38.4512 105.463 38.4512C102.727 38.4512 101.024 37.2241 100.849 35.5122V35.5019ZM107.3 30.16C107.3 28.6544 106.609 27.7056 105.514 27.7056C104.42 27.7056 103.749 28.6441 103.749 30.16C103.749 31.6759 104.41 32.5319 105.514 32.5319C106.619 32.5319 107.3 31.6966 107.3 30.1703V30.16ZM111.563 30.16C111.563 27.0662 113.463 25.2203 116.394 25.2203C119.326 25.2203 121.236 27.0662 121.236 30.16C121.236 33.2537 119.378 35.11 116.394 35.11C113.411 35.11 111.563 33.3156 111.563 30.1703V30.16ZM118.118 30.16C118.118 28.4584 117.447 27.4581 116.394 27.4581C115.342 27.4581 114.732 28.4997 114.732 30.1806C114.732 31.8616 115.383 32.8619 116.436 32.8619C117.489 32.8619 118.118 31.9028 118.118 30.1806V30.16ZM122.412 23.1578C122.404 22.8454 122.489 22.5377 122.656 22.2736C122.824 22.0095 123.065 21.801 123.351 21.6744C123.637 21.5478 123.954 21.5088 124.263 21.5625C124.571 21.6162 124.856 21.7601 125.082 21.9759C125.308 22.1917 125.465 22.4698 125.533 22.7748C125.601 23.0798 125.577 23.3981 125.463 23.6893C125.35 23.9804 125.152 24.2314 124.896 24.4104C124.639 24.5893 124.335 24.6882 124.023 24.6944C123.816 24.7086 123.608 24.6798 123.412 24.6099C123.216 24.54 123.037 24.4305 122.886 24.2881C122.735 24.1457 122.615 23.9736 122.533 23.7826C122.452 23.5918 122.411 23.386 122.412 23.1784V23.1578ZM122.412 25.4266H125.509V34.8934H122.412V25.4266ZM136.751 30.16C136.751 33.2537 135.378 35.0172 133.024 35.0172C132.421 35.0559 131.82 34.9085 131.303 34.595C130.786 34.2814 130.378 33.8168 130.134 33.2641H130.072V37.9253H126.975V25.4059H130.072V27.0972H130.134C130.366 26.5353 130.767 26.0586 131.28 25.732C131.794 25.4054 132.395 25.2448 133.003 25.2719C135.378 25.3131 136.792 27.0869 136.792 30.1806L136.751 30.16ZM133.654 30.16C133.654 28.6544 132.962 27.6953 131.878 27.6953C130.794 27.6953 130.103 28.6647 130.092 30.16C130.082 31.6553 130.794 32.6144 131.878 32.6144C132.962 32.6144 133.654 31.6759 133.654 30.1806V30.16ZM142.067 25.21C144.637 25.21 146.196 26.4269 146.268 28.3759H143.45C143.45 27.7056 142.892 27.2828 142.036 27.2828C141.179 27.2828 140.797 27.6128 140.797 28.0975C140.797 28.5822 141.138 28.7369 141.829 28.8812L143.811 29.2834C145.7 29.6856 146.505 30.4487 146.505 31.8822C146.505 33.8416 144.72 35.0997 142.087 35.0997C139.455 35.0997 137.731 33.8416 137.597 31.9131H140.58C140.673 32.6144 141.231 33.0269 142.139 33.0269C143.047 33.0269 143.46 32.7278 143.46 32.2328C143.46 31.7378 143.171 31.6347 142.428 31.48L140.642 31.0984C138.794 30.7169 137.824 29.7372 137.824 28.2934C137.845 26.4372 139.507 25.2306 142.067 25.2306V25.21ZM156.838 34.8728H153.855V33.1094H153.793C153.629 33.7014 153.268 34.2196 152.768 34.578C152.268 34.9362 151.662 35.1131 151.047 35.0791C150.577 35.1058 150.106 35.0313 149.667 34.8606C149.228 34.69 148.83 34.4272 148.501 34.0899C148.173 33.7527 147.92 33.3487 147.761 32.9056C147.602 32.4625 147.54 31.9904 147.579 31.5212V25.4059H150.676V30.8097C150.676 31.9337 151.254 32.5319 152.214 32.5319C152.439 32.5323 152.662 32.4847 152.867 32.3922C153.072 32.2997 153.255 32.1644 153.404 31.9955C153.552 31.8265 153.663 31.6278 153.728 31.4127C153.793 31.1974 153.813 30.9708 153.783 30.7478V25.4059H156.88L156.838 34.8728ZM158.335 25.4059H161.329V27.2312H161.391C161.555 26.647 161.909 26.1337 162.396 25.7717C162.883 25.4098 163.478 25.2194 164.085 25.2306C164.703 25.1812 165.316 25.3659 165.804 25.7481C166.292 26.1303 166.618 26.6818 166.717 27.2931H166.779C166.966 26.6753 167.354 26.1374 167.881 25.764C168.408 25.3906 169.045 25.2029 169.69 25.2306C170.111 25.2165 170.53 25.2911 170.92 25.4495C171.312 25.6078 171.664 25.8465 171.956 26.1499C172.248 26.4534 172.473 26.8148 172.616 27.2107C172.759 27.6066 172.818 28.0283 172.787 28.4481V34.8934H169.69V29.2731C169.69 28.2419 169.225 27.7675 168.358 27.7675C168.165 27.7658 167.973 27.8057 167.797 27.8842C167.62 27.9628 167.462 28.0783 167.334 28.223C167.206 28.3677 167.11 28.538 167.054 28.7227C166.997 28.9075 166.981 29.1022 167.006 29.2937V34.8934H164.064V29.2319C164.064 28.2831 163.6 27.7675 162.753 27.7675C162.558 27.7676 162.364 27.8091 162.186 27.8892C162.008 27.9694 161.848 28.0865 161.719 28.2326C161.589 28.3787 161.492 28.5507 161.433 28.7373C161.375 28.9237 161.356 29.1204 161.38 29.3144V34.8934H158.283L158.335 25.4059Z" fill="black"/>
    <path d="M77.0344 22.9519C76.5091 21.7519 75.8139 20.6336 74.9699 19.6313C73.7224 18.1054 72.1656 16.8607 70.4019 15.9792C68.6381 15.0977 66.7075 14.5994 64.7371 14.517C62.7668 14.4346 60.8012 14.77 58.9699 15.5011C57.1387 16.2323 55.4831 17.3426 54.1123 18.759C52.7415 20.1754 51.6865 21.8658 51.0167 23.7189C50.3469 25.5719 50.0775 27.5457 50.2263 29.5103C50.3751 31.4749 50.9387 33.3857 51.8799 35.117C52.8212 36.8483 54.1188 38.3609 55.6873 39.555C56.6938 40.3366 57.8059 40.972 58.9906 41.4422C60.6515 42.1222 62.4291 42.4724 64.2241 42.4735C67.9293 42.4653 71.4801 40.9898 74.0982 38.3704C76.7162 35.7511 78.1879 32.2016 78.1906 28.5C78.1932 26.5907 77.7996 24.7015 77.0344 22.9519ZM64.2138 17.3522C65.8258 17.3521 67.4182 17.704 68.8796 18.3835C68.5233 18.5373 68.1485 18.6447 67.7647 18.7032C66.5019 18.8858 65.332 19.4715 64.4297 20.3729C63.5274 21.2743 62.9411 22.4431 62.7583 23.7047C62.6781 24.4123 62.3559 25.0705 61.8463 25.5684C61.3367 26.0663 60.6708 26.3732 59.9609 26.4375C58.698 26.6202 57.5281 27.2059 56.6258 28.1073C55.7235 29.0088 55.1372 30.1775 54.9544 31.4391C54.8925 32.1119 54.6052 32.7442 54.139 33.2335C53.3345 31.5353 52.9731 29.6613 53.0884 27.7861C53.2037 25.9109 53.792 24.0953 54.7985 22.5082C55.805 20.9212 57.1971 19.6143 58.8451 18.7092C60.4931 17.8041 62.3435 17.3302 64.2241 17.3316L64.2138 17.3522ZM55.677 35.7188C55.8009 35.6054 55.9248 35.5022 56.0486 35.3785C56.967 34.489 57.5565 33.3148 57.7209 32.0475C57.7875 31.3352 58.1059 30.6698 58.6189 30.1707C59.1127 29.6573 59.7771 29.3419 60.4873 29.2838C61.7502 29.1012 62.9201 28.5154 63.8223 27.614C64.7246 26.7126 65.311 25.5439 65.4938 24.2822C65.5385 23.5372 65.8585 22.8352 66.3918 22.3125C66.8978 21.8091 67.5685 21.5052 68.2809 21.4566C69.441 21.2971 70.523 20.7819 71.3777 19.9819C72.3508 20.7884 73.1751 21.7586 73.8138 22.8488C73.7746 22.9017 73.7295 22.9502 73.6796 22.9932C73.1869 23.5111 72.5233 23.8334 71.8112 23.9007C70.547 24.0801 69.3754 24.6648 68.4725 25.5668C67.5697 26.4688 66.9844 27.6393 66.8047 28.9022C66.732 29.6121 66.4158 30.2751 65.9098 30.7788C65.4037 31.2826 64.7389 31.596 64.028 31.666C62.7614 31.8472 61.5872 32.4318 60.6796 33.3328C59.7722 34.2339 59.1798 35.4033 58.9906 36.6675C58.935 37.1715 58.7617 37.6555 58.4847 38.0804C57.4257 37.4521 56.4771 36.6543 55.677 35.7188ZM64.2138 39.6994C63.1663 39.7006 62.1239 39.5547 61.117 39.2663C61.4615 38.6249 61.6854 37.9258 61.7777 37.2038C61.85 36.4954 62.1647 35.8337 62.6687 35.3302C63.1726 34.8268 63.835 34.5123 64.5441 34.44C65.8088 34.2595 66.9811 33.6746 67.8854 32.773C68.7897 31.8715 69.3775 30.7016 69.5609 29.4385C69.6332 28.7301 69.948 28.0684 70.4519 27.5649C70.9559 27.0614 71.6183 26.747 72.3273 26.6747C73.2791 26.5511 74.1862 26.1971 74.9699 25.6435C75.4051 27.2913 75.4566 29.0168 75.1206 30.6876C74.7846 32.3585 74.0699 33.9303 73.0314 35.2824C71.993 36.6343 70.6584 37.7309 69.1298 38.4876C67.6013 39.2443 65.9197 39.6413 64.2138 39.6479V39.6994Z" fill="black"/>
  </g>
</svg>