<svg width="290" height="290" viewBox="0 0 290 290" fill="none" xmlns="http://www.w3.org/2000/svg">
<rect width="290" height="290" rx="145" fill="#E9F3FC"/>
<g filter="url(#filter0_d_126_13607)">
<rect x="52" y="81" width="187" height="45" rx="6" fill="#FFFDFD"/>
</g>
<g filter="url(#filter1_d_126_13607)">
<rect x="52" y="131" width="187" height="45" rx="6" fill="#FFFDFD"/>
</g>
<path d="M111 144L108.333 146L107 145" stroke="#DBDEE1" stroke-width="1.5" stroke-linecap="round"/>
<path d="M111 152L108.333 154L107 153" stroke="#DBDEE1" stroke-width="1.5" stroke-linecap="round"/>
<path d="M111 161L108.333 163L107 162" stroke="#DBDEE1" stroke-width="1.5" stroke-linecap="round"/>
<g filter="url(#filter2_d_126_13607)">
<rect x="52" y="182" width="187" height="44" rx="6" fill="#FFFDFD"/>
</g>
<path d="M111 195L108.333 197L107 196" stroke="#DBDEE1" stroke-width="1.5" stroke-linecap="round"/>
<path d="M111 203L108.333 205L107 204" stroke="#DBDEE1" stroke-width="1.5" stroke-linecap="round"/>
<path d="M111 211L108.333 213L107 212" stroke="#DBDEE1" stroke-width="1.5" stroke-linecap="round"/>
<path d="M207.374 94.0867C207.427 94.3801 207.547 94.6067 207.734 94.7667C207.927 94.9201 208.184 94.9967 208.504 94.9967C208.917 94.9967 209.217 94.8267 209.404 94.4867C209.591 94.1401 209.684 93.5601 209.684 92.7467C209.531 92.9601 209.314 93.1267 209.034 93.2467C208.761 93.3667 208.464 93.4267 208.144 93.4267C207.717 93.4267 207.331 93.3401 206.984 93.1667C206.644 92.9867 206.374 92.7234 206.174 92.3767C205.974 92.0234 205.874 91.5967 205.874 91.0967C205.874 90.3567 206.094 89.7701 206.534 89.3367C206.974 88.8967 207.574 88.6767 208.334 88.6767C209.281 88.6767 209.947 88.9801 210.334 89.5867C210.727 90.1934 210.924 91.1067 210.924 92.3267C210.924 93.1934 210.847 93.9034 210.694 94.4567C210.547 95.0101 210.291 95.4301 209.924 95.7167C209.564 96.0034 209.071 96.1467 208.444 96.1467C207.951 96.1467 207.531 96.0534 207.184 95.8667C206.837 95.6734 206.571 95.4234 206.384 95.1167C206.204 94.8034 206.101 94.4601 206.074 94.0867H207.374ZM208.434 92.2867C208.781 92.2867 209.054 92.1801 209.254 91.9667C209.454 91.7534 209.554 91.4667 209.554 91.1067C209.554 90.7134 209.447 90.4101 209.234 90.1967C209.027 89.9767 208.744 89.8667 208.384 89.8667C208.024 89.8667 207.737 89.9801 207.524 90.2067C207.317 90.4267 207.214 90.7201 207.214 91.0867C207.214 91.4401 207.314 91.7301 207.514 91.9567C207.721 92.1767 208.027 92.2867 208.434 92.2867ZM212.294 96.2067C212.041 96.2067 211.831 96.1301 211.664 95.9767C211.504 95.8167 211.424 95.6201 211.424 95.3867C211.424 95.1534 211.504 94.9601 211.664 94.8067C211.831 94.6467 212.041 94.5667 212.294 94.5667C212.541 94.5667 212.744 94.6467 212.904 94.8067C213.064 94.9601 213.144 95.1534 213.144 95.3867C213.144 95.6201 213.064 95.8167 212.904 95.9767C212.744 96.1301 212.541 96.2067 212.294 96.2067ZM217.392 90.6667C217.325 90.3867 217.208 90.1767 217.042 90.0367C216.882 89.8967 216.648 89.8267 216.342 89.8267C215.882 89.8267 215.542 90.0134 215.322 90.3867C215.108 90.7534 214.998 91.3534 214.992 92.1867C215.152 91.9201 215.385 91.7134 215.692 91.5667C215.998 91.4134 216.332 91.3367 216.692 91.3367C217.125 91.3367 217.508 91.4301 217.842 91.6167C218.175 91.8034 218.435 92.0767 218.622 92.4367C218.808 92.7901 218.902 93.2167 218.902 93.7167C218.902 94.1901 218.805 94.6134 218.612 94.9867C218.425 95.3534 218.148 95.6401 217.782 95.8467C217.415 96.0534 216.978 96.1567 216.472 96.1567C215.778 96.1567 215.232 96.0034 214.832 95.6967C214.438 95.3901 214.162 94.9634 214.002 94.4167C213.848 93.8634 213.772 93.1834 213.772 92.3767C213.772 91.1567 213.982 90.2367 214.402 89.6167C214.822 88.9901 215.485 88.6767 216.392 88.6767C217.092 88.6767 217.635 88.8667 218.022 89.2467C218.408 89.6267 218.632 90.1001 218.692 90.6667H217.392ZM216.372 92.4867C216.018 92.4867 215.722 92.5901 215.482 92.7967C215.242 93.0034 215.122 93.3034 215.122 93.6967C215.122 94.0901 215.232 94.4001 215.452 94.6267C215.678 94.8534 215.995 94.9667 216.402 94.9667C216.762 94.9667 217.045 94.8567 217.252 94.6367C217.465 94.4167 217.572 94.1201 217.572 93.7467C217.572 93.3601 217.468 93.0534 217.262 92.8267C217.062 92.6001 216.765 92.4867 216.372 92.4867Z" fill="#04111E"/>
<path d="M226.28 88.9923C226.43 88.5317 227.082 88.5317 227.231 88.9923L227.851 90.8993C227.918 91.1053 228.11 91.2448 228.326 91.2448H230.331C230.816 91.2448 231.017 91.8646 230.625 92.1493L229.003 93.3278C228.828 93.4552 228.755 93.6808 228.822 93.8869L229.441 95.7938C229.591 96.2545 229.064 96.6375 228.672 96.3528L227.05 95.1743C226.874 95.0469 226.637 95.0469 226.462 95.1743L224.84 96.3528C224.448 96.6375 223.921 96.2545 224.07 95.7938L224.69 93.8869C224.757 93.6808 224.683 93.4552 224.508 93.3278L222.886 92.1493C222.494 91.8646 222.696 91.2448 223.18 91.2448H225.185C225.402 91.2448 225.594 91.1053 225.661 90.8993L226.28 88.9923Z" fill="#0066EC"/>
<path d="M207.374 144.553C207.427 144.847 207.547 145.073 207.734 145.233C207.927 145.387 208.184 145.463 208.504 145.463C208.917 145.463 209.217 145.293 209.404 144.953C209.591 144.607 209.684 144.027 209.684 143.213C209.531 143.427 209.314 143.593 209.034 143.713C208.761 143.833 208.464 143.893 208.144 143.893C207.717 143.893 207.331 143.807 206.984 143.633C206.644 143.453 206.374 143.19 206.174 142.843C205.974 142.49 205.874 142.063 205.874 141.563C205.874 140.823 206.094 140.237 206.534 139.803C206.974 139.363 207.574 139.143 208.334 139.143C209.281 139.143 209.947 139.447 210.334 140.053C210.727 140.66 210.924 141.573 210.924 142.793C210.924 143.66 210.847 144.37 210.694 144.923C210.547 145.477 210.291 145.897 209.924 146.183C209.564 146.47 209.071 146.613 208.444 146.613C207.951 146.613 207.531 146.52 207.184 146.333C206.837 146.14 206.571 145.89 206.384 145.583C206.204 145.27 206.101 144.927 206.074 144.553H207.374ZM208.434 142.753C208.781 142.753 209.054 142.647 209.254 142.433C209.454 142.22 209.554 141.933 209.554 141.573C209.554 141.18 209.447 140.877 209.234 140.663C209.027 140.443 208.744 140.333 208.384 140.333C208.024 140.333 207.737 140.447 207.524 140.673C207.317 140.893 207.214 141.187 207.214 141.553C207.214 141.907 207.314 142.197 207.514 142.423C207.721 142.643 208.027 142.753 208.434 142.753ZM212.294 146.673C212.041 146.673 211.831 146.597 211.664 146.443C211.504 146.283 211.424 146.087 211.424 145.853C211.424 145.62 211.504 145.427 211.664 145.273C211.831 145.113 212.041 145.033 212.294 145.033C212.541 145.033 212.744 145.113 212.904 145.273C213.064 145.427 213.144 145.62 213.144 145.853C213.144 146.087 213.064 146.283 212.904 146.443C212.744 146.597 212.541 146.673 212.294 146.673ZM218.512 140.523H215.272V142.233C215.412 142.06 215.612 141.92 215.872 141.813C216.132 141.7 216.408 141.643 216.702 141.643C217.235 141.643 217.672 141.76 218.012 141.993C218.352 142.227 218.598 142.527 218.752 142.893C218.905 143.253 218.982 143.64 218.982 144.053C218.982 144.82 218.762 145.437 218.322 145.903C217.888 146.37 217.268 146.603 216.462 146.603C215.702 146.603 215.095 146.413 214.642 146.033C214.188 145.653 213.932 145.157 213.872 144.543H215.232C215.292 144.81 215.425 145.023 215.632 145.183C215.845 145.343 216.115 145.423 216.442 145.423C216.835 145.423 217.132 145.3 217.332 145.053C217.532 144.807 217.632 144.48 217.632 144.073C217.632 143.66 217.528 143.347 217.322 143.133C217.122 142.913 216.825 142.803 216.432 142.803C216.152 142.803 215.918 142.873 215.732 143.013C215.545 143.153 215.412 143.34 215.332 143.573H213.992V139.293H218.512V140.523Z" fill="#04111E"/>
<path d="M226.28 139.459C226.43 138.998 227.082 138.998 227.231 139.459L227.851 141.366C227.918 141.572 228.11 141.711 228.326 141.711H230.331C230.816 141.711 231.017 142.331 230.625 142.616L229.003 143.794C228.828 143.922 228.755 144.147 228.822 144.353L229.441 146.26C229.591 146.721 229.064 147.104 228.672 146.819L227.05 145.641C226.874 145.513 226.637 145.513 226.462 145.641L224.84 146.819C224.448 147.104 223.921 146.721 224.07 146.26L224.69 144.353C224.757 144.147 224.683 143.922 224.508 143.794L222.886 142.616C222.494 142.331 222.696 141.711 223.18 141.711H225.185C225.402 141.711 225.594 141.572 225.661 141.366L226.28 139.459Z" fill="#0066EC"/>
<path d="M207.374 195.02C207.427 195.313 207.547 195.54 207.734 195.7C207.927 195.853 208.184 195.93 208.504 195.93C208.917 195.93 209.217 195.76 209.404 195.42C209.591 195.073 209.684 194.493 209.684 193.68C209.531 193.893 209.314 194.06 209.034 194.18C208.761 194.3 208.464 194.36 208.144 194.36C207.717 194.36 207.331 194.273 206.984 194.1C206.644 193.92 206.374 193.657 206.174 193.31C205.974 192.957 205.874 192.53 205.874 192.03C205.874 191.29 206.094 190.703 206.534 190.27C206.974 189.83 207.574 189.61 208.334 189.61C209.281 189.61 209.947 189.913 210.334 190.52C210.727 191.127 210.924 192.04 210.924 193.26C210.924 194.127 210.847 194.837 210.694 195.39C210.547 195.943 210.291 196.363 209.924 196.65C209.564 196.937 209.071 197.08 208.444 197.08C207.951 197.08 207.531 196.987 207.184 196.8C206.837 196.607 206.571 196.357 206.384 196.05C206.204 195.737 206.101 195.393 206.074 195.02H207.374ZM208.434 193.22C208.781 193.22 209.054 193.113 209.254 192.9C209.454 192.687 209.554 192.4 209.554 192.04C209.554 191.647 209.447 191.343 209.234 191.13C209.027 190.91 208.744 190.8 208.384 190.8C208.024 190.8 207.737 190.913 207.524 191.14C207.317 191.36 207.214 191.653 207.214 192.02C207.214 192.373 207.314 192.663 207.514 192.89C207.721 193.11 208.027 193.22 208.434 193.22ZM212.294 197.14C212.041 197.14 211.831 197.063 211.664 196.91C211.504 196.75 211.424 196.553 211.424 196.32C211.424 196.087 211.504 195.893 211.664 195.74C211.831 195.58 212.041 195.5 212.294 195.5C212.541 195.5 212.744 195.58 212.904 195.74C213.064 195.893 213.144 196.087 213.144 196.32C213.144 196.553 213.064 196.75 212.904 196.91C212.744 197.063 212.541 197.14 212.294 197.14ZM214.052 195.49C214.692 194.957 215.202 194.513 215.582 194.16C215.962 193.8 216.278 193.427 216.532 193.04C216.785 192.653 216.912 192.273 216.912 191.9C216.912 191.56 216.832 191.293 216.672 191.1C216.512 190.907 216.265 190.81 215.932 190.81C215.598 190.81 215.342 190.923 215.162 191.15C214.982 191.37 214.888 191.673 214.882 192.06H213.522C213.548 191.26 213.785 190.653 214.232 190.24C214.685 189.827 215.258 189.62 215.952 189.62C216.712 189.62 217.295 189.823 217.702 190.23C218.108 190.63 218.312 191.16 218.312 191.82C218.312 192.34 218.172 192.837 217.892 193.31C217.612 193.783 217.292 194.197 216.932 194.55C216.572 194.897 216.102 195.317 215.522 195.81H218.472V196.97H213.532V195.93L214.052 195.49Z" fill="#04111E"/>
<path d="M226.28 189.926C226.43 189.465 227.082 189.465 227.231 189.926L227.851 191.833C227.918 192.039 228.11 192.178 228.326 192.178H230.331C230.816 192.178 231.017 192.798 230.625 193.083L229.003 194.261C228.828 194.389 228.755 194.614 228.822 194.82L229.441 196.727C229.591 197.188 229.064 197.571 228.672 197.286L227.05 196.108C226.874 195.98 226.637 195.98 226.462 196.108L224.84 197.286C224.448 197.571 223.921 197.188 224.07 196.727L224.69 194.82C224.757 194.614 224.683 194.389 224.508 194.261L222.886 193.083C222.494 192.798 222.696 192.178 223.18 192.178H225.185C225.402 192.178 225.594 192.039 225.661 191.833L226.28 189.926Z" fill="#0066EC"/>
<circle cx="75.5" cy="103.5" r="13.5" fill="url(#paint0_linear_126_13607)"/>
<circle cx="75.5" cy="154.5" r="13.5" fill="url(#paint1_linear_126_13607)"/>
<circle cx="75.5" cy="204.5" r="13.5" fill="url(#paint2_linear_126_13607)"/>
<path d="M73.7582 99.8V98.252H76.6502V107H74.9222V99.8H73.7582Z" fill="white"/>
<path d="M73.2187 156.104C73.9867 155.464 74.5987 154.932 75.0547 154.508C75.5107 154.076 75.8907 153.628 76.1947 153.164C76.4987 152.7 76.6507 152.244 76.6507 151.796C76.6507 151.388 76.5547 151.068 76.3627 150.836C76.1707 150.604 75.8747 150.488 75.4747 150.488C75.0747 150.488 74.7667 150.624 74.5507 150.896C74.3347 151.16 74.2227 151.524 74.2147 151.988H72.5827C72.6147 151.028 72.8987 150.3 73.4347 149.804C73.9787 149.308 74.6667 149.06 75.4987 149.06C76.4107 149.06 77.1107 149.304 77.5987 149.792C78.0867 150.272 78.3307 150.908 78.3307 151.7C78.3307 152.324 78.1627 152.92 77.8267 153.488C77.4907 154.056 77.1067 154.552 76.6747 154.976C76.2427 155.392 75.6787 155.896 74.9827 156.488H78.5227V157.88H72.5947V156.632L73.2187 156.104Z" fill="white"/>
<path d="M72.0682 202.556C72.1082 201.756 72.3882 201.14 72.9082 200.708C73.4362 200.268 74.1282 200.048 74.9842 200.048C75.5682 200.048 76.0682 200.152 76.4842 200.36C76.9002 200.56 77.2122 200.836 77.4202 201.188C77.6362 201.532 77.7442 201.924 77.7442 202.364C77.7442 202.868 77.6122 203.296 77.3482 203.648C77.0922 203.992 76.7842 204.224 76.4242 204.344V204.392C76.8882 204.536 77.2482 204.792 77.5042 205.16C77.7682 205.528 77.9002 206 77.9002 206.576C77.9002 207.056 77.7882 207.484 77.5642 207.86C77.3482 208.236 77.0242 208.532 76.5922 208.748C76.1682 208.956 75.6562 209.06 75.0562 209.06C74.1522 209.06 73.4162 208.832 72.8482 208.376C72.2802 207.92 71.9802 207.248 71.9482 206.36H73.5802C73.5962 206.752 73.7282 207.068 73.9762 207.308C74.2322 207.54 74.5802 207.656 75.0202 207.656C75.4282 207.656 75.7402 207.544 75.9562 207.32C76.1802 207.088 76.2922 206.792 76.2922 206.432C76.2922 205.952 76.1402 205.608 75.8362 205.4C75.5322 205.192 75.0602 205.088 74.4202 205.088H74.0722V203.708H74.4202C75.5562 203.708 76.1242 203.328 76.1242 202.568C76.1242 202.224 76.0202 201.956 75.8122 201.764C75.6122 201.572 75.3202 201.476 74.9362 201.476C74.5602 201.476 74.2682 201.58 74.0602 201.788C73.8602 201.988 73.7442 202.244 73.7122 202.556H72.0682Z" fill="white"/>
<rect x="115" y="92" width="54" height="4" rx="2" fill="url(#paint3_linear_126_13607)"/>
<rect x="115" y="143" width="54" height="3" rx="1.5" fill="url(#paint4_linear_126_13607)"/>
<rect x="115" y="194" width="54" height="3" rx="1.5" fill="url(#paint5_linear_126_13607)"/>
<rect x="115" y="101" width="45" height="4" rx="2" fill="url(#paint6_linear_126_13607)"/>
<rect x="115" y="151" width="45" height="3" rx="1.5" fill="url(#paint7_linear_126_13607)"/>
<rect x="115" y="202" width="45" height="3" rx="1.5" fill="url(#paint8_linear_126_13607)"/>
<rect x="115" y="110" width="54" height="3" rx="1.5" fill="url(#paint9_linear_126_13607)"/>
<rect x="115" y="161" width="54" height="3" rx="1.5" fill="url(#paint10_linear_126_13607)"/>
<rect x="115" y="211" width="54" height="3" rx="1.5" fill="url(#paint11_linear_126_13607)"/>
<path d="M111 93L108.333 96L107 94.5" stroke="#DBDEE1" stroke-width="1.5" stroke-linecap="round"/>
<path d="M111 101L108.333 104L107 102.5" stroke="#DBDEE1" stroke-width="1.5" stroke-linecap="round"/>
<path d="M111 110L108.333 113L107 111.5" stroke="#DBDEE1" stroke-width="1.5" stroke-linecap="round"/>
<defs>
<filter id="filter0_d_126_13607" x="32" y="65" width="227" height="85" filterUnits="userSpaceOnUse" color-interpolation-filters="sRGB">
<feFlood flood-opacity="0" result="BackgroundImageFix"/>
<feColorMatrix in="SourceAlpha" type="matrix" values="0 0 0 0 0 0 0 0 0 0 0 0 0 0 0 0 0 0 127 0" result="hardAlpha"/>
<feOffset dy="4"/>
<feGaussianBlur stdDeviation="10"/>
<feComposite in2="hardAlpha" operator="out"/>
<feColorMatrix type="matrix" values="0 0 0 0 0.0156863 0 0 0 0 0.0666667 0 0 0 0 0.117647 0 0 0 0.05 0"/>
<feBlend mode="normal" in2="BackgroundImageFix" result="effect1_dropShadow_126_13607"/>
<feBlend mode="normal" in="SourceGraphic" in2="effect1_dropShadow_126_13607" result="shape"/>
</filter>
<filter id="filter1_d_126_13607" x="32" y="115" width="227" height="85" filterUnits="userSpaceOnUse" color-interpolation-filters="sRGB">
<feFlood flood-opacity="0" result="BackgroundImageFix"/>
<feColorMatrix in="SourceAlpha" type="matrix" values="0 0 0 0 0 0 0 0 0 0 0 0 0 0 0 0 0 0 127 0" result="hardAlpha"/>
<feOffset dy="4"/>
<feGaussianBlur stdDeviation="10"/>
<feComposite in2="hardAlpha" operator="out"/>
<feColorMatrix type="matrix" values="0 0 0 0 0.0156863 0 0 0 0 0.0666667 0 0 0 0 0.117647 0 0 0 0.05 0"/>
<feBlend mode="normal" in2="BackgroundImageFix" result="effect1_dropShadow_126_13607"/>
<feBlend mode="normal" in="SourceGraphic" in2="effect1_dropShadow_126_13607" result="shape"/>
</filter>
<filter id="filter2_d_126_13607" x="32" y="166" width="227" height="84" filterUnits="userSpaceOnUse" color-interpolation-filters="sRGB">
<feFlood flood-opacity="0" result="BackgroundImageFix"/>
<feColorMatrix in="SourceAlpha" type="matrix" values="0 0 0 0 0 0 0 0 0 0 0 0 0 0 0 0 0 0 127 0" result="hardAlpha"/>
<feOffset dy="4"/>
<feGaussianBlur stdDeviation="10"/>
<feComposite in2="hardAlpha" operator="out"/>
<feColorMatrix type="matrix" values="0 0 0 0 0.0156863 0 0 0 0 0.0666667 0 0 0 0 0.117647 0 0 0 0.05 0"/>
<feBlend mode="normal" in2="BackgroundImageFix" result="effect1_dropShadow_126_13607"/>
<feBlend mode="normal" in="SourceGraphic" in2="effect1_dropShadow_126_13607" result="shape"/>
</filter>
<linearGradient id="paint0_linear_126_13607" x1="62" y1="90" x2="86.1102" y2="90.4405" gradientUnits="userSpaceOnUse">
<stop stop-color="#C49F37"/>
<stop offset="1" stop-color="#EECE71"/>
</linearGradient>
<linearGradient id="paint1_linear_126_13607" x1="62" y1="141" x2="88.3853" y2="141.472" gradientUnits="userSpaceOnUse">
<stop stop-color="#A5A3A0"/>
<stop offset="1" stop-color="#DEDCD5"/>
</linearGradient>
<linearGradient id="paint2_linear_126_13607" x1="62" y1="191" x2="88.3855" y2="191.441" gradientUnits="userSpaceOnUse">
<stop stop-color="#C48337"/>
<stop offset="1" stop-color="#EEBA71"/>
</linearGradient>
<linearGradient id="paint3_linear_126_13607" x1="115" y1="96" x2="169" y2="96" gradientUnits="userSpaceOnUse">
<stop stop-color="#DBDEE1"/>
<stop offset="1" stop-color="#DBDEE1" stop-opacity="0"/>
</linearGradient>
<linearGradient id="paint4_linear_126_13607" x1="115" y1="146" x2="169" y2="146" gradientUnits="userSpaceOnUse">
<stop stop-color="#DBDEE1"/>
<stop offset="1" stop-color="#DBDEE1" stop-opacity="0"/>
</linearGradient>
<linearGradient id="paint5_linear_126_13607" x1="115" y1="197" x2="169" y2="197" gradientUnits="userSpaceOnUse">
<stop stop-color="#DBDEE1"/>
<stop offset="1" stop-color="#DBDEE1" stop-opacity="0"/>
</linearGradient>
<linearGradient id="paint6_linear_126_13607" x1="115" y1="105" x2="160" y2="105" gradientUnits="userSpaceOnUse">
<stop stop-color="#DBDEE1"/>
<stop offset="1" stop-color="#DBDEE1" stop-opacity="0"/>
</linearGradient>
<linearGradient id="paint7_linear_126_13607" x1="115" y1="154" x2="160" y2="154" gradientUnits="userSpaceOnUse">
<stop stop-color="#DBDEE1"/>
<stop offset="1" stop-color="#DBDEE1" stop-opacity="0"/>
</linearGradient>
<linearGradient id="paint8_linear_126_13607" x1="115" y1="205" x2="160" y2="205" gradientUnits="userSpaceOnUse">
<stop stop-color="#DBDEE1"/>
<stop offset="1" stop-color="#DBDEE1" stop-opacity="0"/>
</linearGradient>
<linearGradient id="paint9_linear_126_13607" x1="115" y1="113" x2="169" y2="113" gradientUnits="userSpaceOnUse">
<stop stop-color="#DBDEE1"/>
<stop offset="1" stop-color="#DBDEE1" stop-opacity="0"/>
</linearGradient>
<linearGradient id="paint10_linear_126_13607" x1="115" y1="164" x2="169" y2="164" gradientUnits="userSpaceOnUse">
<stop stop-color="#DBDEE1"/>
<stop offset="1" stop-color="#DBDEE1" stop-opacity="0"/>
</linearGradient>
<linearGradient id="paint11_linear_126_13607" x1="115" y1="214" x2="169" y2="214" gradientUnits="userSpaceOnUse">
<stop stop-color="#DBDEE1"/>
<stop offset="1" stop-color="#DBDEE1" stop-opacity="0"/>
</linearGradient>
</defs>
</svg>
