<svg xmlns="http://www.w3.org/2000/svg" width="24" height="24" viewBox="0 0 24 24" fill="none">
  <path d="M13.0278 2.00123C13.7576 1.99843 14.4873 2.00576 15.2168 2.02323L15.4108 2.03023C15.6348 2.03823 15.8558 2.04823 16.1228 2.06023C17.1868 2.11023 17.9128 2.27823 18.5498 2.52523C19.2098 2.77923 19.7658 3.12323 20.3218 3.67923C20.8302 4.17884 21.2237 4.78318 21.4748 5.45023C21.7218 6.08723 21.8898 6.81423 21.9398 7.87823C21.9518 8.14423 21.9618 8.36623 21.9698 8.59023L21.9758 8.78423C21.9936 9.51342 22.0013 10.2428 21.9988 10.9722L21.9998 11.7182V13.0282C22.0023 13.758 21.9946 14.4877 21.9768 15.2172L21.9708 15.4112C21.9628 15.6352 21.9528 15.8562 21.9408 16.1232C21.8908 17.1872 21.7208 17.9132 21.4748 18.5502C21.2245 19.218 20.8309 19.8228 20.3218 20.3222C19.8218 20.8306 19.2172 21.224 18.5498 21.4752C17.9128 21.7222 17.1868 21.8902 16.1228 21.9402C15.8558 21.9522 15.6348 21.9622 15.4108 21.9702L15.2168 21.9762C14.4873 21.994 13.7576 22.0017 13.0278 21.9992L12.2818 22.0002H10.9728C10.2431 22.0027 9.51337 21.995 8.78384 21.9772L8.58984 21.9712C8.35245 21.9626 8.11512 21.9526 7.87784 21.9412C6.81384 21.8912 6.08784 21.7212 5.44984 21.4752C4.78253 21.2246 4.17808 20.8311 3.67884 20.3222C3.16989 19.8225 2.77607 19.2178 2.52484 18.5502C2.27784 17.9132 2.10984 17.1872 2.05984 16.1232C2.04871 15.8859 2.03871 15.6486 2.02984 15.4112L2.02484 15.2172C2.00641 14.4877 1.99807 13.758 1.99984 13.0282V10.9722C1.99705 10.2428 2.00439 9.51343 2.02184 8.78423L2.02884 8.59023C2.03684 8.36623 2.04684 8.14423 2.05884 7.87823C2.10884 6.81323 2.27684 6.08823 2.52384 5.45023C2.77522 4.78285 3.16981 4.17868 3.67984 3.68023C4.17874 3.17098 4.78281 2.7768 5.44984 2.52523C6.08784 2.27823 6.81284 2.11023 7.87784 2.06023L8.58984 2.03023L8.78384 2.02523C9.51303 2.0068 10.2424 1.99847 10.9718 2.00023L13.0278 2.00123ZM11.9998 7.00123C11.3374 6.99186 10.6796 7.11425 10.0648 7.3613C9.45004 7.60834 8.89049 7.97511 8.41869 8.44029C7.94689 8.90546 7.57224 9.45977 7.31653 10.071C7.06082 10.6822 6.92914 11.3382 6.92914 12.0007C6.92914 12.6633 7.06082 13.3192 7.31653 13.9305C7.57224 14.5417 7.94689 15.096 8.41869 15.5612C8.89049 16.0264 9.45004 16.3931 10.0648 16.6402C10.6796 16.8872 11.3374 17.0096 11.9998 17.0002C13.3259 17.0002 14.5977 16.4734 15.5354 15.5358C16.4731 14.5981 16.9998 13.3263 16.9998 12.0002C16.9998 10.6741 16.4731 9.40238 15.5354 8.4647C14.5977 7.52701 13.3259 7.00123 11.9998 7.00123ZM11.9998 9.00123C12.3984 8.99389 12.7943 9.06603 13.1646 9.21344C13.535 9.36085 13.8722 9.58057 14.1566 9.85978C14.4411 10.139 14.667 10.4721 14.8213 10.8396C14.9756 11.2071 15.055 11.6016 15.0551 12.0002C15.0552 12.3988 14.9758 12.7934 14.8217 13.1609C14.6675 13.5285 14.4417 13.8617 14.1573 14.141C13.873 14.4203 13.5358 14.6401 13.1656 14.7876C12.7953 14.9352 12.3994 15.0074 12.0008 15.0002C11.2052 15.0002 10.4421 14.6842 9.87952 14.1216C9.31692 13.5589 9.00084 12.7959 9.00084 12.0002C9.00084 11.2046 9.31692 10.4415 9.87952 9.87891C10.4421 9.3163 11.2052 9.00023 12.0008 9.00023L11.9998 9.00123ZM17.2498 5.50123C16.9272 5.51414 16.6221 5.65138 16.3984 5.8842C16.1748 6.11702 16.0498 6.42736 16.0498 6.75023C16.0498 7.0731 16.1748 7.38344 16.3984 7.61626C16.6221 7.84908 16.9272 7.98632 17.2498 7.99923C17.5814 7.99923 17.8993 7.86753 18.1337 7.63311C18.3682 7.39869 18.4998 7.08075 18.4998 6.74923C18.4998 6.41771 18.3682 6.09977 18.1337 5.86535C17.8993 5.63093 17.5814 5.49923 17.2498 5.49923V5.50123Z" fill="#ffffff79"/>
</svg>