<svg width="50" height="50" viewBox="0 0 50 50" fill="none" xmlns="http://www.w3.org/2000/svg">
<g id="21 1">
<path id="Vector" d="M35.4166 37.4999C35.9691 37.4999 36.499 37.2805 36.8897 36.8898C37.2804 36.4991 37.4999 35.9691 37.4999 35.4166V14.5833C37.4999 14.0307 37.2804 13.5008 36.8897 13.1101C36.499 12.7194 35.9691 12.4999 35.4166 12.4999C34.8641 12.4999 34.3342 12.7194 33.9435 13.1101C33.5528 13.5008 33.3333 14.0307 33.3333 14.5833V35.4166C33.3333 35.9691 33.5528 36.4991 33.9435 36.8898C34.3342 37.2805 34.8641 37.4999 35.4166 37.4999ZM37.4999 10.4166H39.5833V12.4999C39.5833 13.0525 39.8028 13.5824 40.1935 13.9731C40.5842 14.3638 41.1141 14.5833 41.6666 14.5833C42.2191 14.5833 42.749 14.3638 43.1397 13.9731C43.5304 13.5824 43.7499 13.0525 43.7499 12.4999V10.4166H45.8333C46.3858 10.4166 46.9157 10.1971 47.3064 9.80642C47.6971 9.41572 47.9166 8.88581 47.9166 8.33328C47.9166 7.78074 47.6971 7.25084 47.3064 6.86014C46.9157 6.46944 46.3858 6.24995 45.8333 6.24995H43.7499V4.16661C43.7499 3.61408 43.5304 3.08417 43.1397 2.69347C42.749 2.30277 42.2191 2.08328 41.6666 2.08328C41.1141 2.08328 40.5842 2.30277 40.1935 2.69347C39.8028 3.08417 39.5833 3.61408 39.5833 4.16661V6.24995H37.4999C36.9474 6.24995 36.4175 6.46944 36.0268 6.86014C35.6361 7.25084 35.4166 7.78074 35.4166 8.33328C35.4166 8.88581 35.6361 9.41572 36.0268 9.80642C36.4175 10.1971 36.9474 10.4166 37.4999 10.4166ZM44.9999 18.7499C44.7318 18.8046 44.477 18.9116 44.2502 19.0647C44.0235 19.2179 43.8291 19.4142 43.6781 19.6425C43.5272 19.8708 43.4228 20.1265 43.3708 20.3952C43.3187 20.6639 43.3202 20.9402 43.3749 21.2083C44.1883 25.1587 43.7062 29.2661 42.0002 32.9208C40.2941 36.5755 37.455 39.5827 33.9044 41.4959C30.3537 43.4091 26.2808 44.1264 22.2901 43.5413C18.2995 42.9562 14.6039 41.0999 11.7519 38.2479C8.89996 35.396 7.04365 31.7004 6.45854 27.7097C5.87343 23.7191 6.59073 19.6461 8.50395 16.0955C10.4172 12.5448 13.4243 9.70577 17.079 7.99971C20.7337 6.29364 24.8412 5.81153 28.7916 6.62495C29.3441 6.73545 29.9179 6.62194 30.3868 6.30938C30.8556 5.99682 31.1811 5.51081 31.2916 4.95828C31.4021 4.40574 31.2886 3.83194 30.976 3.3631C30.6635 2.89426 30.1775 2.56879 29.6249 2.45828C28.1003 2.17422 26.5504 2.04855 24.9999 2.08328C20.4674 2.08328 16.0367 3.42732 12.2681 5.94543C8.49948 8.46355 5.5622 12.0426 3.82769 16.2301C2.09318 20.4176 1.63935 25.0254 2.5236 29.4708C3.40784 33.9162 5.59045 37.9995 8.7954 41.2045C12.0004 44.4094 16.0837 46.592 20.5291 47.4763C24.9745 48.3605 29.5823 47.9067 33.7698 46.1722C37.9572 44.4377 41.5363 41.5004 44.0544 37.7318C46.5726 33.9631 47.9166 29.5324 47.9166 24.9999C47.921 23.4605 47.7674 21.9247 47.4583 20.4166C47.4084 20.1447 47.3049 19.8855 47.1538 19.654C47.0027 19.4225 46.807 19.2234 46.5782 19.0683C46.3494 18.9132 46.092 18.8051 45.8211 18.7505C45.5501 18.6958 45.271 18.6956 44.9999 18.7499ZM20.8333 27.0833H22.9166C24.5742 27.0833 26.1639 26.4248 27.336 25.2527C28.5081 24.0806 29.1666 22.4909 29.1666 20.8333V18.7499C29.1666 17.0923 28.5081 15.5026 27.336 14.3305C26.1639 13.1584 24.5742 12.4999 22.9166 12.4999H20.8333C19.1757 12.4999 17.5859 13.1584 16.4138 14.3305C15.2417 15.5026 14.5833 17.0923 14.5833 18.7499C14.5833 19.3025 14.8028 19.8324 15.1935 20.2231C15.5842 20.6138 16.1141 20.8333 16.6666 20.8333C17.2191 20.8333 17.749 20.6138 18.1397 20.2231C18.5304 19.8324 18.7499 19.3025 18.7499 18.7499C18.7499 18.1974 18.9694 17.6675 19.3601 17.2768C19.7508 16.8861 20.2807 16.6666 20.8333 16.6666H22.9166C23.4691 16.6666 23.999 16.8861 24.3897 17.2768C24.7804 17.6675 24.9999 18.1974 24.9999 18.7499V20.8333C24.9999 21.3858 24.7804 21.9157 24.3897 22.3064C23.999 22.6971 23.4691 22.9166 22.9166 22.9166H20.8333C19.1757 22.9166 17.5859 23.5751 16.4138 24.7472C15.2417 25.9193 14.5833 27.509 14.5833 29.1666V35.4166C14.5833 35.9691 14.8028 36.4991 15.1935 36.8898C15.5842 37.2805 16.1141 37.4999 16.6666 37.4999H27.0833C27.6358 37.4999 28.1657 37.2805 28.5564 36.8898C28.9471 36.4991 29.1666 35.9691 29.1666 35.4166C29.1666 34.8641 28.9471 34.3342 28.5564 33.9435C28.1657 33.5528 27.6358 33.3333 27.0833 33.3333H18.7499V29.1666C18.7499 28.6141 18.9694 28.0842 19.3601 27.6935C19.7508 27.3028 20.2807 27.0833 20.8333 27.0833Z" fill="url(#paint0_linear_54_383)"/>
</g>
<defs>
<linearGradient id="paint0_linear_54_383" x1="25" y1="2.078" x2="25" y2="47.917" gradientUnits="userSpaceOnUse">
<stop stop-color="#F12711"/>
<stop offset="1" stop-color="#F5AE19"/>
</linearGradient>
</defs>
</svg>
