<svg xmlns="http://www.w3.org/2000/svg" width="18" height="18" viewBox="0 0 18 18" fill="none">
  <g clip-path="url(#clip0_54_3234)">
    <path d="M8.961 18.0067L8.6955 17.889C8.4 17.7592 1.5 14.643 1.5 8.99996V4.10696C1.50026 3.63609 1.64909 3.17731 1.92528 2.79594C2.20147 2.41458 2.59095 2.13008 3.03825 1.98296L9 0.00671387L14.9618 1.98296C15.409 2.13008 15.7985 2.41458 16.0747 2.79594C16.3509 3.17731 16.4997 3.63609 16.5 4.10696V8.99996C16.5 15.4327 9.534 17.8162 9.237 17.9152L8.961 18.0067ZM9 1.57946L3.513 3.39896C3.36371 3.44773 3.23368 3.54248 3.14153 3.66966C3.04938 3.79684 2.99984 3.94991 3 4.10696V8.99996C3 13.1205 7.83 15.7935 9.03525 16.3957C10.2382 15.912 15 13.6972 15 8.99996V4.10696C15.0002 3.94991 14.9506 3.79684 14.8585 3.66966C14.7663 3.54248 14.6363 3.44773 14.487 3.39896L9 1.57946Z" fill="#04111E"/>
    <path d="M8.33331 10.9065H8.30856C8.11873 10.9036 7.93146 10.8622 7.75808 10.7849C7.58469 10.7075 7.42879 10.5958 7.29981 10.4565L5.57031 8.65651L6.65106 7.62001L8.33406 9.37501L12.2198 5.48926L13.2803 6.54976L9.33456 10.4955C9.20314 10.6268 9.04698 10.7308 8.87511 10.8013C8.70324 10.8719 8.51909 10.9076 8.33331 10.9065Z" fill="#04111E"/>
  </g>
  <defs>
    <clipPath id="clip0_54_3234">
      <rect width="18" height="18" fill="white"/>
    </clipPath>
  </defs>
</svg>