<svg xmlns="http://www.w3.org/2000/svg" width="9" height="9" viewBox="0 0 9 9" fill="none">
  <path d="M4.0266 0.39268C4.18028 -0.0594308 4.81972 -0.0594304 4.9734 0.39268L5.68311 2.48058C5.75203 2.68331 5.94238 2.81966 6.15651 2.81966H8.40349C8.8933 2.81966 9.091 3.45094 8.6887 3.73034L6.91025 4.96544C6.72705 5.09267 6.65028 5.32586 6.72206 5.53704L7.41043 7.56213C7.56567 8.01885 7.04803 8.40888 6.65182 8.13373L4.78521 6.83739C4.61372 6.7183 4.38628 6.7183 4.21479 6.83739L2.34818 8.13373C1.95197 8.40888 1.43433 8.01885 1.58957 7.56213L2.27794 5.53704C2.34972 5.32586 2.27295 5.09267 2.08975 4.96544L0.311301 3.73034C-0.0910046 3.45094 0.106702 2.81966 0.59651 2.81966H2.84349C3.05762 2.81966 3.24797 2.68331 3.31689 2.48058L4.0266 0.39268Z" fill="#088B33"/>
</svg>