<svg width="18" height="18" viewBox="0 0 18 18" fill="none" xmlns="http://www.w3.org/2000/svg">
  <g opacity="0.8" clip-path="url(#clip0_54_21709)">
    <path d="M15.8334 7.33333C15.6566 7.33333 15.487 7.40357 15.362 7.5286C15.237 7.65362 15.1667 7.82319 15.1667 8C15.1721 9.55018 14.639 11.0541 13.6584 12.2548C12.6778 13.4554 11.3107 14.2782 9.79065 14.5825C8.27063 14.8869 6.69209 14.6538 5.32485 13.9232C3.95761 13.1927 2.88655 12.0099 2.29475 10.5771C1.70294 9.14433 1.62713 7.55049 2.08027 6.06801C2.53341 4.58552 3.48737 3.30644 4.77909 2.44938C6.07081 1.59232 7.62011 1.2105 9.16216 1.36918C10.7042 1.52786 12.1433 2.21718 13.2334 3.31933C13.2115 3.32531 13.1892 3.32999 13.1667 3.33333H11.1667C10.9899 3.33333 10.8203 3.40357 10.6953 3.5286C10.5703 3.65362 10.5001 3.82319 10.5001 4C10.5001 4.17681 10.5703 4.34638 10.6953 4.47141C10.8203 4.59643 10.9899 4.66667 11.1667 4.66667H13.1667C13.6972 4.66667 14.2059 4.45595 14.5809 4.08088C14.956 3.70581 15.1667 3.1971 15.1667 2.66667V0.666667C15.1667 0.489856 15.0965 0.320286 14.9715 0.195262C14.8464 0.0702379 14.6769 0 14.5001 0C14.3232 0 14.1537 0.0702379 14.0287 0.195262C13.9036 0.320286 13.8334 0.489856 13.8334 0.666667V2.04333C12.4684 0.82302 10.726 0.108111 8.89729 0.0180684C7.06858 -0.0719742 5.26436 0.468305 3.78611 1.54862C2.30787 2.62894 1.24515 4.18386 0.775543 5.95354C0.305937 7.72322 0.457889 9.60046 1.20601 11.2716C1.95413 12.9427 3.25309 14.3064 4.88585 15.1349C6.5186 15.9634 8.38623 16.2065 10.1767 15.8235C11.9671 15.4405 13.5718 14.4547 14.7228 13.0307C15.8737 11.6067 16.5011 9.83093 16.5001 8C16.5001 7.82319 16.4298 7.65362 16.3048 7.5286C16.1798 7.40357 16.0102 7.33333 15.8334 7.33333Z" fill="white"/>
    <path d="M8.50016 4C8.32335 4 8.15378 4.07024 8.02876 4.19526C7.90373 4.32029 7.8335 4.48986 7.8335 4.66667V8C7.83353 8.1768 7.9038 8.34634 8.02883 8.47133L10.0288 10.4713C10.1546 10.5928 10.323 10.66 10.4978 10.6584C10.6726 10.6569 10.8398 10.5868 10.9634 10.4632C11.087 10.3396 11.1571 10.1724 11.1586 9.9976C11.1601 9.8228 11.0929 9.6544 10.9715 9.52867L9.16683 7.724V4.66667C9.16683 4.48986 9.09659 4.32029 8.97157 4.19526C8.84654 4.07024 8.67697 4 8.50016 4Z" fill="white"/>
  </g>
  <defs>
    <clipPath id="clip0_54_21709">
<rect width="18" height="18" fill="white"/>

    </clipPath>
  </defs>
</svg>