<svg xmlns="http://www.w3.org/2000/svg" width="50" height="41" viewBox="0 0 50 41" fill="none">
  <path d="M45.8673 18.811C47.4117 19.5275 47.4117 21.723 45.8673 22.4395L15.2862 36.6274C13.9606 37.2424 12.4445 36.2744 12.4445 34.8131L12.4445 6.43738C12.4445 4.97608 13.9606 4.00813 15.2862 4.62312L45.8673 18.811Z" fill="white"/>
  <mask id="mask0_8_1897" style="mask-type:alpha" maskUnits="userSpaceOnUse" x="12" y="4" width="36" height="33">
    <path d="M45.8673 18.811C47.4117 19.5275 47.4117 21.723 45.8673 22.4395L15.2862 36.6274C13.9606 37.2424 12.4445 36.2744 12.4445 34.8131L12.4445 6.43738C12.4445 4.97608 13.9606 4.00813 15.2862 4.62312L45.8673 18.811Z" fill="#111111"/>
  </mask>
  <g mask="url(#mask0_8_1897)">
    <rect x="12.4443" y="-2.48584" width="5.33333" height="45.3333" fill="#FF5758"/>
  </g>
  <path d="M26.6355 16.3109C26.7852 15.8503 27.4369 15.8503 27.5866 16.3109L28.296 18.4943C28.3629 18.7003 28.5549 18.8398 28.7715 18.8398L31.0672 18.8398C31.5515 18.8398 31.7529 19.4596 31.3611 19.7443L29.5038 21.0936C29.3286 21.221 29.2552 21.4466 29.3222 21.6527L30.0316 23.836C30.1813 24.2966 29.654 24.6797 29.2622 24.395L27.4049 23.0456C27.2297 22.9183 26.9924 22.9183 26.8171 23.0456L24.9599 24.395C24.568 24.6797 24.0408 24.2966 24.1905 23.836L24.8999 21.6527C24.9668 21.4466 24.8935 21.221 24.7182 21.0936L22.861 19.7443C22.4691 19.4596 22.6705 18.8398 23.1549 18.8398L25.4506 18.8398C25.6672 18.8398 25.8592 18.7003 25.9261 18.4943L26.6355 16.3109Z" fill="#0066EC"/>
</svg>