<svg xmlns="http://www.w3.org/2000/svg" width="138" height="38" viewBox="0 0 138 38" fill="none">
  <g opacity="0.5">
    <path d="M49.7463 23.0003V10.1663H47.6327V23.0003H49.7463Z" fill="white"/>
    <path d="M51.0399 18.7221C51.0399 21.3441 52.807 23.2071 55.4924 23.2071C58.1777 23.2071 59.9448 21.3441 59.9448 18.7221C59.9448 16.1001 58.1777 14.2371 55.4924 14.2371C52.807 14.2371 51.0399 16.1001 51.0399 18.7221ZM53.1709 18.7221C53.1709 17.1868 54.0891 16.1173 55.4924 16.1173C56.8957 16.1173 57.8139 17.1868 57.8139 18.7221C57.8139 20.2401 56.8957 21.3268 55.4924 21.3268C54.0891 21.3268 53.1709 20.2401 53.1709 18.7221Z" fill="white"/>
    <path d="M60.6553 18.5491C60.6553 21.0331 62.2665 22.8271 64.6746 22.8271C65.922 22.8271 66.9961 22.3269 67.5332 21.4989V22.9479C67.5332 24.3451 66.6496 25.2766 65.177 25.2766C63.8603 25.2766 62.9595 24.6384 62.8382 23.5171H60.7072C60.9844 25.7424 62.6996 27.1914 65.0557 27.1914C67.8277 27.1914 69.5948 25.3801 69.5948 22.5684V14.4781H67.7237L67.6025 15.6339C67.0827 14.7369 66.0086 14.2021 64.7439 14.2021C62.3011 14.2021 60.6553 16.0479 60.6553 18.5491ZM62.8035 18.4974C62.8035 17.0829 63.7044 16.0479 65.0384 16.0479C66.4937 16.0479 67.4639 17.1001 67.4639 18.4974C67.4639 19.9119 66.4937 20.9986 65.0384 20.9986C63.7217 20.9986 62.8035 19.9291 62.8035 18.4974Z" fill="white"/>
    <path d="M70.6416 18.7221C70.6416 21.3441 72.4087 23.2071 75.094 23.2071C77.7794 23.2071 79.5465 21.3441 79.5465 18.7221C79.5465 16.1001 77.7794 14.2371 75.094 14.2371C72.4087 14.2371 70.6416 16.1001 70.6416 18.7221ZM72.7725 18.7221C72.7725 17.1868 73.6907 16.1173 75.094 16.1173C76.4973 16.1173 77.4155 17.1868 77.4155 18.7221C77.4155 20.2401 76.4973 21.3268 75.094 21.3268C73.6907 21.3268 72.7725 20.2401 72.7725 18.7221Z" fill="white"/>
    <path d="M81.8334 12.7364C82.5264 12.7364 83.0981 12.1844 83.0981 11.4771C83.0981 10.7871 82.5264 10.2351 81.8334 10.2351C81.1231 10.2351 80.5861 10.7871 80.5861 11.4771C80.5861 12.1844 81.1231 12.7364 81.8334 12.7364ZM80.7766 23.0001H82.8902V14.4786H80.7766V23.0001Z" fill="white"/>
    <path d="M84.7419 26.9502H86.8037V21.827C87.3408 22.7067 88.5015 23.2242 89.7836 23.2242C92.313 23.2242 93.8202 21.2922 93.7856 18.6357C93.7336 15.962 92.1917 14.2197 89.7662 14.2197C88.4669 14.2197 87.2888 14.789 86.7691 15.7722L86.6478 14.4785H84.7419V26.9502ZM86.8904 18.7392C86.8904 17.204 87.8259 16.1345 89.2985 16.1345C90.7711 16.1345 91.6546 17.2212 91.6546 18.7392C91.6546 20.2572 90.7711 21.3267 89.2985 21.3267C87.8259 21.3267 86.8904 20.2745 86.8904 18.7392Z" fill="white"/>
    <path d="M94.3223 20.447C94.3916 22.1375 95.7082 23.2242 97.7526 23.2242C99.7622 23.2242 101.131 22.1547 101.131 20.4987C101.131 19.274 100.369 18.446 98.9653 18.101L97.458 17.7387C96.817 17.5662 96.3839 17.342 96.3839 16.79C96.3839 16.2035 96.8517 15.7895 97.614 15.7895C98.4109 15.7895 98.9306 16.238 98.9306 16.9797H100.854C100.784 15.2892 99.5197 14.2197 97.6659 14.2197C95.8295 14.2197 94.4609 15.2892 94.4609 16.9107C94.4609 18.0147 95.1019 18.929 96.7477 19.3602L98.2376 19.7397C98.792 19.895 99.1385 20.1537 99.1385 20.6367C99.1385 21.3095 98.4975 21.62 97.7179 21.62C96.7824 21.62 96.2453 21.1887 96.2453 20.447H94.3223Z" fill="white"/>
    <path d="M105.515 23.2245C106.675 23.2245 107.784 22.6898 108.287 21.8963L108.425 23.0003H110.4V14.4788H108.287V18.9465C108.287 20.4818 107.698 21.3443 106.312 21.3443C105.237 21.3443 104.493 20.8268 104.493 19.0673V14.4788H102.379V19.809C102.379 21.8445 103.488 23.2245 105.515 23.2245Z" fill="white"/>
    <path d="M114.379 23V18.101C114.379 16.721 115.194 16.0655 116.198 16.0655C117.203 16.0655 117.862 16.7037 117.862 17.9112V23H119.923V18.1182C119.923 16.721 120.72 16.0655 121.725 16.0655C122.747 16.0655 123.406 16.7037 123.406 17.9112V23H125.45V17.4282C125.45 15.4617 124.358 14.2197 122.279 14.2197C120.98 14.2197 119.958 14.8407 119.542 15.8412C119.074 14.8407 118.139 14.2197 116.718 14.2197C115.713 14.2197 114.812 14.6855 114.31 15.4445L114.206 14.4785H112.266V23H114.379Z" fill="white"/>
    <path d="M109.312 30.6159C109.627 30.6159 109.901 30.3519 109.901 30.0384C109.901 29.7166 109.627 29.4526 109.312 29.4526C108.989 29.4526 108.716 29.7166 108.716 30.0384C108.716 30.3519 108.989 30.6159 109.312 30.6159Z" fill="white"/>
    <path d="M110.509 28.4871C110.509 29.7493 111.288 30.5991 112.423 30.5991C113.401 30.5991 114.146 30.0133 114.304 29.1388H113.558C113.417 29.6256 112.986 29.9143 112.472 29.9143C111.743 29.9143 111.279 29.3533 111.279 28.4788C111.279 27.5878 111.768 27.0433 112.489 27.0433C112.986 27.0433 113.417 27.3073 113.55 27.8271H114.295C114.163 26.9443 113.467 26.3503 112.497 26.3503C111.321 26.3503 110.509 27.2166 110.509 28.4871Z" fill="white"/>
    <path d="M114.597 28.4791C114.597 29.6919 115.425 30.5994 116.668 30.5994C117.911 30.5994 118.74 29.6919 118.74 28.4791C118.74 27.2664 117.911 26.3589 116.668 26.3589C115.425 26.3589 114.597 27.2664 114.597 28.4791ZM115.384 28.4791C115.384 27.6541 115.889 27.0519 116.668 27.0519C117.447 27.0519 117.952 27.6541 117.952 28.4791C117.952 29.3041 117.447 29.9064 116.668 29.9064C115.889 29.9064 115.384 29.3041 115.384 28.4791Z" fill="white"/>
    <path d="M120.184 30.5086V28.0831C120.184 27.4479 120.582 27.0354 121.162 27.0354C121.717 27.0354 122.065 27.3901 122.065 28.0254V30.5086H122.827V28.0914C122.827 27.4479 123.217 27.0354 123.805 27.0354C124.352 27.0354 124.7 27.3901 124.7 28.0254V30.5086H125.454V27.8604C125.454 26.9281 124.907 26.3589 123.979 26.3589C123.349 26.3589 122.86 26.6641 122.662 27.1591C122.454 26.6641 121.999 26.3589 121.336 26.3589C120.83 26.3589 120.383 26.5899 120.159 26.9859L120.101 26.4744H119.405V30.5086H120.184Z" fill="white"/>
    <path fill-rule="evenodd" clip-rule="evenodd" d="M12.5068 18.8262L12.5083 18.6759L12.5113 18.5256L12.5158 18.3752L12.5219 18.2248L12.5296 18.0744L12.5388 17.9241L12.5495 17.7738L12.5618 17.6235L12.5757 17.4732L12.5911 17.323L12.6081 17.173L12.6266 17.023L12.6466 16.8732L12.6683 16.7235L12.6914 16.5739L12.7161 16.4246L12.7424 16.2753L12.7702 16.1264L12.7996 15.9776L12.8305 15.829L12.8629 15.6807L12.8969 15.5326L12.9324 15.3849L12.9694 15.2373L13.008 15.0902L13.0481 14.9433L13.0898 14.7967L13.133 14.6505L13.1776 14.5047L13.2239 14.3593L13.2716 14.2143L13.3208 14.0696L13.3716 13.9254L13.4238 13.7816L13.4776 13.6383L13.5328 13.4954L13.5895 13.353L13.6478 13.2111L13.7075 13.0698L13.7687 12.929L13.8313 12.7887L13.8955 12.6489L13.9611 12.5098L14.0281 12.3712L14.0966 12.2332L14.1666 12.0959L14.238 11.9592L14.3108 11.823L14.385 11.6877L14.4607 11.5529L14.5378 11.4188L14.6163 11.2854L14.6962 11.1528L14.7776 11.0208L14.8603 10.8897L14.9443 10.7592L15.0298 10.6296L15.1166 10.5007L15.2048 10.3727L15.2943 10.2454L15.3852 10.119L15.4774 9.99341L15.571 9.86861L15.6658 9.74478L15.762 9.62178L15.8595 9.49964L15.9583 9.37844L16.0583 9.25815L16.1597 9.1388L16.2623 9.02038L16.3661 8.90292L16.4712 8.78644L16.5776 8.67093L16.6852 8.55642L16.794 8.44292L16.904 8.33043L17.0152 8.21897L17.1276 8.10856L17.2412 7.9992L17.3559 7.89091L17.4718 7.7837L17.5889 7.67758L17.7071 7.57256L17.8264 7.46866L17.9468 7.36587L18.0684 7.26423L18.191 7.16374L18.3147 7.0644L18.4395 6.96623L18.5654 6.86924L18.6922 6.77345L18.8202 6.67886L18.9491 6.58548L19.0791 6.49333L19.21 6.40241L19.3419 6.31273L19.4748 6.2243L19.6087 6.13714L19.7435 6.05125L19.8793 5.96665L20.016 5.88334L20.1536 5.80133L20.292 5.72063L20.4314 5.64126L20.5716 5.56322L20.7127 5.48651L20.8546 5.41115L20.9974 5.33716L21.1409 5.26452L21.2853 5.19326L21.4305 5.12339L21.5765 5.0549L21.7231 4.98781L21.8706 4.92213L22.0188 4.85786L22.1677 4.79502L22.3173 4.73361L22.4675 4.67363L22.6185 4.6151L22.7701 4.55802L22.9224 4.50239L23.0753 4.44824L23.2288 4.39556L23.3829 4.34435L23.5375 4.29463L23.6928 4.2464L23.8486 4.19966L24.005 4.15444L24.1618 4.11072L24.3193 4.06851L24.4771 4.02782L24.6355 3.98867L24.7942 3.95105L24.9536 3.91495L25.1132 3.8804L25.2733 3.8474L25.4338 3.81594L25.5947 3.78605L25.756 3.7577L25.9176 3.73093L26.0796 3.70572L26.2418 3.68208L26.4044 3.66002L26.5672 3.63954L26.7304 3.62064L26.8938 3.60332L27.0574 3.5876L27.2212 3.57346L27.3853 3.56091L27.5495 3.54997L28.4326 3.49976L28.483 7.73626L28.5118 7.73593L28.6338 7.73576L28.7557 7.73678L28.8777 7.73899L28.9998 7.7424L29.1218 7.74701L29.2439 7.7528L29.366 7.75979L29.4881 7.76799L29.6101 7.77737L29.7322 7.78796L29.8542 7.79975L29.9761 7.81274L30.0979 7.82693L30.2197 7.84231L30.3414 7.85889L30.463 7.87667L30.5844 7.89565L30.7057 7.91582L30.8269 7.93719L30.9479 7.95976L31.0687 7.98352L31.1893 8.00848L31.3098 8.03462L31.4301 8.06196L31.55 8.09048L31.6699 8.1202L31.7894 8.15111L31.9087 8.18319L32.0277 8.21646L32.1465 8.25091L32.2649 8.28653L32.383 8.32334L32.5008 8.36132L32.6183 8.40047L32.7354 8.44078L32.8522 8.48226L32.9686 8.5249L33.0846 8.56871L33.2003 8.61366L33.3155 8.65978L33.4303 8.70704L33.5446 8.75545L33.6586 8.805L33.7721 8.85569L33.8851 8.90752L33.9976 8.96047L34.1097 9.01455L34.2213 9.06976L34.3323 9.12608L34.4428 9.18352L34.5528 9.24206L34.6622 9.30172L34.7711 9.36247L34.8794 9.42431L34.9871 9.48725L35.0942 9.55128L35.2007 9.61638L35.3066 9.68253L35.4119 9.74981L35.5165 9.81806L35.6204 9.88743L35.7238 9.95786L35.8264 10.0293L35.9284 10.1018L36.0296 10.1753L36.1301 10.2498L36.23 10.3254L36.329 10.402L36.4274 10.4796L36.5249 10.5582L36.6218 10.6377L36.7178 10.7184L36.8131 10.7999L36.9077 10.8824L37.0014 10.9659L37.0942 11.0503L37.1862 11.1357L37.2774 11.2221L37.3678 11.3093L37.4573 11.3975L37.546 11.4866L37.6337 11.5767L37.7206 11.6676L37.8066 11.7594L37.8917 11.8521L37.9758 11.9457L38.0591 12.0401L38.1414 12.1354L38.2228 12.2316L38.3032 12.3285L38.3827 12.4264L38.4612 12.525L38.5387 12.6245L38.6152 12.7248L38.6907 12.8259L38.7652 12.9277L38.8388 13.0304L38.9112 13.1338L38.9827 13.2379L39.0531 13.3428L39.1225 13.4485L39.1908 13.5549L39.258 13.662L39.3242 13.7698L39.3893 13.8783L39.4533 13.9875L39.5162 14.0974L39.5781 14.208L39.6388 14.3192L39.6984 14.431L39.7568 14.5435L39.8141 14.6566L39.8703 14.7703L39.9254 14.8847L39.9793 14.9996L40.0321 15.1151L40.0837 15.2312L40.134 15.3478L40.1832 15.465L40.2313 15.5827L40.2781 15.701L40.3238 15.8197L40.3682 15.939L40.4115 16.0587L40.4535 16.179L40.4943 16.2997L40.5339 16.4209L40.5723 16.5425L40.6094 16.6645L40.6453 16.787L40.6799 16.9098L40.7133 17.0331L40.7455 17.1568L40.7763 17.2808L40.8059 17.4052L40.8343 17.5299L40.8613 17.655L40.8871 17.7804L40.9116 17.9061L40.9348 18.0321L40.9568 18.1584L40.9775 18.285L40.9968 18.4118L41.0149 18.5389L41.0316 18.6662L41.0471 18.7938L41.0612 18.9215L41.074 19.0494L41.0855 19.1775L41.0958 19.3059L41.1047 19.4343L41.1122 19.563L41.1185 19.6917L41.1234 19.8206L41.127 19.9495L41.1293 20.0786L41.1302 20.2077L41.1298 20.337L41.1281 20.4663L41.125 20.5956L41.1206 20.7249L41.1149 20.8543L41.1079 20.9837L41.0995 21.1131L41.0898 21.2424L41.0787 21.3717L41.0663 21.501L41.0526 21.6303L41.0374 21.7593L41.021 21.8884L41.0033 22.0173L40.9842 22.1462L40.9637 22.2749L40.942 22.4034L40.9189 22.5318L40.8944 22.6601L40.8687 22.7882L40.8416 22.9161L40.8131 23.0437L40.7833 23.1712L40.7523 23.2984L40.7198 23.4254L40.6861 23.5521L40.6511 23.6785L40.6147 23.8047L40.577 23.9305L40.538 24.0561L40.4976 24.1813L40.4561 24.3063L40.4131 24.4308L40.3688 24.555L40.3233 24.6788L40.2765 24.8022L40.2284 24.9252L40.1789 25.0478L40.1282 25.17L40.0763 25.2917L40.023 25.413L39.9685 25.5338L39.9127 25.6542L39.8556 25.774L39.7973 25.8933L39.7376 26.0122L39.6768 26.1305L39.6147 26.2483L39.5514 26.3655L39.4868 26.4822L39.421 26.5982L39.354 26.7137L39.2857 26.8286L39.2163 26.9428L39.1456 27.0565L39.0737 27.1695L39.0006 27.2818L38.9264 27.3935L38.851 27.5045L38.7744 27.6148L38.6965 27.7245L38.6176 27.8334L38.5375 27.9416L38.4562 28.0491L38.3738 28.1558L38.2902 28.2617L38.2056 28.3669L38.1198 28.4713L38.0329 28.5749L37.9448 28.6777L37.8557 28.7797L37.7655 28.8809L37.6742 28.9812L37.5818 29.0808L37.4884 29.1794L37.3939 29.2772L37.2984 29.374L37.2017 29.47L37.1041 29.5651L37.0055 29.6593L36.9059 29.7526L36.8052 29.8449L36.7035 29.9364L36.6009 30.0267L36.4973 30.1162L36.3927 30.2048L36.2871 30.2923L36.1806 30.3788L36.0732 30.4644L35.9648 30.5489L35.8555 30.6324L35.7453 30.7148L35.6342 30.7962L35.5223 30.8766L35.4094 30.9559L35.2956 31.0342L35.1811 31.1114L35.0657 31.1874L34.9494 31.2624L34.8323 31.3364L34.7144 31.4091L34.5957 31.4808L34.4762 31.5513L34.3559 31.6208L34.2349 31.689L34.113 31.7561L33.9906 31.8221L33.8673 31.8868L33.7433 31.9504L33.6185 32.0129L33.4931 32.0741L33.367 32.1341L33.2403 32.193L33.1128 32.2506L32.9848 32.307L32.856 32.3621L32.7267 32.416L32.5968 32.4687L32.4662 32.5202L32.3351 32.5704L32.2033 32.6193L32.0711 32.667L31.9382 32.7134L31.8049 32.7585L31.671 32.8023L31.5366 32.8449L31.4017 32.8861L31.2663 32.9261L31.1305 32.9647L30.9941 33.0021L30.8574 33.0381L30.7202 33.0728L30.5826 33.1062L30.4447 33.1383L30.3062 33.1689L30.1675 33.1983L30.0283 33.2264L29.8888 33.2531L29.749 33.2784L29.6089 33.3024L29.4684 33.325L29.3277 33.3463L29.1867 33.3662L29.0454 33.3847L28.9039 33.4019L28.7621 33.4176L28.6201 33.432L28.4779 33.4451L28.3355 33.4567L28.1929 33.467L28.0502 33.4758L27.9072 33.4833L27.7642 33.4894L27.621 33.4941L27.4777 33.4974L27.3343 33.4992L27.1909 33.4998L27.0474 33.4989L26.9038 33.4965L26.7601 33.4929L26.6165 33.4877L26.4729 33.4812L26.3292 33.4733L26.1856 33.4639L26.042 33.4532L25.8985 33.441L25.755 33.4275L25.6116 33.4125L25.4683 33.3962L25.3251 33.3784L25.182 33.3592L25.0391 33.3386L24.8963 33.3166L24.7537 33.2932L24.6113 33.2685L24.469 33.2422L24.327 33.2146L24.1852 33.1857L24.0436 33.1552L23.9023 33.1234L23.7612 33.0903L23.6205 33.0557L23.48 33.0197L23.3398 32.9823L23.2 32.9436L23.0605 32.9035L22.9213 32.862L22.7826 32.8191L22.6442 32.7749L22.5062 32.7293L22.3686 32.6823L22.2314 32.6339L22.0947 32.5842L21.9584 32.5332L21.8226 32.4807L21.6873 32.427L21.5525 32.3718L21.4182 32.3154L21.2844 32.2576L21.1512 32.1985L21.0184 32.1381L20.8863 32.0763L20.7548 32.0132L20.6239 31.9488L20.4935 31.8831L20.3638 31.8161L20.2348 31.7478L20.1063 31.6782L19.9785 31.6074L19.8514 31.5352L19.725 31.4618L19.5993 31.3871L19.4744 31.3112L19.3501 31.2339L19.2266 31.1556L19.1038 31.0758L18.9818 30.995L18.8606 30.9128L18.7403 30.8295L18.6206 30.7449L18.5019 30.6591L18.3839 30.5722L18.2668 30.484L18.1506 30.3947L18.0352 30.3042L17.9207 30.2125L17.8071 30.1197L17.6945 30.0258L17.5827 29.9307L17.4719 29.8344L17.362 29.737L17.2531 29.6385L17.1451 29.539L17.0382 29.4383L16.9322 29.3366L16.8272 29.2337L16.7233 29.1298L16.6203 29.0249L16.5184 28.9188L16.4176 28.8118L16.3178 28.7037L16.2191 28.5946L16.1215 28.4845L16.0249 28.3734L15.9295 28.2613L15.8352 28.1483L15.742 28.0342L15.65 27.9192L15.5591 27.8033L15.4693 27.6864L15.3807 27.5686L15.2933 27.4499L15.2071 27.3303L15.1221 27.2097L15.0383 27.0884L14.9557 26.9661L14.8743 26.843L14.7941 26.7191L14.7152 26.5943L14.6376 26.4687L14.5612 26.3423L14.4861 26.215L14.4123 26.0871L14.3397 25.9583L14.2685 25.8288L14.1985 25.6984L14.1299 25.5674L14.0626 25.4357L13.9966 25.3032L13.932 25.1701L13.8687 25.0362L13.8067 24.9018L13.7462 24.7665L13.6869 24.6308L13.6291 24.4943L13.5726 24.3573L13.5176 24.2196L13.4639 24.0813L13.4116 23.9424L13.3608 23.803L13.3113 23.6631L13.2633 23.5226L13.2167 23.3815L13.1715 23.24L13.1278 23.0979L13.0855 22.9554L13.0447 22.8124L13.0053 22.6689L12.9674 22.5251L12.9309 22.3808L12.8959 22.236L12.8624 22.0909L12.8304 21.9453L12.7999 21.7995L12.7708 21.6532L12.7433 21.5067L12.7172 21.3597L12.6927 21.2125L12.6696 21.065L12.6481 20.9172L12.6281 20.769L12.6096 20.6207L12.5926 20.4721L12.5771 20.3233L12.5632 20.1744L12.5508 20.0251L12.5399 19.8757L12.5306 19.7262L12.5228 19.5765L12.5165 19.4266L12.5118 19.2767L12.5086 19.1266L12.5069 18.9765L12.5068 18.8262ZM27.1033 7.825L27.069 4.93735L27.0364 4.94048L26.8866 4.95635L26.7372 4.97366L26.588 4.99244L26.4393 5.01262L26.2907 5.03426L26.1423 5.05736L25.9944 5.08187L25.8466 5.10784L25.6996 5.13516L25.5523 5.16401L25.4061 5.19416L25.2597 5.22584L25.114 5.25885L24.9685 5.29334L24.8236 5.32914L24.6792 5.36639L24.5351 5.40502L24.3914 5.44505L24.2484 5.48642L24.1057 5.52921L23.9637 5.57333L23.8221 5.61886L23.6813 5.66564L23.5406 5.71391L23.4007 5.76346L23.2615 5.81432L23.1227 5.86658L22.9846 5.9201L22.8473 5.97492L22.7104 6.03115L22.5741 6.08865L22.4385 6.14747L22.3037 6.20752L22.1696 6.26888L22.0362 6.33147L21.9032 6.39545L21.7712 6.46059L21.64 6.527L21.5094 6.59467L21.3796 6.66359L21.2508 6.73368L21.1224 6.80507L20.9949 6.8777L20.8685 6.95137L20.7425 7.02647L20.6176 7.10258L20.4937 7.17986L20.3703 7.25842L20.2479 7.33812L20.1264 7.41899L20.006 7.5008L19.8861 7.58407L19.7674 7.66823L19.6496 7.75355L19.5326 7.84004L19.4167 7.92755L19.3018 8.01612L19.1876 8.10593L19.0747 8.1966L18.9626 8.28846L18.8516 8.38132L18.7415 8.47526L18.6326 8.57009L18.5245 8.66613L18.4176 8.76302L18.3117 8.86103L18.2069 8.95987L18.1032 9.05978L18.0006 9.16058L17.899 9.26239L17.7984 9.36524L17.6991 9.4688L17.601 9.57326L17.5037 9.67893L17.4077 9.78528L17.313 9.89238L17.2192 10.0006L17.1268 10.1095L17.0354 10.2194L16.9452 10.33L16.8562 10.4415L16.7684 10.5538L16.6819 10.6668L16.5965 10.7807L16.5122 10.8954L16.4294 11.0107L16.3476 11.127L16.2671 11.2438L16.1879 11.3614L16.1099 11.4798L16.0332 11.5988L15.9577 11.7184L15.8835 11.8388L15.8107 11.9598L15.739 12.0815L15.6686 12.2039L15.5996 12.3267L15.5319 12.4503L15.4654 12.5745L15.4003 12.6992L15.3365 12.8245L15.274 12.9503L15.2129 13.0767L15.1531 13.2036L15.0946 13.3311L15.0374 13.4589L14.9816 13.5874L14.9272 13.7163L14.8741 13.8456L14.8223 13.9755L14.772 14.1057L14.723 14.2364L14.6753 14.3675L14.6291 14.4989L14.5842 14.6308L14.5407 14.763L14.4986 14.8956L14.4578 15.0285L14.4185 15.1618L14.3805 15.2953L14.344 15.4292L14.3088 15.5633L14.275 15.6978L14.2427 15.8324L14.2117 15.9673L14.1822 16.1025L14.154 16.2378L14.1273 16.3734L14.1019 16.5091L14.078 16.645L14.0555 16.7811L14.0344 16.9173L14.0147 17.0537L13.9964 17.1902L13.9796 17.3268L13.9641 17.4634L13.9501 17.6002L13.9375 17.737L13.9263 17.8738L13.9165 18.0108L13.9081 18.1477L13.9011 18.2846L13.8956 18.4215L13.8914 18.5584L13.8887 18.6953L13.8874 18.8321L13.8875 18.9689L13.889 19.1055L13.8919 19.2422L13.8962 19.3787L13.9019 19.515L13.909 19.6513L13.9175 19.7874L13.9274 19.9233L13.9387 20.0591L13.9514 20.1947L13.9654 20.3301L13.9809 20.4653L13.9977 20.6003L14.0159 20.735L14.0355 20.8695L14.0565 21.0037L14.0788 21.1376L14.1025 21.2712L14.1276 21.4046L14.154 21.5376L14.1818 21.6703L14.2109 21.8026L14.2414 21.9346L14.2732 22.0662L14.3063 22.1975L14.3408 22.3284L14.3766 22.4587L14.4137 22.5888L14.4522 22.7184L14.4919 22.8475L14.533 22.9762L14.5753 23.1044L14.619 23.2321L14.664 23.3593L14.7102 23.4861L14.7577 23.6122L14.8065 23.7379L14.8565 23.863L14.9078 23.9876L14.9604 24.1116L15.0142 24.2349L15.0693 24.3578L15.1255 24.48L15.1831 24.6016L15.2418 24.7226L15.3017 24.8429L15.3629 24.9626L15.4252 25.0816L15.4887 25.2L15.5535 25.3176L15.6193 25.4346L15.6864 25.5508L15.7546 25.6664L15.824 25.7811L15.8945 25.8952L15.9661 26.0085L16.0389 26.121L16.1128 26.2329L16.1878 26.3439L16.2639 26.454L16.341 26.5635L16.4193 26.6721L16.4987 26.7798L16.5791 26.8868L16.6605 26.9928L16.7431 27.0981L16.8266 27.2024L16.9112 27.3059L16.9968 27.4086L17.0833 27.5103L17.1709 27.6111L17.2595 27.711L17.3491 27.81L17.4396 27.908L17.5311 28.0051L17.6235 28.1013L17.7169 28.1965L17.8112 28.2908L17.9064 28.384L18.0026 28.4763L18.0996 28.5676L18.1975 28.658L18.2963 28.7473L18.3959 28.8356L18.4964 28.9228L18.5977 29.0091L18.7 29.0943L18.8028 29.1784L18.9067 29.2616L19.0113 29.3436L19.1167 29.4246L19.2228 29.5045L19.3297 29.5833L19.4374 29.661L19.5458 29.7377L19.6548 29.8132L19.7647 29.8877L19.8752 29.961L19.9866 30.0332L20.0984 30.1043L20.211 30.1742L20.3243 30.243L20.4381 30.3107L20.5527 30.3772L20.6678 30.4425L20.7836 30.5067L20.8999 30.5697L21.0169 30.6316L21.1343 30.6923L21.2523 30.7518L21.371 30.8101L21.4901 30.8673L21.6097 30.9232L21.7299 30.978L21.8505 31.0314L21.9717 31.0838L22.0933 31.1349L22.2154 31.1848L22.3378 31.2335L22.4608 31.2809L22.5841 31.3272L22.7078 31.3722L22.832 31.4159L22.9566 31.4584L23.0814 31.4997L23.2067 31.5398L23.3322 31.5786L23.4582 31.6161L23.5844 31.6524L23.7109 31.6875L23.8378 31.7213L23.9648 31.7538L24.0922 31.7851L24.2197 31.8151L24.3476 31.8439L24.4757 31.8714L24.6039 31.8976L24.7324 31.9226L24.8611 31.9463L24.9899 31.9687L25.1188 31.9899L25.2479 32.0097L25.3772 32.0283L25.5066 32.0457L25.636 32.0618L25.7656 32.0766L25.8952 32.0901L26.0249 32.1024L26.1547 32.1133L26.2845 32.1231L26.4143 32.1315L26.5441 32.1387L26.6739 32.1445L26.8037 32.1492L26.9335 32.1525L27.0633 32.1546L27.1929 32.1554L27.3225 32.1549L27.4521 32.1532L27.5815 32.1503L27.7108 32.146L27.8401 32.1405L27.9692 32.1338L28.0981 32.1258L28.2269 32.1165L28.3555 32.106L28.484 32.0943L28.6122 32.0812L28.7402 32.067L28.868 32.0515L28.9956 32.0348L29.1229 32.0168L29.2499 31.9976L29.3767 31.9772L29.5032 31.9555L29.6295 31.9326L29.7554 31.9086L29.8809 31.8833L30.0062 31.8567L30.1311 31.8291L30.2556 31.8001L30.3798 31.77L30.5036 31.7387L30.6269 31.7061L30.7499 31.6725L30.8725 31.6376L30.9946 31.6015L31.1163 31.5643L31.2375 31.526L31.3583 31.4864L31.4786 31.4457L31.5983 31.4039L31.7177 31.3608L31.8365 31.3167L31.9548 31.2714L32.0725 31.2251L32.1896 31.1776L32.3062 31.1289L32.4223 31.0792L32.5378 31.0284L32.6526 30.9765L32.7669 30.9234L32.8806 30.8693L32.9936 30.8142L33.106 30.7578L33.2177 30.7005L33.3288 30.6422L33.4393 30.5827L33.549 30.5223L33.6581 30.4608L33.7664 30.3983L33.8742 30.3347L33.981 30.2702L34.0874 30.2046L34.1927 30.138L34.2974 30.0705L34.4015 30.0019L34.5047 29.9323L34.607 29.862L34.7086 29.7905L34.8095 29.7181L34.9095 29.6448L35.0088 29.5705L35.1071 29.4954L35.2048 29.4192L35.3014 29.3423L35.3973 29.2644L35.4924 29.1856L35.5865 29.1059L35.6797 29.0254L35.7721 28.944L35.8636 28.8618L35.9542 28.7787L36.0439 28.6947L36.1326 28.6101L36.2205 28.5244L36.3074 28.438L36.3933 28.3509L36.4784 28.2629L36.5624 28.1742L36.6454 28.0848L36.7276 27.9944L36.8087 27.9035L36.8889 27.8117L36.968 27.7193L37.0462 27.6261L37.1233 27.5322L37.1994 27.4377L37.2746 27.3423L37.3486 27.2465L37.4218 27.1498L37.4937 27.0526L37.5647 26.9547L37.6348 26.856L37.7035 26.757L37.7713 26.6572L37.838 26.5569L37.9037 26.4559L37.9684 26.3543L38.0318 26.2523L38.0942 26.1497L38.1556 26.0463L38.2157 25.9427L38.2748 25.8384L38.3329 25.7335L38.3897 25.6284L38.4455 25.5225L38.5002 25.4161L38.5536 25.3097L38.606 25.2024L38.6573 25.0947L38.7074 24.9867L38.7564 24.8782L38.8042 24.7693L38.8508 24.6601L38.8964 24.5503L38.9408 24.4402L38.9839 24.33L39.0259 24.219L39.0668 24.108L39.1065 23.9965L39.1451 23.8848L39.1825 23.7726L39.2185 23.6605L39.2537 23.5476L39.2874 23.4348L39.32 23.3216L39.3515 23.2083L39.3818 23.0945L39.4108 22.9807L39.4387 22.8666L39.4654 22.7522L39.4909 22.6377L39.5153 22.523L39.5383 22.4083L39.5602 22.2931L39.5809 22.1782L39.6004 22.0629L39.6187 21.9474L39.6358 21.832L39.6518 21.7164L39.6665 21.6009L39.6801 21.4848L39.6923 21.3693L39.7035 21.2533L39.7134 21.1376L39.7221 21.0215L39.7296 20.9058L39.736 20.7898L39.7411 20.6737L39.745 20.5579L39.7478 20.4423L39.7493 20.3263L39.7497 20.2105L39.7488 20.0949L39.7468 19.9793L39.7436 19.8637L39.7391 19.7486L39.7335 19.633L39.7268 19.518L39.7188 19.4029L39.7097 19.2882L39.6993 19.1733L39.6879 19.059L39.6752 18.9445L39.6614 18.8304L39.6464 18.7164L39.6303 18.6028L39.6129 18.4891L39.5944 18.3759L39.5748 18.2631L39.554 18.1503L39.532 18.0378L39.509 17.9257L39.4847 17.8136L39.4595 17.7023L39.4329 17.5908L39.4054 17.4801L39.3766 17.3693L39.3468 17.2593L39.3158 17.1494L39.2837 17.0397L39.2506 16.9308L39.2163 16.8222L39.1808 16.7136L39.1444 16.6059L39.1068 16.4983L39.0682 16.3914L39.0284 16.2846L38.9877 16.1787L38.9457 16.0728L38.9028 15.9676L38.8589 15.8631L38.8139 15.759L38.7677 15.655L38.7207 15.552L38.6724 15.4491L38.6233 15.3472L38.5732 15.2457L38.5219 15.1445L38.4697 15.0441L38.4165 14.9442L38.3622 14.8448L38.3072 14.7463L38.2509 14.6481L38.1938 14.5506L38.1356 14.4537L38.0767 14.3577L38.0165 14.2619L37.9557 14.167L37.8937 14.0726L37.8308 13.979L37.7672 13.8862L37.7024 13.7938L37.6368 13.7022L37.5704 13.6113L37.503 13.5213L37.4347 13.4317L37.3656 13.3431L37.2956 13.255L37.2247 13.1678L37.153 13.0813L37.0804 12.9955L37.0069 12.9105L36.9327 12.8263L36.8578 12.7429L36.7819 12.6603L36.7051 12.5783L36.6279 12.4974L36.5494 12.417L36.4706 12.3378L36.3908 12.2591L36.3103 12.1814L36.2288 12.1043L36.147 12.0284L36.0642 11.9531L35.9806 11.8787L35.8967 11.8053L35.8118 11.7327L35.726 11.6607L35.6398 11.5899L35.5529 11.5199L35.4653 11.4508L35.3771 11.3826L35.2883 11.3154L35.1986 11.2488L35.1086 11.1835L35.0178 11.119L34.9264 11.0553L34.8346 10.9927L34.7418 10.9308L34.649 10.8702L34.5551 10.8103L34.461 10.7514L34.3661 10.6935L34.2708 10.6365L34.175 10.5805L34.0788 10.5256L33.9817 10.4714L33.8846 10.4184L33.7867 10.3663L33.6884 10.3152L33.5897 10.2652L33.4904 10.2161L33.3908 10.1679L33.2907 10.1209L33.1902 10.0748L33.0894 10.0298L32.9881 9.98568L32.8831 9.94128L32.7845 9.90071L32.6818 9.85961L32.5793 9.81978L32.4759 9.78071L32.3726 9.74291L32.2688 9.70601L32.1648 9.67023L32.0603 9.63536L31.9557 9.60168L31.8507 9.56898L31.7455 9.53733L31.6402 9.50681L31.5345 9.47723L31.4283 9.44867L31.3223 9.42127L31.2161 9.39491L31.1092 9.36953L31.0027 9.34531L30.8957 9.32206L30.7887 9.29993L30.6812 9.27881L30.574 9.2588L30.4664 9.23983L30.3589 9.22196L30.2509 9.20508L30.1432 9.18932L30.0353 9.17461L29.9272 9.16095L29.8191 9.14837L29.711 9.13686L29.6028 9.12641L29.4946 9.11702L29.3863 9.10868L29.2779 9.10141L29.1698 9.09521L29.0616 9.09008L28.9531 9.08599L28.8451 9.08297L28.737 9.08101L28.6289 9.08011L28.5206 9.08026L28.4989 9.08051L28.5331 11.9472L28.5945 11.9469L28.6735 11.9473L28.7525 11.9485L28.8316 11.9505L28.9107 11.9533L28.9899 11.9569L29.0691 11.9613L29.1483 11.9664L29.2276 11.9723L29.3068 11.979L29.386 11.9865L29.4652 11.9947L29.5445 12.0038L29.6236 12.0136L29.7027 12.0242L29.7818 12.0357L29.8608 12.0478L29.9398 12.0608L30.0187 12.0746L30.0975 12.0891L30.1762 12.1045L30.2548 12.1206L30.3334 12.1375L30.4118 12.1552L30.4901 12.1737L30.5683 12.193L30.6462 12.213L30.7241 12.2339L30.8018 12.2555L30.8794 12.2779L30.9569 12.3011L31.0341 12.325L31.1111 12.3498L31.1879 12.3753L31.2646 12.4016L31.3409 12.4287L31.4172 12.4565L31.4931 12.4851L31.5689 12.5145L31.6444 12.5446L31.7196 12.5755L31.7945 12.6072L31.8693 12.6396L31.9437 12.6729L32.0178 12.7068L32.0916 12.7415L32.1652 12.777L32.2384 12.8132L32.3114 12.8502L32.384 12.8879L32.4562 12.9263L32.5281 12.9655L32.5997 13.0054L32.6709 13.0461L32.7418 13.0875L32.8123 13.1296L32.8823 13.1724L32.952 13.216L33.0213 13.2603L33.0902 13.3053L33.1587 13.351L33.2268 13.3974L33.2944 13.4446L33.3616 13.4924L33.4283 13.5409L33.4946 13.5902L33.5605 13.6401L33.6258 13.6907L33.6908 13.742L33.7552 13.7939L33.8191 13.8465L33.8825 13.8999L33.9455 13.9538L34.008 14.0084L34.0699 14.0637L34.1313 14.1196L34.1921 14.1762L34.2524 14.2334L34.3121 14.2912L34.3713 14.3497L34.43 14.4088L34.4881 14.4686L34.5456 14.5289L34.6025 14.5899L34.6588 14.6514L34.7146 14.7136L34.7697 14.7763L34.8243 14.8397L34.8782 14.9036L34.9315 14.9681L34.9842 15.0332L35.0362 15.0988L35.0876 15.165L35.1384 15.2318L35.1885 15.2991L35.2379 15.3669L35.2867 15.4353L35.3347 15.5043L35.3822 15.5737L35.4289 15.6437L35.4749 15.7141L35.5203 15.7851L35.5649 15.8566L35.6089 15.9285L35.6522 16.001L35.6946 16.074L35.7364 16.1473L35.7775 16.2212L35.8178 16.2955L35.8574 16.3703L35.8963 16.4455L35.9343 16.5212L35.9717 16.5973L36.0083 16.6738L36.0441 16.7507L36.0791 16.8281L36.1134 16.9058L36.1469 16.9839L36.1796 17.0625L36.2115 17.1414L36.2426 17.2206L36.2729 17.3002L36.3024 17.3802L36.3311 17.4606L36.3591 17.5413L36.3862 17.6223L36.4124 17.7036L36.4379 17.7852L36.4625 17.8672L36.4863 17.9495L36.5093 18.0321L36.5313 18.1149L36.5527 18.198L36.5731 18.2814L36.5927 18.3651L36.6114 18.449L36.6293 18.5331L36.6463 18.6175L36.6624 18.7021L36.6777 18.787L36.6922 18.8721L36.7057 18.9573L36.7184 19.0428L36.7302 19.1283L36.7411 19.2141L36.7512 19.3002L36.7603 19.3863L36.7686 19.4726L36.7761 19.5591L36.7825 19.6456L36.7882 19.7323L36.7929 19.8191L36.7967 19.906L36.7996 19.9931L36.8017 20.0802L36.8028 20.1674L36.803 20.2547L36.8024 20.342L36.8008 20.4294L36.7983 20.5168L36.7949 20.6043L36.7906 20.6918L36.7854 20.7793L36.7793 20.8669L36.7723 20.9544L36.7643 21.042L36.7555 21.1295L36.7457 21.2169L36.7351 21.3045L36.7235 21.3918L36.711 21.4792L36.6976 21.5665L36.6833 21.6537L36.6681 21.7409L36.6519 21.828L36.6348 21.915L36.6168 22.0018L36.5979 22.0886L36.5782 22.1752L36.5575 22.2617L36.5359 22.348L36.5133 22.4343L36.4899 22.5203L36.4656 22.6062L36.4403 22.6918L36.4142 22.7773L36.3872 22.8627L36.3591 22.9478L36.3303 23.0326L36.3005 23.1173L36.27 23.2017L36.2384 23.2859L36.2059 23.3698L36.1726 23.4535L36.1384 23.5369L36.1033 23.6201L36.0673 23.7029L36.0305 23.7855L35.9928 23.8677L35.9541 23.9496L35.9147 24.0312L35.8743 24.1125L35.833 24.1935L35.7909 24.2741L35.748 24.3543L35.7041 24.4341L35.6595 24.5136L35.614 24.5928L35.5676 24.6714L35.5203 24.7498L35.4723 24.8277L35.4234 24.9052L35.3736 24.9822L35.3231 25.0589L35.2716 25.135L35.2194 25.2108L35.1664 25.2861L35.1125 25.3608L35.0578 25.4352L35.0024 25.509L34.9461 25.5824L34.889 25.6552L34.8312 25.7275L34.7725 25.7994L34.7131 25.8706L34.6529 25.9414L34.5919 26.0116L34.5301 26.0813L34.4676 26.1504L34.4043 26.2189L34.3403 26.2869L34.2756 26.3543L34.2101 26.421L34.1439 26.4873L34.0768 26.5528L34.0092 26.6178L33.9407 26.6822L33.8716 26.7459L33.8018 26.809L33.7312 26.8714L33.66 26.9332L33.5881 26.9944L33.5156 27.0549L33.4423 27.1147L33.3684 27.1738L33.2937 27.2322L33.2185 27.29L33.1426 27.3471L33.0661 27.4034L32.9889 27.459L32.9112 27.514L32.8327 27.5682L32.7537 27.6216L32.674 27.6744L32.5938 27.7263L32.513 27.7776L32.4316 27.828L32.3496 27.8777L32.2671 27.9267L32.184 27.9748L32.1004 28.0221L32.0162 28.0687L31.9314 28.1145L31.8461 28.1595L31.7604 28.2037L31.674 28.2471L31.5873 28.2896L31.5 28.3314L31.4121 28.3722L31.3238 28.4123L31.2351 28.4515L31.1459 28.4899L31.0562 28.5274L30.9661 28.5641L30.8756 28.5999L30.7846 28.6349L30.6932 28.669L30.6014 28.7022L30.5092 28.7346L30.4166 28.766L30.3236 28.7966L30.2302 28.8262L30.1365 28.855L30.0424 28.8829L29.948 28.9098L29.8532 28.9359L29.7581 28.9611L29.6626 28.9853L29.5669 29.0086L29.4709 29.031L29.3744 29.0525L29.2779 29.073L29.1809 29.0926L29.0838 29.1113L28.9864 29.1291L28.8887 29.1459L28.7908 29.1617L28.6927 29.1765L28.5943 29.1905L28.4957 29.2035L28.397 29.2155L28.2981 29.2266L28.1989 29.2367L28.0996 29.2458L28.0002 29.254L27.9006 29.2612L27.8009 29.2674L27.701 29.2727L27.6011 29.277L27.501 29.2803L27.4008 29.2826L27.3005 29.2839L27.2001 29.2843L27.0997 29.2837L26.9993 29.2821L26.8987 29.2795L26.7982 29.2759L26.6976 29.2713L26.597 29.2658L26.4964 29.2593L26.3958 29.2518L26.2952 29.2432L26.1947 29.2337L26.0941 29.2232L25.9936 29.2117L25.8932 29.1993L25.7928 29.1858L25.6926 29.1713L25.5924 29.1558L25.4923 29.1394L25.3923 29.1219L25.2924 29.1036L25.1926 29.0841L25.0931 29.0637L24.9936 29.0423L24.8943 29.0199L24.7952 28.9965L24.6962 28.9722L24.5974 28.9468L24.4988 28.9205L24.4005 28.8932L24.3024 28.8649L24.2045 28.8357L24.1068 28.8054L24.0094 28.7742L23.9123 28.742L23.8153 28.7088L23.7188 28.6747L23.6225 28.6396L23.5265 28.6035L23.4308 28.5665L23.3354 28.5285L23.2404 28.4895L23.1457 28.4496L23.0514 28.4088L22.9575 28.367L22.8638 28.3242L22.7707 28.2806L22.6779 28.236L22.5854 28.1904L22.4934 28.1439L22.4019 28.0965L22.3107 28.0481L22.22 27.9988L22.1298 27.9486L22.04 27.8975L21.9507 27.8455L21.8619 27.7926L21.7735 27.7387L21.6857 27.684L21.5984 27.6284L21.5116 27.5719L21.4254 27.5145L21.3396 27.4562L21.2544 27.3971L21.1699 27.3371L21.0858 27.2762L21.0023 27.2145L20.9194 27.1518L20.8371 27.0884L20.7555 27.0241L20.6744 26.9589L20.594 26.893L20.5142 26.8262L20.435 26.7586L20.3565 26.6901L20.2786 26.6209L20.2014 26.5509L20.1249 26.4801L20.0491 26.4084L19.9739 26.336L19.8995 26.2628L19.8258 26.1888L19.7528 26.1141L19.6805 26.0386L19.609 25.9623L19.5382 25.8854L19.4682 25.8076L19.3989 25.7292L19.3304 25.65L19.2626 25.5701L19.1957 25.4895L19.1295 25.4081L19.0642 25.3261L18.9997 25.2434L18.9359 25.16L18.8731 25.0759L18.8109 24.9912L18.7497 24.9058L18.6893 24.8198L18.6298 24.7331L18.5711 24.6458L18.5133 24.5579L18.4563 24.4693L18.4003 24.3801L18.3451 24.2904L18.2908 24.2L18.2374 24.1091L18.185 24.0175L18.1334 23.9255L18.0828 23.8328L18.0331 23.7396L17.9843 23.6459L17.9365 23.5516L17.8896 23.4568L17.8436 23.3615L17.7986 23.2657L17.7546 23.1693L17.7116 23.0726L17.6695 22.9753L17.6284 22.8775L17.5883 22.7793L17.5492 22.6807L17.511 22.5816L17.4739 22.482L17.4378 22.3821L17.4027 22.2817L17.3686 22.181L17.3355 22.0798L17.3035 21.9783L17.2724 21.8764L17.2424 21.7741L17.2135 21.6715L17.1856 21.5685L17.1587 21.4652L17.1329 21.3616L17.1082 21.2577L17.0845 21.1534L17.0618 21.0489L17.0403 20.9441L17.0198 20.839L17.0004 20.7336L16.982 20.628L16.9647 20.5222L16.9486 20.4162L16.9335 20.3099L16.9194 20.2034L16.9065 20.0967L16.8947 19.9898L16.884 19.8828L16.8743 19.7755L16.8658 19.6681L16.8584 19.5606L16.8521 19.4529L16.8468 19.3452L16.8427 19.2373L16.8397 19.1293L16.8379 19.0212L16.8371 18.913L16.8374 18.8048L16.8389 18.6965L16.8415 18.5882L16.8452 18.4798L16.85 18.3714L16.856 18.263L16.863 18.1545L16.8712 18.0462L16.8805 17.9377L16.891 17.8294L16.9026 17.721L16.9152 17.6128L16.9291 17.5046L16.944 17.3964L16.9601 17.2884L16.9772 17.1804L16.9955 17.0726L17.015 16.9649L17.0355 16.8573L17.0572 16.7498L17.08 16.6425L17.1039 16.5354L17.129 16.4284L17.1551 16.3216L17.1824 16.215L17.2108 16.1087L17.2403 16.0025L17.2709 15.8966L17.3026 15.7909L17.3354 15.6855L17.3694 15.5802L17.4044 15.4754L17.4406 15.3708L17.4778 15.2664L17.5162 15.1624L17.5556 15.0587L17.5961 14.9553L17.6377 14.8523L17.6804 14.7496L17.7242 14.6473L17.7691 14.5453L17.815 14.4438L17.862 14.3426L17.9101 14.2418L17.9593 14.1414L18.0095 14.0415L18.0608 13.942L18.1131 13.843L18.1665 13.7444L18.2209 13.6463L18.2764 13.5486L18.3329 13.4514L18.3904 13.3548L18.449 13.2587L18.5086 13.1631L18.5692 13.068L18.6308 12.9734L18.6935 12.8794L18.7571 12.786L18.8218 12.6931L18.8874 12.6008L18.954 12.5091L19.0216 12.418L19.0901 12.3275L19.1597 12.2376L19.2302 12.1484L19.3017 12.0598L19.3741 11.9719L19.4475 11.8846L19.5218 11.798L19.5971 11.712L19.6732 11.6268L19.7504 11.5423L19.8283 11.4585L19.9073 11.3754L19.9871 11.2929L20.0678 11.2113L20.1494 11.1304L20.2318 11.0502L20.3152 10.9709L20.3994 10.8922L20.4845 10.8144L20.5704 10.7373L20.6572 10.6611L20.7447 10.5857L20.8332 10.5111L20.9224 10.4373L21.0124 10.3643L21.1033 10.2921L21.1949 10.2209L21.2874 10.1505L21.3805 10.0809L21.4745 10.0122L21.5692 9.94443L21.6647 9.87753L21.7609 9.81153L21.8579 9.74643L21.9555 9.68231L22.0539 9.61901L22.153 9.55668L22.2528 9.49529L22.3533 9.43483L22.4544 9.37532L22.5562 9.31678L22.6587 9.25919L22.7618 9.20258L22.8656 9.14695L22.97 9.0923L23.075 9.03865L23.1806 8.98599L23.2868 8.93434L23.3936 8.8837L23.501 8.83408L23.6089 8.78548L23.7175 8.73791L23.8266 8.69138L23.9362 8.64589L24.0463 8.60144L24.1569 8.55806L24.268 8.51573L24.3797 8.47446L24.4918 8.43427L24.6044 8.39515L24.7175 8.35711L24.831 8.32016L24.9449 8.2843L25.0593 8.24953L25.1741 8.21586L25.2894 8.1833L25.4049 8.15185L25.5209 8.12151L25.6373 8.09229L25.754 8.0642L25.8711 8.03723L25.9885 8.01139L26.1063 7.98668L26.2243 7.96312L26.3427 7.9407L26.4613 7.91942L26.5803 7.89929L26.6995 7.88032L26.819 7.8625L26.9387 7.84584L27.0586 7.83034L27.1033 7.825ZM27.1539 12.0768L27.1194 9.17867L27.0211 9.19235L26.9155 9.20813L26.8097 9.22495L26.7046 9.24273L26.5994 9.2616L26.4947 9.28144L26.3902 9.3023L26.2861 9.32413L26.1823 9.347L26.0786 9.37088L25.9753 9.39574L25.8724 9.42158L25.7696 9.44846L25.6708 9.47531L25.5656 9.50508L25.464 9.53486L25.3628 9.56561L25.2622 9.59726L25.1618 9.62996L25.0617 9.66363L24.9621 9.69821L24.8631 9.73368L24.7644 9.77021L24.6662 9.80756L24.5683 9.84596L24.4713 9.88518L24.3742 9.92546L24.2778 9.96656L24.1819 10.0086L24.0867 10.0515L23.9917 10.0953L23.8973 10.1401L23.8037 10.1856L23.7102 10.2322L23.6177 10.2795L23.5253 10.3279L23.4339 10.3769L23.3426 10.4271L23.2522 10.4778L23.1624 10.5294L23.0731 10.582L22.9844 10.6353L22.8962 10.6896L22.8089 10.7445L22.722 10.8004L22.6359 10.857L22.5504 10.9144L22.4655 10.9727L22.3811 11.0318L22.2978 11.0914L22.2148 11.1521L22.1326 11.2134L22.0511 11.2755L21.9703 11.3383L21.8901 11.402L21.8108 11.4663L21.7322 11.5313L21.6541 11.5972L21.5771 11.6636L21.5005 11.7309L21.4248 11.7988L21.3498 11.8674L21.2757 11.9366L21.2021 12.0066L21.1296 12.0771L21.0577 12.1484L20.9865 12.2204L20.9162 12.2929L20.8467 12.3662L20.778 12.44L20.7101 12.5144L20.643 12.5895L20.5767 12.6652L20.5114 12.7413L20.4468 12.8182L20.383 12.8957L20.3201 12.9736L20.2581 13.0521L20.1968 13.1313L20.1365 13.2108L20.077 13.291L20.0184 13.3717L19.9606 13.4529L19.9038 13.5345L19.8478 13.6167L19.7927 13.6995L19.7385 13.7826L19.6852 13.8662L19.6329 13.9503L19.5813 14.0349L19.5307 14.1198L19.4811 14.2053L19.4323 14.2911L19.3845 14.3772L19.3376 14.4639L19.2915 14.5511L19.2465 14.6384L19.2024 14.7263L19.1592 14.8145L19.117 14.9029L19.0757 14.9919L19.0353 15.081L18.9959 15.1706L18.9574 15.2604L18.92 15.3506L18.8834 15.441L18.8478 15.5319L18.8132 15.6229L18.7796 15.7142L18.7468 15.8058L18.7152 15.8976L18.6844 15.9897L18.6546 16.082L18.6258 16.1745L18.598 16.2672L18.5711 16.3602L18.5452 16.4532L18.5203 16.5466L18.4964 16.6401L18.4735 16.7337L18.4515 16.8276L18.4305 16.9215L18.4105 17.0156L18.3915 17.1098L18.3735 17.2041L18.3565 17.2986L18.3404 17.3931L18.3254 17.4877L18.3113 17.5823L18.2982 17.6771L18.2861 17.7719L18.275 17.8668L18.2649 17.9616L18.2557 18.0566L18.2476 18.1515L18.2404 18.2464L18.2342 18.3414L18.229 18.4364L18.2248 18.5313L18.2215 18.6261L18.2192 18.7209L18.218 18.8157L18.2177 18.9105L18.2183 19.0052L18.22 19.0998L18.2226 19.1943L18.2262 19.2886L18.2308 19.383L18.2363 19.4772L18.2428 19.5711L18.2502 19.6651L18.2587 19.7589L18.268 19.8525L18.2784 19.9459L18.2897 20.0392L18.3019 20.1324L18.3151 20.2252L18.3293 20.318L18.3444 20.4104L18.3604 20.5027L18.3774 20.5948L18.3953 20.6865L18.4141 20.7782L18.4339 20.8695L18.4546 20.9606L18.4762 21.0513L18.4988 21.1418L18.5222 21.232L18.5466 21.3219L18.5718 21.4115L18.598 21.5008L18.6251 21.5898L18.6531 21.6784L18.682 21.7668L18.7117 21.8547L18.7424 21.9422L18.7738 22.0294L18.8062 22.1163L18.8395 22.2027L18.8737 22.2888L18.9086 22.3744L18.9445 22.4597L18.9811 22.5445L19.0187 22.6289L19.0571 22.7129L19.0963 22.7964L19.1364 22.8795L19.1772 22.9621L19.2189 23.0442L19.2614 23.126L19.3047 23.2072L19.3489 23.2879L19.3938 23.3682L19.4395 23.4479L19.486 23.5271L19.5333 23.6058L19.5813 23.684L19.6301 23.7616L19.6797 23.8387L19.7301 23.9154L19.7811 23.9913L19.833 24.0668L19.8855 24.1416L19.9388 24.216L19.9928 24.2897L20.0476 24.3628L20.103 24.4353L20.1592 24.5073L20.216 24.5787L20.2736 24.6494L20.3318 24.7195L20.3907 24.789L20.4503 24.8578L20.5105 24.9261L20.5714 24.9936L20.6329 25.0606L20.6951 25.1268L20.7579 25.1925L20.8213 25.2574L20.8854 25.3217L20.9501 25.3853L21.0154 25.4482L21.0813 25.5105L21.1476 25.572L21.2147 25.6329L21.2823 25.6929L21.3505 25.7523L21.4193 25.8111L21.4886 25.869L21.5584 25.9263L21.6287 25.9828L21.6996 26.0386L21.771 26.0937L21.843 26.148L21.9154 26.2016L21.9883 26.2544L22.0616 26.3064L22.1355 26.3577L22.2099 26.4083L22.2847 26.4581L22.36 26.5071L22.4357 26.5553L22.5118 26.6028L22.5884 26.6494L22.6653 26.6953L22.7428 26.7404L22.8205 26.7846L22.8988 26.8281L22.9773 26.8708L23.0563 26.9127L23.1356 26.9538L23.2152 26.994L23.2953 27.0336L23.3757 27.0722L23.4564 27.1101L23.5374 27.147L23.6188 27.1833L23.7004 27.2186L23.7823 27.2531L23.8646 27.2868L23.9471 27.3197L24.0299 27.3517L24.1129 27.3829L24.1962 27.4133L24.2798 27.4428L24.3635 27.4715L24.4476 27.4994L24.5318 27.5263L24.6163 27.5525L24.7009 27.5778L24.7857 27.6022L24.8707 27.6258L24.9559 27.6486L25.0412 27.6705L25.1267 27.6915L25.2124 27.7117L25.2982 27.7311L25.3841 27.7496L25.4701 27.7672L25.5562 27.7839L25.6426 27.7998L25.7288 27.8149L25.8153 27.8292L25.9017 27.8424L25.9883 27.855L26.0749 27.8666L26.1615 27.8774L26.2482 27.8873L26.3349 27.8964L26.4217 27.9045L26.5085 27.9119L26.5953 27.9183L26.682 27.924L26.7687 27.9288L26.8554 27.9327L26.9422 27.9358L27.0288 27.9381L27.1154 27.9394L27.2019 27.9399L27.2884 27.9396L27.3748 27.9384L27.4611 27.9365L27.5473 27.9336L27.6335 27.93L27.7194 27.9254L27.8053 27.9201L27.891 27.9138L27.9766 27.9068L28.0621 27.8989L28.1474 27.8902L28.2326 27.8807L28.3176 27.8703L28.4024 27.8592L28.487 27.8472L28.5714 27.8344L28.6556 27.8208L28.7395 27.8064L28.8234 27.7911L28.9069 27.775L28.9902 27.7582L29.0734 27.7405L29.1561 27.7221L29.2386 27.7029L29.3209 27.6828L29.4029 27.662L29.4846 27.6404L29.5661 27.618L29.6472 27.5948L29.728 27.5709L29.8085 27.5462L29.8886 27.5207L29.9685 27.4944L30.048 27.4674L30.1272 27.4397L30.206 27.4112L30.2844 27.3819L30.3624 27.3519L30.4401 27.3212L30.5174 27.2897L30.5943 27.2575L30.6708 27.2246L30.7469 27.191L30.8226 27.1566L30.8979 27.1215L30.9728 27.0858L31.047 27.0494L31.1211 27.0121L31.1946 26.9743L31.2677 26.9357L31.3402 26.8965L31.4124 26.8566L31.4841 26.8161L31.5552 26.7748L31.6259 26.7329L31.6961 26.6904L31.7657 26.6472L31.835 26.6033L31.9035 26.5589L31.9717 26.5137L32.0394 26.4679L32.1065 26.4216L32.1729 26.3747L32.239 26.327L32.3044 26.2789L32.3694 26.2301L32.4338 26.1807L32.4973 26.1308L32.5607 26.0802L32.6233 26.029L32.6852 25.9774L32.7468 25.925L32.8076 25.8723L32.8678 25.819L32.9276 25.7649L32.9865 25.7106L33.0449 25.6557L33.1028 25.6002L33.1599 25.5442L33.2165 25.4877L33.2724 25.4307L33.3277 25.3731L33.3822 25.3152L33.4363 25.2567L33.4897 25.1977L33.5422 25.1384L33.5944 25.0784L33.6457 25.0181L33.6963 24.9573L33.7464 24.896L33.7956 24.8345L33.8443 24.7723L33.8923 24.7098L33.9396 24.6468L33.9861 24.5835L34.0319 24.5199L34.0772 24.4557L34.1216 24.3912L34.1654 24.3264L34.2086 24.261L34.2507 24.1956L34.2925 24.1296L34.3334 24.0632L34.3736 23.9966L34.413 23.9296L34.4519 23.8622L34.4897 23.7948L34.5271 23.7267L34.5636 23.6585L34.5993 23.59L34.6345 23.521L34.6687 23.4522L34.7024 23.3826L34.7351 23.3132L34.7673 23.2431L34.7985 23.1731L34.8292 23.1025L34.859 23.032L34.888 22.9612L34.9163 22.8901L34.9439 22.8188L34.9705 22.7475L34.9967 22.6757L35.0218 22.6038L35.0463 22.5318L35.07 22.4596L35.093 22.3872L35.1152 22.3146L35.1366 22.242L35.1573 22.1691L35.1771 22.0962L35.1962 22.0231L35.2145 21.9499L35.2321 21.8767L35.2489 21.8031L35.2648 21.7296L35.2801 21.6561L35.2945 21.5825L35.3082 21.5088L35.3211 21.4347L35.3332 21.361L35.3446 21.2871L35.3551 21.213L35.3649 21.1392L35.374 21.0651L35.3823 20.9909L35.3897 20.9172L35.3965 20.8428L35.4025 20.7688L35.4076 20.6949L35.412 20.6208L35.4156 20.5469L35.4185 20.473L35.4206 20.3989L35.4219 20.3253L35.4225 20.2513L35.4223 20.1776L35.4214 20.1039L35.4196 20.0304L35.4171 19.9569L35.4139 19.8834L35.4099 19.8103L35.4052 19.737L35.3997 19.6638L35.3935 19.5911L35.3865 19.5181L35.3787 19.4456L35.3702 19.3729L35.361 19.3006L35.3511 19.2284L35.3404 19.1562L35.3289 19.0844L35.3168 19.0128L35.3039 18.9413L35.2903 18.87L35.2759 18.7987L35.2608 18.7279L35.2451 18.6573L35.2286 18.5868L35.2114 18.5165L35.1935 18.4467L35.1748 18.3768L35.1555 18.3074L35.1355 18.2381L35.1148 18.1692L35.0934 18.1005L35.0712 18.032L35.0485 17.964L35.0251 17.8962L35.0008 17.8284L34.9761 17.7613L34.9506 17.6943L34.9244 17.6278L34.8976 17.5614L34.8701 17.4954L34.842 17.4299L34.8132 17.3645L34.7838 17.2996L34.7538 17.2351L34.723 17.1708L34.6916 17.1068L34.6597 17.0434L34.6271 16.9802L34.5939 16.9176L34.5601 16.8553L34.5256 16.7931L34.4906 16.7317L34.4549 16.6705L34.4187 16.6098L34.3818 16.5494L34.3445 16.4896L34.3064 16.43L34.2679 16.371L34.2287 16.3125L34.189 16.2543L34.1487 16.1965L34.1078 16.1393L34.0666 16.0826L34.0245 16.0261L33.9821 15.9703L33.939 15.9149L33.8957 15.8601L33.8515 15.8055L33.8069 15.7516L33.7618 15.6981L33.7162 15.6451L33.6702 15.5928L33.6235 15.5407L33.5765 15.4893L33.5289 15.4383L33.481 15.3881L33.4323 15.3381L33.3834 15.2888L33.3339 15.2398L33.284 15.1916L33.2338 15.1439L33.183 15.0966L33.1317 15.0499L33.08 15.0039L33.028 14.9583L32.9753 14.9132L32.9227 14.8689L32.8693 14.8249L32.8156 14.7816L32.7615 14.739L32.707 14.6967L32.6521 14.6551L32.5971 14.6142L32.5413 14.5737L32.4852 14.5338L32.4291 14.4947L32.3722 14.4559L32.3154 14.418L32.2581 14.3805L32.2004 14.3436L32.1423 14.3073L32.0842 14.2718L32.0254 14.2367L31.9666 14.2023L31.9072 14.1684L31.848 14.1354L31.7881 14.1028L31.728 14.0708L31.6677 14.0394L31.6072 14.0088L31.5464 13.9787L31.4852 13.9492L31.424 13.9204L31.3626 13.8923L31.3005 13.8646L31.2387 13.8378L31.1765 13.8115L31.114 13.7858L31.0514 13.7608L30.9887 13.7365L30.9258 13.7128L30.8624 13.6896L30.7992 13.6673L30.7356 13.6455L30.6719 13.6243L30.6083 13.6038L30.5443 13.584L30.4804 13.5648L30.4159 13.5462L30.3516 13.5284L30.2872 13.5111L30.2227 13.4946L30.158 13.4786L30.0931 13.4633L30.0283 13.4487L29.9636 13.4347L29.8985 13.4214L29.8332 13.4086L29.7684 13.3967L29.7031 13.3853L29.6379 13.3746L29.5725 13.3644L29.5074 13.3551L29.4418 13.3462L29.3766 13.3382L29.3112 13.3307L29.2459 13.3239L29.1806 13.3177L29.1151 13.3122L29.0499 13.3073L28.9844 13.3031L28.9192 13.2995L28.8541 13.2966L28.7886 13.2942L28.7236 13.2926L28.6585 13.2916L28.5935 13.2912L28.549 13.2914L28.5827 16.1229L28.6028 16.123L28.6402 16.1235L28.6776 16.1244L28.7151 16.1256L28.7526 16.1274L28.7902 16.1294L28.8278 16.1318L28.8655 16.1346L28.9031 16.1379L28.9409 16.1415L28.9786 16.1454L29.0163 16.1498L29.0542 16.1546L29.0919 16.1598L29.1297 16.1653L29.1675 16.1713L29.2053 16.1777L29.2431 16.1844L29.2809 16.1916L29.3186 16.1991L29.3564 16.2072L29.3941 16.2155L29.4318 16.2243L29.4694 16.2334L29.5071 16.2429L29.5447 16.2529L29.5822 16.2633L29.6197 16.274L29.6571 16.2852L29.6945 16.2967L29.7318 16.3087L29.7691 16.3211L29.8062 16.3338L29.8433 16.347L29.8803 16.3605L29.9172 16.3745L29.9541 16.3888L29.9908 16.4036L30.0274 16.4187L30.064 16.4343L30.1004 16.4502L30.1367 16.4666L30.173 16.4833L30.209 16.5005L30.245 16.518L30.2808 16.5359L30.3165 16.5543L30.352 16.5729L30.3874 16.5921L30.4227 16.6116L30.4578 16.6314L30.4927 16.6517L30.5274 16.6723L30.5621 16.6934L30.5965 16.7148L30.6308 16.7367L30.6648 16.7588L30.6987 16.7814L30.7325 16.8044L30.766 16.8277L30.7993 16.8514L30.8324 16.8755L30.8653 16.8999L30.898 16.9248L30.9305 16.95L30.9628 16.9755L30.9948 17.0015L31.0266 17.0277L31.0582 17.0544L31.0896 17.0814L31.1207 17.1088L31.1516 17.1366L31.1822 17.1647L31.2125 17.1931L31.2426 17.2219L31.2725 17.2511L31.302 17.2806L31.3313 17.3104L31.3604 17.3406L31.3891 17.3711L31.4175 17.402L31.4457 17.4332L31.4737 17.4647L31.5012 17.4966L31.5285 17.5287L31.5555 17.5612L31.5822 17.5941L31.6086 17.6272L31.6346 17.6607L31.6604 17.6945L31.6859 17.7285L31.7109 17.763L31.7356 17.7976L31.7601 17.8326L31.7842 17.868L31.808 17.9036L31.8314 17.9394L31.8545 17.9757L31.8772 18.0121L31.8996 18.0489L31.9215 18.0859L31.9432 18.1232L31.9645 18.1608L31.9853 18.1986L32.0059 18.2367L32.0261 18.2751L32.0458 18.3138L32.0653 18.3526L32.0842 18.3918L32.1029 18.4312L32.1211 18.4708L32.1389 18.5107L32.1564 18.5508L32.1734 18.5912L32.1901 18.6318L32.2063 18.6726L32.2221 18.7136L32.2375 18.7548L32.2525 18.7963L32.2671 18.838L32.2812 18.8799L32.2949 18.9219L32.3082 18.9642L32.3211 19.0067L32.3335 19.0494L32.3455 19.0923L32.3571 19.1352L32.3682 19.1784L32.3788 19.2219L32.3891 19.2654L32.3989 19.3091L32.4082 19.353L32.4171 19.3971L32.4255 19.4412L32.4335 19.4856L32.441 19.53L32.4481 19.5746L32.4546 19.6194L32.4607 19.6642L32.4664 19.7092L32.4716 19.7544L32.4763 19.7996L32.4805 19.8449L32.4843 19.8903L32.4876 19.9359L32.4904 19.9815L32.4927 20.0273L32.4945 20.0731L32.496 20.119L32.4968 20.165L32.4973 20.211L32.4971 20.2571L32.4966 20.3033L32.4955 20.3496L32.4939 20.3958L32.4919 20.4422L32.4893 20.4885L32.4863 20.535L32.4828 20.5814L32.4787 20.6279L32.4742 20.6744L32.4692 20.7209L32.4637 20.7674L32.4576 20.814L32.4512 20.8605L32.4441 20.907L32.4366 20.9535L32.4286 21L32.42 21.0465L32.411 21.093L32.4015 21.1395L32.3914 21.1859L32.3809 21.2322L32.3699 21.2786L32.3583 21.3249L32.3462 21.3711L32.3337 21.4173L32.3206 21.4634L32.3071 21.5094L32.293 21.5553L32.2784 21.6012L32.2634 21.647L32.2478 21.6927L32.2317 21.7383L32.2151 21.7838L32.198 21.8292L32.1804 21.8745L32.1624 21.9197L32.1438 21.9647L32.1247 22.0096L32.1051 22.0544L32.085 22.0991L32.0644 22.1436L32.0433 22.1879L32.0217 22.2321L31.9997 22.2762L31.9771 22.32L31.9541 22.3638L31.9305 22.4073L31.9065 22.4506L31.882 22.4938L31.857 22.5368L31.8315 22.5796L31.8055 22.6221L31.779 22.6646L31.7521 22.7067L31.7247 22.7487L31.6968 22.7904L31.6685 22.8319L31.6396 22.8732L31.6103 22.9143L31.5805 22.9551L31.5503 22.9956L31.5195 23.0359L31.4884 23.076L31.4567 23.1158L31.4246 23.1553L31.3921 23.1945L31.3591 23.2335L31.3257 23.2722L31.2917 23.3106L31.2573 23.3487L31.2225 23.3866L31.1873 23.4241L31.1517 23.4613L31.1155 23.4983L31.079 23.5349L31.042 23.5711L31.0046 23.6071L30.9667 23.6427L30.9285 23.678L30.8898 23.7129L30.8507 23.7476L30.8113 23.7819L30.7713 23.8158L30.731 23.8493L30.6903 23.8825L30.6492 23.9154L30.6077 23.9478L30.5658 23.9799L30.5235 24.0116L30.4808 24.0429L30.4378 24.0738L30.3943 24.1044L30.3506 24.1346L30.3064 24.1643L30.2618 24.1937L30.2169 24.2226L30.1717 24.2511L30.126 24.2793L30.0801 24.3069L30.0338 24.3342L29.9871 24.361L29.9401 24.3874L29.8928 24.4134L29.8451 24.4389L29.7972 24.464L29.7489 24.4887L29.7002 24.5128L29.6513 24.5366L29.6021 24.5598L29.5525 24.5826L29.5027 24.605L29.4526 24.6268L29.4022 24.6483L29.3515 24.6692L29.3005 24.6896L29.2492 24.7095L29.1977 24.729L29.1458 24.748L29.0938 24.7665L29.0415 24.7845L28.9889 24.802L28.9361 24.819L28.8831 24.8355L28.8298 24.8514L28.7763 24.867L28.7226 24.8819L28.6686 24.8964L28.6145 24.9102L28.5601 24.9237L28.5055 24.9365L28.4507 24.9489L28.3957 24.9606L28.3406 24.972L28.2852 24.9827L28.2297 24.9929L28.1741 25.0026L28.1182 25.0117L28.0622 25.0203L28.006 25.0283L27.9498 25.0358L27.8933 25.0428L27.8367 25.0491L27.78 25.0549L27.7231 25.0602L27.6662 25.0649L27.6091 25.0691L27.5518 25.0726L27.4946 25.0757L27.4372 25.0782L27.3797 25.08L27.3221 25.0813L27.2644 25.0821L27.2067 25.0823L27.149 25.0819L27.0911 25.0809L27.0332 25.0794L26.9753 25.0773L26.9173 25.0746L26.8592 25.0713L26.8011 25.0674L26.743 25.063L26.685 25.058L26.6268 25.0524L26.5687 25.0462L26.5106 25.0394L26.4525 25.032L26.3944 25.0241L26.3363 25.0156L26.2782 25.0065L26.2202 24.9968L26.1622 24.9865L26.1043 24.9756L26.0464 24.9642L25.9885 24.9522L25.9307 24.9396L25.873 24.9263L25.8154 24.9125L25.7578 24.8982L25.7003 24.8832L25.643 24.8676L25.5857 24.8514L25.5286 24.8347L25.4715 24.8174L25.4145 24.7995L25.3578 24.781L25.301 24.762L25.2445 24.7423L25.1881 24.7221L25.1319 24.7012L25.0758 24.6798L25.0198 24.6579L24.9641 24.6353L24.9085 24.6122L24.8532 24.5885L24.7979 24.5642L24.7429 24.5394L24.6881 24.5139L24.6334 24.4879L24.579 24.4614L24.5249 24.4342L24.471 24.4065L24.4172 24.3783L24.3638 24.3495L24.3105 24.3201L24.2576 24.2901L24.2048 24.2596L24.1523 24.2286L24.1001 24.197L24.0482 24.1648L23.9966 24.1321L23.9452 24.0989L23.8941 24.0651L23.8434 24.0307L23.793 23.9958L23.7428 23.9604L23.6929 23.9245L23.6434 23.888L23.5943 23.851L23.5454 23.8135L23.4969 23.7754L23.4488 23.7369L23.401 23.6978L23.3535 23.6582L23.3064 23.6181L23.2597 23.5774L23.2134 23.5363L23.1675 23.4947L23.1219 23.4525L23.0767 23.4099L23.032 23.3668L22.9875 23.3232L22.9436 23.2791L22.9001 23.2346L22.8569 23.1895L22.8142 23.1441L22.7719 23.098L22.7301 23.0516L22.6887 23.0047L22.6478 22.9573L22.6073 22.9095L22.5672 22.8612L22.5277 22.8125L22.4886 22.7634L22.4499 22.7138L22.4117 22.6638L22.3741 22.6133L22.3369 22.5624L22.3002 22.5111L22.264 22.4594L22.2283 22.4073L22.1931 22.3548L22.1585 22.3018L22.1244 22.2485L22.0907 22.1948L22.0576 22.1407L22.025 22.0862L21.993 22.0314L21.9615 21.9761L21.9306 21.9205L21.9001 21.8646L21.8703 21.8082L21.841 21.7515L21.8122 21.6945L21.784 21.6372L21.7565 21.5795L21.7294 21.5215L21.703 21.4632L21.6772 21.4045L21.6519 21.3455L21.6271 21.2862L21.603 21.2266L21.5795 21.1668L21.5566 21.1065L21.5344 21.0461L21.5127 20.9853L21.4916 20.9244L21.4712 20.8631L21.4513 20.8015L21.4321 20.7397L21.4135 20.6777L21.3955 20.6154L21.3782 20.5528L21.3616 20.49L21.3454 20.427L21.3301 20.3638L21.3153 20.3004L21.3011 20.2368L21.2877 20.1729L21.2749 20.1089L21.2627 20.0447L21.2511 19.9803L21.2403 19.9157L21.2301 19.851L21.2205 19.786L21.2117 19.721L21.2035 19.6557L21.196 19.5904L21.1891 19.5249L21.183 19.4592L21.1775 19.3935L21.1726 19.3276L21.1685 19.2616L21.165 19.1955L21.1622 19.1294L21.1601 19.0631L21.1588 18.9967L21.1581 18.9303L21.158 18.8638L21.1587 18.7972L21.1601 18.7306L21.1622 18.6639L21.165 18.5972L21.1684 18.5304L21.1726 18.4637L21.1774 18.3969L21.183 18.33L21.1892 18.2632L21.1961 18.1964L21.2038 18.1296L21.2122 18.0627L21.2212 17.996L21.231 17.9292L21.2415 17.8625L21.2527 17.7958L21.2645 17.7291L21.2771 17.6625L21.2904 17.596L21.3045 17.5296L21.3191 17.4632L21.3345 17.3969L21.3506 17.3307L21.3674 17.2646L21.385 17.1986L21.4032 17.1327L21.4221 17.067L21.4417 17.0013L21.462 16.9358L21.4831 16.8704L21.5047 16.8051L21.5272 16.7401L21.5503 16.6752L21.5741 16.6104L21.5986 16.5459L21.6238 16.4815L21.6497 16.4173L21.6763 16.3533L21.7036 16.2895L21.7315 16.2259L21.7602 16.1625L21.7895 16.0994L21.8196 16.0365L21.8503 15.9738L21.8817 15.9114L21.9137 15.8492L21.9464 15.7873L21.9798 15.7257L22.0139 15.6643L22.0487 15.6032L22.0841 15.5424L22.1201 15.4819L22.1569 15.4217L22.1943 15.3618L22.2324 15.3022L22.2711 15.2429L22.3104 15.1839L22.3504 15.1254L22.3911 15.0671L22.4324 15.0092L22.4743 14.9517L22.5169 14.8944L22.56 14.8376L22.6039 14.7812L22.6483 14.7251L22.6934 14.6694L22.7392 14.6141L22.7854 14.5593L22.8323 14.5047L22.8799 14.4507L22.928 14.397L22.9767 14.3438L23.0261 14.2911L23.076 14.2387L23.1266 14.1868L23.1776 14.1354L23.2293 14.0844L23.2816 14.0338L23.3344 13.9838L23.3878 13.9342L23.4417 13.8851L23.4962 13.8365L23.5512 13.7883L23.6069 13.7408L23.663 13.6936L23.7197 13.647L23.7769 13.601L23.8347 13.5554L23.8929 13.5104L23.9517 13.4659L24.011 13.422L24.0708 13.3785L24.1312 13.3357L24.192 13.2934L24.2533 13.2516L24.3151 13.2105L24.3773 13.1699L24.4401 13.1299L24.5033 13.0905L24.567 13.0516L24.6312 13.0134L24.6957 12.9757L24.7608 12.9387L24.8263 12.9022L24.8922 12.8664L24.9585 12.8312L25.0253 12.7966L25.0925 12.7626L25.16 12.7293L25.228 12.6966L25.2964 12.6646L25.3652 12.6332L25.4344 12.6024L25.5039 12.5724L25.5739 12.5429L25.6441 12.5141L25.7147 12.486L25.7857 12.4586L25.8571 12.4318L25.9287 12.4057L26.0007 12.3804L26.0731 12.3556L26.1457 12.3316L26.2187 12.3083L26.2919 12.2856L26.3655 12.2637L26.4393 12.2425L26.5135 12.222L26.5879 12.2022L26.6625 12.1831L26.7375 12.1647L26.8126 12.1471L26.8881 12.1302L26.9638 12.114L27.0397 12.0986L27.1158 12.0839L27.1539 12.0768ZM28.0894 17.5221L27.2212 17.7286L27.1702 13.4465L27.1293 13.4556L27.0677 13.4701L27.0062 13.4852L26.9451 13.5008L26.8841 13.517L26.8234 13.5338L26.7628 13.5513L26.7028 13.5691L26.6426 13.5877L26.5831 13.6067L26.5236 13.6264L26.4643 13.6467L26.4054 13.6674L26.3468 13.6887L26.2886 13.7106L26.2305 13.7331L26.1728 13.756L26.1154 13.7795L26.058 13.8036L26.0015 13.8281L25.9449 13.8533L25.8889 13.8789L25.8329 13.9051L25.7775 13.9317L25.7222 13.959L25.6675 13.9866L25.613 14.0148L25.5589 14.0436L25.5052 14.0727L25.4518 14.1024L25.3988 14.1327L25.3464 14.1633L25.2939 14.1945L25.2421 14.2261L25.1907 14.2582L25.1396 14.2908L25.0888 14.3238L25.0386 14.3574L24.9887 14.3913L24.9392 14.4257L24.8903 14.4605L24.8416 14.4958L24.7933 14.5316L24.7456 14.5677L24.6982 14.6043L24.6514 14.6412L24.605 14.6787L24.5589 14.7165L24.5132 14.7549L24.4682 14.7934L24.4235 14.8325L24.3793 14.8719L24.3355 14.9117L24.2922 14.952L24.2494 14.9925L24.2071 15.0334L24.1651 15.0748L24.1238 15.1164L24.0829 15.1585L24.0425 15.2008L24.0024 15.2437L23.963 15.2867L23.9241 15.3301L23.8856 15.3739L23.8477 15.4179L23.8102 15.4623L23.7734 15.5069L23.7368 15.552L23.701 15.5973L23.6655 15.6429L23.6306 15.6889L23.5963 15.735L23.5624 15.7815L23.5291 15.8282L23.4963 15.8753L23.4639 15.9225L23.4322 15.9702L23.401 16.0179L23.3704 16.0659L23.3402 16.1142L23.3107 16.1627L23.2815 16.2116L23.253 16.2604L23.225 16.3097L23.1975 16.3591L23.1707 16.4087L23.1443 16.4585L23.1186 16.5085L23.0933 16.5588L23.0686 16.6091L23.0445 16.6598L23.0209 16.7105L22.9979 16.7614L22.9754 16.8125L22.9535 16.8638L22.9321 16.9151L22.9114 16.9667L22.8912 17.0184L22.8714 17.0702L22.8524 17.122L22.8338 17.1741L22.8158 17.2263L22.7984 17.2786L22.7816 17.331L22.7653 17.3835L22.7496 17.4361L22.7345 17.4887L22.7199 17.5415L22.7058 17.5944L22.6924 17.6472L22.6795 17.7002L22.6672 17.7532L22.6554 17.8063L22.6443 17.8595L22.6336 17.9126L22.6235 17.9658L22.6141 18.0191L22.6052 18.0723L22.5968 18.1255L22.589 18.1789L22.5817 18.2321L22.5751 18.2855L22.569 18.3387L22.5634 18.392L22.5585 18.4454L22.554 18.4986L22.5502 18.5518L22.5469 18.6051L22.5441 18.6582L22.5419 18.7113L22.5402 18.7643L22.5392 18.8174L22.5386 18.8703L22.5387 18.9232L22.5392 18.976L22.5403 19.0288L22.542 19.0815L22.5442 19.134L22.5469 19.1865L22.5502 19.2389L22.554 19.2912L22.5584 19.3434L22.5633 19.3954L22.5687 19.4475L22.5747 19.4991L22.5811 19.551L22.5881 19.6024L22.5957 19.6539L22.6038 19.7052L22.6124 19.7563L22.6215 19.8074L22.6312 19.8582L22.6413 19.9089L22.6519 19.9593L22.6632 20.0097L22.6748 20.0598L22.687 20.1098L22.6997 20.1594L22.713 20.2092L22.7266 20.2584L22.7407 20.3077L22.7554 20.3566L22.7706 20.4054L22.7862 20.454L22.8024 20.5022L22.819 20.5504L22.8361 20.5983L22.8537 20.6458L22.8717 20.6933L22.8902 20.7405L22.9092 20.7873L22.9286 20.834L22.9484 20.8803L22.9688 20.9265L22.9896 20.9724L23.0109 21.018L23.0326 21.0633L23.0546 21.1083L23.0773 21.1533L23.1002 21.1977L23.1236 21.2418L23.1475 21.2858L23.1718 21.3294L23.1965 21.3727L23.2216 21.4158L23.2472 21.4584L23.2731 21.5008L23.2994 21.5429L23.3262 21.5846L23.3534 21.6261L23.3809 21.6672L23.4088 21.708L23.437 21.7483L23.4657 21.7885L23.4948 21.8283L23.5242 21.8676L23.5541 21.9068L23.5842 21.9455L23.6147 21.9838L23.6456 22.0218L23.6769 22.0596L23.7084 22.0968L23.7404 22.1337L23.7726 22.1703L23.8052 22.2065L23.8382 22.2423L23.8714 22.2777L23.905 22.3128L23.9389 22.3475L23.973 22.3818L24.0076 22.4157L24.0424 22.4492L24.0775 22.4823L24.1129 22.515L24.1486 22.5474L24.1846 22.5793L24.2208 22.6108L24.2573 22.6419L24.2941 22.6727L24.3312 22.703L24.3685 22.7329L24.4062 22.7624L24.4439 22.7914L24.482 22.8201L24.5204 22.8483L24.5589 22.8762L24.5977 22.9035L24.6367 22.9305L24.676 22.9571L24.7155 22.9832L24.7551 23.0088L24.7949 23.0341L24.8352 23.059L24.8754 23.0833L24.9158 23.1073L24.9566 23.1309L24.9973 23.1539L25.0383 23.1765L25.0797 23.1988L25.121 23.2206L25.1625 23.2419L25.2042 23.2627L25.2461 23.2832L25.288 23.3031L25.3303 23.3227L25.3725 23.3418L25.4148 23.3604L25.4575 23.3787L25.5002 23.3964L25.5429 23.4138L25.5858 23.4306L25.6288 23.447L25.6721 23.463L25.7152 23.4785L25.7586 23.4936L25.8019 23.5081L25.8454 23.5223L25.889 23.536L25.9327 23.5493L25.9764 23.562L26.0202 23.5744L26.0641 23.5863L26.108 23.5977L26.1519 23.6087L26.1959 23.6193L26.2399 23.6293L26.2839 23.6389L26.3281 23.6481L26.3722 23.6568L26.4164 23.6652L26.4605 23.673L26.5047 23.6804L26.5489 23.6873L26.5932 23.6938L26.6372 23.6998L26.6814 23.7054L26.7256 23.7105L26.7698 23.7153L26.8139 23.7195L26.8581 23.7233L26.9021 23.7267L26.9461 23.7296L26.9902 23.7321L27.0341 23.7341L27.0779 23.7357L27.1219 23.7369L27.1656 23.7376L27.2093 23.7379L27.253 23.7378L27.2965 23.7372L27.3401 23.7362L27.3836 23.7348L27.4268 23.733L27.4701 23.7306L27.5134 23.7279L27.5563 23.7248L27.5993 23.7213L27.6421 23.7173L27.6849 23.7129L27.7275 23.7081L27.77 23.7029L27.8124 23.6973L27.8546 23.6912L27.8966 23.6847L27.9388 23.6779L27.9806 23.6706L28.0222 23.663L28.0638 23.6549L28.1052 23.6464L28.1463 23.6376L28.1873 23.6283L28.2283 23.6187L28.2691 23.6086L28.3096 23.5983L28.35 23.5875L28.3901 23.5763L28.4302 23.5647L28.47 23.5527L28.5095 23.5404L28.5491 23.5277L28.5883 23.5146L28.6273 23.5013L28.6661 23.4875L28.7047 23.4733L28.7431 23.4588L28.7813 23.4439L28.8192 23.4287L28.857 23.4132L28.8945 23.3972L28.9318 23.3809L28.9687 23.3643L29.0057 23.3474L29.0422 23.3301L29.0784 23.3125L29.1146 23.2946L29.1503 23.2764L29.1859 23.2578L29.2212 23.2388L29.2563 23.2196L29.291 23.2001L29.3256 23.1802L29.3598 23.16L29.3937 23.1396L29.4274 23.1188L29.4608 23.0977L29.494 23.0764L29.5269 23.0547L29.5594 23.0328L29.5918 23.0106L29.6238 22.9881L29.6554 22.9653L29.6868 22.9422L29.7179 22.9189L29.7487 22.8953L29.7792 22.8714L29.8095 22.8473L29.8393 22.823L29.8689 22.7984L29.8982 22.7735L29.9271 22.7484L29.9558 22.723L29.9841 22.6974L30.0121 22.6716L30.0397 22.6455L30.0671 22.6192L30.0942 22.5927L30.1209 22.566L30.1473 22.539L30.1733 22.5118L30.1989 22.4845L30.2244 22.4568L30.2493 22.4292L30.2741 22.4011L30.2984 22.3729L30.3224 22.3446L30.3462 22.316L30.3694 22.2873L30.3925 22.2584L30.4151 22.2294L30.4373 22.2001L30.4593 22.1706L30.4809 22.1412L30.5021 22.1113L30.5231 22.0814L30.5436 22.0515L30.5637 22.0212L30.5836 21.9909L30.603 21.9604L30.6221 21.9298L30.6409 21.8991L30.6593 21.8682L30.6773 21.8372L30.695 21.8061L30.7123 21.7749L30.7292 21.7434L30.7458 21.7121L30.762 21.6805L30.7779 21.6489L30.7934 21.6171L30.8085 21.5852L30.8233 21.5533L30.8377 21.5213L30.8517 21.4893L30.8654 21.457L30.8787 21.4248L30.8917 21.3924L30.9042 21.3602L30.9165 21.3275L30.9282 21.2953L30.9398 21.2626L30.9509 21.2299L30.9616 21.1974L30.972 21.1647L30.982 21.132L30.9917 21.099L31.0009 21.0665L31.01 21.0334L31.0185 21.0009L31.0267 20.9679L31.0345 20.9349L31.042 20.9021L31.0491 20.8694L31.0558 20.8362L31.0622 20.8035L31.0683 20.7704L31.0739 20.7377L31.0793 20.7048L31.0842 20.6719L31.0888 20.639L31.0931 20.6061L31.097 20.5734L31.1005 20.5408L31.1037 20.5079L31.1065 20.4753L31.109 20.4426L31.1111 20.4099L31.1129 20.3774L31.1144 20.3449L31.1154 20.3126L31.1162 20.28L31.1166 20.2476L31.1167 20.2154L31.1164 20.1832L31.1158 20.1511L31.1148 20.1191L31.1135 20.0869L31.1119 20.0553L31.1099 20.0231L31.1077 19.9917L31.105 19.9601L31.1021 19.9283L31.0988 19.8969L31.0952 19.8657L31.0912 19.8342L31.087 19.8033L31.0824 19.7721L31.0776 19.7415L31.0723 19.7105L31.0668 19.6797L31.061 19.6493L31.0549 19.6189L31.0485 19.5885L31.0417 19.5584L31.0347 19.5283L31.0273 19.4985L31.0197 19.4688L31.0116 19.439L31.0035 19.4097L30.9949 19.3802L30.9861 19.3512L30.977 19.3221L30.9676 19.2933L30.9578 19.2646L30.9478 19.236L30.9377 19.2078L30.9271 19.1796L30.9163 19.1514L30.9052 19.1237L30.8938 19.0958L30.8823 19.0686L30.8703 19.041L30.8583 19.014L30.8458 18.9871L30.8332 18.9603L30.8203 18.9337L30.8071 18.9073L30.7937 18.8811L30.7801 18.8551L30.7661 18.8293L30.7521 18.8037L30.7377 18.7783L30.723 18.7531L30.7082 18.7281L30.6932 18.7034L30.6778 18.6787L30.6623 18.6545L30.6465 18.6303L30.6306 18.6064L30.6144 18.5826L30.598 18.5592L30.5814 18.5359L30.5646 18.5129L30.5475 18.4901L30.5303 18.4675L30.513 18.4452L30.4953 18.423L30.4775 18.4011L30.4595 18.3795L30.4413 18.358L30.423 18.3368L30.4045 18.3159L30.3858 18.2952L30.3668 18.2747L30.3478 18.2544L30.3286 18.2344L30.3091 18.2147L30.2896 18.1951L30.2699 18.1759L30.25 18.1569L30.2301 18.1382L30.2097 18.1196L30.1895 18.1014L30.169 18.0833L30.1485 18.0656L30.1277 18.048L30.1068 18.0309L30.0858 18.0138L30.0647 17.9971L30.0435 17.9806L30.0221 17.9643L30.0006 17.9484L29.979 17.9327L29.9572 17.9172L29.9355 17.9021L29.9135 17.8871L29.8915 17.8725L29.8694 17.8581L29.8471 17.8439L29.8249 17.83L29.8024 17.8164L29.7799 17.803L29.7574 17.79L29.7347 17.7771L29.7119 17.7645L29.6891 17.7522L29.6663 17.7402L29.6434 17.7284L29.6205 17.7169L29.5973 17.7056L29.5742 17.6946L29.551 17.684L29.5278 17.6735L29.5045 17.6633L29.4811 17.6533L29.4579 17.6437L29.4344 17.6343L29.4109 17.6252L29.3875 17.6163L29.364 17.6077L29.3405 17.5994L29.3169 17.5913L29.2933 17.5834L29.2698 17.5759L29.2462 17.5686L29.2225 17.5615L29.199 17.5548L29.1752 17.5482L29.1517 17.542L29.1281 17.536L29.1044 17.5302L29.0808 17.5248L29.0572 17.5195L29.0335 17.5146L29.0099 17.5098L28.9864 17.5053L28.9629 17.5011L28.9393 17.4972L28.9159 17.4935L28.8923 17.49L28.869 17.4868L28.8455 17.4838L28.8222 17.4811L28.799 17.4786L28.7756 17.4765L28.7524 17.4744L28.7292 17.4727L28.7061 17.4712L28.683 17.4699L28.6599 17.469L28.6371 17.4682L28.6141 17.4676L28.5913 17.4673L28.5685 17.4672L28.5458 17.4675L28.5231 17.4678L28.5006 17.4684L28.4781 17.4693L28.4558 17.4704L28.4333 17.4717L28.4112 17.4732L28.389 17.475L28.367 17.477L28.3451 17.4792L28.3231 17.4816L28.3014 17.4842L28.2797 17.487L28.2581 17.4901L28.2366 17.4934L28.2153 17.4969L28.194 17.5005L28.1729 17.5044L28.1518 17.5086L28.1309 17.5128L28.11 17.5173L28.0894 17.5221Z" fill="white"/>
  </g>
</svg>