<svg width="1728" height="980" viewBox="0 0 1728 980" fill="none" xmlns="http://www.w3.org/2000/svg">
<path d="M2390.52 -454.413C2395.69 -453.907 2401.55 -453.195 2409.41 -450.831C2417.09 -448.081 2428.97 -445.019 2442.21 -428.491C2452.47 -415.199 2454.68 -398.39 2453.8 -388.654C2453.03 -378.471 2450.68 -372.016 2448.64 -366.766C2444.38 -356.465 2440.18 -350.333 2436.16 -344.592C2428.12 -333.481 2420.39 -325.324 2412.28 -317.433C2355.06 -271.815 2320.58 -273.349 2278.32 -257.451C2237.33 -244.915 2196.14 -233.201 2152.88 -221.09C2102.02 -206.879 2049.04 -192.45 1991.89 -177.148C1991.79 -177.122 1991.7 -177.096 1991.61 -177.07C1965.81 -170.167 1939.2 -163.099 1911.5 -155.798C1728.45 -107.839 1500.1 -48.4907 1179.08 25.3337C1110.76 40.937 1038.34 56.9906 961.251 73.566C691.78 131.582 451.729 175.837 252.83 215.015C139.268 238.073 36.0957 258.165 -41.9218 284.824C-47.3386 286.769 -52.7034 288.792 -56.5252 290.456C-57.4417 290.854 -58.2275 291.223 -58.5506 291.376C-58.696 291.442 -58.7317 291.462 -58.4193 291.259C-58.0836 291.018 -57.5192 290.74 -55.6389 289.144C-54.6873 288.285 -53.3231 287.163 -51.0476 284.208C-49.1721 281.327 -44.1027 275.69 -43.9665 262.095C-44.0435 255.327 -46.4339 248.443 -49.4052 243.801C-52.1762 239.368 -55.2241 236.588 -57.1693 235.01C-61.5223 231.619 -63.5134 230.978 -65.0749 230.25C-67.964 229.086 -68.5824 229.078 -69.0155 228.957C-69.3806 228.884 -69.2737 228.924 -69.0162 228.976C-68.9448 229.169 -64.9713 229.382 -60.4794 229.246C-55.8798 229.132 -51.023 228.867 -46.0663 228.551C-36.0992 227.903 -26.2633 227.083 -16.4887 226.221C13.4957 223.536 44.3074 220.258 97.706 213.92C122.454 210.974 152.554 207.292 189.342 202.531C265.255 192.646 367.714 178.714 515.069 154.844C593.437 142.108 684.665 126.456 790.929 106.542C829.757 99.2622 871.001 91.3127 914.299 82.6962C1216.74 22.7017 1620.01 -71.511 2013.64 -166.939C2074.55 -181.605 2135.07 -196.292 2195.39 -210.38C2206.05 -212.852 2216.74 -215.31 2227.54 -217.667C2233.08 -218.87 2238.38 -220.003 2244.33 -221.133C2247.38 -221.699 2250.28 -222.244 2254.37 -222.766C2255.61 -222.918 2256.57 -223.027 2258.22 -223.145C2259.09 -223.205 2260.01 -223.25 2261.05 -223.265C2262.22 -223.28 2264.06 -223.266 2266.26 -223.017C2267.36 -222.896 2269.77 -222.565 2272.38 -221.798C2273.05 -221.602 2273.77 -221.371 2274.53 -221.093C2274.92 -220.954 2275.31 -220.803 2275.72 -220.638C2275.93 -220.555 2276.13 -220.469 2276.34 -220.379C2276.6 -220.269 2277 -220.095 2277.33 -219.937C2280.12 -218.634 2283.54 -216.629 2286.99 -213.221C2288.7 -211.527 2290.39 -209.485 2291.85 -207.16C2293.6 -204.372 2295 -201.173 2295.85 -197.993C2297.63 -191.713 2297 -185.157 2296.28 -182.068C2294.87 -175.679 2292.42 -172.004 2291.49 -170.482C2290.35 -168.729 2289.41 -167.557 2288.7 -166.698C2288.08 -165.962 2287.57 -165.403 2287.14 -164.941C2286.27 -164.017 2285.84 -163.604 2285.46 -163.224C2271.8 -150.371 2261.02 -141.965 2247.56 -132.014C2099 -69.0192 1978.95 -39.0466 1856.39 2.66669C1743.14 39.2932 1637.12 73.4408 1544.65 103.182C1228.69 204.8 923.89 302.086 592.24 408.313C531.546 427.759 469.741 447.576 407.46 467.594C346.139 487.309 284.657 507.11 221.555 527.601C190.11 537.818 158.223 548.213 126.302 558.769C110.187 564.103 94.2072 569.423 78.1897 574.886C70.164 577.626 62.0849 580.415 54.3044 583.21C50.607 584.538 46.4688 586.057 43.0445 587.396C41.2854 588.083 39.6154 588.765 38.4694 589.278C38.1944 589.401 38.026 589.48 37.886 589.547C37.8313 589.573 37.8165 589.581 37.8468 589.565C37.8778 589.548 37.9422 589.515 38.1529 589.395C38.3548 589.28 38.6581 589.102 39.094 588.818C39.6638 588.442 40.6048 587.809 41.9031 586.68C42.4825 586.18 43.9754 584.807 45.3504 583.087C46.0662 582.198 46.8324 581.145 47.6015 579.881C48.5767 578.301 49.9035 575.67 50.7403 572.802C51.6091 569.813 52.1109 566.79 51.9752 562.9C51.8253 558.932 50.8395 555.227 49.6558 552.418C47.1711 546.76 45.0285 544.819 43.9844 543.582C38.7609 538.344 36.668 538.096 35.3319 537.345C34.0381 536.794 33.5514 536.682 33.2866 536.602C32.814 536.479 33.266 536.606 33.8718 536.7C35.1506 536.915 37.238 537.147 39.4133 537.316C43.8393 537.663 48.8743 537.844 53.9873 537.945C117.3 534.927 195.646 518.757 270.215 506.652C336.222 495.306 403.926 483.176 473.026 470.078C718.047 423.598 955.956 371.913 1193.33 310.901C1244.36 297.771 1295.38 284.175 1346.47 270.193C1383.19 260.143 1420.05 249.858 1456.89 239.417C1711.11 167.405 1968.98 86.2747 2247.38 -3.80347C2248.91 -4.29279 2250.42 -4.7785 2251.92 -5.26056C2289.15 -17.1926 2325.2 -28.8091 2361.47 -39.7845C2370.68 -42.5497 2379.51 -45.1664 2389.02 -47.7095C2393.68 -48.9008 2398.14 -50.2036 2404.7 -51.2002C2405.72 -51.3343 2406.73 -51.4439 2407.98 -51.4843C2408.13 -51.4895 2409.01 -51.5137 2409.84 -51.4682C2410.71 -51.4201 2411.73 -51.3344 2413.13 -51.0217C2414.52 -50.6856 2416.35 -50.1926 2418.79 -48.6206C2419.4 -48.223 2420.03 -47.751 2420.67 -47.1837C2421 -46.8998 2421.32 -46.5928 2421.64 -46.2607C2422.12 -45.7586 2422.6 -45.2016 2423.06 -44.5864C2424.91 -42.1531 2426.15 -38.6815 2426.28 -35.6786C2426.46 -29.4775 2424.21 -26.5383 2423.07 -24.7882C2422.75 -24.3432 2422.45 -23.9646 2422.16 -23.6285C2422.02 -23.4606 2421.88 -23.3039 2421.75 -23.1556C2421.65 -23.0496 2421.63 -23.0298 2421.57 -22.9686C2421.38 -22.7559 2421.19 -22.5618 2421 -22.3813C2420.28 -21.6627 2419.66 -21.1445 2419.08 -20.6855C2417.98 -19.8152 2416.69 -18.975 2416.27 -18.7045C2415.03 -17.9172 2413.7 -17.1393 2412.31 -16.3708C2411.3 -15.8107 2410.22 -15.2311 2409.05 -14.6226C2391.57 -5.74683 2374.48 1.5979 2357.72 8.99658C2290.11 38.4244 2224.83 65.6345 2159.74 93.03C1855.69 220.553 1578.17 336.93 1280.37 460.45C1138.68 519.134 992.452 579.459 835.915 642.44C807.928 653.687 780.654 664.589 752.179 675.89C621.192 727.427 463.674 790.327 288.69 847.165C279.823 850.138 271.074 853.144 262.559 856.331C258.332 857.919 254.114 859.57 250.469 861.208C248.725 861.98 246.819 862.973 246.56 863.165C246.545 863.166 246.67 863.13 247.382 862.507C247.56 862.348 247.834 862.091 248.128 861.782C248.28 861.621 248.425 861.462 248.618 861.237C248.83 860.989 249.059 860.705 249.301 860.377C250.052 859.208 252.077 856.876 252.5 851.247C252.998 845.376 249.259 839.616 247.347 838.031C245.298 836.104 244.238 835.68 243.579 835.309C242.941 834.991 242.68 834.903 242.58 834.862C242.486 834.828 242.561 834.856 242.751 834.919C246.808 836.447 255.954 836.969 264.541 837.406C325.982 837.021 396.676 821.832 465.243 810.48C612.301 784.386 764.298 752.867 915.163 716.479C953.418 707.25 991.646 697.689 1029.68 687.827C1029.87 687.776 1030.06 687.726 1030.25 687.676C1099.64 669.677 1168.54 650.62 1236.39 630.527C1542.56 539.35 1827.8 430.172 2056.28 343.737C2075.65 336.444 2094.49 329.39 2113.04 322.547C2132.87 315.244 2151.99 308.276 2170.88 301.787C2180.37 298.551 2189.97 295.331 2199.74 292.555C2205.1 291.199 2208.87 289.616 2218.21 288.956C2219.87 288.954 2220.99 288.829 2224.36 289.481C2225.99 289.9 2235.7 291.685 2239.42 303.223C2241.56 313.048 2238.6 315.953 2237.94 318.093C2237.46 319.066 2236.97 319.906 2236.55 320.57C2236.17 321.169 2235.81 321.704 2235.45 322.202C2232.75 325.847 2231.1 327.436 2229.4 329.323C2196.47 364.616 2161.67 390.779 2129.24 414.97C2037.99 481.213 1961.25 528.753 1895.72 566.987C1780.55 633.932 1696.64 662.104 1623.11 689.257C1609.44 694.148 1596.15 698.816 1582.64 703.495C1542.9 717.249 1503.43 730.407 1458.35 744.931C1331.45 785.611 1166.12 835.644 981.297 881.98C849.628 914.992 707.708 943.326 564.639 966.98C563.328 967.2 562.012 967.421 560.7 967.641C503.622 977.152 457.173 981.743 456.879 978.312C456.604 974.833 502.601 964.636 559.615 955.129C705.312 931.092 847.542 902.613 978.275 869.832C1010.83 861.729 1042.74 853.449 1073.86 845.145C1081.15 840.129 1122.53 826.767 1172.58 812.689C1238.55 793.882 1376.64 754.81 1576.78 686.287C1669.46 653.741 1777 616.111 1886.52 550.954C1960.59 507.558 2038.4 457.568 2117.73 399.296C2147.45 377.082 2177.46 353.69 2204.76 326.21C2174.09 355.765 2145.05 376.752 2119.71 395.064C2118.6 395.857 2117.49 396.649 2116.37 397.441C2088.04 417.478 2065.45 432.291 2045.9 444.981C2003.47 472.279 1974.97 490.033 1923.84 520.521C1911.02 528.18 1897.3 536.232 1882.81 544.499C1803.85 591.444 1695.68 636.309 1573.63 677.038C1513.23 697.538 1449.95 717.831 1385.35 737.78C1330.24 754.796 1284.73 765.256 1284.02 761.878C1283.3 758.476 1327.57 742.533 1382.6 725.534C1383.66 725.205 1384.75 724.867 1385.83 724.533C1448.18 705.245 1510.06 685.398 1569.6 665.19C1688.84 625.309 1795.95 581.525 1876.58 533.635C1895.79 522.669 1913.77 512.007 1930.42 501.933C1961.62 483.043 1988.18 466.168 2008 453.363C2023.89 443.12 2043.48 430.143 2054.42 422.889C2055.87 421.925 2058.61 420.118 2061.93 417.93C2061.98 417.894 2062.04 417.859 2062.09 417.823C2063.91 416.627 2073.36 410.391 2083.45 403.881C2085.48 402.572 2089.9 399.724 2095.12 396.432C2096.41 395.538 2097.69 394.648 2099.01 393.735C2102.22 391.499 2105.49 389.21 2108.68 386.958C2123.57 376.42 2138.6 365.422 2154.15 353.149C2170.08 340.487 2187.62 326 2205.53 307.202C2206.52 306.158 2207.43 305.197 2208.18 304.359C2208.53 303.966 2208.86 303.572 2209.02 303.373C2209.19 303.184 2209.23 303.015 2208.8 303.884C2208.72 304.067 2208.53 304.484 2208.36 305.015C2208.27 305.285 2208.18 305.599 2208.1 305.967C2208.06 306.15 2208.02 306.347 2207.98 306.558C2207.94 306.8 2207.89 307.106 2207.86 307.415C2207.74 308.667 2207.75 310.331 2208.32 312.3C2208.91 314.387 2210.26 316.568 2211.79 318.001C2214.39 320.448 2216.7 320.905 2217.38 321.084C2217.85 321.19 2218.2 321.238 2218.46 321.264C2218.71 321.287 2218.81 321.288 2218.92 321.29C2219.12 321.292 2219.13 321.28 2219.07 321.279C2219.01 321.277 2218.89 321.282 2218.7 321.298C2218.29 321.335 2217.89 321.383 2217.29 321.479C2212.71 322.236 2206.42 323.992 2200.42 325.764C2188.25 329.385 2174.96 333.829 2161.11 338.565C2133.2 348.141 2102.2 359.294 2066.96 372.15C1990.42 400.084 1894.6 435.922 1772.67 479.677C1639.55 527.141 1461.65 590.753 1243.74 655.315C1023.87 719.973 762.809 783.244 469.67 835.431C455.159 838.004 440.772 840.513 426.302 842.975C440.706 840.617 455.114 838.196 469.717 835.696C496.031 831.193 522.548 826.501 548.967 821.676C651.744 802.898 754.677 781.871 857.113 758.659C896.343 749.766 934.998 740.672 974.3 731.062C1037.56 715.591 1100.79 699.187 1163.75 681.789C1190.83 674.304 1217.75 666.668 1244.77 658.793C1260.2 654.295 1275.69 649.707 1291.1 645.082C1291.19 645.053 1291.29 645.024 1291.38 644.994C1350.13 627.35 1408.69 608.838 1467.56 589.542C1488.14 582.803 1508.43 576.068 1528.63 569.288C1608.89 542.333 1687.19 514.976 1777.41 482.757C1788.33 478.894 1800.32 474.656 1809.18 471.532C1818.6 468.212 1828.03 464.878 1836.63 461.848C1844.16 459.194 1851.71 456.532 1858.65 454.081C1859.58 453.75 1860.52 453.42 1861.45 453.09C1869.18 450.361 1876.9 447.616 1884.01 445.085C1891.06 442.582 1898.22 440.026 1904.97 437.603C1905.03 437.579 1905.09 437.556 1905.15 437.533C1912.18 435.01 1917.7 433.021 1925.23 430.285C1934.56 426.895 1942.9 423.849 1952.63 420.273C1962.12 416.784 1972.04 413.118 1982.08 409.394C1992.14 405.662 2002.33 401.872 2012.62 398.036C2023 394.165 2033.3 390.323 2044.1 386.293C2052.1 383.308 2060.77 380.074 2068.81 377.082C2071.3 376.154 2073.76 375.24 2076.19 374.339C2086.69 370.437 2097.83 366.316 2108.79 362.287C2133.95 353.038 2158.52 344.836 2176.47 339.858C2194.61 334.792 2204.56 333.44 2204.97 334.995C2205.22 336.61 2196.17 340.939 2178.64 348.279C2161.44 355.479 2137.22 365.018 2112.23 374.359C2105.34 376.932 2098.58 379.47 2091.57 382.109C2087.26 383.73 2083.46 385.161 2079.24 386.752C2077.29 387.49 2075.3 388.24 2073.29 389.001C2064.38 392.372 2054.87 395.976 2045.66 399.471C2034.32 403.771 2022.85 408.12 2011.49 412.42C1999.73 416.873 1988.19 421.236 1976.32 425.705C1964.42 430.187 1952.45 434.678 1939.94 439.349C1928.09 443.768 1914.2 448.92 1901.94 453.427C1892.75 456.811 1882 460.732 1872.56 464.161C1862.99 467.635 1853.42 471.093 1844.24 474.391C1835.15 477.652 1826.08 480.896 1817.66 483.897C1816.75 484.219 1815.85 484.541 1814.95 484.864C1807.49 487.519 1800.1 490.146 1793.29 492.563C1785.68 495.266 1778.41 497.851 1771.46 500.325C1763.9 503.012 1759.31 504.652 1753.64 506.683C1678.9 533.684 1586.41 566.547 1497.55 596.437C1486.35 600.21 1475.31 603.904 1464.28 607.566C1405.86 626.982 1347.32 645.755 1288.51 663.666C1275.61 667.594 1262.61 671.507 1249.67 675.348C1219.74 684.24 1189.74 692.894 1159.7 701.315C1096.16 719.125 1032.41 735.917 968.258 751.85C928.467 761.729 889.419 771.063 849.513 780.255C745.44 804.215 640.643 825.992 535.161 845.563C514.636 849.369 494.096 853.088 473.45 856.732C404.207 867.791 340.656 883.226 262.286 884.054C252.737 883.288 243.648 883.965 228.074 879.2C227.301 878.929 226.108 878.587 223.68 877.491C222.449 876.909 220.867 876.173 218.438 874.473C216.113 872.684 212.332 870.18 208.69 862.901C204.951 855.793 205.514 845.231 207.68 840.265C209.685 835.06 211.595 832.861 213.188 830.905C215.975 827.731 217.742 826.51 219.115 825.462C224.356 821.796 226.536 821.011 229.23 819.662C234.249 817.317 238.453 815.671 242.714 814.026C253.404 809.95 263.521 806.515 273.927 803.047C366.275 773.483 459.325 739.843 549.78 705.971C623.725 678.294 699.069 649.482 768.652 622.58C786.245 615.773 802.62 609.427 820.006 602.658C839.481 595.084 859.612 587.221 878.95 579.654C879.074 579.606 879.199 579.558 879.323 579.51C911.182 567.038 942.151 554.865 973.509 542.479C1039.93 516.251 1105.3 490.2 1170.56 463.989C1235.73 437.816 1300.55 411.581 1365.77 384.999C1430.5 358.616 1496.25 331.642 1561.32 304.789C1626.71 277.803 1690.88 251.172 1758.23 223.087C1846.69 186.191 1934.74 149.246 2024.81 111.286C2065.06 94.3207 2105.34 77.3068 2145.86 60.1351C2195.66 39.0267 2245.09 18.0451 2294.38 -3.24292C2326 -17.0038 2357.48 -30.3949 2387.51 -45.0078C2387.62 -45.0627 2387.73 -45.1171 2387.84 -45.1713C2388.58 -45.5443 2389.28 -45.9005 2389.94 -46.239C2390.72 -46.6395 2391.57 -47.0795 2392.27 -47.4521C2392.98 -47.8311 2393.62 -48.1774 2394.17 -48.4855C2394.77 -48.8204 2395.54 -49.2657 2395.93 -49.506C2396.14 -49.6343 2396.29 -49.7338 2396.38 -49.7922C2396.48 -49.8589 2396.52 -49.9039 2396.19 -49.6436C2396.02 -49.5137 2395.77 -49.3147 2395.41 -48.9745C2395.22 -48.8038 2395.01 -48.5966 2394.75 -48.3345C2394.69 -48.2688 2394.62 -48.1998 2394.55 -48.1268C2394.47 -48.0365 2394.47 -48.044 2394.22 -47.7589C2393.82 -47.302 2393.34 -46.7214 2392.79 -45.9052C2391.75 -44.2734 2390.01 -41.6627 2389.46 -36.5158C2388.7 -31.4922 2391.51 -23.7838 2395.24 -20.4448C2400.39 -15.5627 2403.95 -15.3082 2405.81 -14.8373C2407.72 -14.5109 2408.67 -14.5706 2409.06 -14.5685C2409.32 -14.5744 2409.49 -14.5851 2409.59 -14.5927C2409.81 -14.6088 2409.78 -14.6116 2409.62 -14.5872C2409.15 -14.5145 2408.77 -14.4421 2408.11 -14.3081C2402.67 -13.166 2394.92 -10.9575 2388.58 -9.11084C2374.82 -5.07581 2361.09 -0.759949 2347.11 3.6792C2319.54 12.4555 2291.44 21.6583 2263.69 30.7718C2258.8 32.3798 2253.8 34.024 2248.7 35.7038C2155.08 66.5681 2061.17 97.6906 1966.62 128.373C1872.25 159.015 1776.99 189.399 1681 219.094C1584.99 248.79 1486.11 278.477 1386.33 306.857C1326.26 323.946 1265.7 340.642 1205.51 356.547C1176.4 364.242 1147.56 371.705 1118.76 379.014C1095.45 384.931 1072.05 390.773 1048.65 396.525C937.652 423.795 829.633 448.334 722.79 471.133C615.753 493.961 508.569 515.284 400.312 535.372C359.984 542.858 319.444 550.176 278.997 557.322C209.851 569.082 143.028 582.561 69.5993 590.128C64.32 590.504 58.2634 590.653 53.0539 590.555C47.319 590.472 41.5617 590.321 35.3941 589.88C32.2956 589.649 29.1287 589.366 25.4458 588.79C23.5747 588.487 21.5984 588.136 19.0424 587.436C17.7336 587.066 16.281 586.628 14.3063 585.783C12.3096 584.793 9.77592 584.068 5.29597 579.538C4.24866 578.18 0.654991 575.216 -0.647934 566.907C-1.79313 559.191 2.34019 552.277 3.47104 550.922C7.16795 546.224 8.26243 546.072 9.68324 544.934C11.8147 543.495 13.1123 542.87 14.1478 542.333C16.3852 541.212 18.0328 540.511 19.5861 539.847C22.8847 538.456 25.6337 537.389 28.8065 536.179C34.6838 533.947 40.1941 531.953 46.1664 529.823C57.481 525.79 69.1647 521.755 80.3997 517.901C103.157 510.105 125.919 502.446 148.752 494.794C194.386 479.511 240.137 464.338 286.363 449.038C320.848 437.625 355.328 426.237 390.342 414.688C462.312 390.942 535.761 366.758 609.027 342.634C669.413 322.755 733.679 301.674 794.405 281.798C855.723 261.728 916.668 241.823 976.837 222.192C1001.22 214.238 1025.56 206.301 1049.67 198.437C1084.87 186.958 1119.73 175.59 1154.05 164.39C1211.98 145.484 1268.52 127.01 1323.34 109.035C1378.12 91.075 1431.5 73.5089 1482.85 56.5072C1536 38.9043 1579.69 24.3392 1632.16 6.72162C1715.25 -20.9485 1778.41 -41.8184 1835.89 -60.7587C1867.16 -71.0616 1896.22 -80.6232 1926.71 -90.6716C1944.31 -96.4731 1962.02 -102.323 1980.08 -108.3C2057.03 -134.384 2150.75 -162.527 2207.6 -187.331C2217.68 -194.715 2229.97 -204.724 2237.53 -211.962C2237.61 -212.035 2237.62 -212.053 2237.57 -211.997C2237.51 -211.941 2237.38 -211.813 2237.11 -211.515C2236.55 -210.743 2235.66 -210.53 2232.46 -204.804C2231.14 -201.119 2226.66 -196.488 2229.77 -180.514C2234.56 -164.305 2244.85 -159.688 2249.73 -157.411C2253.27 -155.957 2255.68 -155.524 2257.44 -155.24C2257.66 -155.206 2257.87 -155.177 2258.07 -155.151C2258.26 -155.126 2258.35 -155.115 2258.48 -155.1C2258.73 -155.071 2258.96 -155.047 2259.18 -155.026C2259.62 -154.985 2260.01 -154.959 2260.35 -154.941C2261.01 -154.906 2261.56 -154.903 2261.89 -154.906C2262.17 -154.908 2262.38 -154.914 2262.55 -154.921C2262.89 -154.935 2263.03 -154.948 2263.04 -154.948C2263.1 -154.953 2262.75 -154.914 2262.43 -154.867C2260.82 -154.641 2258.22 -154.171 2255.63 -153.661C2250.47 -152.646 2244.59 -151.366 2239.17 -150.159C2169.52 -134.241 2099.82 -116.959 2029.74 -100.057C1993.2 -91.1977 1956.42 -82.2818 1919.49 -73.3692C1813.11 -47.6879 1706.38 -22.2402 1599.59 2.66235C1493.09 27.4976 1386.54 51.8083 1279.55 75.4003C1172.6 98.9777 1063.36 122.227 957.948 143.274C947.878 145.285 937.758 147.291 927.635 149.283C875.866 159.474 822.324 169.608 771.978 178.777C728.506 186.698 685.598 194.251 643.497 201.425C626.434 204.332 609.17 207.234 592.306 210.029C533.834 219.722 477.045 228.676 422.071 236.973C367.219 245.25 313.747 252.936 261.699 260.1C209.55 267.28 158.118 274.023 107.102 280.453C106.716 280.502 106.333 280.55 105.95 280.598C53.1177 287.076 10.3078 293.086 -48.0465 298.068C-57.3253 298.492 -65.1712 299.917 -80.7032 297.744C-83.3412 297.157 -85.0433 297.458 -92.9392 294.284C-95.0033 293.29 -97.9616 292.149 -102.759 287.896C-105.256 285.558 -108.219 282.405 -110.813 276.809C-113.33 271.61 -114.382 263.9 -113.569 258.587C-111.674 247.075 -107.783 243.55 -105.635 240.586C-103.449 238.013 -101.891 236.688 -100.516 235.534C-95.6304 231.664 -93.4926 230.752 -91.1995 229.455C-89.0101 228.292 -87.1522 227.407 -85.4048 226.599C-78.4372 223.421 -72.6034 221.175 -66.5619 218.864C-50.7291 212.829 -34.7127 207.648 -19.0325 202.958C34.3807 187.188 86.5937 174.947 139.613 162.769C172.541 155.269 204.815 148.204 237.553 141.202C257.294 136.98 277.266 132.77 297.189 128.599C313.934 125.092 331.786 121.379 348.727 117.863C400.929 107.032 452.588 96.3873 504.009 85.6959C555.424 75.0094 606.284 64.3522 656.927 53.5767C707.863 42.7396 757.682 31.9803 808.582 20.7741C895.046 1.74127 977.776 -16.6167 1050.08 -33.0674C1087.77 -41.6372 1124.19 -50.027 1159.73 -58.3365C1193.1 -66.1371 1225.74 -73.8745 1257.9 -81.5905C1270.33 -84.5745 1282.76 -87.5715 1295.19 -90.5817C1348.7 -103.543 1401.32 -116.537 1453.08 -129.549C1516.84 -145.577 1579.5 -161.675 1642.09 -178.057C1704.32 -194.346 1767.03 -211.074 1828.56 -227.803C1890.98 -244.781 1950.12 -261.144 2014.16 -279.265C2050.95 -289.683 2088.8 -300.551 2127.03 -311.762C2154.35 -319.776 2182.38 -328.094 2210.97 -336.852C2236.59 -344.715 2262.14 -352.703 2287.54 -361.422C2311.71 -369.722 2341 -380.808 2344.8 -387.261C2349.69 -392.055 2354.34 -397.368 2356.98 -401.186C2358.26 -402.949 2358.99 -404.689 2358.25 -403.12C2357.94 -402.219 2357 -400.43 2356.55 -395.166C2356.03 -390.314 2357.24 -378.976 2364.25 -369.903C2369.49 -363.049 2374.44 -360.413 2377.13 -359.031C2381.23 -357.114 2382.14 -357.238 2382.26 -357.139C2382.31 -357.119 2381.4 -357.222 2380.16 -357.252C2377.63 -357.329 2373.8 -357.184 2369.7 -356.823C2361.42 -356.1 2351.93 -354.633 2342.32 -352.825C2289.22 -341.87 2231.89 -330.959 2176.92 -321.085C2100.13 -307.24 2022.63 -293.92 1946.66 -281.08C1935.26 -279.153 1923.9 -277.24 1912.01 -275.245C1847.66 -264.444 1782.51 -253.677 1718.46 -243.183C1643.17 -230.845 1564.82 -218.145 1491.96 -206.426C1373.67 -187.404 1255.98 -168.618 1138.02 -149.877C1020.7 -131.242 902.966 -112.627 785.553 -94.1609C710.056 -82.2888 634.023 -70.3682 558.782 -58.6498C517.136 -52.1644 475.155 -45.6498 433.582 -39.2529C399.184 -33.9627 364.256 -28.6194 329.694 -23.4452C312.418 -20.8616 294.906 -18.267 277.484 -15.7795C268.652 -14.5213 260.045 -13.3141 251 -12.1253C246.516 -11.5388 241.922 -10.9537 237.15 -10.4177C235.795 -10.2659 234.53 -10.1308 233.333 -10.0109C231.785 -9.85699 230.7 -9.75397 228.914 -9.61304C227.213 -9.49304 225.627 -9.34222 222.168 -9.30341C221.139 -9.29865 219.995 -9.31116 218.565 -9.38611C217.461 -9.4458 216.15 -9.5415 214.49 -9.75452C213.657 -9.86237 212.73 -10.0012 211.665 -10.1993C211.399 -10.2489 211.124 -10.3023 210.839 -10.3602C210.697 -10.3892 210.552 -10.4193 210.404 -10.4506C210.368 -10.4584 210.331 -10.4664 210.293 -10.4744C210.229 -10.4882 210.157 -10.5038 210.088 -10.519C209.948 -10.5496 209.807 -10.5813 209.663 -10.6143C208.509 -10.8784 207.208 -11.2151 205.696 -11.6943C202.681 -12.6827 198.767 -14.0881 193.534 -17.5005C192.191 -18.3956 190.991 -19.2485 189.301 -20.6425C186.589 -22.8948 183.653 -25.8287 180.923 -29.622C175.342 -37.0582 171.502 -48.6805 171.838 -58.5428C171.863 -63.3083 172.889 -68.4137 173.675 -71.048C174.445 -73.7563 175.361 -76.0948 176.294 -78.1179C178.175 -82.1635 180.086 -84.9772 181.733 -87.1573C183.39 -89.3295 184.821 -90.8695 186.048 -92.1039C187.085 -93.1373 187.66 -93.6553 188.351 -94.269C193.631 -98.7151 194.442 -98.7964 195.481 -99.5386C207.384 -106.384 210.674 -106.374 214.706 -107.904C218.488 -109.098 221.879 -110.064 225.042 -110.948C231.555 -112.758 237.537 -114.315 243.686 -115.891C255.623 -118.943 267.81 -121.931 279.636 -124.797C303.539 -130.583 327.202 -136.159 350.869 -141.697C374.775 -147.287 398.768 -152.845 422.607 -158.341C424.259 -158.721 425.922 -159.105 427.598 -159.491C517.558 -180.192 607.487 -200.704 696.926 -221.36C697.544 -221.501 698.162 -221.643 698.781 -221.785C813.925 -248.372 926.775 -274.742 1040.6 -302.093C1082.38 -312.136 1122.49 -321.875 1163.21 -331.896C1203.97 -341.93 1243.92 -351.898 1284.17 -362.121C1285.52 -362.465 1286.88 -362.809 1288.23 -363.153C1327.16 -373.056 1365.82 -383.065 1403.86 -393.091C1443.67 -403.585 1482.41 -413.988 1521.4 -424.674C1557.13 -434.467 1592.64 -444.375 1631.33 -455.389C1634.87 -456.395 1638.38 -457.397 1641.87 -458.395C1684.31 -470.514 1732.19 -484.456 1776.79 -497.769C1836.61 -515.63 1895.89 -533.937 1953.81 -553.228C2008.83 -572.014 2069.05 -591.643 2110.94 -615.678C2113.68 -617.36 2116.18 -619.023 2119.21 -621.146C2122.9 -623.73 2126.51 -626.376 2128.98 -628.384C2130.15 -629.309 2131.2 -630.319 2130.58 -629.72C2130.19 -629.21 2129.51 -628.955 2126.68 -624.509C2125.36 -621.953 2122.67 -618.875 2120.96 -607.87C2120.22 -602.279 2120.41 -593.706 2124.11 -584.975C2127.73 -576.2 2133.96 -569.751 2138.75 -566.274C2150.39 -558.245 2156.48 -558.683 2159.37 -558.082C2162.37 -557.787 2163.45 -557.894 2164.2 -557.91C2164.86 -557.943 2165.05 -557.972 2165.03 -557.969C2165.02 -557.967 2164.81 -557.942 2164.5 -557.893C2163.24 -557.703 2160.8 -557.222 2158.36 -556.679C2153.33 -555.565 2147.69 -554.151 2142 -552.674C2130.57 -549.699 2118.87 -546.457 2107.06 -543.143C2026.16 -519.726 1942.82 -500.397 1860.19 -482.919C1812.79 -472.892 1764.63 -463.258 1717.08 -454.075C1693.97 -449.613 1671.61 -445.371 1648.36 -441.024C1596.94 -431.416 1544.84 -421.978 1492.99 -412.743C1369.73 -390.808 1246.18 -369.669 1121.75 -348.831C997.727 -328.076 873.065 -307.685 748.608 -287.843C707.592 -281.307 666.293 -274.785 625.386 -268.419C584.004 -261.983 543.249 -255.72 502.034 -249.64C481.564 -246.628 460.744 -243.62 440.167 -240.853C429.656 -239.445 419.337 -238.104 408.499 -236.872C403.078 -236.263 397.556 -235.672 391.465 -235.194C388.521 -234.974 385.173 -234.725 380.767 -234.66C379.476 -234.648 378.608 -234.641 376.73 -234.698C375.885 -234.726 375.003 -234.769 374.055 -234.836C372.948 -234.915 371.479 -235.05 369.91 -235.273C368.673 -235.446 365.645 -235.915 362.272 -236.928C360.954 -237.316 357.521 -238.408 353.871 -240.305C352.003 -241.27 349.941 -242.484 347.725 -244.095C344.525 -246.421 340.872 -249.708 337.586 -254.172C330.902 -261.98 326.747 -279.756 329.217 -289.642C330.796 -298.465 334.027 -303.814 335.675 -306.542C339.339 -312.197 341.056 -313.575 342.207 -314.872C345.029 -317.855 348.886 -320.911 351.377 -322.553C352.632 -323.401 353.84 -324.144 354.756 -324.683C355.745 -325.265 356.675 -325.779 357.41 -326.173C451.14 -363.662 524.495 -383.806 607.789 -411.509C658.572 -427.871 709.807 -444.292 760.908 -460.676C893.246 -503.098 1025.72 -545.561 1157.31 -588.32C1273.23 -626.046 1389.27 -663.973 1503.62 -703.388C1519.76 -708.968 1535.28 -714.391 1551.12 -719.995C1627.09 -747.848 1717.98 -777.415 1770.79 -811.829C1771.92 -812.753 1772.97 -813.637 1773.71 -814.284C1774.07 -814.6 1774.35 -814.864 1774.4 -814.904C1774.41 -814.894 1774.33 -814.906 1773.09 -813.414C1772.44 -812.524 1771.49 -811.691 1769.18 -807.364C1768.13 -804.882 1766.05 -802.271 1765.02 -792.342C1764.63 -787.887 1765.13 -779.732 1768.89 -772.09C1772.69 -764.018 1779.27 -758.134 1784.06 -755.286C1793.89 -749.721 1797.89 -750.158 1800.89 -749.636C1803.59 -749.396 1805.08 -749.473 1806.21 -749.524C1808.3 -749.651 1809.05 -749.812 1809.54 -749.887C1810.45 -750.053 1810.21 -750.033 1809.87 -749.946C1809.5 -749.857 1808.87 -749.696 1808.16 -749.503C1760.1 -737.103 1714.96 -727.444 1668.66 -716.869C1641.6 -710.775 1614.37 -704.678 1587.11 -698.598C1533.22 -686.578 1479.31 -674.629 1425.35 -662.714C1382.49 -652.775 1341.4 -643.271 1301.9 -634.167C1123.56 -593.131 975.222 -559.164 822.822 -526.18C744.947 -511.527 686.066 -490.398 579.737 -485.565C575.923 -486.04 572.075 -486.466 565.733 -488.065C562.36 -489.08 558.816 -489.603 550.551 -494.262C546.475 -496.978 539.647 -500.413 532.51 -513.139C524.736 -526.266 527.232 -546.18 531.091 -553.237C542.274 -575.897 552.009 -581.104 560.577 -588.81C569.221 -595.708 577.352 -601.127 585.502 -606.27C589.018 -608.485 592.99 -610.92 596.921 -613.206C623.98 -628.689 644.305 -637.832 669.655 -649.596C674.345 -651.744 679.498 -654.076 684.693 -656.41C717.273 -671.029 754.492 -687.056 806.654 -708.572C807.004 -708.716 807.355 -708.86 807.707 -709.006C912.402 -752.134 1073.4 -815.613 1282.74 -894.123C1335.57 -913.932 1370.38 -923.887 1360.23 -916.318C1353.04 -910.977 1325.78 -898.484 1291.92 -884.65C1333.57 -900.606 1375.3 -916.553 1416.78 -932.386C1438.32 -940.606 1459.38 -948.64 1480.88 -956.835C1505.94 -966.389 1529.71 -974.776 1546.88 -980.078C1563.76 -985.296 1573.88 -987.339 1573.23 -985.331C1571 -982.919 1560.62 -977.293 1542.17 -968.987C1523.68 -960.658 1499.41 -950.603 1474.25 -940.86C1456.61 -934.028 1439 -927.204 1421.44 -920.397C1372.64 -901.48 1323.5 -882.406 1274.64 -863.378C1208.12 -837.477 1141.97 -811.613 1075.66 -785.525C1009.38 -759.438 943.184 -733.241 876.823 -706.567C856.956 -698.577 837.137 -690.566 817.293 -682.471C770.924 -663.517 724.932 -644.502 678.954 -623.974C652.308 -611.861 625.503 -599.987 599.564 -583.734C584.701 -573.233 569.456 -567.735 555.328 -542.749C553.616 -539.545 552.555 -531.127 555.864 -525.455C558.917 -519.944 562.013 -518.282 564.006 -516.971C568.049 -514.667 570.267 -514.21 572.405 -513.59C576.532 -512.534 579.697 -512.126 582.845 -511.737C609.279 -509.928 627.383 -514.866 648.089 -517.81C691.031 -525.098 733.421 -533.691 775.34 -542.28C789.77 -545.25 803.384 -548.093 817.603 -551.085C818.857 -551.349 820.117 -551.615 821.384 -551.882C833.78 -554.495 846.221 -557.135 859.168 -559.9C994.204 -588.821 1130.32 -619.127 1265.13 -649.316C1370.92 -673.035 1476.54 -696.903 1582.03 -720.982C1611.91 -727.806 1641.14 -734.504 1670.95 -741.388C1714.61 -751.597 1757.74 -761.099 1801.81 -772.737C1803.38 -773.172 1805.07 -773.593 1805.49 -773.657C1805.54 -773.671 1805.52 -773.645 1804.92 -773.608C1804.6 -773.596 1804.12 -773.566 1803.15 -773.652C1802.07 -773.852 1800.57 -773.65 1796.68 -775.851C1794.78 -776.977 1792.15 -779.328 1790.63 -782.557C1789.13 -785.615 1788.93 -788.864 1789.08 -790.617C1789.49 -794.526 1790.29 -795.467 1790.66 -796.36C1791.48 -797.889 1791.7 -798.005 1791.8 -798.165C1791.98 -798.361 1791.63 -797.962 1791.25 -797.597C1790.85 -797.212 1790.34 -796.735 1789.8 -796.251C1788.7 -795.273 1787.46 -794.221 1786.17 -793.155C1720.68 -750.416 1632.69 -723.631 1552.68 -693.512C1539.38 -688.747 1525.91 -683.972 1512.11 -679.125C1395.4 -638.253 1277.26 -599.027 1159.36 -560.036C1028.18 -516.721 896.053 -473.676 764.562 -430.831C715.112 -414.717 665.924 -398.69 617.165 -382.722C564.927 -365.598 512.675 -348.429 460.733 -330.883C428.718 -318.655 403.542 -314.93 365.283 -292.625C364.817 -292.119 364.279 -291.619 363.244 -290.133C362.707 -288.828 359.235 -285.883 361.273 -277.396C362.441 -273.759 364.626 -271.5 366.481 -270.116C367.822 -269.132 368.9 -268.621 369.874 -268.218C370.959 -267.79 371.356 -267.696 371.918 -267.539C372.446 -267.399 372.93 -267.295 373.389 -267.211C376.317 -266.722 377.814 -266.796 379.303 -266.776C382.353 -266.8 384.608 -266.963 387.249 -267.163C392.219 -267.561 396.68 -268.058 401.411 -268.613C475.366 -278.215 547.185 -290.686 619.989 -302.662C664.216 -310.05 709.226 -317.678 753.23 -325.199C706.966 -317.618 662.169 -310.321 619.857 -303.497C575.584 -296.366 533.97 -289.72 493.084 -283.431C472.709 -280.304 452.493 -277.257 432.701 -274.472C422.834 -273.09 412.94 -271.746 402.966 -270.562C398.127 -269.991 393.025 -269.425 387.924 -269.01C385.326 -268.806 382.76 -268.622 379.779 -268.584C379.403 -268.58 379.038 -268.58 378.68 -268.583C378.279 -268.587 377.796 -268.598 377.367 -268.616C376.582 -268.648 375.429 -268.717 374.209 -268.91C373.464 -269.03 372.487 -269.221 371.363 -269.601C370.537 -269.885 369.586 -270.272 368.476 -270.956C367.712 -271.376 365.08 -273.329 363.787 -276.034C362.166 -278.907 362.251 -283.237 362.859 -285.014C363.39 -286.976 364.199 -288.261 364.605 -288.893C365.6 -290.371 366.145 -290.869 366.595 -291.36C423.221 -320.448 466.759 -329.554 515.262 -347.172C535.569 -353.996 555.855 -360.771 576.034 -367.485C589.716 -372.039 603.497 -376.613 617.63 -381.293C808.803 -444.583 998.899 -506.348 1248.09 -588.52C1341.27 -619.325 1429.58 -648.823 1512.59 -677.751C1612.89 -714.363 1714.6 -744.927 1787.5 -791.544C1788.81 -792.624 1790.08 -793.692 1791.21 -794.696C1791.77 -795.196 1792.3 -795.688 1792.73 -796.102C1793.14 -796.495 1793.53 -796.927 1793.44 -796.828C1793.37 -796.717 1793.22 -796.67 1792.49 -795.304C1792.3 -794.912 1792.11 -794.529 1791.83 -793.684C1791.7 -793.285 1791.57 -792.827 1791.45 -792.296C1791.33 -791.725 1791.2 -790.908 1791.17 -790.034C1791.07 -788.493 1791.4 -785.4 1792.88 -782.811C1794.38 -780.061 1796.58 -778.314 1798.2 -777.412C1801.36 -775.752 1802.59 -775.895 1803.44 -775.752C1804.24 -775.689 1804.59 -775.715 1804.84 -775.726C1805.27 -775.755 1805.23 -775.768 1805.12 -775.747C1804.52 -775.651 1802.83 -775.229 1801.25 -774.794C1723.04 -754.972 1650.41 -739.326 1581.45 -723.529C1265.44 -652.257 1039.95 -602.75 873.438 -567.566C853.764 -563.421 834.625 -559.424 816.633 -555.715C722.999 -537.689 652.88 -518.842 583.556 -517.722C580.517 -518.116 577.486 -518.545 573.863 -519.506C572.012 -520.05 570.102 -520.502 567.028 -522.302C565.525 -523.299 563.284 -524.594 561.229 -528.452C559.024 -532.416 559.789 -538.023 560.98 -540.304C573.874 -562.663 589.273 -568.635 603.071 -578.114C664.217 -613.014 713.809 -629.853 761.494 -649.461C779.562 -656.581 799.633 -664.451 821.21 -672.863C981.926 -735.438 1227.23 -829.442 1357.9 -880.277C1384.84 -890.751 1409.33 -899.509 1427.32 -905.279C1445.39 -911.078 1456.54 -913.728 1457.18 -912.124C1457.52 -910.427 1447.56 -904.903 1430.51 -897.074C1413.14 -889.084 1388.79 -878.858 1361.51 -868.25C1236.12 -819.418 1005.73 -731.204 826.061 -660.961C781.461 -643.457 740.199 -627.034 704.478 -612.261C676.218 -600.19 645.566 -588.575 609.795 -567.338C597.16 -559.11 581.379 -550.844 572.57 -535.289C571.542 -533.658 574.703 -532.342 577.069 -531.712C579.606 -531.021 582.312 -530.598 585.043 -530.246C642.755 -530.675 715.436 -548.662 814.063 -567.98C834.703 -572.233 856.573 -576.804 879.754 -581.7C1043.33 -616.331 1265.39 -665.073 1578.68 -735.737C1647.41 -751.479 1720.51 -767.247 1797.95 -786.871C1799.67 -787.335 1801.39 -787.801 1803.01 -788.086C1803.39 -788.152 1803.8 -788.207 1804.12 -788.225C1804.29 -788.234 1804.43 -788.233 1804.52 -788.225C1804.6 -788.227 1804.63 -788.173 1804.37 -788.304C1804.23 -788.377 1804.01 -788.548 1803.85 -788.834C1803.7 -789.104 1803.67 -789.413 1803.68 -789.535C1803.71 -789.83 1803.73 -789.759 1803.69 -789.698C1803.61 -789.538 1803.39 -789.226 1803.16 -788.942C1801.08 -786.514 1798.21 -784.173 1795.46 -781.881C1716.92 -731.694 1617.99 -703.12 1516.73 -665.934C1433.09 -636.789 1344.1 -607.07 1250.15 -576.013C1002.65 -494.413 816.06 -433.756 621.521 -369.349C613.176 -366.586 605.453 -364.022 597.279 -361.309C577.483 -354.733 557.126 -347.95 536.941 -341.19C536.815 -341.149 536.689 -341.107 536.563 -341.066C484.506 -322.76 428.681 -307.653 375.636 -282.643C445.678 -284.687 530.863 -302.973 617.905 -315.885C702.38 -329.508 794.025 -344.541 894.618 -361.191C1128.02 -399.972 1389.91 -444.202 1639.08 -490.867C1800.25 -521.546 1956.17 -552.744 2093.12 -592.816C2105.35 -596.278 2117.33 -599.631 2129.4 -602.801C2135.42 -604.375 2141.39 -605.894 2147.49 -607.258C2150.51 -607.927 2153.64 -608.58 2156.8 -609.073C2158.41 -609.319 2160.05 -609.537 2161.88 -609.626C2163.8 -609.523 2165.57 -610.305 2169.57 -607.881C2171.38 -606.849 2172.82 -603.237 2172.33 -601.349C2172.03 -599.431 2171.41 -598.436 2170.89 -597.543C2169.81 -595.822 2168.79 -594.735 2167.75 -593.64C2165.68 -591.518 2163.62 -589.772 2161.54 -588.07C2157.39 -584.704 2153.17 -581.643 2148.97 -578.672C2088.34 -539.953 2025.21 -523.294 1970.44 -503.459C1860.45 -466.612 1774.39 -441.422 1725.78 -426.832C1685.76 -414.93 1646.86 -403.573 1605.99 -391.866C1523.64 -368.331 1432.48 -342.901 1302.05 -308.963C1183.27 -278.11 1031.89 -240.496 825.492 -191.597C730.749 -169.132 619.928 -143.381 498.719 -115.338C477.64 -110.265 456.796 -105.244 436.105 -100.241C364.76 -82.5635 287.308 -65.5193 228.14 -46.9604C228.099 -46.9341 228.146 -46.9572 228.359 -47.1036C228.485 -47.1917 228.685 -47.3335 228.99 -47.5817C229.142 -47.7069 229.323 -47.8607 229.539 -48.0614C229.711 -48.2211 230.112 -48.5978 230.596 -49.1703C231.077 -49.7476 231.68 -50.5276 232.316 -51.7855C232.63 -52.4152 232.948 -53.1699 233.211 -54.0803C233.486 -54.9846 233.819 -56.7509 233.727 -58.4308C233.66 -61.9491 231.676 -65.6569 229.754 -67.4487C228.62 -68.5389 228.356 -68.6574 227.874 -69.011C227.431 -69.3153 227.021 -69.5594 226.644 -69.7625C225.134 -70.5591 224.18 -70.7899 223.506 -70.959C223.316 -71.0031 223.24 -71.0183 223.163 -71.0342C223.085 -71.05 223.012 -71.0641 222.943 -71.0768C222.806 -71.1022 222.684 -71.1219 222.576 -71.138C221.702 -71.2544 221.743 -71.2162 221.738 -71.2274C221.761 -71.2291 221.957 -71.2337 222.111 -71.2419C222.286 -71.2502 222.515 -71.263 222.793 -71.2815C223.067 -71.2999 223.262 -71.3155 223.536 -71.3376C224.057 -71.3797 224.744 -71.4426 225.253 -71.4942C227.753 -71.7438 230.162 -72.0403 232.683 -72.3616C237.651 -72.9985 243.129 -73.7682 248.018 -74.4764C258.341 -75.9704 268.487 -77.5171 278.72 -79.0948C299.059 -82.2372 319.482 -85.4811 339.284 -88.6471C378.789 -94.97 417.584 -101.264 454.93 -107.319C486.667 -112.467 517.72 -117.571 548.701 -122.708C647.163 -139.049 741.302 -155.146 832.342 -170.873C866.935 -176.846 901.356 -182.82 936.204 -188.867C1019.51 -203.333 1103.26 -217.91 1184.6 -231.868C1249.51 -243.007 1317.48 -254.806 1389.27 -267.306C1539.3 -293.453 1706.62 -322.619 1898.65 -355.878C2029.88 -378.951 2171.56 -402.241 2327.72 -433.34C2343.3 -436.079 2358.85 -438.654 2377.89 -438.84C2383.56 -438.814 2389.45 -438.637 2396.98 -437.293C2404.26 -435.218 2414.88 -435.644 2429.33 -418.812C2436.74 -409.199 2438.38 -397.024 2437.73 -389.698C2437.15 -382.064 2435.34 -376.976 2433.69 -372.742C2430.24 -364.404 2426.61 -359.001 2423.04 -353.92C2415.89 -344.021 2408.67 -336.345 2401.12 -328.987C2303.46 -265.971 2230.18 -263.24 2148.7 -235.759C1859.66 -154.209 1600.74 -88.0803 1368.01 -31.798C1600.1 -87.5723 1778.5 -133.701 1926.93 -172.868C1955 -180.298 1981.56 -187.376 2007.53 -194.358C2058.24 -207.986 2105.41 -220.875 2149.44 -233.169C2240.57 -262.928 2309.47 -264.413 2403.59 -326.432C2411.3 -333.925 2418.63 -341.711 2425.99 -351.879C2429.66 -357.106 2433.42 -362.67 2437.04 -371.445C2438.78 -375.904 2440.7 -381.3 2441.32 -389.499C2442.02 -397.363 2440.24 -410.554 2432.2 -420.974C2422.7 -433.023 2413.42 -436.098 2407.24 -438.388C2400.77 -440.506 2395.92 -441.211 2391.43 -441.744C2363.74 -443.928 2346.28 -439.986 2327.08 -436.89C2160.71 -403.969 2019.99 -381.688 1897.81 -360.906C1544.71 -302.158 1350.03 -270.015 1138.38 -233.757C1061.46 -220.615 976.38 -205.927 885.008 -190.201C780.611 -172.235 666.585 -152.671 547.147 -132.585C457.059 -117.509 364.391 -101.908 268.099 -87.103C259.409 -85.7894 250.898 -84.5189 242.167 -83.2917C237.723 -82.6703 233.581 -82.1048 229.359 -81.5889C228.315 -81.4617 227.187 -81.3306 226.295 -81.2314C225.242 -81.1156 224.338 -81.0221 223.447 -80.9423C222.981 -80.9009 222.613 -80.8714 222.31 -80.8495C221.933 -80.8231 221.711 -80.8144 221.734 -80.8112C221.762 -80.8091 221.908 -80.8102 222.25 -80.7927C222.407 -80.7845 222.845 -80.7603 223.403 -80.694C223.69 -80.66 224.029 -80.614 224.44 -80.5435C224.9 -80.4552 225.124 -80.4465 226.501 -80.0829C227.713 -79.7368 229.327 -79.2431 231.624 -77.9587C232.197 -77.6338 232.811 -77.2536 233.462 -76.7976C234.204 -76.2492 234.462 -76.1493 236.129 -74.6157C238.862 -72.0991 241.925 -67.5175 242.891 -62.2897C244.005 -57.2408 242.662 -51.7068 241.969 -50.0299C241.112 -47.6599 240.128 -46.0196 239.286 -44.7828C237.592 -42.3521 236.289 -41.2661 235.835 -40.8318C234.626 -39.7531 233.952 -39.3245 233.672 -39.1263C233.36 -38.9155 233.225 -38.8354 233.197 -38.8186C286.249 -54.7634 367.16 -73.2988 438.322 -90.7C570.926 -122.578 710.884 -155.977 855.333 -191.355C855.431 -191.378 855.528 -191.401 855.625 -191.424C903.425 -203.125 951.728 -215.033 1000.47 -227.169C1100.08 -251.978 1201.4 -277.661 1303.19 -304.492C1505.18 -357.916 1709.4 -415.242 1908.03 -479.09C1927.04 -485.246 1948.39 -492.267 1971.54 -500.158C1987.3 -505.53 2004.1 -511.371 2021.67 -517.728C2060.7 -532.733 2105.96 -546.286 2150.63 -576.307C2154.83 -579.293 2159.06 -582.376 2163.29 -585.823C2165.42 -587.574 2167.53 -589.362 2169.74 -591.638C2170.86 -592.825 2171.97 -593.982 2173.26 -596.037C2173.88 -597.113 2174.68 -598.321 2175.1 -600.929C2175.29 -602.26 2175.26 -604.102 2174.48 -605.986C2173.73 -607.869 2172.38 -609.299 2171.24 -610.13C2168.62 -611.965 2166.68 -612.121 2165.32 -612.322C2163.94 -612.473 2162.85 -612.454 2161.84 -612.413C2159.84 -612.317 2158.15 -612.085 2156.52 -611.835C2153.26 -611.323 2150.16 -610.67 2147.1 -609.985C2141 -608.611 2135 -607.069 2128.99 -605.482C2116.88 -602.27 2104.82 -598.864 2092.42 -595.318C1964.93 -557.519 1811.28 -525.565 1638.69 -492.916C1462.54 -459.896 1265.97 -426.257 1055.15 -391.769C931.57 -371.608 802.901 -351.358 656.093 -328.996C643.221 -327.04 629.697 -324.989 616.777 -323.044C584.248 -318.14 550.785 -313.141 516.518 -308.155C493.328 -304.785 470.141 -301.462 445.706 -298.158C433.642 -296.534 421.338 -294.922 409.151 -293.492C402.86 -292.757 396.719 -292.078 390.575 -291.539C387.626 -291.285 384.418 -291.041 381.611 -290.947C380.323 -290.902 378.762 -290.897 378.01 -290.966C377.808 -290.982 377.696 -291.002 377.767 -290.994C377.808 -290.988 377.938 -290.968 378.175 -290.905C378.302 -290.871 378.413 -290.841 378.645 -290.761C378.913 -290.667 379.254 -290.533 379.677 -290.315C379.889 -290.206 380.121 -290.075 380.372 -289.915C380.498 -289.835 380.628 -289.748 380.763 -289.652C380.88 -289.57 381.14 -289.375 381.34 -289.206C382.183 -288.506 383.166 -287.404 383.853 -285.959C384.613 -284.44 384.934 -282.373 384.782 -280.91C384.629 -279.351 384.326 -278.631 384.038 -277.921C383.893 -277.588 383.753 -277.317 383.626 -277.09C383.511 -276.888 383.422 -276.746 383.334 -276.612C383.162 -276.349 383.028 -276.176 382.932 -276.055C382.756 -275.836 382.707 -275.792 382.726 -275.808C447.292 -302.04 536.827 -328.453 625.401 -357.437C739.821 -394.113 867.024 -434.639 1009.47 -480.647C1164.09 -530.742 1338.56 -587.005 1522.12 -650.525C1615.58 -685.448 1711.52 -710.336 1805.9 -769.212C1809.01 -771.883 1811.47 -773.538 1815.86 -778.542C1816.47 -779.315 1817.19 -780.121 1818.28 -782.173C1818.79 -783.316 1819.64 -784.522 1820.05 -788.3C1820.2 -790.02 1820.04 -793.025 1818.68 -795.879C1817.3 -798.891 1814.85 -801.154 1813.01 -802.26C1809.22 -804.449 1807.49 -804.342 1806.09 -804.566C1804.84 -804.682 1803.99 -804.654 1803.28 -804.62C1801.93 -804.545 1801.03 -804.399 1800.27 -804.274C1797.3 -803.741 1795.53 -803.214 1793.62 -802.71C1755.89 -792.765 1716.64 -784.146 1677.49 -775.064C1643.43 -767.259 1609.57 -759.575 1575.04 -751.767C1436.43 -720.456 1296.51 -689.226 1158.02 -658.706C1040.26 -632.803 924.571 -607.498 810.756 -583.763C735.091 -569.04 654.381 -548.604 586.852 -545.478C584.581 -545.748 582.311 -546.128 581.058 -546.469C580.765 -546.547 580.546 -546.62 580.533 -546.628C580.529 -546.622 580.698 -546.602 581.455 -546.163C582.152 -545.645 583.898 -544.961 586.049 -541.133C587.063 -539.258 587.73 -536.512 587.635 -534.239C587.566 -531.94 587 -530.295 586.549 -529.239C589.122 -535.202 604.735 -546.917 617.641 -554.764C683.202 -592.59 758.673 -620.413 830.401 -650.315C1024.36 -728.458 1216.59 -802.614 1408.57 -876.909C1408.67 -876.945 1408.76 -876.982 1408.85 -877.018C1417.77 -880.464 1426.57 -883.779 1434.54 -886.703C1475.83 -901.868 1505.88 -910.849 1505.18 -907.486C1504.84 -904.431 1476.98 -891.196 1438.88 -875.561C1428.95 -871.483 1417.93 -867.093 1406.6 -862.718C1216.55 -789.158 1026.49 -715.819 835.129 -638.717C763.724 -608.998 687.289 -580.559 624.27 -544.14C617.746 -540.086 611.489 -535.884 606.258 -531.75C603.659 -529.697 601.325 -527.64 599.707 -525.963C598.072 -524.363 597.325 -522.829 598.042 -524.266C600.065 -527.813 601.61 -539.371 597.163 -546.903C593.097 -554.171 589.568 -555.72 587.88 -556.911C586.086 -557.96 585.304 -558.203 584.817 -558.394C584.348 -558.562 584.227 -558.583 584.246 -558.579C584.44 -558.504 586.382 -558.137 588.329 -557.913C648.696 -560.916 733.616 -581.311 808.188 -596.017C923.148 -619.991 1040.13 -645.586 1159.2 -671.785C1295.64 -701.86 1434.38 -732.824 1572.27 -763.973C1606.5 -771.713 1640.11 -779.341 1673.92 -787.089C1713.16 -796.186 1753.02 -804.954 1790.33 -814.785C1792.37 -815.319 1794.17 -815.89 1798.17 -816.614C1799.21 -816.785 1800.49 -816.999 1802.62 -817.121C1803.75 -817.173 1805.13 -817.225 1807.28 -817.028C1809.68 -816.631 1812.71 -816.865 1819.61 -812.897C1822.95 -810.888 1827.47 -806.753 1830 -801.224C1832.51 -795.985 1832.81 -790.47 1832.53 -787.351C1831.79 -780.486 1830.28 -778.414 1829.41 -776.452C1827.55 -772.959 1826.45 -771.78 1825.57 -770.632C1822.18 -766.638 1820.61 -765.439 1818.78 -763.748C1817.04 -762.192 1815.44 -760.854 1813.86 -759.551C1713.77 -697.071 1620.74 -674.229 1526.25 -638.709C1339.65 -574.144 1162.23 -516.965 1005.37 -466.158C866.536 -421.331 741.773 -381.569 629.287 -345.504C542.456 -317.593 446.062 -286.711 391.777 -267.082C391.952 -267.276 392.227 -267.524 393.025 -268.553C393.42 -269.075 393.919 -269.767 394.517 -270.809C395.23 -272.076 396.136 -273.864 396.796 -276.61C397.495 -279.294 397.832 -284.401 396.165 -289.019C394.61 -293.479 392.086 -296.507 389.759 -298.548C389.198 -299.041 388.553 -299.539 388.131 -299.84C387.761 -300.105 387.403 -300.345 387.058 -300.563C386.367 -300.999 385.729 -301.348 385.147 -301.638C384.015 -302.203 382.924 -302.595 382.376 -302.77C381.317 -303.111 380.583 -303.261 380.057 -303.357C379.761 -303.41 379.675 -303.421 379.527 -303.442C379.394 -303.46 379.285 -303.473 379.196 -303.483C378.83 -303.519 378.842 -303.507 378.906 -303.503C379.126 -303.489 379.571 -303.479 380.253 -303.49C380.792 -303.497 381.593 -303.525 382.317 -303.559C385.42 -303.709 388.694 -303.983 392.242 -304.317C399.107 -304.97 406.325 -305.806 413.339 -306.657C427.409 -308.373 441.426 -310.255 455.265 -312.157C483.041 -315.986 510.009 -319.905 536.207 -323.755C563.13 -327.717 589.285 -331.632 614.816 -335.483C637.063 -338.836 659.624 -342.269 680.804 -345.503C825.935 -367.711 946.595 -386.735 1063.81 -405.881C1271.14 -439.835 1463.86 -472.863 1636.4 -505.222C1809.2 -537.922 1962.27 -569.813 2089.02 -607.419C2101.47 -610.98 2113.58 -614.401 2125.84 -617.655C2131.94 -619.265 2138.03 -620.833 2144.41 -622.27C2147.63 -622.988 2150.9 -623.685 2154.65 -624.273C2156.55 -624.559 2158.55 -624.847 2161.34 -624.98C2162.76 -625.033 2164.37 -625.079 2166.77 -624.816C2169.12 -624.427 2172.93 -624.285 2178.72 -620.236C2181.25 -618.403 2184.38 -615.108 2186.13 -610.729C2187.93 -606.351 2187.97 -602.121 2187.56 -599.207C2186.62 -593.498 2185.02 -591.327 2183.97 -589.43C2181.72 -585.901 2180.22 -584.432 2178.75 -582.862C2175.9 -579.939 2173.55 -577.976 2171.2 -576.041C2166.56 -572.271 2162.18 -569.087 2157.85 -566.004C2119.17 -539.482 2082.1 -527.509 2048.5 -514.201C2022.37 -504.392 1998.17 -495.944 1975.53 -488.225C1959.41 -482.735 1944.35 -477.727 1930.19 -473.09C1726.19 -406.815 1515.62 -347.655 1306.31 -292.249C1214.83 -268.126 1123.45 -244.871 1033.12 -222.279C984.948 -210.234 937.002 -198.371 889.417 -186.685C889.32 -186.66 889.223 -186.635 889.126 -186.61C734.863 -148.704 583.87 -112.673 441.181 -78.3952C371.27 -61.5214 285.425 -40.8633 239.847 -28.1129C239.971 -28.1902 240.292 -28.3828 240.961 -28.8435C241.289 -29.0703 241.887 -29.4918 242.636 -30.0856C243.017 -30.3882 243.455 -30.7474 243.964 -31.1957C244.219 -31.4201 244.492 -31.667 244.785 -31.9426C245.088 -32.2292 245.344 -32.4689 245.919 -33.058C247.872 -35.2622 251.276 -38.3557 254.243 -46.9913C255.764 -51.0173 257.116 -61.4508 253.863 -69.8079C251.126 -78.2281 243.927 -84.907 241.747 -86.3522C237.061 -89.8257 233.664 -90.9975 231.231 -91.821C230.006 -92.213 228.996 -92.4669 228.133 -92.658C227.508 -92.7947 227.201 -92.8517 226.792 -92.9259C223.751 -93.4376 222.704 -93.3694 222.278 -93.4034C221.753 -93.418 221.477 -93.4111 221.427 -93.4123C221.256 -93.4105 221.541 -93.4255 221.79 -93.4476C222.053 -93.4691 222.547 -93.512 222.954 -93.5519C224.686 -93.7188 227.15 -94.007 229.217 -94.2676C233.764 -94.8379 238.58 -95.5043 243.291 -96.1741C349.663 -112.047 449.479 -129.143 545.172 -145.137C642.538 -161.55 735.432 -177.476 824.611 -192.807C919.488 -209.116 1010.61 -224.83 1100.73 -240.213C1326.42 -278.845 1533.31 -312.965 1895.77 -373.255C2019.1 -394.224 2159.59 -416.49 2324.85 -449.202C2344.1 -452.316 2361.43 -456.225 2390.52 -454.413ZM1194.31 -847.173C1064.3 -797.987 958.758 -756.628 880.503 -725.113C947.143 -751.458 1013.78 -777.406 1080.48 -803.242C1118.44 -817.945 1156.35 -832.568 1194.31 -847.173ZM479.262 -123.675C501.261 -128.974 523.174 -134.246 545.322 -139.575C508.018 -130.894 470.187 -122.104 433.044 -113.418C409.378 -107.883 385.578 -102.291 361.89 -96.6729C314.532 -84.8616 267.008 -75.9269 220.178 -59.778C245.444 -53.6691 275.151 -64.2936 302.721 -67.0152C274.959 -64.2213 245.064 -54.0175 220.252 -59.6591C292.691 -82.5126 364.48 -96.2933 433.147 -112.973C448.425 -116.526 464.14 -120.171 479.262 -123.675ZM2379.09 -426.316C2360.98 -426.292 2345.45 -423.75 2329.96 -421.021C2172.26 -389.63 2031.2 -366.439 1900.71 -343.429C1732.95 -314.286 1583.68 -288.214 1443.12 -263.69C1368.41 -250.666 1295.87 -238.064 1224.13 -225.742C1194.36 -220.63 1164.64 -215.496 1134.68 -210.305C1309.61 -238.127 1470.16 -263.808 1601.88 -285.022C1715.03 -303.247 1814.01 -319.239 1902.33 -333.644C2079.91 -362.784 2213.8 -384.57 2332.35 -407.814C2344.38 -409.921 2356.33 -411.665 2368.54 -412.399C2374.65 -412.74 2380.81 -412.859 2387.26 -412.209C2393.6 -411.163 2400.96 -411.346 2408.31 -403.015C2412.91 -396.721 2411.61 -389.794 2410.28 -385.464C2403.85 -368.586 2393.13 -358.632 2382.67 -348.077C2346.29 -317.83 2304.3 -311.938 2264.41 -297.996C2224.73 -285.326 2183.61 -273.03 2141.59 -260.688C2136.62 -259.228 2131.53 -257.739 2126.33 -256.221C2060.36 -236.974 1989.15 -216.83 1921.06 -197.965C1852.66 -179.013 1783.37 -160.216 1714.92 -142.028C1646.04 -123.725 1577.62 -105.922 1509.5 -88.5759C1445.36 -72.2439 1381.37 -56.3 1319.35 -41.1851C1315.8 -40.3195 1312.25 -39.4546 1308.7 -38.5917C1261.8 -27.19 1215.77 -16.201 1171.86 -5.88843C1154.33 -1.77112 1137.29 2.2041 1120.52 6.09332C1060.72 19.9623 1010.99 31.252 966.834 41.3458C911.658 53.9531 855.03 66.5779 799.006 78.8121C742.801 91.0869 687.016 103.019 631.149 114.793C575.35 126.554 519.996 138.048 464.335 149.548C446.491 153.236 427.628 157.129 409.815 160.807C401.773 162.468 393.321 164.214 385.239 165.885C493.942 144.238 606.995 121.905 723.647 97.9966C864.584 69.1082 1013.14 37.7603 1173.47 1.08368C1204.93 -6.11713 1236.9 -13.5403 1269.29 -21.1601C1526.41 -81.9229 1813.46 -154.332 2145.27 -247.795C2225.17 -274.348 2303.48 -280.586 2392.42 -337.989C2399.56 -344.937 2406.38 -352.235 2412.85 -361.191C2416.07 -365.757 2419.26 -370.593 2422.07 -377.406C2423.42 -380.85 2424.81 -384.878 2425.24 -390.531C2425.71 -395.984 2424.52 -404.547 2419.32 -411.291C2409.65 -422.766 2401.42 -423.235 2395.44 -424.842C2389.27 -426.024 2384.09 -426.253 2379.09 -426.316ZM1100.77 58.1086C1057.58 67.3556 995.704 80.5679 917.054 96.4515C909.972 97.8799 902.788 99.3225 895.507 100.778C874.517 104.973 852.324 109.354 828.862 113.905C829.41 113.803 829.975 113.694 830.524 113.592C860.286 108.022 888.542 102.62 917.17 97.0348C944.113 91.7786 971.291 86.3727 999.345 80.6951C1101.91 59.9204 1201.4 38.644 1301.74 16.5415C1402.48 -5.66058 1502.8 -28.4588 1603.17 -51.726C1703.78 -75.05 1804.14 -98.7993 1904.16 -122.737C1942.22 -131.844 1980.12 -140.951 2017.72 -149.987C2080.16 -164.96 2141.88 -179.937 2204.55 -194.523C2214.16 -196.742 2223.87 -198.962 2233.84 -201.116C2238.69 -202.158 2243.79 -203.233 2248.94 -204.184C2251.43 -204.635 2254.19 -205.133 2257.41 -205.499C2258.27 -205.593 2259.05 -205.672 2260.28 -205.732C2260.89 -205.757 2261.29 -205.777 2262.31 -205.758C2262.76 -205.747 2263.24 -205.724 2263.77 -205.678C2264.04 -205.654 2264.31 -205.626 2264.61 -205.587C2265.06 -205.529 2265.54 -205.453 2266.07 -205.343C2266.6 -205.233 2267.19 -205.089 2267.84 -204.884C2268.17 -204.781 2268.51 -204.662 2268.88 -204.523C2269.06 -204.453 2269.25 -204.377 2269.44 -204.296C2269.67 -204.197 2270.04 -204.032 2270.36 -203.873C2272.96 -202.464 2276.62 -200.315 2278.79 -193.999C2279.68 -191.155 2279.63 -188.354 2279.29 -186.403C2279.02 -184.832 2278.6 -183.619 2278.19 -182.646C2277.79 -181.693 2277.33 -180.87 2277.03 -180.379C2276.75 -179.914 2276.49 -179.524 2276.24 -179.182C2274.32 -176.635 2273.8 -176.363 2273.18 -175.703C2262.45 -165.513 2252.5 -157.634 2241.53 -149.289C2252.47 -157.525 2262.45 -165.335 2273.32 -175.565C2273.76 -176.005 2274.3 -176.497 2275.27 -177.621C2275.77 -178.222 2276.49 -179.03 2277.49 -180.747C2278.08 -181.826 2278.81 -183.264 2279.33 -185.525C2279.92 -187.681 2280.09 -192.971 2277.71 -197.082C2275.62 -200.853 2272.92 -202.737 2270.82 -203.868C2270.56 -204.008 2270.3 -204.135 2270.05 -204.252C2269.81 -204.366 2269.53 -204.485 2269.42 -204.532C2269.12 -204.656 2268.84 -204.766 2268.56 -204.864C2268.01 -205.06 2267.51 -205.211 2267.05 -205.332C2266.12 -205.575 2265.34 -205.707 2264.64 -205.798C2264.17 -205.859 2263.76 -205.897 2263.36 -205.924C2262.6 -205.979 2261.81 -205.987 2261.31 -205.981C2260.84 -205.976 2260.39 -205.96 2259.95 -205.937C2256.74 -205.743 2254.61 -205.379 2252.51 -205.058C2248.29 -204.379 2244.28 -203.59 2240.48 -202.826C2232.67 -201.246 2225.07 -199.582 2217.35 -197.868C2202.05 -194.463 2186.49 -190.872 2171 -187.276C2140 -180.07 2108.24 -172.568 2076.03 -164.952C2056.5 -160.329 2037.64 -155.86 2017.46 -151.072C1973.25 -140.588 1926.62 -129.519 1879.27 -118.355C1852.72 -112.092 1821.24 -104.715 1783.96 -96.0239C1636.54 -61.8606 1405.59 -7.62006 1100.77 58.1086ZM1458.39 116.11C1435.55 123.552 1413.07 130.864 1390.61 138.161C1326.94 158.839 1264.88 178.919 1204 198.592C1161.23 212.413 1118.98 226.051 1077.34 239.495C1059.73 245.179 1042.21 250.837 1024.82 256.456C995.66 265.872 966.728 275.222 938.079 284.484C1139.6 220.008 1336.47 156.99 1541.77 90.9655C1544.49 90.0914 1547.21 89.2122 1549.94 88.3347C1518.47 97.8901 1488.07 107.111 1458.39 116.11Z" fill="#F4F4FF"/>
</svg>

