<svg width="140" height="24" viewBox="0 0 140 24" fill="none" xmlns="http://www.w3.org/2000/svg">
<path d="M65.4646 13.968C65.4646 14.54 65.4339 15.145 65.3725 15.783H51.9223C52.0246 17.565 52.5876 18.962 53.6112 19.974C54.6553 20.964 55.9143 21.459 57.3883 21.459C58.5962 21.459 59.5993 21.162 60.3977 20.568C61.2166 19.952 61.7898 19.138 62.1174 18.126H65.1268C64.6764 19.864 63.7756 21.283 62.4245 22.383C61.0733 23.461 59.3946 24 57.3883 24C55.7915 24 54.3585 23.615 53.0892 22.845C51.8404 22.075 50.8577 20.986 50.1412 19.578C49.4247 18.148 49.0664 16.498 49.0664 14.628C49.0664 12.758 49.4144 11.119 50.1105 9.71096C50.8065 8.30296 51.779 7.22496 53.0278 6.47696C54.297 5.70696 55.7506 5.32196 57.3883 5.32196C58.9852 5.32196 60.3977 5.69596 61.6261 6.44396C62.8544 7.19196 63.7961 8.22596 64.4512 9.54596C65.1268 10.844 65.4646 12.318 65.4646 13.968ZM62.578 13.341C62.578 12.197 62.3426 11.218 61.8717 10.404C61.4009 9.56796 60.756 8.94096 59.9371 8.52296C59.1387 8.08296 58.2482 7.86296 57.2655 7.86296C55.8529 7.86296 54.6451 8.34696 53.6419 9.31496C52.6593 10.283 52.0963 11.625 51.953 13.341H62.578Z" fill="#1E145B"/>
<path d="M39.1609 20.931L44.3813 5.61896H47.36L40.7577 23.703H37.5027L30.9004 5.61896H33.9098L39.1609 20.931Z" fill="#1E145B"/>
<path d="M20.5943 24C19.0179 24 17.5849 23.615 16.2951 22.845C15.0259 22.075 14.0227 20.986 13.2857 19.578C12.5692 18.148 12.2109 16.498 12.2109 14.628C12.2109 12.78 12.5794 11.152 13.3164 9.74396C14.0739 8.31396 15.0975 7.22496 16.3873 6.47696C17.677 5.70696 19.1203 5.32196 20.7171 5.32196C22.3139 5.32196 23.7572 5.70696 25.047 6.47696C26.3367 7.22496 27.3501 8.30296 28.0871 9.71096C28.8446 11.119 29.2233 12.758 29.2233 14.628C29.2233 16.498 28.8343 18.148 28.0564 19.578C27.2989 20.986 26.2651 22.075 24.9548 22.845C23.6446 23.615 22.1911 24 20.5943 24ZM20.5943 21.36C21.5974 21.36 22.5391 21.107 23.4194 20.601C24.2997 20.095 25.006 19.336 25.5383 18.324C26.091 17.312 26.3674 16.08 26.3674 14.628C26.3674 13.176 26.1013 11.944 25.569 10.932C25.0367 9.91996 24.3407 9.17196 23.4809 8.68796C22.621 8.18196 21.6895 7.92896 20.6864 7.92896C19.6628 7.92896 18.7211 8.18196 17.8612 8.68796C17.0219 9.17196 16.3463 9.91996 15.8345 10.932C15.3227 11.944 15.0668 13.176 15.0668 14.628C15.0668 16.102 15.3125 17.345 15.8038 18.357C16.3156 19.369 16.9912 20.128 17.8305 20.634C18.6699 21.118 19.5911 21.36 20.5943 21.36Z" fill="#1E145B"/>
<path d="M2.79445 21.261H10.2873V23.703H0V0.701965H2.79445V21.261Z" fill="#1E145B"/>
<path d="M128.835 9H126.043V6H128.835V3H131.626V6H140.001V9H131.626V21H137.21V24H126.043V21H128.835V9ZM131.626 0H140.001V3H131.626V0Z" fill="#1E145B"/>
<path d="M107.449 5.99994H110.241V8.99994H113.033V11.9999H110.241V23.9999H107.449V5.99994ZM113.033 5.99994H118.616V8.99994H113.033V5.99994ZM118.616 8.99994H121.407V23.9999H118.616V8.99994Z" fill="#1E145B"/>
<path d="M91.6491 5.99994H100.024V8.99994H91.6491V5.99994ZM100.024 8.99994H102.816V20.9999H100.024V8.99994ZM88.8574 8.99994H91.6491V20.9999H88.8574V8.99994ZM91.6491 20.9999H100.024V23.9999H91.6491V20.9999Z" fill="#1E145B"/>
<path d="M70.2637 3H73.0553V21H70.2637V3ZM73.0553 21H81.4303V24H73.0553V21ZM81.4303 18H84.222V21H81.4303V18ZM73.0553 0H81.4303V3H73.0553V0ZM81.4303 3H84.222V6H81.4303V3Z" fill="#1E145B"/>
</svg>
