<svg width="1536" height="262" viewBox="0 0 1536 262" fill="none" xmlns="http://www.w3.org/2000/svg">
<path d="M718.246 151.916C718.246 158.137 717.909 164.716 717.235 171.654H569.667C570.79 191.034 576.967 206.226 588.197 217.232C599.652 227.998 613.466 233.381 629.637 233.381C642.889 233.381 653.895 230.151 662.655 223.691C671.639 216.992 677.928 208.14 681.522 197.135H714.539C709.598 216.035 699.715 231.467 684.891 243.43C670.067 255.153 651.649 261.014 629.637 261.014C612.118 261.014 596.395 256.827 582.47 248.454C568.768 240.08 557.987 228.237 550.126 212.925C542.265 197.374 538.334 179.43 538.334 159.094C538.334 138.758 542.152 120.933 549.789 105.621C557.426 90.3095 568.095 78.5862 581.796 70.4517C595.722 62.078 611.669 57.8911 629.637 57.8911C647.157 57.8911 662.655 61.9584 676.131 70.0929C689.608 78.2274 699.94 89.4721 707.127 103.827C714.54 117.943 718.246 133.973 718.246 151.916ZM686.576 145.098C686.576 132.657 683.993 122.01 678.827 113.158C673.661 104.066 666.586 97.2477 657.601 92.702C648.841 87.917 639.071 85.5245 628.29 85.5245C612.792 85.5245 599.54 90.788 588.534 101.315C577.753 111.842 571.576 126.436 570.004 145.098H686.576Z" fill="#BBBBFB"/>
<path d="M429.663 227.639L486.938 61.1211H519.619L447.182 257.785H411.47L339.033 61.1211H372.051L429.663 227.639Z" fill="#BBBBFB"/>
<path d="M225.95 261.014C208.655 261.014 192.932 256.827 178.782 248.454C164.856 240.08 153.851 228.237 145.765 212.925C137.903 197.374 133.973 179.43 133.973 159.094C133.973 138.997 138.016 121.292 146.102 105.98C154.412 90.4291 165.642 78.5862 179.793 70.4517C193.943 62.078 209.778 57.8911 227.298 57.8911C244.817 57.8911 260.652 62.078 274.802 70.4517C288.953 78.5862 300.071 90.3095 308.157 105.621C316.467 120.933 320.622 138.758 320.622 159.094C320.622 179.43 316.355 197.374 307.82 212.925C299.509 228.237 288.166 240.08 273.792 248.454C259.417 256.827 243.469 261.014 225.95 261.014ZM225.95 232.304C236.956 232.304 247.288 229.553 256.946 224.05C266.604 218.548 274.353 210.293 280.193 199.288C286.257 188.282 289.29 174.884 289.29 159.094C289.29 143.303 286.37 129.905 280.53 118.9C274.69 107.894 267.053 99.7599 257.62 94.4964C248.186 88.9936 237.966 86.2422 226.961 86.2422C215.73 86.2422 205.398 88.9936 195.965 94.4964C186.756 99.7599 179.344 107.894 173.728 118.9C168.113 129.905 165.306 143.303 165.306 159.094C165.306 175.124 168.001 188.641 173.391 199.647C179.007 210.652 186.419 218.906 195.628 224.409C204.837 229.673 214.944 232.304 225.95 232.304Z" fill="#BBBBFB"/>
<path d="M30.661 231.228H112.868V257.785H0.00195312V7.64868H30.661V231.228Z" fill="#BBBBFB"/>
<path d="M1413.49 97.8896H1382.86V65.2646H1413.49V32.6397H1444.12V65.2646H1536V97.8896H1444.12V228.39H1505.37V261.015H1382.86V228.39H1413.49V97.8896ZM1444.12 0.0146484H1536V32.6397H1444.12V0.0146484Z" fill="#BBBBFB"/>
<path d="M1178.87 65.2639H1209.5V97.8889H1240.13V130.514H1209.5V261.014H1178.87V65.2639ZM1240.13 65.2639H1301.38V97.8889H1240.13V65.2639ZM1301.38 97.8889H1332.01V261.014H1301.38V97.8889Z" fill="#BBBBFB"/>
<path d="M1005.51 65.2639H1097.39V97.8889H1005.51V65.2639ZM1097.39 97.8889H1128.02V228.389H1097.39V97.8889ZM974.877 97.8889H1005.51V228.389H974.877V97.8889ZM1005.51 228.389H1097.39V261.014H1005.51V228.389Z" fill="#BBBBFB"/>
<path d="M770.887 32.6394H801.515V228.389H770.887V32.6394ZM801.515 228.389H893.401V261.014H801.515V228.389ZM893.401 195.764H924.029V228.389H893.401V195.764ZM801.515 0.0144043H893.401V32.6394H801.515V0.0144043ZM893.401 32.6394H924.029V65.2644H893.401V32.6394Z" fill="#BBBBFB"/>
</svg>
